%TF.GenerationSoftware,KiCad,Pcbnew,7.0.5*%
%TF.CreationDate,2023-11-28T19:27:54-08:00*%
%TF.ProjectId,LT3081LEDDummyDriver,4c543330-3831-44c4-9544-44756d6d7944,rev?*%
%TF.SameCoordinates,Original*%
%TF.FileFunction,Legend,Top*%
%TF.FilePolarity,Positive*%
%FSLAX46Y46*%
G04 Gerber Fmt 4.6, Leading zero omitted, Abs format (unit mm)*
G04 Created by KiCad (PCBNEW 7.0.5) date 2023-11-28 19:27:54*
%MOMM*%
%LPD*%
G01*
G04 APERTURE LIST*
%ADD10C,0.150000*%
%ADD11C,0.120000*%
G04 APERTURE END LIST*
D10*
X140425469Y-35719819D02*
X139949279Y-35719819D01*
X139949279Y-35719819D02*
X139901660Y-36196009D01*
X139901660Y-36196009D02*
X139949279Y-36148390D01*
X139949279Y-36148390D02*
X140044517Y-36100771D01*
X140044517Y-36100771D02*
X140282612Y-36100771D01*
X140282612Y-36100771D02*
X140377850Y-36148390D01*
X140377850Y-36148390D02*
X140425469Y-36196009D01*
X140425469Y-36196009D02*
X140473088Y-36291247D01*
X140473088Y-36291247D02*
X140473088Y-36529342D01*
X140473088Y-36529342D02*
X140425469Y-36624580D01*
X140425469Y-36624580D02*
X140377850Y-36672200D01*
X140377850Y-36672200D02*
X140282612Y-36719819D01*
X140282612Y-36719819D02*
X140044517Y-36719819D01*
X140044517Y-36719819D02*
X139949279Y-36672200D01*
X139949279Y-36672200D02*
X139901660Y-36624580D01*
X140758803Y-35719819D02*
X141092136Y-36719819D01*
X141092136Y-36719819D02*
X141425469Y-35719819D01*
X141711184Y-36830295D02*
X141711184Y-36030295D01*
X142092136Y-36830295D02*
X142092136Y-36030295D01*
X142092136Y-36030295D02*
X142549279Y-36830295D01*
X142549279Y-36830295D02*
X142549279Y-36030295D01*
X122401660Y-36922200D02*
X122544517Y-36969819D01*
X122544517Y-36969819D02*
X122782612Y-36969819D01*
X122782612Y-36969819D02*
X122877850Y-36922200D01*
X122877850Y-36922200D02*
X122925469Y-36874580D01*
X122925469Y-36874580D02*
X122973088Y-36779342D01*
X122973088Y-36779342D02*
X122973088Y-36684104D01*
X122973088Y-36684104D02*
X122925469Y-36588866D01*
X122925469Y-36588866D02*
X122877850Y-36541247D01*
X122877850Y-36541247D02*
X122782612Y-36493628D01*
X122782612Y-36493628D02*
X122592136Y-36446009D01*
X122592136Y-36446009D02*
X122496898Y-36398390D01*
X122496898Y-36398390D02*
X122449279Y-36350771D01*
X122449279Y-36350771D02*
X122401660Y-36255533D01*
X122401660Y-36255533D02*
X122401660Y-36160295D01*
X122401660Y-36160295D02*
X122449279Y-36065057D01*
X122449279Y-36065057D02*
X122496898Y-36017438D01*
X122496898Y-36017438D02*
X122592136Y-35969819D01*
X122592136Y-35969819D02*
X122830231Y-35969819D01*
X122830231Y-35969819D02*
X122973088Y-36017438D01*
X123973088Y-36874580D02*
X123925469Y-36922200D01*
X123925469Y-36922200D02*
X123782612Y-36969819D01*
X123782612Y-36969819D02*
X123687374Y-36969819D01*
X123687374Y-36969819D02*
X123544517Y-36922200D01*
X123544517Y-36922200D02*
X123449279Y-36826961D01*
X123449279Y-36826961D02*
X123401660Y-36731723D01*
X123401660Y-36731723D02*
X123354041Y-36541247D01*
X123354041Y-36541247D02*
X123354041Y-36398390D01*
X123354041Y-36398390D02*
X123401660Y-36207914D01*
X123401660Y-36207914D02*
X123449279Y-36112676D01*
X123449279Y-36112676D02*
X123544517Y-36017438D01*
X123544517Y-36017438D02*
X123687374Y-35969819D01*
X123687374Y-35969819D02*
X123782612Y-35969819D01*
X123782612Y-35969819D02*
X123925469Y-36017438D01*
X123925469Y-36017438D02*
X123973088Y-36065057D01*
X124877850Y-36969819D02*
X124401660Y-36969819D01*
X124401660Y-36969819D02*
X124401660Y-35969819D01*
X118806422Y-35969819D02*
X119377850Y-35969819D01*
X119092136Y-36969819D02*
X119092136Y-35969819D01*
X120282612Y-36969819D02*
X119949279Y-36493628D01*
X119711184Y-36969819D02*
X119711184Y-35969819D01*
X119711184Y-35969819D02*
X120092136Y-35969819D01*
X120092136Y-35969819D02*
X120187374Y-36017438D01*
X120187374Y-36017438D02*
X120234993Y-36065057D01*
X120234993Y-36065057D02*
X120282612Y-36160295D01*
X120282612Y-36160295D02*
X120282612Y-36303152D01*
X120282612Y-36303152D02*
X120234993Y-36398390D01*
X120234993Y-36398390D02*
X120187374Y-36446009D01*
X120187374Y-36446009D02*
X120092136Y-36493628D01*
X120092136Y-36493628D02*
X119711184Y-36493628D01*
X120711184Y-36969819D02*
X120711184Y-35969819D01*
X121711183Y-36017438D02*
X121615945Y-35969819D01*
X121615945Y-35969819D02*
X121473088Y-35969819D01*
X121473088Y-35969819D02*
X121330231Y-36017438D01*
X121330231Y-36017438D02*
X121234993Y-36112676D01*
X121234993Y-36112676D02*
X121187374Y-36207914D01*
X121187374Y-36207914D02*
X121139755Y-36398390D01*
X121139755Y-36398390D02*
X121139755Y-36541247D01*
X121139755Y-36541247D02*
X121187374Y-36731723D01*
X121187374Y-36731723D02*
X121234993Y-36826961D01*
X121234993Y-36826961D02*
X121330231Y-36922200D01*
X121330231Y-36922200D02*
X121473088Y-36969819D01*
X121473088Y-36969819D02*
X121568326Y-36969819D01*
X121568326Y-36969819D02*
X121711183Y-36922200D01*
X121711183Y-36922200D02*
X121758802Y-36874580D01*
X121758802Y-36874580D02*
X121758802Y-36541247D01*
X121758802Y-36541247D02*
X121568326Y-36541247D01*
X125401660Y-36922200D02*
X125544517Y-36969819D01*
X125544517Y-36969819D02*
X125782612Y-36969819D01*
X125782612Y-36969819D02*
X125877850Y-36922200D01*
X125877850Y-36922200D02*
X125925469Y-36874580D01*
X125925469Y-36874580D02*
X125973088Y-36779342D01*
X125973088Y-36779342D02*
X125973088Y-36684104D01*
X125973088Y-36684104D02*
X125925469Y-36588866D01*
X125925469Y-36588866D02*
X125877850Y-36541247D01*
X125877850Y-36541247D02*
X125782612Y-36493628D01*
X125782612Y-36493628D02*
X125592136Y-36446009D01*
X125592136Y-36446009D02*
X125496898Y-36398390D01*
X125496898Y-36398390D02*
X125449279Y-36350771D01*
X125449279Y-36350771D02*
X125401660Y-36255533D01*
X125401660Y-36255533D02*
X125401660Y-36160295D01*
X125401660Y-36160295D02*
X125449279Y-36065057D01*
X125449279Y-36065057D02*
X125496898Y-36017438D01*
X125496898Y-36017438D02*
X125592136Y-35969819D01*
X125592136Y-35969819D02*
X125830231Y-35969819D01*
X125830231Y-35969819D02*
X125973088Y-36017438D01*
X126401660Y-36969819D02*
X126401660Y-35969819D01*
X126401660Y-35969819D02*
X126639755Y-35969819D01*
X126639755Y-35969819D02*
X126782612Y-36017438D01*
X126782612Y-36017438D02*
X126877850Y-36112676D01*
X126877850Y-36112676D02*
X126925469Y-36207914D01*
X126925469Y-36207914D02*
X126973088Y-36398390D01*
X126973088Y-36398390D02*
X126973088Y-36541247D01*
X126973088Y-36541247D02*
X126925469Y-36731723D01*
X126925469Y-36731723D02*
X126877850Y-36826961D01*
X126877850Y-36826961D02*
X126782612Y-36922200D01*
X126782612Y-36922200D02*
X126639755Y-36969819D01*
X126639755Y-36969819D02*
X126401660Y-36969819D01*
X127354041Y-36684104D02*
X127830231Y-36684104D01*
X127258803Y-36969819D02*
X127592136Y-35969819D01*
X127592136Y-35969819D02*
X127925469Y-36969819D01*
X128556422Y-35969819D02*
X128889755Y-36969819D01*
X128889755Y-36969819D02*
X129223088Y-35969819D01*
X129508803Y-37080295D02*
X129508803Y-36280295D01*
X129851659Y-36356485D02*
X129889755Y-36318390D01*
X129889755Y-36318390D02*
X129965945Y-36280295D01*
X129965945Y-36280295D02*
X130156421Y-36280295D01*
X130156421Y-36280295D02*
X130232612Y-36318390D01*
X130232612Y-36318390D02*
X130270707Y-36356485D01*
X130270707Y-36356485D02*
X130308802Y-36432676D01*
X130308802Y-36432676D02*
X130308802Y-36508866D01*
X130308802Y-36508866D02*
X130270707Y-36623152D01*
X130270707Y-36623152D02*
X129813564Y-37080295D01*
X129813564Y-37080295D02*
X130308802Y-37080295D01*
X131108803Y-37004104D02*
X131070707Y-37042200D01*
X131070707Y-37042200D02*
X130956422Y-37080295D01*
X130956422Y-37080295D02*
X130880231Y-37080295D01*
X130880231Y-37080295D02*
X130765945Y-37042200D01*
X130765945Y-37042200D02*
X130689755Y-36966009D01*
X130689755Y-36966009D02*
X130651660Y-36889819D01*
X130651660Y-36889819D02*
X130613564Y-36737438D01*
X130613564Y-36737438D02*
X130613564Y-36623152D01*
X130613564Y-36623152D02*
X130651660Y-36470771D01*
X130651660Y-36470771D02*
X130689755Y-36394580D01*
X130689755Y-36394580D02*
X130765945Y-36318390D01*
X130765945Y-36318390D02*
X130880231Y-36280295D01*
X130880231Y-36280295D02*
X130956422Y-36280295D01*
X130956422Y-36280295D02*
X131070707Y-36318390D01*
X131070707Y-36318390D02*
X131108803Y-36356485D01*
X145473088Y-36017438D02*
X145377850Y-35969819D01*
X145377850Y-35969819D02*
X145234993Y-35969819D01*
X145234993Y-35969819D02*
X145092136Y-36017438D01*
X145092136Y-36017438D02*
X144996898Y-36112676D01*
X144996898Y-36112676D02*
X144949279Y-36207914D01*
X144949279Y-36207914D02*
X144901660Y-36398390D01*
X144901660Y-36398390D02*
X144901660Y-36541247D01*
X144901660Y-36541247D02*
X144949279Y-36731723D01*
X144949279Y-36731723D02*
X144996898Y-36826961D01*
X144996898Y-36826961D02*
X145092136Y-36922200D01*
X145092136Y-36922200D02*
X145234993Y-36969819D01*
X145234993Y-36969819D02*
X145330231Y-36969819D01*
X145330231Y-36969819D02*
X145473088Y-36922200D01*
X145473088Y-36922200D02*
X145520707Y-36874580D01*
X145520707Y-36874580D02*
X145520707Y-36541247D01*
X145520707Y-36541247D02*
X145330231Y-36541247D01*
X145949279Y-36969819D02*
X145949279Y-35969819D01*
X145949279Y-35969819D02*
X146520707Y-36969819D01*
X146520707Y-36969819D02*
X146520707Y-35969819D01*
X146996898Y-36969819D02*
X146996898Y-35969819D01*
X146996898Y-35969819D02*
X147234993Y-35969819D01*
X147234993Y-35969819D02*
X147377850Y-36017438D01*
X147377850Y-36017438D02*
X147473088Y-36112676D01*
X147473088Y-36112676D02*
X147520707Y-36207914D01*
X147520707Y-36207914D02*
X147568326Y-36398390D01*
X147568326Y-36398390D02*
X147568326Y-36541247D01*
X147568326Y-36541247D02*
X147520707Y-36731723D01*
X147520707Y-36731723D02*
X147473088Y-36826961D01*
X147473088Y-36826961D02*
X147377850Y-36922200D01*
X147377850Y-36922200D02*
X147234993Y-36969819D01*
X147234993Y-36969819D02*
X146996898Y-36969819D01*
X132723088Y-36017438D02*
X132627850Y-35969819D01*
X132627850Y-35969819D02*
X132484993Y-35969819D01*
X132484993Y-35969819D02*
X132342136Y-36017438D01*
X132342136Y-36017438D02*
X132246898Y-36112676D01*
X132246898Y-36112676D02*
X132199279Y-36207914D01*
X132199279Y-36207914D02*
X132151660Y-36398390D01*
X132151660Y-36398390D02*
X132151660Y-36541247D01*
X132151660Y-36541247D02*
X132199279Y-36731723D01*
X132199279Y-36731723D02*
X132246898Y-36826961D01*
X132246898Y-36826961D02*
X132342136Y-36922200D01*
X132342136Y-36922200D02*
X132484993Y-36969819D01*
X132484993Y-36969819D02*
X132580231Y-36969819D01*
X132580231Y-36969819D02*
X132723088Y-36922200D01*
X132723088Y-36922200D02*
X132770707Y-36874580D01*
X132770707Y-36874580D02*
X132770707Y-36541247D01*
X132770707Y-36541247D02*
X132580231Y-36541247D01*
X133199279Y-36969819D02*
X133199279Y-35969819D01*
X133199279Y-35969819D02*
X133770707Y-36969819D01*
X133770707Y-36969819D02*
X133770707Y-35969819D01*
X134246898Y-36969819D02*
X134246898Y-35969819D01*
X134246898Y-35969819D02*
X134484993Y-35969819D01*
X134484993Y-35969819D02*
X134627850Y-36017438D01*
X134627850Y-36017438D02*
X134723088Y-36112676D01*
X134723088Y-36112676D02*
X134770707Y-36207914D01*
X134770707Y-36207914D02*
X134818326Y-36398390D01*
X134818326Y-36398390D02*
X134818326Y-36541247D01*
X134818326Y-36541247D02*
X134770707Y-36731723D01*
X134770707Y-36731723D02*
X134723088Y-36826961D01*
X134723088Y-36826961D02*
X134627850Y-36922200D01*
X134627850Y-36922200D02*
X134484993Y-36969819D01*
X134484993Y-36969819D02*
X134246898Y-36969819D01*
X111223088Y-61767438D02*
X111127850Y-61719819D01*
X111127850Y-61719819D02*
X110984993Y-61719819D01*
X110984993Y-61719819D02*
X110842136Y-61767438D01*
X110842136Y-61767438D02*
X110746898Y-61862676D01*
X110746898Y-61862676D02*
X110699279Y-61957914D01*
X110699279Y-61957914D02*
X110651660Y-62148390D01*
X110651660Y-62148390D02*
X110651660Y-62291247D01*
X110651660Y-62291247D02*
X110699279Y-62481723D01*
X110699279Y-62481723D02*
X110746898Y-62576961D01*
X110746898Y-62576961D02*
X110842136Y-62672200D01*
X110842136Y-62672200D02*
X110984993Y-62719819D01*
X110984993Y-62719819D02*
X111080231Y-62719819D01*
X111080231Y-62719819D02*
X111223088Y-62672200D01*
X111223088Y-62672200D02*
X111270707Y-62624580D01*
X111270707Y-62624580D02*
X111270707Y-62291247D01*
X111270707Y-62291247D02*
X111080231Y-62291247D01*
X111699279Y-62719819D02*
X111699279Y-61719819D01*
X111699279Y-61719819D02*
X112270707Y-62719819D01*
X112270707Y-62719819D02*
X112270707Y-61719819D01*
X112746898Y-62719819D02*
X112746898Y-61719819D01*
X112746898Y-61719819D02*
X112984993Y-61719819D01*
X112984993Y-61719819D02*
X113127850Y-61767438D01*
X113127850Y-61767438D02*
X113223088Y-61862676D01*
X113223088Y-61862676D02*
X113270707Y-61957914D01*
X113270707Y-61957914D02*
X113318326Y-62148390D01*
X113318326Y-62148390D02*
X113318326Y-62291247D01*
X113318326Y-62291247D02*
X113270707Y-62481723D01*
X113270707Y-62481723D02*
X113223088Y-62576961D01*
X113223088Y-62576961D02*
X113127850Y-62672200D01*
X113127850Y-62672200D02*
X112984993Y-62719819D01*
X112984993Y-62719819D02*
X112746898Y-62719819D01*
X109593922Y-74469819D02*
X109927255Y-75469819D01*
X109927255Y-75469819D02*
X110260588Y-74469819D01*
X110927255Y-75580295D02*
X110546303Y-75580295D01*
X110546303Y-75580295D02*
X110546303Y-74780295D01*
X111193922Y-75161247D02*
X111460588Y-75161247D01*
X111574874Y-75580295D02*
X111193922Y-75580295D01*
X111193922Y-75580295D02*
X111193922Y-74780295D01*
X111193922Y-74780295D02*
X111574874Y-74780295D01*
X111917732Y-75580295D02*
X111917732Y-74780295D01*
X111917732Y-74780295D02*
X112108208Y-74780295D01*
X112108208Y-74780295D02*
X112222494Y-74818390D01*
X112222494Y-74818390D02*
X112298684Y-74894580D01*
X112298684Y-74894580D02*
X112336779Y-74970771D01*
X112336779Y-74970771D02*
X112374875Y-75123152D01*
X112374875Y-75123152D02*
X112374875Y-75237438D01*
X112374875Y-75237438D02*
X112336779Y-75389819D01*
X112336779Y-75389819D02*
X112298684Y-75466009D01*
X112298684Y-75466009D02*
X112222494Y-75542200D01*
X112222494Y-75542200D02*
X112108208Y-75580295D01*
X112108208Y-75580295D02*
X111917732Y-75580295D01*
X112765351Y-75469819D02*
X112765351Y-74469819D01*
X113241541Y-74803152D02*
X113241541Y-75469819D01*
X113241541Y-74898390D02*
X113289160Y-74850771D01*
X113289160Y-74850771D02*
X113384398Y-74803152D01*
X113384398Y-74803152D02*
X113527255Y-74803152D01*
X113527255Y-74803152D02*
X113622493Y-74850771D01*
X113622493Y-74850771D02*
X113670112Y-74946009D01*
X113670112Y-74946009D02*
X113670112Y-75469819D01*
X151339411Y-86182561D02*
X151434649Y-86230180D01*
X151434649Y-86230180D02*
X151577506Y-86230180D01*
X151577506Y-86230180D02*
X151720363Y-86182561D01*
X151720363Y-86182561D02*
X151815601Y-86087323D01*
X151815601Y-86087323D02*
X151863220Y-85992085D01*
X151863220Y-85992085D02*
X151910839Y-85801609D01*
X151910839Y-85801609D02*
X151910839Y-85658752D01*
X151910839Y-85658752D02*
X151863220Y-85468276D01*
X151863220Y-85468276D02*
X151815601Y-85373038D01*
X151815601Y-85373038D02*
X151720363Y-85277800D01*
X151720363Y-85277800D02*
X151577506Y-85230180D01*
X151577506Y-85230180D02*
X151482268Y-85230180D01*
X151482268Y-85230180D02*
X151339411Y-85277800D01*
X151339411Y-85277800D02*
X151291792Y-85325419D01*
X151291792Y-85325419D02*
X151291792Y-85658752D01*
X151291792Y-85658752D02*
X151482268Y-85658752D01*
X150863220Y-85230180D02*
X150863220Y-86230180D01*
X150863220Y-86230180D02*
X150291792Y-85230180D01*
X150291792Y-85230180D02*
X150291792Y-86230180D01*
X149815601Y-85230180D02*
X149815601Y-86230180D01*
X149815601Y-86230180D02*
X149577506Y-86230180D01*
X149577506Y-86230180D02*
X149434649Y-86182561D01*
X149434649Y-86182561D02*
X149339411Y-86087323D01*
X149339411Y-86087323D02*
X149291792Y-85992085D01*
X149291792Y-85992085D02*
X149244173Y-85801609D01*
X149244173Y-85801609D02*
X149244173Y-85658752D01*
X149244173Y-85658752D02*
X149291792Y-85468276D01*
X149291792Y-85468276D02*
X149339411Y-85373038D01*
X149339411Y-85373038D02*
X149434649Y-85277800D01*
X149434649Y-85277800D02*
X149577506Y-85230180D01*
X149577506Y-85230180D02*
X149815601Y-85230180D01*
X153706077Y-73930180D02*
X153372744Y-72930180D01*
X153372744Y-72930180D02*
X153039411Y-73930180D01*
X152372744Y-72819704D02*
X152753696Y-72819704D01*
X152753696Y-72819704D02*
X152753696Y-73619704D01*
X152106077Y-73238752D02*
X151839411Y-73238752D01*
X151725125Y-72819704D02*
X152106077Y-72819704D01*
X152106077Y-72819704D02*
X152106077Y-73619704D01*
X152106077Y-73619704D02*
X151725125Y-73619704D01*
X151382267Y-72819704D02*
X151382267Y-73619704D01*
X151382267Y-73619704D02*
X151191791Y-73619704D01*
X151191791Y-73619704D02*
X151077505Y-73581609D01*
X151077505Y-73581609D02*
X151001315Y-73505419D01*
X151001315Y-73505419D02*
X150963220Y-73429228D01*
X150963220Y-73429228D02*
X150925124Y-73276847D01*
X150925124Y-73276847D02*
X150925124Y-73162561D01*
X150925124Y-73162561D02*
X150963220Y-73010180D01*
X150963220Y-73010180D02*
X151001315Y-72933990D01*
X151001315Y-72933990D02*
X151077505Y-72857800D01*
X151077505Y-72857800D02*
X151191791Y-72819704D01*
X151191791Y-72819704D02*
X151382267Y-72819704D01*
X150344172Y-73930180D02*
X150153696Y-73930180D01*
X150153696Y-73930180D02*
X150058458Y-73882561D01*
X150058458Y-73882561D02*
X149963220Y-73787323D01*
X149963220Y-73787323D02*
X149915601Y-73596847D01*
X149915601Y-73596847D02*
X149915601Y-73263514D01*
X149915601Y-73263514D02*
X149963220Y-73073038D01*
X149963220Y-73073038D02*
X150058458Y-72977800D01*
X150058458Y-72977800D02*
X150153696Y-72930180D01*
X150153696Y-72930180D02*
X150344172Y-72930180D01*
X150344172Y-72930180D02*
X150439410Y-72977800D01*
X150439410Y-72977800D02*
X150534648Y-73073038D01*
X150534648Y-73073038D02*
X150582267Y-73263514D01*
X150582267Y-73263514D02*
X150582267Y-73596847D01*
X150582267Y-73596847D02*
X150534648Y-73787323D01*
X150534648Y-73787323D02*
X150439410Y-73882561D01*
X150439410Y-73882561D02*
X150344172Y-73930180D01*
X149058458Y-73596847D02*
X149058458Y-72930180D01*
X149487029Y-73596847D02*
X149487029Y-73073038D01*
X149487029Y-73073038D02*
X149439410Y-72977800D01*
X149439410Y-72977800D02*
X149344172Y-72930180D01*
X149344172Y-72930180D02*
X149201315Y-72930180D01*
X149201315Y-72930180D02*
X149106077Y-72977800D01*
X149106077Y-72977800D02*
X149058458Y-73025419D01*
X148725124Y-73596847D02*
X148344172Y-73596847D01*
X148582267Y-73930180D02*
X148582267Y-73073038D01*
X148582267Y-73073038D02*
X148534648Y-72977800D01*
X148534648Y-72977800D02*
X148439410Y-72930180D01*
X148439410Y-72930180D02*
X148344172Y-72930180D01*
%TO.C,C15*%
X111757142Y-117109580D02*
X111709523Y-117157200D01*
X111709523Y-117157200D02*
X111566666Y-117204819D01*
X111566666Y-117204819D02*
X111471428Y-117204819D01*
X111471428Y-117204819D02*
X111328571Y-117157200D01*
X111328571Y-117157200D02*
X111233333Y-117061961D01*
X111233333Y-117061961D02*
X111185714Y-116966723D01*
X111185714Y-116966723D02*
X111138095Y-116776247D01*
X111138095Y-116776247D02*
X111138095Y-116633390D01*
X111138095Y-116633390D02*
X111185714Y-116442914D01*
X111185714Y-116442914D02*
X111233333Y-116347676D01*
X111233333Y-116347676D02*
X111328571Y-116252438D01*
X111328571Y-116252438D02*
X111471428Y-116204819D01*
X111471428Y-116204819D02*
X111566666Y-116204819D01*
X111566666Y-116204819D02*
X111709523Y-116252438D01*
X111709523Y-116252438D02*
X111757142Y-116300057D01*
X112709523Y-117204819D02*
X112138095Y-117204819D01*
X112423809Y-117204819D02*
X112423809Y-116204819D01*
X112423809Y-116204819D02*
X112328571Y-116347676D01*
X112328571Y-116347676D02*
X112233333Y-116442914D01*
X112233333Y-116442914D02*
X112138095Y-116490533D01*
X113614285Y-116204819D02*
X113138095Y-116204819D01*
X113138095Y-116204819D02*
X113090476Y-116681009D01*
X113090476Y-116681009D02*
X113138095Y-116633390D01*
X113138095Y-116633390D02*
X113233333Y-116585771D01*
X113233333Y-116585771D02*
X113471428Y-116585771D01*
X113471428Y-116585771D02*
X113566666Y-116633390D01*
X113566666Y-116633390D02*
X113614285Y-116681009D01*
X113614285Y-116681009D02*
X113661904Y-116776247D01*
X113661904Y-116776247D02*
X113661904Y-117014342D01*
X113661904Y-117014342D02*
X113614285Y-117109580D01*
X113614285Y-117109580D02*
X113566666Y-117157200D01*
X113566666Y-117157200D02*
X113471428Y-117204819D01*
X113471428Y-117204819D02*
X113233333Y-117204819D01*
X113233333Y-117204819D02*
X113138095Y-117157200D01*
X113138095Y-117157200D02*
X113090476Y-117109580D01*
%TO.C,R6*%
X119817319Y-95516666D02*
X119341128Y-95849999D01*
X119817319Y-96088094D02*
X118817319Y-96088094D01*
X118817319Y-96088094D02*
X118817319Y-95707142D01*
X118817319Y-95707142D02*
X118864938Y-95611904D01*
X118864938Y-95611904D02*
X118912557Y-95564285D01*
X118912557Y-95564285D02*
X119007795Y-95516666D01*
X119007795Y-95516666D02*
X119150652Y-95516666D01*
X119150652Y-95516666D02*
X119245890Y-95564285D01*
X119245890Y-95564285D02*
X119293509Y-95611904D01*
X119293509Y-95611904D02*
X119341128Y-95707142D01*
X119341128Y-95707142D02*
X119341128Y-96088094D01*
X118817319Y-94659523D02*
X118817319Y-94849999D01*
X118817319Y-94849999D02*
X118864938Y-94945237D01*
X118864938Y-94945237D02*
X118912557Y-94992856D01*
X118912557Y-94992856D02*
X119055414Y-95088094D01*
X119055414Y-95088094D02*
X119245890Y-95135713D01*
X119245890Y-95135713D02*
X119626842Y-95135713D01*
X119626842Y-95135713D02*
X119722080Y-95088094D01*
X119722080Y-95088094D02*
X119769700Y-95040475D01*
X119769700Y-95040475D02*
X119817319Y-94945237D01*
X119817319Y-94945237D02*
X119817319Y-94754761D01*
X119817319Y-94754761D02*
X119769700Y-94659523D01*
X119769700Y-94659523D02*
X119722080Y-94611904D01*
X119722080Y-94611904D02*
X119626842Y-94564285D01*
X119626842Y-94564285D02*
X119388747Y-94564285D01*
X119388747Y-94564285D02*
X119293509Y-94611904D01*
X119293509Y-94611904D02*
X119245890Y-94659523D01*
X119245890Y-94659523D02*
X119198271Y-94754761D01*
X119198271Y-94754761D02*
X119198271Y-94945237D01*
X119198271Y-94945237D02*
X119245890Y-95040475D01*
X119245890Y-95040475D02*
X119293509Y-95088094D01*
X119293509Y-95088094D02*
X119388747Y-95135713D01*
%TO.C,R44*%
X132357142Y-106304819D02*
X132023809Y-105828628D01*
X131785714Y-106304819D02*
X131785714Y-105304819D01*
X131785714Y-105304819D02*
X132166666Y-105304819D01*
X132166666Y-105304819D02*
X132261904Y-105352438D01*
X132261904Y-105352438D02*
X132309523Y-105400057D01*
X132309523Y-105400057D02*
X132357142Y-105495295D01*
X132357142Y-105495295D02*
X132357142Y-105638152D01*
X132357142Y-105638152D02*
X132309523Y-105733390D01*
X132309523Y-105733390D02*
X132261904Y-105781009D01*
X132261904Y-105781009D02*
X132166666Y-105828628D01*
X132166666Y-105828628D02*
X131785714Y-105828628D01*
X133214285Y-105638152D02*
X133214285Y-106304819D01*
X132976190Y-105257200D02*
X132738095Y-105971485D01*
X132738095Y-105971485D02*
X133357142Y-105971485D01*
X134166666Y-105638152D02*
X134166666Y-106304819D01*
X133928571Y-105257200D02*
X133690476Y-105971485D01*
X133690476Y-105971485D02*
X134309523Y-105971485D01*
%TO.C,J5*%
X133497319Y-39383333D02*
X134211604Y-39383333D01*
X134211604Y-39383333D02*
X134354461Y-39430952D01*
X134354461Y-39430952D02*
X134449700Y-39526190D01*
X134449700Y-39526190D02*
X134497319Y-39669047D01*
X134497319Y-39669047D02*
X134497319Y-39764285D01*
X133497319Y-38430952D02*
X133497319Y-38907142D01*
X133497319Y-38907142D02*
X133973509Y-38954761D01*
X133973509Y-38954761D02*
X133925890Y-38907142D01*
X133925890Y-38907142D02*
X133878271Y-38811904D01*
X133878271Y-38811904D02*
X133878271Y-38573809D01*
X133878271Y-38573809D02*
X133925890Y-38478571D01*
X133925890Y-38478571D02*
X133973509Y-38430952D01*
X133973509Y-38430952D02*
X134068747Y-38383333D01*
X134068747Y-38383333D02*
X134306842Y-38383333D01*
X134306842Y-38383333D02*
X134402080Y-38430952D01*
X134402080Y-38430952D02*
X134449700Y-38478571D01*
X134449700Y-38478571D02*
X134497319Y-38573809D01*
X134497319Y-38573809D02*
X134497319Y-38811904D01*
X134497319Y-38811904D02*
X134449700Y-38907142D01*
X134449700Y-38907142D02*
X134402080Y-38954761D01*
%TO.C,D2*%
X127486905Y-41904819D02*
X127486905Y-40904819D01*
X127486905Y-40904819D02*
X127725000Y-40904819D01*
X127725000Y-40904819D02*
X127867857Y-40952438D01*
X127867857Y-40952438D02*
X127963095Y-41047676D01*
X127963095Y-41047676D02*
X128010714Y-41142914D01*
X128010714Y-41142914D02*
X128058333Y-41333390D01*
X128058333Y-41333390D02*
X128058333Y-41476247D01*
X128058333Y-41476247D02*
X128010714Y-41666723D01*
X128010714Y-41666723D02*
X127963095Y-41761961D01*
X127963095Y-41761961D02*
X127867857Y-41857200D01*
X127867857Y-41857200D02*
X127725000Y-41904819D01*
X127725000Y-41904819D02*
X127486905Y-41904819D01*
X128439286Y-41000057D02*
X128486905Y-40952438D01*
X128486905Y-40952438D02*
X128582143Y-40904819D01*
X128582143Y-40904819D02*
X128820238Y-40904819D01*
X128820238Y-40904819D02*
X128915476Y-40952438D01*
X128915476Y-40952438D02*
X128963095Y-41000057D01*
X128963095Y-41000057D02*
X129010714Y-41095295D01*
X129010714Y-41095295D02*
X129010714Y-41190533D01*
X129010714Y-41190533D02*
X128963095Y-41333390D01*
X128963095Y-41333390D02*
X128391667Y-41904819D01*
X128391667Y-41904819D02*
X129010714Y-41904819D01*
%TO.C,C18*%
X142719642Y-44889580D02*
X142672023Y-44937200D01*
X142672023Y-44937200D02*
X142529166Y-44984819D01*
X142529166Y-44984819D02*
X142433928Y-44984819D01*
X142433928Y-44984819D02*
X142291071Y-44937200D01*
X142291071Y-44937200D02*
X142195833Y-44841961D01*
X142195833Y-44841961D02*
X142148214Y-44746723D01*
X142148214Y-44746723D02*
X142100595Y-44556247D01*
X142100595Y-44556247D02*
X142100595Y-44413390D01*
X142100595Y-44413390D02*
X142148214Y-44222914D01*
X142148214Y-44222914D02*
X142195833Y-44127676D01*
X142195833Y-44127676D02*
X142291071Y-44032438D01*
X142291071Y-44032438D02*
X142433928Y-43984819D01*
X142433928Y-43984819D02*
X142529166Y-43984819D01*
X142529166Y-43984819D02*
X142672023Y-44032438D01*
X142672023Y-44032438D02*
X142719642Y-44080057D01*
X143672023Y-44984819D02*
X143100595Y-44984819D01*
X143386309Y-44984819D02*
X143386309Y-43984819D01*
X143386309Y-43984819D02*
X143291071Y-44127676D01*
X143291071Y-44127676D02*
X143195833Y-44222914D01*
X143195833Y-44222914D02*
X143100595Y-44270533D01*
X144243452Y-44413390D02*
X144148214Y-44365771D01*
X144148214Y-44365771D02*
X144100595Y-44318152D01*
X144100595Y-44318152D02*
X144052976Y-44222914D01*
X144052976Y-44222914D02*
X144052976Y-44175295D01*
X144052976Y-44175295D02*
X144100595Y-44080057D01*
X144100595Y-44080057D02*
X144148214Y-44032438D01*
X144148214Y-44032438D02*
X144243452Y-43984819D01*
X144243452Y-43984819D02*
X144433928Y-43984819D01*
X144433928Y-43984819D02*
X144529166Y-44032438D01*
X144529166Y-44032438D02*
X144576785Y-44080057D01*
X144576785Y-44080057D02*
X144624404Y-44175295D01*
X144624404Y-44175295D02*
X144624404Y-44222914D01*
X144624404Y-44222914D02*
X144576785Y-44318152D01*
X144576785Y-44318152D02*
X144529166Y-44365771D01*
X144529166Y-44365771D02*
X144433928Y-44413390D01*
X144433928Y-44413390D02*
X144243452Y-44413390D01*
X144243452Y-44413390D02*
X144148214Y-44461009D01*
X144148214Y-44461009D02*
X144100595Y-44508628D01*
X144100595Y-44508628D02*
X144052976Y-44603866D01*
X144052976Y-44603866D02*
X144052976Y-44794342D01*
X144052976Y-44794342D02*
X144100595Y-44889580D01*
X144100595Y-44889580D02*
X144148214Y-44937200D01*
X144148214Y-44937200D02*
X144243452Y-44984819D01*
X144243452Y-44984819D02*
X144433928Y-44984819D01*
X144433928Y-44984819D02*
X144529166Y-44937200D01*
X144529166Y-44937200D02*
X144576785Y-44889580D01*
X144576785Y-44889580D02*
X144624404Y-44794342D01*
X144624404Y-44794342D02*
X144624404Y-44603866D01*
X144624404Y-44603866D02*
X144576785Y-44508628D01*
X144576785Y-44508628D02*
X144529166Y-44461009D01*
X144529166Y-44461009D02*
X144433928Y-44413390D01*
%TO.C,U4*%
X124600595Y-100404819D02*
X124600595Y-101214342D01*
X124600595Y-101214342D02*
X124648214Y-101309580D01*
X124648214Y-101309580D02*
X124695833Y-101357200D01*
X124695833Y-101357200D02*
X124791071Y-101404819D01*
X124791071Y-101404819D02*
X124981547Y-101404819D01*
X124981547Y-101404819D02*
X125076785Y-101357200D01*
X125076785Y-101357200D02*
X125124404Y-101309580D01*
X125124404Y-101309580D02*
X125172023Y-101214342D01*
X125172023Y-101214342D02*
X125172023Y-100404819D01*
X126076785Y-100738152D02*
X126076785Y-101404819D01*
X125838690Y-100357200D02*
X125600595Y-101071485D01*
X125600595Y-101071485D02*
X126219642Y-101071485D01*
%TO.C,R42*%
X126957142Y-96104819D02*
X126623809Y-95628628D01*
X126385714Y-96104819D02*
X126385714Y-95104819D01*
X126385714Y-95104819D02*
X126766666Y-95104819D01*
X126766666Y-95104819D02*
X126861904Y-95152438D01*
X126861904Y-95152438D02*
X126909523Y-95200057D01*
X126909523Y-95200057D02*
X126957142Y-95295295D01*
X126957142Y-95295295D02*
X126957142Y-95438152D01*
X126957142Y-95438152D02*
X126909523Y-95533390D01*
X126909523Y-95533390D02*
X126861904Y-95581009D01*
X126861904Y-95581009D02*
X126766666Y-95628628D01*
X126766666Y-95628628D02*
X126385714Y-95628628D01*
X127814285Y-95438152D02*
X127814285Y-96104819D01*
X127576190Y-95057200D02*
X127338095Y-95771485D01*
X127338095Y-95771485D02*
X127957142Y-95771485D01*
X128290476Y-95200057D02*
X128338095Y-95152438D01*
X128338095Y-95152438D02*
X128433333Y-95104819D01*
X128433333Y-95104819D02*
X128671428Y-95104819D01*
X128671428Y-95104819D02*
X128766666Y-95152438D01*
X128766666Y-95152438D02*
X128814285Y-95200057D01*
X128814285Y-95200057D02*
X128861904Y-95295295D01*
X128861904Y-95295295D02*
X128861904Y-95390533D01*
X128861904Y-95390533D02*
X128814285Y-95533390D01*
X128814285Y-95533390D02*
X128242857Y-96104819D01*
X128242857Y-96104819D02*
X128861904Y-96104819D01*
%TO.C,R3*%
X123695833Y-73054819D02*
X123362500Y-72578628D01*
X123124405Y-73054819D02*
X123124405Y-72054819D01*
X123124405Y-72054819D02*
X123505357Y-72054819D01*
X123505357Y-72054819D02*
X123600595Y-72102438D01*
X123600595Y-72102438D02*
X123648214Y-72150057D01*
X123648214Y-72150057D02*
X123695833Y-72245295D01*
X123695833Y-72245295D02*
X123695833Y-72388152D01*
X123695833Y-72388152D02*
X123648214Y-72483390D01*
X123648214Y-72483390D02*
X123600595Y-72531009D01*
X123600595Y-72531009D02*
X123505357Y-72578628D01*
X123505357Y-72578628D02*
X123124405Y-72578628D01*
X124029167Y-72054819D02*
X124648214Y-72054819D01*
X124648214Y-72054819D02*
X124314881Y-72435771D01*
X124314881Y-72435771D02*
X124457738Y-72435771D01*
X124457738Y-72435771D02*
X124552976Y-72483390D01*
X124552976Y-72483390D02*
X124600595Y-72531009D01*
X124600595Y-72531009D02*
X124648214Y-72626247D01*
X124648214Y-72626247D02*
X124648214Y-72864342D01*
X124648214Y-72864342D02*
X124600595Y-72959580D01*
X124600595Y-72959580D02*
X124552976Y-73007200D01*
X124552976Y-73007200D02*
X124457738Y-73054819D01*
X124457738Y-73054819D02*
X124172024Y-73054819D01*
X124172024Y-73054819D02*
X124076786Y-73007200D01*
X124076786Y-73007200D02*
X124029167Y-72959580D01*
%TO.C,Q3*%
X146842261Y-87975057D02*
X146747023Y-87927438D01*
X146747023Y-87927438D02*
X146651785Y-87832200D01*
X146651785Y-87832200D02*
X146508928Y-87689342D01*
X146508928Y-87689342D02*
X146413690Y-87641723D01*
X146413690Y-87641723D02*
X146318452Y-87641723D01*
X146366071Y-87879819D02*
X146270833Y-87832200D01*
X146270833Y-87832200D02*
X146175595Y-87736961D01*
X146175595Y-87736961D02*
X146127976Y-87546485D01*
X146127976Y-87546485D02*
X146127976Y-87213152D01*
X146127976Y-87213152D02*
X146175595Y-87022676D01*
X146175595Y-87022676D02*
X146270833Y-86927438D01*
X146270833Y-86927438D02*
X146366071Y-86879819D01*
X146366071Y-86879819D02*
X146556547Y-86879819D01*
X146556547Y-86879819D02*
X146651785Y-86927438D01*
X146651785Y-86927438D02*
X146747023Y-87022676D01*
X146747023Y-87022676D02*
X146794642Y-87213152D01*
X146794642Y-87213152D02*
X146794642Y-87546485D01*
X146794642Y-87546485D02*
X146747023Y-87736961D01*
X146747023Y-87736961D02*
X146651785Y-87832200D01*
X146651785Y-87832200D02*
X146556547Y-87879819D01*
X146556547Y-87879819D02*
X146366071Y-87879819D01*
X147127976Y-86879819D02*
X147747023Y-86879819D01*
X147747023Y-86879819D02*
X147413690Y-87260771D01*
X147413690Y-87260771D02*
X147556547Y-87260771D01*
X147556547Y-87260771D02*
X147651785Y-87308390D01*
X147651785Y-87308390D02*
X147699404Y-87356009D01*
X147699404Y-87356009D02*
X147747023Y-87451247D01*
X147747023Y-87451247D02*
X147747023Y-87689342D01*
X147747023Y-87689342D02*
X147699404Y-87784580D01*
X147699404Y-87784580D02*
X147651785Y-87832200D01*
X147651785Y-87832200D02*
X147556547Y-87879819D01*
X147556547Y-87879819D02*
X147270833Y-87879819D01*
X147270833Y-87879819D02*
X147175595Y-87832200D01*
X147175595Y-87832200D02*
X147127976Y-87784580D01*
%TO.C,D5*%
X151717319Y-50450594D02*
X150717319Y-50450594D01*
X150717319Y-50450594D02*
X150717319Y-50212499D01*
X150717319Y-50212499D02*
X150764938Y-50069642D01*
X150764938Y-50069642D02*
X150860176Y-49974404D01*
X150860176Y-49974404D02*
X150955414Y-49926785D01*
X150955414Y-49926785D02*
X151145890Y-49879166D01*
X151145890Y-49879166D02*
X151288747Y-49879166D01*
X151288747Y-49879166D02*
X151479223Y-49926785D01*
X151479223Y-49926785D02*
X151574461Y-49974404D01*
X151574461Y-49974404D02*
X151669700Y-50069642D01*
X151669700Y-50069642D02*
X151717319Y-50212499D01*
X151717319Y-50212499D02*
X151717319Y-50450594D01*
X150717319Y-48974404D02*
X150717319Y-49450594D01*
X150717319Y-49450594D02*
X151193509Y-49498213D01*
X151193509Y-49498213D02*
X151145890Y-49450594D01*
X151145890Y-49450594D02*
X151098271Y-49355356D01*
X151098271Y-49355356D02*
X151098271Y-49117261D01*
X151098271Y-49117261D02*
X151145890Y-49022023D01*
X151145890Y-49022023D02*
X151193509Y-48974404D01*
X151193509Y-48974404D02*
X151288747Y-48926785D01*
X151288747Y-48926785D02*
X151526842Y-48926785D01*
X151526842Y-48926785D02*
X151622080Y-48974404D01*
X151622080Y-48974404D02*
X151669700Y-49022023D01*
X151669700Y-49022023D02*
X151717319Y-49117261D01*
X151717319Y-49117261D02*
X151717319Y-49355356D01*
X151717319Y-49355356D02*
X151669700Y-49450594D01*
X151669700Y-49450594D02*
X151622080Y-49498213D01*
%TO.C,R38*%
X132219642Y-90654819D02*
X131886309Y-90178628D01*
X131648214Y-90654819D02*
X131648214Y-89654819D01*
X131648214Y-89654819D02*
X132029166Y-89654819D01*
X132029166Y-89654819D02*
X132124404Y-89702438D01*
X132124404Y-89702438D02*
X132172023Y-89750057D01*
X132172023Y-89750057D02*
X132219642Y-89845295D01*
X132219642Y-89845295D02*
X132219642Y-89988152D01*
X132219642Y-89988152D02*
X132172023Y-90083390D01*
X132172023Y-90083390D02*
X132124404Y-90131009D01*
X132124404Y-90131009D02*
X132029166Y-90178628D01*
X132029166Y-90178628D02*
X131648214Y-90178628D01*
X132552976Y-89654819D02*
X133172023Y-89654819D01*
X133172023Y-89654819D02*
X132838690Y-90035771D01*
X132838690Y-90035771D02*
X132981547Y-90035771D01*
X132981547Y-90035771D02*
X133076785Y-90083390D01*
X133076785Y-90083390D02*
X133124404Y-90131009D01*
X133124404Y-90131009D02*
X133172023Y-90226247D01*
X133172023Y-90226247D02*
X133172023Y-90464342D01*
X133172023Y-90464342D02*
X133124404Y-90559580D01*
X133124404Y-90559580D02*
X133076785Y-90607200D01*
X133076785Y-90607200D02*
X132981547Y-90654819D01*
X132981547Y-90654819D02*
X132695833Y-90654819D01*
X132695833Y-90654819D02*
X132600595Y-90607200D01*
X132600595Y-90607200D02*
X132552976Y-90559580D01*
X133743452Y-90083390D02*
X133648214Y-90035771D01*
X133648214Y-90035771D02*
X133600595Y-89988152D01*
X133600595Y-89988152D02*
X133552976Y-89892914D01*
X133552976Y-89892914D02*
X133552976Y-89845295D01*
X133552976Y-89845295D02*
X133600595Y-89750057D01*
X133600595Y-89750057D02*
X133648214Y-89702438D01*
X133648214Y-89702438D02*
X133743452Y-89654819D01*
X133743452Y-89654819D02*
X133933928Y-89654819D01*
X133933928Y-89654819D02*
X134029166Y-89702438D01*
X134029166Y-89702438D02*
X134076785Y-89750057D01*
X134076785Y-89750057D02*
X134124404Y-89845295D01*
X134124404Y-89845295D02*
X134124404Y-89892914D01*
X134124404Y-89892914D02*
X134076785Y-89988152D01*
X134076785Y-89988152D02*
X134029166Y-90035771D01*
X134029166Y-90035771D02*
X133933928Y-90083390D01*
X133933928Y-90083390D02*
X133743452Y-90083390D01*
X133743452Y-90083390D02*
X133648214Y-90131009D01*
X133648214Y-90131009D02*
X133600595Y-90178628D01*
X133600595Y-90178628D02*
X133552976Y-90273866D01*
X133552976Y-90273866D02*
X133552976Y-90464342D01*
X133552976Y-90464342D02*
X133600595Y-90559580D01*
X133600595Y-90559580D02*
X133648214Y-90607200D01*
X133648214Y-90607200D02*
X133743452Y-90654819D01*
X133743452Y-90654819D02*
X133933928Y-90654819D01*
X133933928Y-90654819D02*
X134029166Y-90607200D01*
X134029166Y-90607200D02*
X134076785Y-90559580D01*
X134076785Y-90559580D02*
X134124404Y-90464342D01*
X134124404Y-90464342D02*
X134124404Y-90273866D01*
X134124404Y-90273866D02*
X134076785Y-90178628D01*
X134076785Y-90178628D02*
X134029166Y-90131009D01*
X134029166Y-90131009D02*
X133933928Y-90083390D01*
%TO.C,R25*%
X130504819Y-120642857D02*
X130028628Y-120976190D01*
X130504819Y-121214285D02*
X129504819Y-121214285D01*
X129504819Y-121214285D02*
X129504819Y-120833333D01*
X129504819Y-120833333D02*
X129552438Y-120738095D01*
X129552438Y-120738095D02*
X129600057Y-120690476D01*
X129600057Y-120690476D02*
X129695295Y-120642857D01*
X129695295Y-120642857D02*
X129838152Y-120642857D01*
X129838152Y-120642857D02*
X129933390Y-120690476D01*
X129933390Y-120690476D02*
X129981009Y-120738095D01*
X129981009Y-120738095D02*
X130028628Y-120833333D01*
X130028628Y-120833333D02*
X130028628Y-121214285D01*
X129600057Y-120261904D02*
X129552438Y-120214285D01*
X129552438Y-120214285D02*
X129504819Y-120119047D01*
X129504819Y-120119047D02*
X129504819Y-119880952D01*
X129504819Y-119880952D02*
X129552438Y-119785714D01*
X129552438Y-119785714D02*
X129600057Y-119738095D01*
X129600057Y-119738095D02*
X129695295Y-119690476D01*
X129695295Y-119690476D02*
X129790533Y-119690476D01*
X129790533Y-119690476D02*
X129933390Y-119738095D01*
X129933390Y-119738095D02*
X130504819Y-120309523D01*
X130504819Y-120309523D02*
X130504819Y-119690476D01*
X129504819Y-118785714D02*
X129504819Y-119261904D01*
X129504819Y-119261904D02*
X129981009Y-119309523D01*
X129981009Y-119309523D02*
X129933390Y-119261904D01*
X129933390Y-119261904D02*
X129885771Y-119166666D01*
X129885771Y-119166666D02*
X129885771Y-118928571D01*
X129885771Y-118928571D02*
X129933390Y-118833333D01*
X129933390Y-118833333D02*
X129981009Y-118785714D01*
X129981009Y-118785714D02*
X130076247Y-118738095D01*
X130076247Y-118738095D02*
X130314342Y-118738095D01*
X130314342Y-118738095D02*
X130409580Y-118785714D01*
X130409580Y-118785714D02*
X130457200Y-118833333D01*
X130457200Y-118833333D02*
X130504819Y-118928571D01*
X130504819Y-118928571D02*
X130504819Y-119166666D01*
X130504819Y-119166666D02*
X130457200Y-119261904D01*
X130457200Y-119261904D02*
X130409580Y-119309523D01*
%TO.C,R24*%
X110317319Y-59492857D02*
X109841128Y-59826190D01*
X110317319Y-60064285D02*
X109317319Y-60064285D01*
X109317319Y-60064285D02*
X109317319Y-59683333D01*
X109317319Y-59683333D02*
X109364938Y-59588095D01*
X109364938Y-59588095D02*
X109412557Y-59540476D01*
X109412557Y-59540476D02*
X109507795Y-59492857D01*
X109507795Y-59492857D02*
X109650652Y-59492857D01*
X109650652Y-59492857D02*
X109745890Y-59540476D01*
X109745890Y-59540476D02*
X109793509Y-59588095D01*
X109793509Y-59588095D02*
X109841128Y-59683333D01*
X109841128Y-59683333D02*
X109841128Y-60064285D01*
X109412557Y-59111904D02*
X109364938Y-59064285D01*
X109364938Y-59064285D02*
X109317319Y-58969047D01*
X109317319Y-58969047D02*
X109317319Y-58730952D01*
X109317319Y-58730952D02*
X109364938Y-58635714D01*
X109364938Y-58635714D02*
X109412557Y-58588095D01*
X109412557Y-58588095D02*
X109507795Y-58540476D01*
X109507795Y-58540476D02*
X109603033Y-58540476D01*
X109603033Y-58540476D02*
X109745890Y-58588095D01*
X109745890Y-58588095D02*
X110317319Y-59159523D01*
X110317319Y-59159523D02*
X110317319Y-58540476D01*
X109650652Y-57683333D02*
X110317319Y-57683333D01*
X109269700Y-57921428D02*
X109983985Y-58159523D01*
X109983985Y-58159523D02*
X109983985Y-57540476D01*
%TO.C,J1*%
X116397319Y-69183333D02*
X117111604Y-69183333D01*
X117111604Y-69183333D02*
X117254461Y-69230952D01*
X117254461Y-69230952D02*
X117349700Y-69326190D01*
X117349700Y-69326190D02*
X117397319Y-69469047D01*
X117397319Y-69469047D02*
X117397319Y-69564285D01*
X117397319Y-68183333D02*
X117397319Y-68754761D01*
X117397319Y-68469047D02*
X116397319Y-68469047D01*
X116397319Y-68469047D02*
X116540176Y-68564285D01*
X116540176Y-68564285D02*
X116635414Y-68659523D01*
X116635414Y-68659523D02*
X116683033Y-68754761D01*
%TO.C,C9*%
X136902080Y-62054166D02*
X136949700Y-62101785D01*
X136949700Y-62101785D02*
X136997319Y-62244642D01*
X136997319Y-62244642D02*
X136997319Y-62339880D01*
X136997319Y-62339880D02*
X136949700Y-62482737D01*
X136949700Y-62482737D02*
X136854461Y-62577975D01*
X136854461Y-62577975D02*
X136759223Y-62625594D01*
X136759223Y-62625594D02*
X136568747Y-62673213D01*
X136568747Y-62673213D02*
X136425890Y-62673213D01*
X136425890Y-62673213D02*
X136235414Y-62625594D01*
X136235414Y-62625594D02*
X136140176Y-62577975D01*
X136140176Y-62577975D02*
X136044938Y-62482737D01*
X136044938Y-62482737D02*
X135997319Y-62339880D01*
X135997319Y-62339880D02*
X135997319Y-62244642D01*
X135997319Y-62244642D02*
X136044938Y-62101785D01*
X136044938Y-62101785D02*
X136092557Y-62054166D01*
X136997319Y-61577975D02*
X136997319Y-61387499D01*
X136997319Y-61387499D02*
X136949700Y-61292261D01*
X136949700Y-61292261D02*
X136902080Y-61244642D01*
X136902080Y-61244642D02*
X136759223Y-61149404D01*
X136759223Y-61149404D02*
X136568747Y-61101785D01*
X136568747Y-61101785D02*
X136187795Y-61101785D01*
X136187795Y-61101785D02*
X136092557Y-61149404D01*
X136092557Y-61149404D02*
X136044938Y-61197023D01*
X136044938Y-61197023D02*
X135997319Y-61292261D01*
X135997319Y-61292261D02*
X135997319Y-61482737D01*
X135997319Y-61482737D02*
X136044938Y-61577975D01*
X136044938Y-61577975D02*
X136092557Y-61625594D01*
X136092557Y-61625594D02*
X136187795Y-61673213D01*
X136187795Y-61673213D02*
X136425890Y-61673213D01*
X136425890Y-61673213D02*
X136521128Y-61625594D01*
X136521128Y-61625594D02*
X136568747Y-61577975D01*
X136568747Y-61577975D02*
X136616366Y-61482737D01*
X136616366Y-61482737D02*
X136616366Y-61292261D01*
X136616366Y-61292261D02*
X136568747Y-61197023D01*
X136568747Y-61197023D02*
X136521128Y-61149404D01*
X136521128Y-61149404D02*
X136425890Y-61101785D01*
%TO.C,R19*%
X132719642Y-53304819D02*
X132386309Y-52828628D01*
X132148214Y-53304819D02*
X132148214Y-52304819D01*
X132148214Y-52304819D02*
X132529166Y-52304819D01*
X132529166Y-52304819D02*
X132624404Y-52352438D01*
X132624404Y-52352438D02*
X132672023Y-52400057D01*
X132672023Y-52400057D02*
X132719642Y-52495295D01*
X132719642Y-52495295D02*
X132719642Y-52638152D01*
X132719642Y-52638152D02*
X132672023Y-52733390D01*
X132672023Y-52733390D02*
X132624404Y-52781009D01*
X132624404Y-52781009D02*
X132529166Y-52828628D01*
X132529166Y-52828628D02*
X132148214Y-52828628D01*
X133672023Y-53304819D02*
X133100595Y-53304819D01*
X133386309Y-53304819D02*
X133386309Y-52304819D01*
X133386309Y-52304819D02*
X133291071Y-52447676D01*
X133291071Y-52447676D02*
X133195833Y-52542914D01*
X133195833Y-52542914D02*
X133100595Y-52590533D01*
X134148214Y-53304819D02*
X134338690Y-53304819D01*
X134338690Y-53304819D02*
X134433928Y-53257200D01*
X134433928Y-53257200D02*
X134481547Y-53209580D01*
X134481547Y-53209580D02*
X134576785Y-53066723D01*
X134576785Y-53066723D02*
X134624404Y-52876247D01*
X134624404Y-52876247D02*
X134624404Y-52495295D01*
X134624404Y-52495295D02*
X134576785Y-52400057D01*
X134576785Y-52400057D02*
X134529166Y-52352438D01*
X134529166Y-52352438D02*
X134433928Y-52304819D01*
X134433928Y-52304819D02*
X134243452Y-52304819D01*
X134243452Y-52304819D02*
X134148214Y-52352438D01*
X134148214Y-52352438D02*
X134100595Y-52400057D01*
X134100595Y-52400057D02*
X134052976Y-52495295D01*
X134052976Y-52495295D02*
X134052976Y-52733390D01*
X134052976Y-52733390D02*
X134100595Y-52828628D01*
X134100595Y-52828628D02*
X134148214Y-52876247D01*
X134148214Y-52876247D02*
X134243452Y-52923866D01*
X134243452Y-52923866D02*
X134433928Y-52923866D01*
X134433928Y-52923866D02*
X134529166Y-52876247D01*
X134529166Y-52876247D02*
X134576785Y-52828628D01*
X134576785Y-52828628D02*
X134624404Y-52733390D01*
%TO.C,R20*%
X133219642Y-59304819D02*
X132886309Y-58828628D01*
X132648214Y-59304819D02*
X132648214Y-58304819D01*
X132648214Y-58304819D02*
X133029166Y-58304819D01*
X133029166Y-58304819D02*
X133124404Y-58352438D01*
X133124404Y-58352438D02*
X133172023Y-58400057D01*
X133172023Y-58400057D02*
X133219642Y-58495295D01*
X133219642Y-58495295D02*
X133219642Y-58638152D01*
X133219642Y-58638152D02*
X133172023Y-58733390D01*
X133172023Y-58733390D02*
X133124404Y-58781009D01*
X133124404Y-58781009D02*
X133029166Y-58828628D01*
X133029166Y-58828628D02*
X132648214Y-58828628D01*
X133600595Y-58400057D02*
X133648214Y-58352438D01*
X133648214Y-58352438D02*
X133743452Y-58304819D01*
X133743452Y-58304819D02*
X133981547Y-58304819D01*
X133981547Y-58304819D02*
X134076785Y-58352438D01*
X134076785Y-58352438D02*
X134124404Y-58400057D01*
X134124404Y-58400057D02*
X134172023Y-58495295D01*
X134172023Y-58495295D02*
X134172023Y-58590533D01*
X134172023Y-58590533D02*
X134124404Y-58733390D01*
X134124404Y-58733390D02*
X133552976Y-59304819D01*
X133552976Y-59304819D02*
X134172023Y-59304819D01*
X134791071Y-58304819D02*
X134886309Y-58304819D01*
X134886309Y-58304819D02*
X134981547Y-58352438D01*
X134981547Y-58352438D02*
X135029166Y-58400057D01*
X135029166Y-58400057D02*
X135076785Y-58495295D01*
X135076785Y-58495295D02*
X135124404Y-58685771D01*
X135124404Y-58685771D02*
X135124404Y-58923866D01*
X135124404Y-58923866D02*
X135076785Y-59114342D01*
X135076785Y-59114342D02*
X135029166Y-59209580D01*
X135029166Y-59209580D02*
X134981547Y-59257200D01*
X134981547Y-59257200D02*
X134886309Y-59304819D01*
X134886309Y-59304819D02*
X134791071Y-59304819D01*
X134791071Y-59304819D02*
X134695833Y-59257200D01*
X134695833Y-59257200D02*
X134648214Y-59209580D01*
X134648214Y-59209580D02*
X134600595Y-59114342D01*
X134600595Y-59114342D02*
X134552976Y-58923866D01*
X134552976Y-58923866D02*
X134552976Y-58685771D01*
X134552976Y-58685771D02*
X134600595Y-58495295D01*
X134600595Y-58495295D02*
X134648214Y-58400057D01*
X134648214Y-58400057D02*
X134695833Y-58352438D01*
X134695833Y-58352438D02*
X134791071Y-58304819D01*
%TO.C,D6*%
X113451905Y-100734819D02*
X113451905Y-99734819D01*
X113451905Y-99734819D02*
X113690000Y-99734819D01*
X113690000Y-99734819D02*
X113832857Y-99782438D01*
X113832857Y-99782438D02*
X113928095Y-99877676D01*
X113928095Y-99877676D02*
X113975714Y-99972914D01*
X113975714Y-99972914D02*
X114023333Y-100163390D01*
X114023333Y-100163390D02*
X114023333Y-100306247D01*
X114023333Y-100306247D02*
X113975714Y-100496723D01*
X113975714Y-100496723D02*
X113928095Y-100591961D01*
X113928095Y-100591961D02*
X113832857Y-100687200D01*
X113832857Y-100687200D02*
X113690000Y-100734819D01*
X113690000Y-100734819D02*
X113451905Y-100734819D01*
X114880476Y-99734819D02*
X114690000Y-99734819D01*
X114690000Y-99734819D02*
X114594762Y-99782438D01*
X114594762Y-99782438D02*
X114547143Y-99830057D01*
X114547143Y-99830057D02*
X114451905Y-99972914D01*
X114451905Y-99972914D02*
X114404286Y-100163390D01*
X114404286Y-100163390D02*
X114404286Y-100544342D01*
X114404286Y-100544342D02*
X114451905Y-100639580D01*
X114451905Y-100639580D02*
X114499524Y-100687200D01*
X114499524Y-100687200D02*
X114594762Y-100734819D01*
X114594762Y-100734819D02*
X114785238Y-100734819D01*
X114785238Y-100734819D02*
X114880476Y-100687200D01*
X114880476Y-100687200D02*
X114928095Y-100639580D01*
X114928095Y-100639580D02*
X114975714Y-100544342D01*
X114975714Y-100544342D02*
X114975714Y-100306247D01*
X114975714Y-100306247D02*
X114928095Y-100211009D01*
X114928095Y-100211009D02*
X114880476Y-100163390D01*
X114880476Y-100163390D02*
X114785238Y-100115771D01*
X114785238Y-100115771D02*
X114594762Y-100115771D01*
X114594762Y-100115771D02*
X114499524Y-100163390D01*
X114499524Y-100163390D02*
X114451905Y-100211009D01*
X114451905Y-100211009D02*
X114404286Y-100306247D01*
%TO.C,J11*%
X144737319Y-80199523D02*
X145451604Y-80199523D01*
X145451604Y-80199523D02*
X145594461Y-80247142D01*
X145594461Y-80247142D02*
X145689700Y-80342380D01*
X145689700Y-80342380D02*
X145737319Y-80485237D01*
X145737319Y-80485237D02*
X145737319Y-80580475D01*
X145737319Y-79199523D02*
X145737319Y-79770951D01*
X145737319Y-79485237D02*
X144737319Y-79485237D01*
X144737319Y-79485237D02*
X144880176Y-79580475D01*
X144880176Y-79580475D02*
X144975414Y-79675713D01*
X144975414Y-79675713D02*
X145023033Y-79770951D01*
X145737319Y-78247142D02*
X145737319Y-78818570D01*
X145737319Y-78532856D02*
X144737319Y-78532856D01*
X144737319Y-78532856D02*
X144880176Y-78628094D01*
X144880176Y-78628094D02*
X144975414Y-78723332D01*
X144975414Y-78723332D02*
X145023033Y-78818570D01*
%TO.C,R41*%
X113857142Y-100154819D02*
X113523809Y-99678628D01*
X113285714Y-100154819D02*
X113285714Y-99154819D01*
X113285714Y-99154819D02*
X113666666Y-99154819D01*
X113666666Y-99154819D02*
X113761904Y-99202438D01*
X113761904Y-99202438D02*
X113809523Y-99250057D01*
X113809523Y-99250057D02*
X113857142Y-99345295D01*
X113857142Y-99345295D02*
X113857142Y-99488152D01*
X113857142Y-99488152D02*
X113809523Y-99583390D01*
X113809523Y-99583390D02*
X113761904Y-99631009D01*
X113761904Y-99631009D02*
X113666666Y-99678628D01*
X113666666Y-99678628D02*
X113285714Y-99678628D01*
X114714285Y-99488152D02*
X114714285Y-100154819D01*
X114476190Y-99107200D02*
X114238095Y-99821485D01*
X114238095Y-99821485D02*
X114857142Y-99821485D01*
X115761904Y-100154819D02*
X115190476Y-100154819D01*
X115476190Y-100154819D02*
X115476190Y-99154819D01*
X115476190Y-99154819D02*
X115380952Y-99297676D01*
X115380952Y-99297676D02*
X115285714Y-99392914D01*
X115285714Y-99392914D02*
X115190476Y-99440533D01*
%TO.C,D1*%
X122561905Y-41954819D02*
X122561905Y-40954819D01*
X122561905Y-40954819D02*
X122800000Y-40954819D01*
X122800000Y-40954819D02*
X122942857Y-41002438D01*
X122942857Y-41002438D02*
X123038095Y-41097676D01*
X123038095Y-41097676D02*
X123085714Y-41192914D01*
X123085714Y-41192914D02*
X123133333Y-41383390D01*
X123133333Y-41383390D02*
X123133333Y-41526247D01*
X123133333Y-41526247D02*
X123085714Y-41716723D01*
X123085714Y-41716723D02*
X123038095Y-41811961D01*
X123038095Y-41811961D02*
X122942857Y-41907200D01*
X122942857Y-41907200D02*
X122800000Y-41954819D01*
X122800000Y-41954819D02*
X122561905Y-41954819D01*
X124085714Y-41954819D02*
X123514286Y-41954819D01*
X123800000Y-41954819D02*
X123800000Y-40954819D01*
X123800000Y-40954819D02*
X123704762Y-41097676D01*
X123704762Y-41097676D02*
X123609524Y-41192914D01*
X123609524Y-41192914D02*
X123514286Y-41240533D01*
%TO.C,R18*%
X135957142Y-51554819D02*
X135623809Y-51078628D01*
X135385714Y-51554819D02*
X135385714Y-50554819D01*
X135385714Y-50554819D02*
X135766666Y-50554819D01*
X135766666Y-50554819D02*
X135861904Y-50602438D01*
X135861904Y-50602438D02*
X135909523Y-50650057D01*
X135909523Y-50650057D02*
X135957142Y-50745295D01*
X135957142Y-50745295D02*
X135957142Y-50888152D01*
X135957142Y-50888152D02*
X135909523Y-50983390D01*
X135909523Y-50983390D02*
X135861904Y-51031009D01*
X135861904Y-51031009D02*
X135766666Y-51078628D01*
X135766666Y-51078628D02*
X135385714Y-51078628D01*
X136909523Y-51554819D02*
X136338095Y-51554819D01*
X136623809Y-51554819D02*
X136623809Y-50554819D01*
X136623809Y-50554819D02*
X136528571Y-50697676D01*
X136528571Y-50697676D02*
X136433333Y-50792914D01*
X136433333Y-50792914D02*
X136338095Y-50840533D01*
X137480952Y-50983390D02*
X137385714Y-50935771D01*
X137385714Y-50935771D02*
X137338095Y-50888152D01*
X137338095Y-50888152D02*
X137290476Y-50792914D01*
X137290476Y-50792914D02*
X137290476Y-50745295D01*
X137290476Y-50745295D02*
X137338095Y-50650057D01*
X137338095Y-50650057D02*
X137385714Y-50602438D01*
X137385714Y-50602438D02*
X137480952Y-50554819D01*
X137480952Y-50554819D02*
X137671428Y-50554819D01*
X137671428Y-50554819D02*
X137766666Y-50602438D01*
X137766666Y-50602438D02*
X137814285Y-50650057D01*
X137814285Y-50650057D02*
X137861904Y-50745295D01*
X137861904Y-50745295D02*
X137861904Y-50792914D01*
X137861904Y-50792914D02*
X137814285Y-50888152D01*
X137814285Y-50888152D02*
X137766666Y-50935771D01*
X137766666Y-50935771D02*
X137671428Y-50983390D01*
X137671428Y-50983390D02*
X137480952Y-50983390D01*
X137480952Y-50983390D02*
X137385714Y-51031009D01*
X137385714Y-51031009D02*
X137338095Y-51078628D01*
X137338095Y-51078628D02*
X137290476Y-51173866D01*
X137290476Y-51173866D02*
X137290476Y-51364342D01*
X137290476Y-51364342D02*
X137338095Y-51459580D01*
X137338095Y-51459580D02*
X137385714Y-51507200D01*
X137385714Y-51507200D02*
X137480952Y-51554819D01*
X137480952Y-51554819D02*
X137671428Y-51554819D01*
X137671428Y-51554819D02*
X137766666Y-51507200D01*
X137766666Y-51507200D02*
X137814285Y-51459580D01*
X137814285Y-51459580D02*
X137861904Y-51364342D01*
X137861904Y-51364342D02*
X137861904Y-51173866D01*
X137861904Y-51173866D02*
X137814285Y-51078628D01*
X137814285Y-51078628D02*
X137766666Y-51031009D01*
X137766666Y-51031009D02*
X137671428Y-50983390D01*
%TO.C,R27*%
X127719642Y-57954819D02*
X127386309Y-57478628D01*
X127148214Y-57954819D02*
X127148214Y-56954819D01*
X127148214Y-56954819D02*
X127529166Y-56954819D01*
X127529166Y-56954819D02*
X127624404Y-57002438D01*
X127624404Y-57002438D02*
X127672023Y-57050057D01*
X127672023Y-57050057D02*
X127719642Y-57145295D01*
X127719642Y-57145295D02*
X127719642Y-57288152D01*
X127719642Y-57288152D02*
X127672023Y-57383390D01*
X127672023Y-57383390D02*
X127624404Y-57431009D01*
X127624404Y-57431009D02*
X127529166Y-57478628D01*
X127529166Y-57478628D02*
X127148214Y-57478628D01*
X128100595Y-57050057D02*
X128148214Y-57002438D01*
X128148214Y-57002438D02*
X128243452Y-56954819D01*
X128243452Y-56954819D02*
X128481547Y-56954819D01*
X128481547Y-56954819D02*
X128576785Y-57002438D01*
X128576785Y-57002438D02*
X128624404Y-57050057D01*
X128624404Y-57050057D02*
X128672023Y-57145295D01*
X128672023Y-57145295D02*
X128672023Y-57240533D01*
X128672023Y-57240533D02*
X128624404Y-57383390D01*
X128624404Y-57383390D02*
X128052976Y-57954819D01*
X128052976Y-57954819D02*
X128672023Y-57954819D01*
X129005357Y-56954819D02*
X129672023Y-56954819D01*
X129672023Y-56954819D02*
X129243452Y-57954819D01*
%TO.C,C3*%
X121759580Y-86266666D02*
X121807200Y-86314285D01*
X121807200Y-86314285D02*
X121854819Y-86457142D01*
X121854819Y-86457142D02*
X121854819Y-86552380D01*
X121854819Y-86552380D02*
X121807200Y-86695237D01*
X121807200Y-86695237D02*
X121711961Y-86790475D01*
X121711961Y-86790475D02*
X121616723Y-86838094D01*
X121616723Y-86838094D02*
X121426247Y-86885713D01*
X121426247Y-86885713D02*
X121283390Y-86885713D01*
X121283390Y-86885713D02*
X121092914Y-86838094D01*
X121092914Y-86838094D02*
X120997676Y-86790475D01*
X120997676Y-86790475D02*
X120902438Y-86695237D01*
X120902438Y-86695237D02*
X120854819Y-86552380D01*
X120854819Y-86552380D02*
X120854819Y-86457142D01*
X120854819Y-86457142D02*
X120902438Y-86314285D01*
X120902438Y-86314285D02*
X120950057Y-86266666D01*
X120854819Y-85933332D02*
X120854819Y-85314285D01*
X120854819Y-85314285D02*
X121235771Y-85647618D01*
X121235771Y-85647618D02*
X121235771Y-85504761D01*
X121235771Y-85504761D02*
X121283390Y-85409523D01*
X121283390Y-85409523D02*
X121331009Y-85361904D01*
X121331009Y-85361904D02*
X121426247Y-85314285D01*
X121426247Y-85314285D02*
X121664342Y-85314285D01*
X121664342Y-85314285D02*
X121759580Y-85361904D01*
X121759580Y-85361904D02*
X121807200Y-85409523D01*
X121807200Y-85409523D02*
X121854819Y-85504761D01*
X121854819Y-85504761D02*
X121854819Y-85790475D01*
X121854819Y-85790475D02*
X121807200Y-85885713D01*
X121807200Y-85885713D02*
X121759580Y-85933332D01*
%TO.C,D11*%
X139585714Y-123954819D02*
X139585714Y-122954819D01*
X139585714Y-122954819D02*
X139823809Y-122954819D01*
X139823809Y-122954819D02*
X139966666Y-123002438D01*
X139966666Y-123002438D02*
X140061904Y-123097676D01*
X140061904Y-123097676D02*
X140109523Y-123192914D01*
X140109523Y-123192914D02*
X140157142Y-123383390D01*
X140157142Y-123383390D02*
X140157142Y-123526247D01*
X140157142Y-123526247D02*
X140109523Y-123716723D01*
X140109523Y-123716723D02*
X140061904Y-123811961D01*
X140061904Y-123811961D02*
X139966666Y-123907200D01*
X139966666Y-123907200D02*
X139823809Y-123954819D01*
X139823809Y-123954819D02*
X139585714Y-123954819D01*
X141109523Y-123954819D02*
X140538095Y-123954819D01*
X140823809Y-123954819D02*
X140823809Y-122954819D01*
X140823809Y-122954819D02*
X140728571Y-123097676D01*
X140728571Y-123097676D02*
X140633333Y-123192914D01*
X140633333Y-123192914D02*
X140538095Y-123240533D01*
X142061904Y-123954819D02*
X141490476Y-123954819D01*
X141776190Y-123954819D02*
X141776190Y-122954819D01*
X141776190Y-122954819D02*
X141680952Y-123097676D01*
X141680952Y-123097676D02*
X141585714Y-123192914D01*
X141585714Y-123192914D02*
X141490476Y-123240533D01*
%TO.C,U2*%
X119665595Y-58309819D02*
X119665595Y-59119342D01*
X119665595Y-59119342D02*
X119713214Y-59214580D01*
X119713214Y-59214580D02*
X119760833Y-59262200D01*
X119760833Y-59262200D02*
X119856071Y-59309819D01*
X119856071Y-59309819D02*
X120046547Y-59309819D01*
X120046547Y-59309819D02*
X120141785Y-59262200D01*
X120141785Y-59262200D02*
X120189404Y-59214580D01*
X120189404Y-59214580D02*
X120237023Y-59119342D01*
X120237023Y-59119342D02*
X120237023Y-58309819D01*
X120665595Y-58405057D02*
X120713214Y-58357438D01*
X120713214Y-58357438D02*
X120808452Y-58309819D01*
X120808452Y-58309819D02*
X121046547Y-58309819D01*
X121046547Y-58309819D02*
X121141785Y-58357438D01*
X121141785Y-58357438D02*
X121189404Y-58405057D01*
X121189404Y-58405057D02*
X121237023Y-58500295D01*
X121237023Y-58500295D02*
X121237023Y-58595533D01*
X121237023Y-58595533D02*
X121189404Y-58738390D01*
X121189404Y-58738390D02*
X120617976Y-59309819D01*
X120617976Y-59309819D02*
X121237023Y-59309819D01*
%TO.C,R12*%
X140969642Y-60054819D02*
X140636309Y-59578628D01*
X140398214Y-60054819D02*
X140398214Y-59054819D01*
X140398214Y-59054819D02*
X140779166Y-59054819D01*
X140779166Y-59054819D02*
X140874404Y-59102438D01*
X140874404Y-59102438D02*
X140922023Y-59150057D01*
X140922023Y-59150057D02*
X140969642Y-59245295D01*
X140969642Y-59245295D02*
X140969642Y-59388152D01*
X140969642Y-59388152D02*
X140922023Y-59483390D01*
X140922023Y-59483390D02*
X140874404Y-59531009D01*
X140874404Y-59531009D02*
X140779166Y-59578628D01*
X140779166Y-59578628D02*
X140398214Y-59578628D01*
X141922023Y-60054819D02*
X141350595Y-60054819D01*
X141636309Y-60054819D02*
X141636309Y-59054819D01*
X141636309Y-59054819D02*
X141541071Y-59197676D01*
X141541071Y-59197676D02*
X141445833Y-59292914D01*
X141445833Y-59292914D02*
X141350595Y-59340533D01*
X142302976Y-59150057D02*
X142350595Y-59102438D01*
X142350595Y-59102438D02*
X142445833Y-59054819D01*
X142445833Y-59054819D02*
X142683928Y-59054819D01*
X142683928Y-59054819D02*
X142779166Y-59102438D01*
X142779166Y-59102438D02*
X142826785Y-59150057D01*
X142826785Y-59150057D02*
X142874404Y-59245295D01*
X142874404Y-59245295D02*
X142874404Y-59340533D01*
X142874404Y-59340533D02*
X142826785Y-59483390D01*
X142826785Y-59483390D02*
X142255357Y-60054819D01*
X142255357Y-60054819D02*
X142874404Y-60054819D01*
%TO.C,R4*%
X123204819Y-95766666D02*
X122728628Y-96099999D01*
X123204819Y-96338094D02*
X122204819Y-96338094D01*
X122204819Y-96338094D02*
X122204819Y-95957142D01*
X122204819Y-95957142D02*
X122252438Y-95861904D01*
X122252438Y-95861904D02*
X122300057Y-95814285D01*
X122300057Y-95814285D02*
X122395295Y-95766666D01*
X122395295Y-95766666D02*
X122538152Y-95766666D01*
X122538152Y-95766666D02*
X122633390Y-95814285D01*
X122633390Y-95814285D02*
X122681009Y-95861904D01*
X122681009Y-95861904D02*
X122728628Y-95957142D01*
X122728628Y-95957142D02*
X122728628Y-96338094D01*
X122538152Y-94909523D02*
X123204819Y-94909523D01*
X122157200Y-95147618D02*
X122871485Y-95385713D01*
X122871485Y-95385713D02*
X122871485Y-94766666D01*
%TO.C,R36*%
X122954819Y-123842857D02*
X122478628Y-124176190D01*
X122954819Y-124414285D02*
X121954819Y-124414285D01*
X121954819Y-124414285D02*
X121954819Y-124033333D01*
X121954819Y-124033333D02*
X122002438Y-123938095D01*
X122002438Y-123938095D02*
X122050057Y-123890476D01*
X122050057Y-123890476D02*
X122145295Y-123842857D01*
X122145295Y-123842857D02*
X122288152Y-123842857D01*
X122288152Y-123842857D02*
X122383390Y-123890476D01*
X122383390Y-123890476D02*
X122431009Y-123938095D01*
X122431009Y-123938095D02*
X122478628Y-124033333D01*
X122478628Y-124033333D02*
X122478628Y-124414285D01*
X121954819Y-123509523D02*
X121954819Y-122890476D01*
X121954819Y-122890476D02*
X122335771Y-123223809D01*
X122335771Y-123223809D02*
X122335771Y-123080952D01*
X122335771Y-123080952D02*
X122383390Y-122985714D01*
X122383390Y-122985714D02*
X122431009Y-122938095D01*
X122431009Y-122938095D02*
X122526247Y-122890476D01*
X122526247Y-122890476D02*
X122764342Y-122890476D01*
X122764342Y-122890476D02*
X122859580Y-122938095D01*
X122859580Y-122938095D02*
X122907200Y-122985714D01*
X122907200Y-122985714D02*
X122954819Y-123080952D01*
X122954819Y-123080952D02*
X122954819Y-123366666D01*
X122954819Y-123366666D02*
X122907200Y-123461904D01*
X122907200Y-123461904D02*
X122859580Y-123509523D01*
X121954819Y-122033333D02*
X121954819Y-122223809D01*
X121954819Y-122223809D02*
X122002438Y-122319047D01*
X122002438Y-122319047D02*
X122050057Y-122366666D01*
X122050057Y-122366666D02*
X122192914Y-122461904D01*
X122192914Y-122461904D02*
X122383390Y-122509523D01*
X122383390Y-122509523D02*
X122764342Y-122509523D01*
X122764342Y-122509523D02*
X122859580Y-122461904D01*
X122859580Y-122461904D02*
X122907200Y-122414285D01*
X122907200Y-122414285D02*
X122954819Y-122319047D01*
X122954819Y-122319047D02*
X122954819Y-122128571D01*
X122954819Y-122128571D02*
X122907200Y-122033333D01*
X122907200Y-122033333D02*
X122859580Y-121985714D01*
X122859580Y-121985714D02*
X122764342Y-121938095D01*
X122764342Y-121938095D02*
X122526247Y-121938095D01*
X122526247Y-121938095D02*
X122431009Y-121985714D01*
X122431009Y-121985714D02*
X122383390Y-122033333D01*
X122383390Y-122033333D02*
X122335771Y-122128571D01*
X122335771Y-122128571D02*
X122335771Y-122319047D01*
X122335771Y-122319047D02*
X122383390Y-122414285D01*
X122383390Y-122414285D02*
X122431009Y-122461904D01*
X122431009Y-122461904D02*
X122526247Y-122509523D01*
%TO.C,R26*%
X121817319Y-56492857D02*
X121341128Y-56826190D01*
X121817319Y-57064285D02*
X120817319Y-57064285D01*
X120817319Y-57064285D02*
X120817319Y-56683333D01*
X120817319Y-56683333D02*
X120864938Y-56588095D01*
X120864938Y-56588095D02*
X120912557Y-56540476D01*
X120912557Y-56540476D02*
X121007795Y-56492857D01*
X121007795Y-56492857D02*
X121150652Y-56492857D01*
X121150652Y-56492857D02*
X121245890Y-56540476D01*
X121245890Y-56540476D02*
X121293509Y-56588095D01*
X121293509Y-56588095D02*
X121341128Y-56683333D01*
X121341128Y-56683333D02*
X121341128Y-57064285D01*
X120912557Y-56111904D02*
X120864938Y-56064285D01*
X120864938Y-56064285D02*
X120817319Y-55969047D01*
X120817319Y-55969047D02*
X120817319Y-55730952D01*
X120817319Y-55730952D02*
X120864938Y-55635714D01*
X120864938Y-55635714D02*
X120912557Y-55588095D01*
X120912557Y-55588095D02*
X121007795Y-55540476D01*
X121007795Y-55540476D02*
X121103033Y-55540476D01*
X121103033Y-55540476D02*
X121245890Y-55588095D01*
X121245890Y-55588095D02*
X121817319Y-56159523D01*
X121817319Y-56159523D02*
X121817319Y-55540476D01*
X120817319Y-54683333D02*
X120817319Y-54873809D01*
X120817319Y-54873809D02*
X120864938Y-54969047D01*
X120864938Y-54969047D02*
X120912557Y-55016666D01*
X120912557Y-55016666D02*
X121055414Y-55111904D01*
X121055414Y-55111904D02*
X121245890Y-55159523D01*
X121245890Y-55159523D02*
X121626842Y-55159523D01*
X121626842Y-55159523D02*
X121722080Y-55111904D01*
X121722080Y-55111904D02*
X121769700Y-55064285D01*
X121769700Y-55064285D02*
X121817319Y-54969047D01*
X121817319Y-54969047D02*
X121817319Y-54778571D01*
X121817319Y-54778571D02*
X121769700Y-54683333D01*
X121769700Y-54683333D02*
X121722080Y-54635714D01*
X121722080Y-54635714D02*
X121626842Y-54588095D01*
X121626842Y-54588095D02*
X121388747Y-54588095D01*
X121388747Y-54588095D02*
X121293509Y-54635714D01*
X121293509Y-54635714D02*
X121245890Y-54683333D01*
X121245890Y-54683333D02*
X121198271Y-54778571D01*
X121198271Y-54778571D02*
X121198271Y-54969047D01*
X121198271Y-54969047D02*
X121245890Y-55064285D01*
X121245890Y-55064285D02*
X121293509Y-55111904D01*
X121293509Y-55111904D02*
X121388747Y-55159523D01*
%TO.C,D10*%
X139148214Y-105804819D02*
X139148214Y-104804819D01*
X139148214Y-104804819D02*
X139386309Y-104804819D01*
X139386309Y-104804819D02*
X139529166Y-104852438D01*
X139529166Y-104852438D02*
X139624404Y-104947676D01*
X139624404Y-104947676D02*
X139672023Y-105042914D01*
X139672023Y-105042914D02*
X139719642Y-105233390D01*
X139719642Y-105233390D02*
X139719642Y-105376247D01*
X139719642Y-105376247D02*
X139672023Y-105566723D01*
X139672023Y-105566723D02*
X139624404Y-105661961D01*
X139624404Y-105661961D02*
X139529166Y-105757200D01*
X139529166Y-105757200D02*
X139386309Y-105804819D01*
X139386309Y-105804819D02*
X139148214Y-105804819D01*
X140672023Y-105804819D02*
X140100595Y-105804819D01*
X140386309Y-105804819D02*
X140386309Y-104804819D01*
X140386309Y-104804819D02*
X140291071Y-104947676D01*
X140291071Y-104947676D02*
X140195833Y-105042914D01*
X140195833Y-105042914D02*
X140100595Y-105090533D01*
X141291071Y-104804819D02*
X141386309Y-104804819D01*
X141386309Y-104804819D02*
X141481547Y-104852438D01*
X141481547Y-104852438D02*
X141529166Y-104900057D01*
X141529166Y-104900057D02*
X141576785Y-104995295D01*
X141576785Y-104995295D02*
X141624404Y-105185771D01*
X141624404Y-105185771D02*
X141624404Y-105423866D01*
X141624404Y-105423866D02*
X141576785Y-105614342D01*
X141576785Y-105614342D02*
X141529166Y-105709580D01*
X141529166Y-105709580D02*
X141481547Y-105757200D01*
X141481547Y-105757200D02*
X141386309Y-105804819D01*
X141386309Y-105804819D02*
X141291071Y-105804819D01*
X141291071Y-105804819D02*
X141195833Y-105757200D01*
X141195833Y-105757200D02*
X141148214Y-105709580D01*
X141148214Y-105709580D02*
X141100595Y-105614342D01*
X141100595Y-105614342D02*
X141052976Y-105423866D01*
X141052976Y-105423866D02*
X141052976Y-105185771D01*
X141052976Y-105185771D02*
X141100595Y-104995295D01*
X141100595Y-104995295D02*
X141148214Y-104900057D01*
X141148214Y-104900057D02*
X141195833Y-104852438D01*
X141195833Y-104852438D02*
X141291071Y-104804819D01*
%TO.C,R17*%
X135957142Y-48954819D02*
X135623809Y-48478628D01*
X135385714Y-48954819D02*
X135385714Y-47954819D01*
X135385714Y-47954819D02*
X135766666Y-47954819D01*
X135766666Y-47954819D02*
X135861904Y-48002438D01*
X135861904Y-48002438D02*
X135909523Y-48050057D01*
X135909523Y-48050057D02*
X135957142Y-48145295D01*
X135957142Y-48145295D02*
X135957142Y-48288152D01*
X135957142Y-48288152D02*
X135909523Y-48383390D01*
X135909523Y-48383390D02*
X135861904Y-48431009D01*
X135861904Y-48431009D02*
X135766666Y-48478628D01*
X135766666Y-48478628D02*
X135385714Y-48478628D01*
X136909523Y-48954819D02*
X136338095Y-48954819D01*
X136623809Y-48954819D02*
X136623809Y-47954819D01*
X136623809Y-47954819D02*
X136528571Y-48097676D01*
X136528571Y-48097676D02*
X136433333Y-48192914D01*
X136433333Y-48192914D02*
X136338095Y-48240533D01*
X137242857Y-47954819D02*
X137909523Y-47954819D01*
X137909523Y-47954819D02*
X137480952Y-48954819D01*
%TO.C,R34*%
X148757142Y-60754819D02*
X148423809Y-60278628D01*
X148185714Y-60754819D02*
X148185714Y-59754819D01*
X148185714Y-59754819D02*
X148566666Y-59754819D01*
X148566666Y-59754819D02*
X148661904Y-59802438D01*
X148661904Y-59802438D02*
X148709523Y-59850057D01*
X148709523Y-59850057D02*
X148757142Y-59945295D01*
X148757142Y-59945295D02*
X148757142Y-60088152D01*
X148757142Y-60088152D02*
X148709523Y-60183390D01*
X148709523Y-60183390D02*
X148661904Y-60231009D01*
X148661904Y-60231009D02*
X148566666Y-60278628D01*
X148566666Y-60278628D02*
X148185714Y-60278628D01*
X149090476Y-59754819D02*
X149709523Y-59754819D01*
X149709523Y-59754819D02*
X149376190Y-60135771D01*
X149376190Y-60135771D02*
X149519047Y-60135771D01*
X149519047Y-60135771D02*
X149614285Y-60183390D01*
X149614285Y-60183390D02*
X149661904Y-60231009D01*
X149661904Y-60231009D02*
X149709523Y-60326247D01*
X149709523Y-60326247D02*
X149709523Y-60564342D01*
X149709523Y-60564342D02*
X149661904Y-60659580D01*
X149661904Y-60659580D02*
X149614285Y-60707200D01*
X149614285Y-60707200D02*
X149519047Y-60754819D01*
X149519047Y-60754819D02*
X149233333Y-60754819D01*
X149233333Y-60754819D02*
X149138095Y-60707200D01*
X149138095Y-60707200D02*
X149090476Y-60659580D01*
X150566666Y-60088152D02*
X150566666Y-60754819D01*
X150328571Y-59707200D02*
X150090476Y-60421485D01*
X150090476Y-60421485D02*
X150709523Y-60421485D01*
%TO.C,R32*%
X149317319Y-66992857D02*
X148841128Y-67326190D01*
X149317319Y-67564285D02*
X148317319Y-67564285D01*
X148317319Y-67564285D02*
X148317319Y-67183333D01*
X148317319Y-67183333D02*
X148364938Y-67088095D01*
X148364938Y-67088095D02*
X148412557Y-67040476D01*
X148412557Y-67040476D02*
X148507795Y-66992857D01*
X148507795Y-66992857D02*
X148650652Y-66992857D01*
X148650652Y-66992857D02*
X148745890Y-67040476D01*
X148745890Y-67040476D02*
X148793509Y-67088095D01*
X148793509Y-67088095D02*
X148841128Y-67183333D01*
X148841128Y-67183333D02*
X148841128Y-67564285D01*
X148317319Y-66659523D02*
X148317319Y-66040476D01*
X148317319Y-66040476D02*
X148698271Y-66373809D01*
X148698271Y-66373809D02*
X148698271Y-66230952D01*
X148698271Y-66230952D02*
X148745890Y-66135714D01*
X148745890Y-66135714D02*
X148793509Y-66088095D01*
X148793509Y-66088095D02*
X148888747Y-66040476D01*
X148888747Y-66040476D02*
X149126842Y-66040476D01*
X149126842Y-66040476D02*
X149222080Y-66088095D01*
X149222080Y-66088095D02*
X149269700Y-66135714D01*
X149269700Y-66135714D02*
X149317319Y-66230952D01*
X149317319Y-66230952D02*
X149317319Y-66516666D01*
X149317319Y-66516666D02*
X149269700Y-66611904D01*
X149269700Y-66611904D02*
X149222080Y-66659523D01*
X148412557Y-65659523D02*
X148364938Y-65611904D01*
X148364938Y-65611904D02*
X148317319Y-65516666D01*
X148317319Y-65516666D02*
X148317319Y-65278571D01*
X148317319Y-65278571D02*
X148364938Y-65183333D01*
X148364938Y-65183333D02*
X148412557Y-65135714D01*
X148412557Y-65135714D02*
X148507795Y-65088095D01*
X148507795Y-65088095D02*
X148603033Y-65088095D01*
X148603033Y-65088095D02*
X148745890Y-65135714D01*
X148745890Y-65135714D02*
X149317319Y-65707142D01*
X149317319Y-65707142D02*
X149317319Y-65088095D01*
%TO.C,Q4*%
X146842261Y-105475057D02*
X146747023Y-105427438D01*
X146747023Y-105427438D02*
X146651785Y-105332200D01*
X146651785Y-105332200D02*
X146508928Y-105189342D01*
X146508928Y-105189342D02*
X146413690Y-105141723D01*
X146413690Y-105141723D02*
X146318452Y-105141723D01*
X146366071Y-105379819D02*
X146270833Y-105332200D01*
X146270833Y-105332200D02*
X146175595Y-105236961D01*
X146175595Y-105236961D02*
X146127976Y-105046485D01*
X146127976Y-105046485D02*
X146127976Y-104713152D01*
X146127976Y-104713152D02*
X146175595Y-104522676D01*
X146175595Y-104522676D02*
X146270833Y-104427438D01*
X146270833Y-104427438D02*
X146366071Y-104379819D01*
X146366071Y-104379819D02*
X146556547Y-104379819D01*
X146556547Y-104379819D02*
X146651785Y-104427438D01*
X146651785Y-104427438D02*
X146747023Y-104522676D01*
X146747023Y-104522676D02*
X146794642Y-104713152D01*
X146794642Y-104713152D02*
X146794642Y-105046485D01*
X146794642Y-105046485D02*
X146747023Y-105236961D01*
X146747023Y-105236961D02*
X146651785Y-105332200D01*
X146651785Y-105332200D02*
X146556547Y-105379819D01*
X146556547Y-105379819D02*
X146366071Y-105379819D01*
X147651785Y-104713152D02*
X147651785Y-105379819D01*
X147413690Y-104332200D02*
X147175595Y-105046485D01*
X147175595Y-105046485D02*
X147794642Y-105046485D01*
%TO.C,C5*%
X129222080Y-70229166D02*
X129269700Y-70276785D01*
X129269700Y-70276785D02*
X129317319Y-70419642D01*
X129317319Y-70419642D02*
X129317319Y-70514880D01*
X129317319Y-70514880D02*
X129269700Y-70657737D01*
X129269700Y-70657737D02*
X129174461Y-70752975D01*
X129174461Y-70752975D02*
X129079223Y-70800594D01*
X129079223Y-70800594D02*
X128888747Y-70848213D01*
X128888747Y-70848213D02*
X128745890Y-70848213D01*
X128745890Y-70848213D02*
X128555414Y-70800594D01*
X128555414Y-70800594D02*
X128460176Y-70752975D01*
X128460176Y-70752975D02*
X128364938Y-70657737D01*
X128364938Y-70657737D02*
X128317319Y-70514880D01*
X128317319Y-70514880D02*
X128317319Y-70419642D01*
X128317319Y-70419642D02*
X128364938Y-70276785D01*
X128364938Y-70276785D02*
X128412557Y-70229166D01*
X128317319Y-69324404D02*
X128317319Y-69800594D01*
X128317319Y-69800594D02*
X128793509Y-69848213D01*
X128793509Y-69848213D02*
X128745890Y-69800594D01*
X128745890Y-69800594D02*
X128698271Y-69705356D01*
X128698271Y-69705356D02*
X128698271Y-69467261D01*
X128698271Y-69467261D02*
X128745890Y-69372023D01*
X128745890Y-69372023D02*
X128793509Y-69324404D01*
X128793509Y-69324404D02*
X128888747Y-69276785D01*
X128888747Y-69276785D02*
X129126842Y-69276785D01*
X129126842Y-69276785D02*
X129222080Y-69324404D01*
X129222080Y-69324404D02*
X129269700Y-69372023D01*
X129269700Y-69372023D02*
X129317319Y-69467261D01*
X129317319Y-69467261D02*
X129317319Y-69705356D01*
X129317319Y-69705356D02*
X129269700Y-69800594D01*
X129269700Y-69800594D02*
X129222080Y-69848213D01*
%TO.C,R8*%
X123204819Y-90766666D02*
X122728628Y-91099999D01*
X123204819Y-91338094D02*
X122204819Y-91338094D01*
X122204819Y-91338094D02*
X122204819Y-90957142D01*
X122204819Y-90957142D02*
X122252438Y-90861904D01*
X122252438Y-90861904D02*
X122300057Y-90814285D01*
X122300057Y-90814285D02*
X122395295Y-90766666D01*
X122395295Y-90766666D02*
X122538152Y-90766666D01*
X122538152Y-90766666D02*
X122633390Y-90814285D01*
X122633390Y-90814285D02*
X122681009Y-90861904D01*
X122681009Y-90861904D02*
X122728628Y-90957142D01*
X122728628Y-90957142D02*
X122728628Y-91338094D01*
X122633390Y-90195237D02*
X122585771Y-90290475D01*
X122585771Y-90290475D02*
X122538152Y-90338094D01*
X122538152Y-90338094D02*
X122442914Y-90385713D01*
X122442914Y-90385713D02*
X122395295Y-90385713D01*
X122395295Y-90385713D02*
X122300057Y-90338094D01*
X122300057Y-90338094D02*
X122252438Y-90290475D01*
X122252438Y-90290475D02*
X122204819Y-90195237D01*
X122204819Y-90195237D02*
X122204819Y-90004761D01*
X122204819Y-90004761D02*
X122252438Y-89909523D01*
X122252438Y-89909523D02*
X122300057Y-89861904D01*
X122300057Y-89861904D02*
X122395295Y-89814285D01*
X122395295Y-89814285D02*
X122442914Y-89814285D01*
X122442914Y-89814285D02*
X122538152Y-89861904D01*
X122538152Y-89861904D02*
X122585771Y-89909523D01*
X122585771Y-89909523D02*
X122633390Y-90004761D01*
X122633390Y-90004761D02*
X122633390Y-90195237D01*
X122633390Y-90195237D02*
X122681009Y-90290475D01*
X122681009Y-90290475D02*
X122728628Y-90338094D01*
X122728628Y-90338094D02*
X122823866Y-90385713D01*
X122823866Y-90385713D02*
X123014342Y-90385713D01*
X123014342Y-90385713D02*
X123109580Y-90338094D01*
X123109580Y-90338094D02*
X123157200Y-90290475D01*
X123157200Y-90290475D02*
X123204819Y-90195237D01*
X123204819Y-90195237D02*
X123204819Y-90004761D01*
X123204819Y-90004761D02*
X123157200Y-89909523D01*
X123157200Y-89909523D02*
X123109580Y-89861904D01*
X123109580Y-89861904D02*
X123014342Y-89814285D01*
X123014342Y-89814285D02*
X122823866Y-89814285D01*
X122823866Y-89814285D02*
X122728628Y-89861904D01*
X122728628Y-89861904D02*
X122681009Y-89909523D01*
X122681009Y-89909523D02*
X122633390Y-90004761D01*
%TO.C,R22*%
X116467319Y-58492857D02*
X115991128Y-58826190D01*
X116467319Y-59064285D02*
X115467319Y-59064285D01*
X115467319Y-59064285D02*
X115467319Y-58683333D01*
X115467319Y-58683333D02*
X115514938Y-58588095D01*
X115514938Y-58588095D02*
X115562557Y-58540476D01*
X115562557Y-58540476D02*
X115657795Y-58492857D01*
X115657795Y-58492857D02*
X115800652Y-58492857D01*
X115800652Y-58492857D02*
X115895890Y-58540476D01*
X115895890Y-58540476D02*
X115943509Y-58588095D01*
X115943509Y-58588095D02*
X115991128Y-58683333D01*
X115991128Y-58683333D02*
X115991128Y-59064285D01*
X115562557Y-58111904D02*
X115514938Y-58064285D01*
X115514938Y-58064285D02*
X115467319Y-57969047D01*
X115467319Y-57969047D02*
X115467319Y-57730952D01*
X115467319Y-57730952D02*
X115514938Y-57635714D01*
X115514938Y-57635714D02*
X115562557Y-57588095D01*
X115562557Y-57588095D02*
X115657795Y-57540476D01*
X115657795Y-57540476D02*
X115753033Y-57540476D01*
X115753033Y-57540476D02*
X115895890Y-57588095D01*
X115895890Y-57588095D02*
X116467319Y-58159523D01*
X116467319Y-58159523D02*
X116467319Y-57540476D01*
X115562557Y-57159523D02*
X115514938Y-57111904D01*
X115514938Y-57111904D02*
X115467319Y-57016666D01*
X115467319Y-57016666D02*
X115467319Y-56778571D01*
X115467319Y-56778571D02*
X115514938Y-56683333D01*
X115514938Y-56683333D02*
X115562557Y-56635714D01*
X115562557Y-56635714D02*
X115657795Y-56588095D01*
X115657795Y-56588095D02*
X115753033Y-56588095D01*
X115753033Y-56588095D02*
X115895890Y-56635714D01*
X115895890Y-56635714D02*
X116467319Y-57207142D01*
X116467319Y-57207142D02*
X116467319Y-56588095D01*
%TO.C,C1*%
X148695833Y-53029580D02*
X148648214Y-53077200D01*
X148648214Y-53077200D02*
X148505357Y-53124819D01*
X148505357Y-53124819D02*
X148410119Y-53124819D01*
X148410119Y-53124819D02*
X148267262Y-53077200D01*
X148267262Y-53077200D02*
X148172024Y-52981961D01*
X148172024Y-52981961D02*
X148124405Y-52886723D01*
X148124405Y-52886723D02*
X148076786Y-52696247D01*
X148076786Y-52696247D02*
X148076786Y-52553390D01*
X148076786Y-52553390D02*
X148124405Y-52362914D01*
X148124405Y-52362914D02*
X148172024Y-52267676D01*
X148172024Y-52267676D02*
X148267262Y-52172438D01*
X148267262Y-52172438D02*
X148410119Y-52124819D01*
X148410119Y-52124819D02*
X148505357Y-52124819D01*
X148505357Y-52124819D02*
X148648214Y-52172438D01*
X148648214Y-52172438D02*
X148695833Y-52220057D01*
X149648214Y-53124819D02*
X149076786Y-53124819D01*
X149362500Y-53124819D02*
X149362500Y-52124819D01*
X149362500Y-52124819D02*
X149267262Y-52267676D01*
X149267262Y-52267676D02*
X149172024Y-52362914D01*
X149172024Y-52362914D02*
X149076786Y-52410533D01*
%TO.C,R14*%
X140467319Y-62492857D02*
X139991128Y-62826190D01*
X140467319Y-63064285D02*
X139467319Y-63064285D01*
X139467319Y-63064285D02*
X139467319Y-62683333D01*
X139467319Y-62683333D02*
X139514938Y-62588095D01*
X139514938Y-62588095D02*
X139562557Y-62540476D01*
X139562557Y-62540476D02*
X139657795Y-62492857D01*
X139657795Y-62492857D02*
X139800652Y-62492857D01*
X139800652Y-62492857D02*
X139895890Y-62540476D01*
X139895890Y-62540476D02*
X139943509Y-62588095D01*
X139943509Y-62588095D02*
X139991128Y-62683333D01*
X139991128Y-62683333D02*
X139991128Y-63064285D01*
X140467319Y-61540476D02*
X140467319Y-62111904D01*
X140467319Y-61826190D02*
X139467319Y-61826190D01*
X139467319Y-61826190D02*
X139610176Y-61921428D01*
X139610176Y-61921428D02*
X139705414Y-62016666D01*
X139705414Y-62016666D02*
X139753033Y-62111904D01*
X139800652Y-60683333D02*
X140467319Y-60683333D01*
X139419700Y-60921428D02*
X140133985Y-61159523D01*
X140133985Y-61159523D02*
X140133985Y-60540476D01*
%TO.C,R13*%
X143717319Y-66992857D02*
X143241128Y-67326190D01*
X143717319Y-67564285D02*
X142717319Y-67564285D01*
X142717319Y-67564285D02*
X142717319Y-67183333D01*
X142717319Y-67183333D02*
X142764938Y-67088095D01*
X142764938Y-67088095D02*
X142812557Y-67040476D01*
X142812557Y-67040476D02*
X142907795Y-66992857D01*
X142907795Y-66992857D02*
X143050652Y-66992857D01*
X143050652Y-66992857D02*
X143145890Y-67040476D01*
X143145890Y-67040476D02*
X143193509Y-67088095D01*
X143193509Y-67088095D02*
X143241128Y-67183333D01*
X143241128Y-67183333D02*
X143241128Y-67564285D01*
X143717319Y-66040476D02*
X143717319Y-66611904D01*
X143717319Y-66326190D02*
X142717319Y-66326190D01*
X142717319Y-66326190D02*
X142860176Y-66421428D01*
X142860176Y-66421428D02*
X142955414Y-66516666D01*
X142955414Y-66516666D02*
X143003033Y-66611904D01*
X142717319Y-65707142D02*
X142717319Y-65088095D01*
X142717319Y-65088095D02*
X143098271Y-65421428D01*
X143098271Y-65421428D02*
X143098271Y-65278571D01*
X143098271Y-65278571D02*
X143145890Y-65183333D01*
X143145890Y-65183333D02*
X143193509Y-65135714D01*
X143193509Y-65135714D02*
X143288747Y-65088095D01*
X143288747Y-65088095D02*
X143526842Y-65088095D01*
X143526842Y-65088095D02*
X143622080Y-65135714D01*
X143622080Y-65135714D02*
X143669700Y-65183333D01*
X143669700Y-65183333D02*
X143717319Y-65278571D01*
X143717319Y-65278571D02*
X143717319Y-65564285D01*
X143717319Y-65564285D02*
X143669700Y-65659523D01*
X143669700Y-65659523D02*
X143622080Y-65707142D01*
%TO.C,Q2*%
X131450057Y-52695238D02*
X131402438Y-52790476D01*
X131402438Y-52790476D02*
X131307200Y-52885714D01*
X131307200Y-52885714D02*
X131164342Y-53028571D01*
X131164342Y-53028571D02*
X131116723Y-53123809D01*
X131116723Y-53123809D02*
X131116723Y-53219047D01*
X131354819Y-53171428D02*
X131307200Y-53266666D01*
X131307200Y-53266666D02*
X131211961Y-53361904D01*
X131211961Y-53361904D02*
X131021485Y-53409523D01*
X131021485Y-53409523D02*
X130688152Y-53409523D01*
X130688152Y-53409523D02*
X130497676Y-53361904D01*
X130497676Y-53361904D02*
X130402438Y-53266666D01*
X130402438Y-53266666D02*
X130354819Y-53171428D01*
X130354819Y-53171428D02*
X130354819Y-52980952D01*
X130354819Y-52980952D02*
X130402438Y-52885714D01*
X130402438Y-52885714D02*
X130497676Y-52790476D01*
X130497676Y-52790476D02*
X130688152Y-52742857D01*
X130688152Y-52742857D02*
X131021485Y-52742857D01*
X131021485Y-52742857D02*
X131211961Y-52790476D01*
X131211961Y-52790476D02*
X131307200Y-52885714D01*
X131307200Y-52885714D02*
X131354819Y-52980952D01*
X131354819Y-52980952D02*
X131354819Y-53171428D01*
X130450057Y-52361904D02*
X130402438Y-52314285D01*
X130402438Y-52314285D02*
X130354819Y-52219047D01*
X130354819Y-52219047D02*
X130354819Y-51980952D01*
X130354819Y-51980952D02*
X130402438Y-51885714D01*
X130402438Y-51885714D02*
X130450057Y-51838095D01*
X130450057Y-51838095D02*
X130545295Y-51790476D01*
X130545295Y-51790476D02*
X130640533Y-51790476D01*
X130640533Y-51790476D02*
X130783390Y-51838095D01*
X130783390Y-51838095D02*
X131354819Y-52409523D01*
X131354819Y-52409523D02*
X131354819Y-51790476D01*
%TO.C,J6*%
X112329166Y-34704819D02*
X112329166Y-35419104D01*
X112329166Y-35419104D02*
X112281547Y-35561961D01*
X112281547Y-35561961D02*
X112186309Y-35657200D01*
X112186309Y-35657200D02*
X112043452Y-35704819D01*
X112043452Y-35704819D02*
X111948214Y-35704819D01*
X113233928Y-34704819D02*
X113043452Y-34704819D01*
X113043452Y-34704819D02*
X112948214Y-34752438D01*
X112948214Y-34752438D02*
X112900595Y-34800057D01*
X112900595Y-34800057D02*
X112805357Y-34942914D01*
X112805357Y-34942914D02*
X112757738Y-35133390D01*
X112757738Y-35133390D02*
X112757738Y-35514342D01*
X112757738Y-35514342D02*
X112805357Y-35609580D01*
X112805357Y-35609580D02*
X112852976Y-35657200D01*
X112852976Y-35657200D02*
X112948214Y-35704819D01*
X112948214Y-35704819D02*
X113138690Y-35704819D01*
X113138690Y-35704819D02*
X113233928Y-35657200D01*
X113233928Y-35657200D02*
X113281547Y-35609580D01*
X113281547Y-35609580D02*
X113329166Y-35514342D01*
X113329166Y-35514342D02*
X113329166Y-35276247D01*
X113329166Y-35276247D02*
X113281547Y-35181009D01*
X113281547Y-35181009D02*
X113233928Y-35133390D01*
X113233928Y-35133390D02*
X113138690Y-35085771D01*
X113138690Y-35085771D02*
X112948214Y-35085771D01*
X112948214Y-35085771D02*
X112852976Y-35133390D01*
X112852976Y-35133390D02*
X112805357Y-35181009D01*
X112805357Y-35181009D02*
X112757738Y-35276247D01*
%TO.C,C8*%
X144359580Y-57066666D02*
X144407200Y-57114285D01*
X144407200Y-57114285D02*
X144454819Y-57257142D01*
X144454819Y-57257142D02*
X144454819Y-57352380D01*
X144454819Y-57352380D02*
X144407200Y-57495237D01*
X144407200Y-57495237D02*
X144311961Y-57590475D01*
X144311961Y-57590475D02*
X144216723Y-57638094D01*
X144216723Y-57638094D02*
X144026247Y-57685713D01*
X144026247Y-57685713D02*
X143883390Y-57685713D01*
X143883390Y-57685713D02*
X143692914Y-57638094D01*
X143692914Y-57638094D02*
X143597676Y-57590475D01*
X143597676Y-57590475D02*
X143502438Y-57495237D01*
X143502438Y-57495237D02*
X143454819Y-57352380D01*
X143454819Y-57352380D02*
X143454819Y-57257142D01*
X143454819Y-57257142D02*
X143502438Y-57114285D01*
X143502438Y-57114285D02*
X143550057Y-57066666D01*
X143883390Y-56495237D02*
X143835771Y-56590475D01*
X143835771Y-56590475D02*
X143788152Y-56638094D01*
X143788152Y-56638094D02*
X143692914Y-56685713D01*
X143692914Y-56685713D02*
X143645295Y-56685713D01*
X143645295Y-56685713D02*
X143550057Y-56638094D01*
X143550057Y-56638094D02*
X143502438Y-56590475D01*
X143502438Y-56590475D02*
X143454819Y-56495237D01*
X143454819Y-56495237D02*
X143454819Y-56304761D01*
X143454819Y-56304761D02*
X143502438Y-56209523D01*
X143502438Y-56209523D02*
X143550057Y-56161904D01*
X143550057Y-56161904D02*
X143645295Y-56114285D01*
X143645295Y-56114285D02*
X143692914Y-56114285D01*
X143692914Y-56114285D02*
X143788152Y-56161904D01*
X143788152Y-56161904D02*
X143835771Y-56209523D01*
X143835771Y-56209523D02*
X143883390Y-56304761D01*
X143883390Y-56304761D02*
X143883390Y-56495237D01*
X143883390Y-56495237D02*
X143931009Y-56590475D01*
X143931009Y-56590475D02*
X143978628Y-56638094D01*
X143978628Y-56638094D02*
X144073866Y-56685713D01*
X144073866Y-56685713D02*
X144264342Y-56685713D01*
X144264342Y-56685713D02*
X144359580Y-56638094D01*
X144359580Y-56638094D02*
X144407200Y-56590475D01*
X144407200Y-56590475D02*
X144454819Y-56495237D01*
X144454819Y-56495237D02*
X144454819Y-56304761D01*
X144454819Y-56304761D02*
X144407200Y-56209523D01*
X144407200Y-56209523D02*
X144359580Y-56161904D01*
X144359580Y-56161904D02*
X144264342Y-56114285D01*
X144264342Y-56114285D02*
X144073866Y-56114285D01*
X144073866Y-56114285D02*
X143978628Y-56161904D01*
X143978628Y-56161904D02*
X143931009Y-56209523D01*
X143931009Y-56209523D02*
X143883390Y-56304761D01*
%TO.C,R15*%
X140467319Y-66992857D02*
X139991128Y-67326190D01*
X140467319Y-67564285D02*
X139467319Y-67564285D01*
X139467319Y-67564285D02*
X139467319Y-67183333D01*
X139467319Y-67183333D02*
X139514938Y-67088095D01*
X139514938Y-67088095D02*
X139562557Y-67040476D01*
X139562557Y-67040476D02*
X139657795Y-66992857D01*
X139657795Y-66992857D02*
X139800652Y-66992857D01*
X139800652Y-66992857D02*
X139895890Y-67040476D01*
X139895890Y-67040476D02*
X139943509Y-67088095D01*
X139943509Y-67088095D02*
X139991128Y-67183333D01*
X139991128Y-67183333D02*
X139991128Y-67564285D01*
X140467319Y-66040476D02*
X140467319Y-66611904D01*
X140467319Y-66326190D02*
X139467319Y-66326190D01*
X139467319Y-66326190D02*
X139610176Y-66421428D01*
X139610176Y-66421428D02*
X139705414Y-66516666D01*
X139705414Y-66516666D02*
X139753033Y-66611904D01*
X139467319Y-65135714D02*
X139467319Y-65611904D01*
X139467319Y-65611904D02*
X139943509Y-65659523D01*
X139943509Y-65659523D02*
X139895890Y-65611904D01*
X139895890Y-65611904D02*
X139848271Y-65516666D01*
X139848271Y-65516666D02*
X139848271Y-65278571D01*
X139848271Y-65278571D02*
X139895890Y-65183333D01*
X139895890Y-65183333D02*
X139943509Y-65135714D01*
X139943509Y-65135714D02*
X140038747Y-65088095D01*
X140038747Y-65088095D02*
X140276842Y-65088095D01*
X140276842Y-65088095D02*
X140372080Y-65135714D01*
X140372080Y-65135714D02*
X140419700Y-65183333D01*
X140419700Y-65183333D02*
X140467319Y-65278571D01*
X140467319Y-65278571D02*
X140467319Y-65516666D01*
X140467319Y-65516666D02*
X140419700Y-65611904D01*
X140419700Y-65611904D02*
X140372080Y-65659523D01*
%TO.C,R40*%
X120857142Y-109804819D02*
X120523809Y-109328628D01*
X120285714Y-109804819D02*
X120285714Y-108804819D01*
X120285714Y-108804819D02*
X120666666Y-108804819D01*
X120666666Y-108804819D02*
X120761904Y-108852438D01*
X120761904Y-108852438D02*
X120809523Y-108900057D01*
X120809523Y-108900057D02*
X120857142Y-108995295D01*
X120857142Y-108995295D02*
X120857142Y-109138152D01*
X120857142Y-109138152D02*
X120809523Y-109233390D01*
X120809523Y-109233390D02*
X120761904Y-109281009D01*
X120761904Y-109281009D02*
X120666666Y-109328628D01*
X120666666Y-109328628D02*
X120285714Y-109328628D01*
X121714285Y-109138152D02*
X121714285Y-109804819D01*
X121476190Y-108757200D02*
X121238095Y-109471485D01*
X121238095Y-109471485D02*
X121857142Y-109471485D01*
X122428571Y-108804819D02*
X122523809Y-108804819D01*
X122523809Y-108804819D02*
X122619047Y-108852438D01*
X122619047Y-108852438D02*
X122666666Y-108900057D01*
X122666666Y-108900057D02*
X122714285Y-108995295D01*
X122714285Y-108995295D02*
X122761904Y-109185771D01*
X122761904Y-109185771D02*
X122761904Y-109423866D01*
X122761904Y-109423866D02*
X122714285Y-109614342D01*
X122714285Y-109614342D02*
X122666666Y-109709580D01*
X122666666Y-109709580D02*
X122619047Y-109757200D01*
X122619047Y-109757200D02*
X122523809Y-109804819D01*
X122523809Y-109804819D02*
X122428571Y-109804819D01*
X122428571Y-109804819D02*
X122333333Y-109757200D01*
X122333333Y-109757200D02*
X122285714Y-109709580D01*
X122285714Y-109709580D02*
X122238095Y-109614342D01*
X122238095Y-109614342D02*
X122190476Y-109423866D01*
X122190476Y-109423866D02*
X122190476Y-109185771D01*
X122190476Y-109185771D02*
X122238095Y-108995295D01*
X122238095Y-108995295D02*
X122285714Y-108900057D01*
X122285714Y-108900057D02*
X122333333Y-108852438D01*
X122333333Y-108852438D02*
X122428571Y-108804819D01*
%TO.C,D8*%
X131154819Y-97738094D02*
X130154819Y-97738094D01*
X130154819Y-97738094D02*
X130154819Y-97499999D01*
X130154819Y-97499999D02*
X130202438Y-97357142D01*
X130202438Y-97357142D02*
X130297676Y-97261904D01*
X130297676Y-97261904D02*
X130392914Y-97214285D01*
X130392914Y-97214285D02*
X130583390Y-97166666D01*
X130583390Y-97166666D02*
X130726247Y-97166666D01*
X130726247Y-97166666D02*
X130916723Y-97214285D01*
X130916723Y-97214285D02*
X131011961Y-97261904D01*
X131011961Y-97261904D02*
X131107200Y-97357142D01*
X131107200Y-97357142D02*
X131154819Y-97499999D01*
X131154819Y-97499999D02*
X131154819Y-97738094D01*
X130583390Y-96595237D02*
X130535771Y-96690475D01*
X130535771Y-96690475D02*
X130488152Y-96738094D01*
X130488152Y-96738094D02*
X130392914Y-96785713D01*
X130392914Y-96785713D02*
X130345295Y-96785713D01*
X130345295Y-96785713D02*
X130250057Y-96738094D01*
X130250057Y-96738094D02*
X130202438Y-96690475D01*
X130202438Y-96690475D02*
X130154819Y-96595237D01*
X130154819Y-96595237D02*
X130154819Y-96404761D01*
X130154819Y-96404761D02*
X130202438Y-96309523D01*
X130202438Y-96309523D02*
X130250057Y-96261904D01*
X130250057Y-96261904D02*
X130345295Y-96214285D01*
X130345295Y-96214285D02*
X130392914Y-96214285D01*
X130392914Y-96214285D02*
X130488152Y-96261904D01*
X130488152Y-96261904D02*
X130535771Y-96309523D01*
X130535771Y-96309523D02*
X130583390Y-96404761D01*
X130583390Y-96404761D02*
X130583390Y-96595237D01*
X130583390Y-96595237D02*
X130631009Y-96690475D01*
X130631009Y-96690475D02*
X130678628Y-96738094D01*
X130678628Y-96738094D02*
X130773866Y-96785713D01*
X130773866Y-96785713D02*
X130964342Y-96785713D01*
X130964342Y-96785713D02*
X131059580Y-96738094D01*
X131059580Y-96738094D02*
X131107200Y-96690475D01*
X131107200Y-96690475D02*
X131154819Y-96595237D01*
X131154819Y-96595237D02*
X131154819Y-96404761D01*
X131154819Y-96404761D02*
X131107200Y-96309523D01*
X131107200Y-96309523D02*
X131059580Y-96261904D01*
X131059580Y-96261904D02*
X130964342Y-96214285D01*
X130964342Y-96214285D02*
X130773866Y-96214285D01*
X130773866Y-96214285D02*
X130678628Y-96261904D01*
X130678628Y-96261904D02*
X130631009Y-96309523D01*
X130631009Y-96309523D02*
X130583390Y-96404761D01*
%TO.C,C4*%
X109195833Y-86509580D02*
X109148214Y-86557200D01*
X109148214Y-86557200D02*
X109005357Y-86604819D01*
X109005357Y-86604819D02*
X108910119Y-86604819D01*
X108910119Y-86604819D02*
X108767262Y-86557200D01*
X108767262Y-86557200D02*
X108672024Y-86461961D01*
X108672024Y-86461961D02*
X108624405Y-86366723D01*
X108624405Y-86366723D02*
X108576786Y-86176247D01*
X108576786Y-86176247D02*
X108576786Y-86033390D01*
X108576786Y-86033390D02*
X108624405Y-85842914D01*
X108624405Y-85842914D02*
X108672024Y-85747676D01*
X108672024Y-85747676D02*
X108767262Y-85652438D01*
X108767262Y-85652438D02*
X108910119Y-85604819D01*
X108910119Y-85604819D02*
X109005357Y-85604819D01*
X109005357Y-85604819D02*
X109148214Y-85652438D01*
X109148214Y-85652438D02*
X109195833Y-85700057D01*
X110052976Y-85938152D02*
X110052976Y-86604819D01*
X109814881Y-85557200D02*
X109576786Y-86271485D01*
X109576786Y-86271485D02*
X110195833Y-86271485D01*
%TO.C,C6*%
X137152080Y-66516666D02*
X137199700Y-66564285D01*
X137199700Y-66564285D02*
X137247319Y-66707142D01*
X137247319Y-66707142D02*
X137247319Y-66802380D01*
X137247319Y-66802380D02*
X137199700Y-66945237D01*
X137199700Y-66945237D02*
X137104461Y-67040475D01*
X137104461Y-67040475D02*
X137009223Y-67088094D01*
X137009223Y-67088094D02*
X136818747Y-67135713D01*
X136818747Y-67135713D02*
X136675890Y-67135713D01*
X136675890Y-67135713D02*
X136485414Y-67088094D01*
X136485414Y-67088094D02*
X136390176Y-67040475D01*
X136390176Y-67040475D02*
X136294938Y-66945237D01*
X136294938Y-66945237D02*
X136247319Y-66802380D01*
X136247319Y-66802380D02*
X136247319Y-66707142D01*
X136247319Y-66707142D02*
X136294938Y-66564285D01*
X136294938Y-66564285D02*
X136342557Y-66516666D01*
X136247319Y-65659523D02*
X136247319Y-65849999D01*
X136247319Y-65849999D02*
X136294938Y-65945237D01*
X136294938Y-65945237D02*
X136342557Y-65992856D01*
X136342557Y-65992856D02*
X136485414Y-66088094D01*
X136485414Y-66088094D02*
X136675890Y-66135713D01*
X136675890Y-66135713D02*
X137056842Y-66135713D01*
X137056842Y-66135713D02*
X137152080Y-66088094D01*
X137152080Y-66088094D02*
X137199700Y-66040475D01*
X137199700Y-66040475D02*
X137247319Y-65945237D01*
X137247319Y-65945237D02*
X137247319Y-65754761D01*
X137247319Y-65754761D02*
X137199700Y-65659523D01*
X137199700Y-65659523D02*
X137152080Y-65611904D01*
X137152080Y-65611904D02*
X137056842Y-65564285D01*
X137056842Y-65564285D02*
X136818747Y-65564285D01*
X136818747Y-65564285D02*
X136723509Y-65611904D01*
X136723509Y-65611904D02*
X136675890Y-65659523D01*
X136675890Y-65659523D02*
X136628271Y-65754761D01*
X136628271Y-65754761D02*
X136628271Y-65945237D01*
X136628271Y-65945237D02*
X136675890Y-66040475D01*
X136675890Y-66040475D02*
X136723509Y-66088094D01*
X136723509Y-66088094D02*
X136818747Y-66135713D01*
%TO.C,R2*%
X131317319Y-67516666D02*
X130841128Y-67849999D01*
X131317319Y-68088094D02*
X130317319Y-68088094D01*
X130317319Y-68088094D02*
X130317319Y-67707142D01*
X130317319Y-67707142D02*
X130364938Y-67611904D01*
X130364938Y-67611904D02*
X130412557Y-67564285D01*
X130412557Y-67564285D02*
X130507795Y-67516666D01*
X130507795Y-67516666D02*
X130650652Y-67516666D01*
X130650652Y-67516666D02*
X130745890Y-67564285D01*
X130745890Y-67564285D02*
X130793509Y-67611904D01*
X130793509Y-67611904D02*
X130841128Y-67707142D01*
X130841128Y-67707142D02*
X130841128Y-68088094D01*
X130412557Y-67135713D02*
X130364938Y-67088094D01*
X130364938Y-67088094D02*
X130317319Y-66992856D01*
X130317319Y-66992856D02*
X130317319Y-66754761D01*
X130317319Y-66754761D02*
X130364938Y-66659523D01*
X130364938Y-66659523D02*
X130412557Y-66611904D01*
X130412557Y-66611904D02*
X130507795Y-66564285D01*
X130507795Y-66564285D02*
X130603033Y-66564285D01*
X130603033Y-66564285D02*
X130745890Y-66611904D01*
X130745890Y-66611904D02*
X131317319Y-67183332D01*
X131317319Y-67183332D02*
X131317319Y-66564285D01*
%TO.C,R5*%
X137254819Y-71366666D02*
X136778628Y-71699999D01*
X137254819Y-71938094D02*
X136254819Y-71938094D01*
X136254819Y-71938094D02*
X136254819Y-71557142D01*
X136254819Y-71557142D02*
X136302438Y-71461904D01*
X136302438Y-71461904D02*
X136350057Y-71414285D01*
X136350057Y-71414285D02*
X136445295Y-71366666D01*
X136445295Y-71366666D02*
X136588152Y-71366666D01*
X136588152Y-71366666D02*
X136683390Y-71414285D01*
X136683390Y-71414285D02*
X136731009Y-71461904D01*
X136731009Y-71461904D02*
X136778628Y-71557142D01*
X136778628Y-71557142D02*
X136778628Y-71938094D01*
X136254819Y-70461904D02*
X136254819Y-70938094D01*
X136254819Y-70938094D02*
X136731009Y-70985713D01*
X136731009Y-70985713D02*
X136683390Y-70938094D01*
X136683390Y-70938094D02*
X136635771Y-70842856D01*
X136635771Y-70842856D02*
X136635771Y-70604761D01*
X136635771Y-70604761D02*
X136683390Y-70509523D01*
X136683390Y-70509523D02*
X136731009Y-70461904D01*
X136731009Y-70461904D02*
X136826247Y-70414285D01*
X136826247Y-70414285D02*
X137064342Y-70414285D01*
X137064342Y-70414285D02*
X137159580Y-70461904D01*
X137159580Y-70461904D02*
X137207200Y-70509523D01*
X137207200Y-70509523D02*
X137254819Y-70604761D01*
X137254819Y-70604761D02*
X137254819Y-70842856D01*
X137254819Y-70842856D02*
X137207200Y-70938094D01*
X137207200Y-70938094D02*
X137159580Y-70985713D01*
%TO.C,J2*%
X108529166Y-94804819D02*
X108529166Y-95519104D01*
X108529166Y-95519104D02*
X108481547Y-95661961D01*
X108481547Y-95661961D02*
X108386309Y-95757200D01*
X108386309Y-95757200D02*
X108243452Y-95804819D01*
X108243452Y-95804819D02*
X108148214Y-95804819D01*
X108957738Y-94900057D02*
X109005357Y-94852438D01*
X109005357Y-94852438D02*
X109100595Y-94804819D01*
X109100595Y-94804819D02*
X109338690Y-94804819D01*
X109338690Y-94804819D02*
X109433928Y-94852438D01*
X109433928Y-94852438D02*
X109481547Y-94900057D01*
X109481547Y-94900057D02*
X109529166Y-94995295D01*
X109529166Y-94995295D02*
X109529166Y-95090533D01*
X109529166Y-95090533D02*
X109481547Y-95233390D01*
X109481547Y-95233390D02*
X108910119Y-95804819D01*
X108910119Y-95804819D02*
X109529166Y-95804819D01*
%TO.C,R23*%
X110317319Y-54992857D02*
X109841128Y-55326190D01*
X110317319Y-55564285D02*
X109317319Y-55564285D01*
X109317319Y-55564285D02*
X109317319Y-55183333D01*
X109317319Y-55183333D02*
X109364938Y-55088095D01*
X109364938Y-55088095D02*
X109412557Y-55040476D01*
X109412557Y-55040476D02*
X109507795Y-54992857D01*
X109507795Y-54992857D02*
X109650652Y-54992857D01*
X109650652Y-54992857D02*
X109745890Y-55040476D01*
X109745890Y-55040476D02*
X109793509Y-55088095D01*
X109793509Y-55088095D02*
X109841128Y-55183333D01*
X109841128Y-55183333D02*
X109841128Y-55564285D01*
X109412557Y-54611904D02*
X109364938Y-54564285D01*
X109364938Y-54564285D02*
X109317319Y-54469047D01*
X109317319Y-54469047D02*
X109317319Y-54230952D01*
X109317319Y-54230952D02*
X109364938Y-54135714D01*
X109364938Y-54135714D02*
X109412557Y-54088095D01*
X109412557Y-54088095D02*
X109507795Y-54040476D01*
X109507795Y-54040476D02*
X109603033Y-54040476D01*
X109603033Y-54040476D02*
X109745890Y-54088095D01*
X109745890Y-54088095D02*
X110317319Y-54659523D01*
X110317319Y-54659523D02*
X110317319Y-54040476D01*
X109317319Y-53707142D02*
X109317319Y-53088095D01*
X109317319Y-53088095D02*
X109698271Y-53421428D01*
X109698271Y-53421428D02*
X109698271Y-53278571D01*
X109698271Y-53278571D02*
X109745890Y-53183333D01*
X109745890Y-53183333D02*
X109793509Y-53135714D01*
X109793509Y-53135714D02*
X109888747Y-53088095D01*
X109888747Y-53088095D02*
X110126842Y-53088095D01*
X110126842Y-53088095D02*
X110222080Y-53135714D01*
X110222080Y-53135714D02*
X110269700Y-53183333D01*
X110269700Y-53183333D02*
X110317319Y-53278571D01*
X110317319Y-53278571D02*
X110317319Y-53564285D01*
X110317319Y-53564285D02*
X110269700Y-53659523D01*
X110269700Y-53659523D02*
X110222080Y-53707142D01*
%TO.C,Q1*%
X126312557Y-50445238D02*
X126264938Y-50540476D01*
X126264938Y-50540476D02*
X126169700Y-50635714D01*
X126169700Y-50635714D02*
X126026842Y-50778571D01*
X126026842Y-50778571D02*
X125979223Y-50873809D01*
X125979223Y-50873809D02*
X125979223Y-50969047D01*
X126217319Y-50921428D02*
X126169700Y-51016666D01*
X126169700Y-51016666D02*
X126074461Y-51111904D01*
X126074461Y-51111904D02*
X125883985Y-51159523D01*
X125883985Y-51159523D02*
X125550652Y-51159523D01*
X125550652Y-51159523D02*
X125360176Y-51111904D01*
X125360176Y-51111904D02*
X125264938Y-51016666D01*
X125264938Y-51016666D02*
X125217319Y-50921428D01*
X125217319Y-50921428D02*
X125217319Y-50730952D01*
X125217319Y-50730952D02*
X125264938Y-50635714D01*
X125264938Y-50635714D02*
X125360176Y-50540476D01*
X125360176Y-50540476D02*
X125550652Y-50492857D01*
X125550652Y-50492857D02*
X125883985Y-50492857D01*
X125883985Y-50492857D02*
X126074461Y-50540476D01*
X126074461Y-50540476D02*
X126169700Y-50635714D01*
X126169700Y-50635714D02*
X126217319Y-50730952D01*
X126217319Y-50730952D02*
X126217319Y-50921428D01*
X126217319Y-49540476D02*
X126217319Y-50111904D01*
X126217319Y-49826190D02*
X125217319Y-49826190D01*
X125217319Y-49826190D02*
X125360176Y-49921428D01*
X125360176Y-49921428D02*
X125455414Y-50016666D01*
X125455414Y-50016666D02*
X125503033Y-50111904D01*
%TO.C,J3*%
X108876666Y-89954819D02*
X108876666Y-90669104D01*
X108876666Y-90669104D02*
X108829047Y-90811961D01*
X108829047Y-90811961D02*
X108733809Y-90907200D01*
X108733809Y-90907200D02*
X108590952Y-90954819D01*
X108590952Y-90954819D02*
X108495714Y-90954819D01*
X109257619Y-89954819D02*
X109876666Y-89954819D01*
X109876666Y-89954819D02*
X109543333Y-90335771D01*
X109543333Y-90335771D02*
X109686190Y-90335771D01*
X109686190Y-90335771D02*
X109781428Y-90383390D01*
X109781428Y-90383390D02*
X109829047Y-90431009D01*
X109829047Y-90431009D02*
X109876666Y-90526247D01*
X109876666Y-90526247D02*
X109876666Y-90764342D01*
X109876666Y-90764342D02*
X109829047Y-90859580D01*
X109829047Y-90859580D02*
X109781428Y-90907200D01*
X109781428Y-90907200D02*
X109686190Y-90954819D01*
X109686190Y-90954819D02*
X109400476Y-90954819D01*
X109400476Y-90954819D02*
X109305238Y-90907200D01*
X109305238Y-90907200D02*
X109257619Y-90859580D01*
%TO.C,R45*%
X132219642Y-87154819D02*
X131886309Y-86678628D01*
X131648214Y-87154819D02*
X131648214Y-86154819D01*
X131648214Y-86154819D02*
X132029166Y-86154819D01*
X132029166Y-86154819D02*
X132124404Y-86202438D01*
X132124404Y-86202438D02*
X132172023Y-86250057D01*
X132172023Y-86250057D02*
X132219642Y-86345295D01*
X132219642Y-86345295D02*
X132219642Y-86488152D01*
X132219642Y-86488152D02*
X132172023Y-86583390D01*
X132172023Y-86583390D02*
X132124404Y-86631009D01*
X132124404Y-86631009D02*
X132029166Y-86678628D01*
X132029166Y-86678628D02*
X131648214Y-86678628D01*
X133076785Y-86488152D02*
X133076785Y-87154819D01*
X132838690Y-86107200D02*
X132600595Y-86821485D01*
X132600595Y-86821485D02*
X133219642Y-86821485D01*
X134076785Y-86154819D02*
X133600595Y-86154819D01*
X133600595Y-86154819D02*
X133552976Y-86631009D01*
X133552976Y-86631009D02*
X133600595Y-86583390D01*
X133600595Y-86583390D02*
X133695833Y-86535771D01*
X133695833Y-86535771D02*
X133933928Y-86535771D01*
X133933928Y-86535771D02*
X134029166Y-86583390D01*
X134029166Y-86583390D02*
X134076785Y-86631009D01*
X134076785Y-86631009D02*
X134124404Y-86726247D01*
X134124404Y-86726247D02*
X134124404Y-86964342D01*
X134124404Y-86964342D02*
X134076785Y-87059580D01*
X134076785Y-87059580D02*
X134029166Y-87107200D01*
X134029166Y-87107200D02*
X133933928Y-87154819D01*
X133933928Y-87154819D02*
X133695833Y-87154819D01*
X133695833Y-87154819D02*
X133600595Y-87107200D01*
X133600595Y-87107200D02*
X133552976Y-87059580D01*
%TO.C,R33*%
X144554819Y-63942857D02*
X144078628Y-64276190D01*
X144554819Y-64514285D02*
X143554819Y-64514285D01*
X143554819Y-64514285D02*
X143554819Y-64133333D01*
X143554819Y-64133333D02*
X143602438Y-64038095D01*
X143602438Y-64038095D02*
X143650057Y-63990476D01*
X143650057Y-63990476D02*
X143745295Y-63942857D01*
X143745295Y-63942857D02*
X143888152Y-63942857D01*
X143888152Y-63942857D02*
X143983390Y-63990476D01*
X143983390Y-63990476D02*
X144031009Y-64038095D01*
X144031009Y-64038095D02*
X144078628Y-64133333D01*
X144078628Y-64133333D02*
X144078628Y-64514285D01*
X143554819Y-63609523D02*
X143554819Y-62990476D01*
X143554819Y-62990476D02*
X143935771Y-63323809D01*
X143935771Y-63323809D02*
X143935771Y-63180952D01*
X143935771Y-63180952D02*
X143983390Y-63085714D01*
X143983390Y-63085714D02*
X144031009Y-63038095D01*
X144031009Y-63038095D02*
X144126247Y-62990476D01*
X144126247Y-62990476D02*
X144364342Y-62990476D01*
X144364342Y-62990476D02*
X144459580Y-63038095D01*
X144459580Y-63038095D02*
X144507200Y-63085714D01*
X144507200Y-63085714D02*
X144554819Y-63180952D01*
X144554819Y-63180952D02*
X144554819Y-63466666D01*
X144554819Y-63466666D02*
X144507200Y-63561904D01*
X144507200Y-63561904D02*
X144459580Y-63609523D01*
X143554819Y-62657142D02*
X143554819Y-62038095D01*
X143554819Y-62038095D02*
X143935771Y-62371428D01*
X143935771Y-62371428D02*
X143935771Y-62228571D01*
X143935771Y-62228571D02*
X143983390Y-62133333D01*
X143983390Y-62133333D02*
X144031009Y-62085714D01*
X144031009Y-62085714D02*
X144126247Y-62038095D01*
X144126247Y-62038095D02*
X144364342Y-62038095D01*
X144364342Y-62038095D02*
X144459580Y-62085714D01*
X144459580Y-62085714D02*
X144507200Y-62133333D01*
X144507200Y-62133333D02*
X144554819Y-62228571D01*
X144554819Y-62228571D02*
X144554819Y-62514285D01*
X144554819Y-62514285D02*
X144507200Y-62609523D01*
X144507200Y-62609523D02*
X144459580Y-62657142D01*
%TO.C,J4*%
X155647319Y-65683333D02*
X156361604Y-65683333D01*
X156361604Y-65683333D02*
X156504461Y-65730952D01*
X156504461Y-65730952D02*
X156599700Y-65826190D01*
X156599700Y-65826190D02*
X156647319Y-65969047D01*
X156647319Y-65969047D02*
X156647319Y-66064285D01*
X155980652Y-64778571D02*
X156647319Y-64778571D01*
X155599700Y-65016666D02*
X156313985Y-65254761D01*
X156313985Y-65254761D02*
X156313985Y-64635714D01*
%TO.C,R28*%
X122807142Y-46654819D02*
X122473809Y-46178628D01*
X122235714Y-46654819D02*
X122235714Y-45654819D01*
X122235714Y-45654819D02*
X122616666Y-45654819D01*
X122616666Y-45654819D02*
X122711904Y-45702438D01*
X122711904Y-45702438D02*
X122759523Y-45750057D01*
X122759523Y-45750057D02*
X122807142Y-45845295D01*
X122807142Y-45845295D02*
X122807142Y-45988152D01*
X122807142Y-45988152D02*
X122759523Y-46083390D01*
X122759523Y-46083390D02*
X122711904Y-46131009D01*
X122711904Y-46131009D02*
X122616666Y-46178628D01*
X122616666Y-46178628D02*
X122235714Y-46178628D01*
X123188095Y-45750057D02*
X123235714Y-45702438D01*
X123235714Y-45702438D02*
X123330952Y-45654819D01*
X123330952Y-45654819D02*
X123569047Y-45654819D01*
X123569047Y-45654819D02*
X123664285Y-45702438D01*
X123664285Y-45702438D02*
X123711904Y-45750057D01*
X123711904Y-45750057D02*
X123759523Y-45845295D01*
X123759523Y-45845295D02*
X123759523Y-45940533D01*
X123759523Y-45940533D02*
X123711904Y-46083390D01*
X123711904Y-46083390D02*
X123140476Y-46654819D01*
X123140476Y-46654819D02*
X123759523Y-46654819D01*
X124330952Y-46083390D02*
X124235714Y-46035771D01*
X124235714Y-46035771D02*
X124188095Y-45988152D01*
X124188095Y-45988152D02*
X124140476Y-45892914D01*
X124140476Y-45892914D02*
X124140476Y-45845295D01*
X124140476Y-45845295D02*
X124188095Y-45750057D01*
X124188095Y-45750057D02*
X124235714Y-45702438D01*
X124235714Y-45702438D02*
X124330952Y-45654819D01*
X124330952Y-45654819D02*
X124521428Y-45654819D01*
X124521428Y-45654819D02*
X124616666Y-45702438D01*
X124616666Y-45702438D02*
X124664285Y-45750057D01*
X124664285Y-45750057D02*
X124711904Y-45845295D01*
X124711904Y-45845295D02*
X124711904Y-45892914D01*
X124711904Y-45892914D02*
X124664285Y-45988152D01*
X124664285Y-45988152D02*
X124616666Y-46035771D01*
X124616666Y-46035771D02*
X124521428Y-46083390D01*
X124521428Y-46083390D02*
X124330952Y-46083390D01*
X124330952Y-46083390D02*
X124235714Y-46131009D01*
X124235714Y-46131009D02*
X124188095Y-46178628D01*
X124188095Y-46178628D02*
X124140476Y-46273866D01*
X124140476Y-46273866D02*
X124140476Y-46464342D01*
X124140476Y-46464342D02*
X124188095Y-46559580D01*
X124188095Y-46559580D02*
X124235714Y-46607200D01*
X124235714Y-46607200D02*
X124330952Y-46654819D01*
X124330952Y-46654819D02*
X124521428Y-46654819D01*
X124521428Y-46654819D02*
X124616666Y-46607200D01*
X124616666Y-46607200D02*
X124664285Y-46559580D01*
X124664285Y-46559580D02*
X124711904Y-46464342D01*
X124711904Y-46464342D02*
X124711904Y-46273866D01*
X124711904Y-46273866D02*
X124664285Y-46178628D01*
X124664285Y-46178628D02*
X124616666Y-46131009D01*
X124616666Y-46131009D02*
X124521428Y-46083390D01*
%TO.C,R46*%
X127357142Y-113804819D02*
X127023809Y-113328628D01*
X126785714Y-113804819D02*
X126785714Y-112804819D01*
X126785714Y-112804819D02*
X127166666Y-112804819D01*
X127166666Y-112804819D02*
X127261904Y-112852438D01*
X127261904Y-112852438D02*
X127309523Y-112900057D01*
X127309523Y-112900057D02*
X127357142Y-112995295D01*
X127357142Y-112995295D02*
X127357142Y-113138152D01*
X127357142Y-113138152D02*
X127309523Y-113233390D01*
X127309523Y-113233390D02*
X127261904Y-113281009D01*
X127261904Y-113281009D02*
X127166666Y-113328628D01*
X127166666Y-113328628D02*
X126785714Y-113328628D01*
X128214285Y-113138152D02*
X128214285Y-113804819D01*
X127976190Y-112757200D02*
X127738095Y-113471485D01*
X127738095Y-113471485D02*
X128357142Y-113471485D01*
X129166666Y-112804819D02*
X128976190Y-112804819D01*
X128976190Y-112804819D02*
X128880952Y-112852438D01*
X128880952Y-112852438D02*
X128833333Y-112900057D01*
X128833333Y-112900057D02*
X128738095Y-113042914D01*
X128738095Y-113042914D02*
X128690476Y-113233390D01*
X128690476Y-113233390D02*
X128690476Y-113614342D01*
X128690476Y-113614342D02*
X128738095Y-113709580D01*
X128738095Y-113709580D02*
X128785714Y-113757200D01*
X128785714Y-113757200D02*
X128880952Y-113804819D01*
X128880952Y-113804819D02*
X129071428Y-113804819D01*
X129071428Y-113804819D02*
X129166666Y-113757200D01*
X129166666Y-113757200D02*
X129214285Y-113709580D01*
X129214285Y-113709580D02*
X129261904Y-113614342D01*
X129261904Y-113614342D02*
X129261904Y-113376247D01*
X129261904Y-113376247D02*
X129214285Y-113281009D01*
X129214285Y-113281009D02*
X129166666Y-113233390D01*
X129166666Y-113233390D02*
X129071428Y-113185771D01*
X129071428Y-113185771D02*
X128880952Y-113185771D01*
X128880952Y-113185771D02*
X128785714Y-113233390D01*
X128785714Y-113233390D02*
X128738095Y-113281009D01*
X128738095Y-113281009D02*
X128690476Y-113376247D01*
%TO.C,J9*%
X112329166Y-117254819D02*
X112329166Y-117969104D01*
X112329166Y-117969104D02*
X112281547Y-118111961D01*
X112281547Y-118111961D02*
X112186309Y-118207200D01*
X112186309Y-118207200D02*
X112043452Y-118254819D01*
X112043452Y-118254819D02*
X111948214Y-118254819D01*
X112852976Y-118254819D02*
X113043452Y-118254819D01*
X113043452Y-118254819D02*
X113138690Y-118207200D01*
X113138690Y-118207200D02*
X113186309Y-118159580D01*
X113186309Y-118159580D02*
X113281547Y-118016723D01*
X113281547Y-118016723D02*
X113329166Y-117826247D01*
X113329166Y-117826247D02*
X113329166Y-117445295D01*
X113329166Y-117445295D02*
X113281547Y-117350057D01*
X113281547Y-117350057D02*
X113233928Y-117302438D01*
X113233928Y-117302438D02*
X113138690Y-117254819D01*
X113138690Y-117254819D02*
X112948214Y-117254819D01*
X112948214Y-117254819D02*
X112852976Y-117302438D01*
X112852976Y-117302438D02*
X112805357Y-117350057D01*
X112805357Y-117350057D02*
X112757738Y-117445295D01*
X112757738Y-117445295D02*
X112757738Y-117683390D01*
X112757738Y-117683390D02*
X112805357Y-117778628D01*
X112805357Y-117778628D02*
X112852976Y-117826247D01*
X112852976Y-117826247D02*
X112948214Y-117873866D01*
X112948214Y-117873866D02*
X113138690Y-117873866D01*
X113138690Y-117873866D02*
X113233928Y-117826247D01*
X113233928Y-117826247D02*
X113281547Y-117778628D01*
X113281547Y-117778628D02*
X113329166Y-117683390D01*
%TO.C,C14*%
X126259580Y-91742857D02*
X126307200Y-91790476D01*
X126307200Y-91790476D02*
X126354819Y-91933333D01*
X126354819Y-91933333D02*
X126354819Y-92028571D01*
X126354819Y-92028571D02*
X126307200Y-92171428D01*
X126307200Y-92171428D02*
X126211961Y-92266666D01*
X126211961Y-92266666D02*
X126116723Y-92314285D01*
X126116723Y-92314285D02*
X125926247Y-92361904D01*
X125926247Y-92361904D02*
X125783390Y-92361904D01*
X125783390Y-92361904D02*
X125592914Y-92314285D01*
X125592914Y-92314285D02*
X125497676Y-92266666D01*
X125497676Y-92266666D02*
X125402438Y-92171428D01*
X125402438Y-92171428D02*
X125354819Y-92028571D01*
X125354819Y-92028571D02*
X125354819Y-91933333D01*
X125354819Y-91933333D02*
X125402438Y-91790476D01*
X125402438Y-91790476D02*
X125450057Y-91742857D01*
X126354819Y-90790476D02*
X126354819Y-91361904D01*
X126354819Y-91076190D02*
X125354819Y-91076190D01*
X125354819Y-91076190D02*
X125497676Y-91171428D01*
X125497676Y-91171428D02*
X125592914Y-91266666D01*
X125592914Y-91266666D02*
X125640533Y-91361904D01*
X125688152Y-89933333D02*
X126354819Y-89933333D01*
X125307200Y-90171428D02*
X126021485Y-90409523D01*
X126021485Y-90409523D02*
X126021485Y-89790476D01*
%TO.C,R43*%
X123594642Y-99404819D02*
X123261309Y-98928628D01*
X123023214Y-99404819D02*
X123023214Y-98404819D01*
X123023214Y-98404819D02*
X123404166Y-98404819D01*
X123404166Y-98404819D02*
X123499404Y-98452438D01*
X123499404Y-98452438D02*
X123547023Y-98500057D01*
X123547023Y-98500057D02*
X123594642Y-98595295D01*
X123594642Y-98595295D02*
X123594642Y-98738152D01*
X123594642Y-98738152D02*
X123547023Y-98833390D01*
X123547023Y-98833390D02*
X123499404Y-98881009D01*
X123499404Y-98881009D02*
X123404166Y-98928628D01*
X123404166Y-98928628D02*
X123023214Y-98928628D01*
X124451785Y-98738152D02*
X124451785Y-99404819D01*
X124213690Y-98357200D02*
X123975595Y-99071485D01*
X123975595Y-99071485D02*
X124594642Y-99071485D01*
X124880357Y-98404819D02*
X125499404Y-98404819D01*
X125499404Y-98404819D02*
X125166071Y-98785771D01*
X125166071Y-98785771D02*
X125308928Y-98785771D01*
X125308928Y-98785771D02*
X125404166Y-98833390D01*
X125404166Y-98833390D02*
X125451785Y-98881009D01*
X125451785Y-98881009D02*
X125499404Y-98976247D01*
X125499404Y-98976247D02*
X125499404Y-99214342D01*
X125499404Y-99214342D02*
X125451785Y-99309580D01*
X125451785Y-99309580D02*
X125404166Y-99357200D01*
X125404166Y-99357200D02*
X125308928Y-99404819D01*
X125308928Y-99404819D02*
X125023214Y-99404819D01*
X125023214Y-99404819D02*
X124927976Y-99357200D01*
X124927976Y-99357200D02*
X124880357Y-99309580D01*
%TO.C,D3*%
X113486905Y-44404819D02*
X113486905Y-43404819D01*
X113486905Y-43404819D02*
X113725000Y-43404819D01*
X113725000Y-43404819D02*
X113867857Y-43452438D01*
X113867857Y-43452438D02*
X113963095Y-43547676D01*
X113963095Y-43547676D02*
X114010714Y-43642914D01*
X114010714Y-43642914D02*
X114058333Y-43833390D01*
X114058333Y-43833390D02*
X114058333Y-43976247D01*
X114058333Y-43976247D02*
X114010714Y-44166723D01*
X114010714Y-44166723D02*
X113963095Y-44261961D01*
X113963095Y-44261961D02*
X113867857Y-44357200D01*
X113867857Y-44357200D02*
X113725000Y-44404819D01*
X113725000Y-44404819D02*
X113486905Y-44404819D01*
X114391667Y-43404819D02*
X115010714Y-43404819D01*
X115010714Y-43404819D02*
X114677381Y-43785771D01*
X114677381Y-43785771D02*
X114820238Y-43785771D01*
X114820238Y-43785771D02*
X114915476Y-43833390D01*
X114915476Y-43833390D02*
X114963095Y-43881009D01*
X114963095Y-43881009D02*
X115010714Y-43976247D01*
X115010714Y-43976247D02*
X115010714Y-44214342D01*
X115010714Y-44214342D02*
X114963095Y-44309580D01*
X114963095Y-44309580D02*
X114915476Y-44357200D01*
X114915476Y-44357200D02*
X114820238Y-44404819D01*
X114820238Y-44404819D02*
X114534524Y-44404819D01*
X114534524Y-44404819D02*
X114439286Y-44357200D01*
X114439286Y-44357200D02*
X114391667Y-44309580D01*
%TO.C,J10*%
X146197319Y-39859523D02*
X146911604Y-39859523D01*
X146911604Y-39859523D02*
X147054461Y-39907142D01*
X147054461Y-39907142D02*
X147149700Y-40002380D01*
X147149700Y-40002380D02*
X147197319Y-40145237D01*
X147197319Y-40145237D02*
X147197319Y-40240475D01*
X147197319Y-38859523D02*
X147197319Y-39430951D01*
X147197319Y-39145237D02*
X146197319Y-39145237D01*
X146197319Y-39145237D02*
X146340176Y-39240475D01*
X146340176Y-39240475D02*
X146435414Y-39335713D01*
X146435414Y-39335713D02*
X146483033Y-39430951D01*
X146197319Y-38240475D02*
X146197319Y-38145237D01*
X146197319Y-38145237D02*
X146244938Y-38049999D01*
X146244938Y-38049999D02*
X146292557Y-38002380D01*
X146292557Y-38002380D02*
X146387795Y-37954761D01*
X146387795Y-37954761D02*
X146578271Y-37907142D01*
X146578271Y-37907142D02*
X146816366Y-37907142D01*
X146816366Y-37907142D02*
X147006842Y-37954761D01*
X147006842Y-37954761D02*
X147102080Y-38002380D01*
X147102080Y-38002380D02*
X147149700Y-38049999D01*
X147149700Y-38049999D02*
X147197319Y-38145237D01*
X147197319Y-38145237D02*
X147197319Y-38240475D01*
X147197319Y-38240475D02*
X147149700Y-38335713D01*
X147149700Y-38335713D02*
X147102080Y-38383332D01*
X147102080Y-38383332D02*
X147006842Y-38430951D01*
X147006842Y-38430951D02*
X146816366Y-38478570D01*
X146816366Y-38478570D02*
X146578271Y-38478570D01*
X146578271Y-38478570D02*
X146387795Y-38430951D01*
X146387795Y-38430951D02*
X146292557Y-38383332D01*
X146292557Y-38383332D02*
X146244938Y-38335713D01*
X146244938Y-38335713D02*
X146197319Y-38240475D01*
%TO.C,C10*%
X131719642Y-102529580D02*
X131672023Y-102577200D01*
X131672023Y-102577200D02*
X131529166Y-102624819D01*
X131529166Y-102624819D02*
X131433928Y-102624819D01*
X131433928Y-102624819D02*
X131291071Y-102577200D01*
X131291071Y-102577200D02*
X131195833Y-102481961D01*
X131195833Y-102481961D02*
X131148214Y-102386723D01*
X131148214Y-102386723D02*
X131100595Y-102196247D01*
X131100595Y-102196247D02*
X131100595Y-102053390D01*
X131100595Y-102053390D02*
X131148214Y-101862914D01*
X131148214Y-101862914D02*
X131195833Y-101767676D01*
X131195833Y-101767676D02*
X131291071Y-101672438D01*
X131291071Y-101672438D02*
X131433928Y-101624819D01*
X131433928Y-101624819D02*
X131529166Y-101624819D01*
X131529166Y-101624819D02*
X131672023Y-101672438D01*
X131672023Y-101672438D02*
X131719642Y-101720057D01*
X132672023Y-102624819D02*
X132100595Y-102624819D01*
X132386309Y-102624819D02*
X132386309Y-101624819D01*
X132386309Y-101624819D02*
X132291071Y-101767676D01*
X132291071Y-101767676D02*
X132195833Y-101862914D01*
X132195833Y-101862914D02*
X132100595Y-101910533D01*
X133291071Y-101624819D02*
X133386309Y-101624819D01*
X133386309Y-101624819D02*
X133481547Y-101672438D01*
X133481547Y-101672438D02*
X133529166Y-101720057D01*
X133529166Y-101720057D02*
X133576785Y-101815295D01*
X133576785Y-101815295D02*
X133624404Y-102005771D01*
X133624404Y-102005771D02*
X133624404Y-102243866D01*
X133624404Y-102243866D02*
X133576785Y-102434342D01*
X133576785Y-102434342D02*
X133529166Y-102529580D01*
X133529166Y-102529580D02*
X133481547Y-102577200D01*
X133481547Y-102577200D02*
X133386309Y-102624819D01*
X133386309Y-102624819D02*
X133291071Y-102624819D01*
X133291071Y-102624819D02*
X133195833Y-102577200D01*
X133195833Y-102577200D02*
X133148214Y-102529580D01*
X133148214Y-102529580D02*
X133100595Y-102434342D01*
X133100595Y-102434342D02*
X133052976Y-102243866D01*
X133052976Y-102243866D02*
X133052976Y-102005771D01*
X133052976Y-102005771D02*
X133100595Y-101815295D01*
X133100595Y-101815295D02*
X133148214Y-101720057D01*
X133148214Y-101720057D02*
X133195833Y-101672438D01*
X133195833Y-101672438D02*
X133291071Y-101624819D01*
%TO.C,D9*%
X132899405Y-119354819D02*
X132899405Y-118354819D01*
X132899405Y-118354819D02*
X133137500Y-118354819D01*
X133137500Y-118354819D02*
X133280357Y-118402438D01*
X133280357Y-118402438D02*
X133375595Y-118497676D01*
X133375595Y-118497676D02*
X133423214Y-118592914D01*
X133423214Y-118592914D02*
X133470833Y-118783390D01*
X133470833Y-118783390D02*
X133470833Y-118926247D01*
X133470833Y-118926247D02*
X133423214Y-119116723D01*
X133423214Y-119116723D02*
X133375595Y-119211961D01*
X133375595Y-119211961D02*
X133280357Y-119307200D01*
X133280357Y-119307200D02*
X133137500Y-119354819D01*
X133137500Y-119354819D02*
X132899405Y-119354819D01*
X133947024Y-119354819D02*
X134137500Y-119354819D01*
X134137500Y-119354819D02*
X134232738Y-119307200D01*
X134232738Y-119307200D02*
X134280357Y-119259580D01*
X134280357Y-119259580D02*
X134375595Y-119116723D01*
X134375595Y-119116723D02*
X134423214Y-118926247D01*
X134423214Y-118926247D02*
X134423214Y-118545295D01*
X134423214Y-118545295D02*
X134375595Y-118450057D01*
X134375595Y-118450057D02*
X134327976Y-118402438D01*
X134327976Y-118402438D02*
X134232738Y-118354819D01*
X134232738Y-118354819D02*
X134042262Y-118354819D01*
X134042262Y-118354819D02*
X133947024Y-118402438D01*
X133947024Y-118402438D02*
X133899405Y-118450057D01*
X133899405Y-118450057D02*
X133851786Y-118545295D01*
X133851786Y-118545295D02*
X133851786Y-118783390D01*
X133851786Y-118783390D02*
X133899405Y-118878628D01*
X133899405Y-118878628D02*
X133947024Y-118926247D01*
X133947024Y-118926247D02*
X134042262Y-118973866D01*
X134042262Y-118973866D02*
X134232738Y-118973866D01*
X134232738Y-118973866D02*
X134327976Y-118926247D01*
X134327976Y-118926247D02*
X134375595Y-118878628D01*
X134375595Y-118878628D02*
X134423214Y-118783390D01*
%TO.C,R7*%
X123604819Y-76016666D02*
X123128628Y-76349999D01*
X123604819Y-76588094D02*
X122604819Y-76588094D01*
X122604819Y-76588094D02*
X122604819Y-76207142D01*
X122604819Y-76207142D02*
X122652438Y-76111904D01*
X122652438Y-76111904D02*
X122700057Y-76064285D01*
X122700057Y-76064285D02*
X122795295Y-76016666D01*
X122795295Y-76016666D02*
X122938152Y-76016666D01*
X122938152Y-76016666D02*
X123033390Y-76064285D01*
X123033390Y-76064285D02*
X123081009Y-76111904D01*
X123081009Y-76111904D02*
X123128628Y-76207142D01*
X123128628Y-76207142D02*
X123128628Y-76588094D01*
X122604819Y-75683332D02*
X122604819Y-75016666D01*
X122604819Y-75016666D02*
X123604819Y-75445237D01*
%TO.C,C7*%
X137945833Y-58639580D02*
X137898214Y-58687200D01*
X137898214Y-58687200D02*
X137755357Y-58734819D01*
X137755357Y-58734819D02*
X137660119Y-58734819D01*
X137660119Y-58734819D02*
X137517262Y-58687200D01*
X137517262Y-58687200D02*
X137422024Y-58591961D01*
X137422024Y-58591961D02*
X137374405Y-58496723D01*
X137374405Y-58496723D02*
X137326786Y-58306247D01*
X137326786Y-58306247D02*
X137326786Y-58163390D01*
X137326786Y-58163390D02*
X137374405Y-57972914D01*
X137374405Y-57972914D02*
X137422024Y-57877676D01*
X137422024Y-57877676D02*
X137517262Y-57782438D01*
X137517262Y-57782438D02*
X137660119Y-57734819D01*
X137660119Y-57734819D02*
X137755357Y-57734819D01*
X137755357Y-57734819D02*
X137898214Y-57782438D01*
X137898214Y-57782438D02*
X137945833Y-57830057D01*
X138279167Y-57734819D02*
X138945833Y-57734819D01*
X138945833Y-57734819D02*
X138517262Y-58734819D01*
%TO.C,D7*%
X120761905Y-117954819D02*
X120761905Y-116954819D01*
X120761905Y-116954819D02*
X121000000Y-116954819D01*
X121000000Y-116954819D02*
X121142857Y-117002438D01*
X121142857Y-117002438D02*
X121238095Y-117097676D01*
X121238095Y-117097676D02*
X121285714Y-117192914D01*
X121285714Y-117192914D02*
X121333333Y-117383390D01*
X121333333Y-117383390D02*
X121333333Y-117526247D01*
X121333333Y-117526247D02*
X121285714Y-117716723D01*
X121285714Y-117716723D02*
X121238095Y-117811961D01*
X121238095Y-117811961D02*
X121142857Y-117907200D01*
X121142857Y-117907200D02*
X121000000Y-117954819D01*
X121000000Y-117954819D02*
X120761905Y-117954819D01*
X121666667Y-116954819D02*
X122333333Y-116954819D01*
X122333333Y-116954819D02*
X121904762Y-117954819D01*
%TO.C,R31*%
X135467319Y-44492857D02*
X134991128Y-44826190D01*
X135467319Y-45064285D02*
X134467319Y-45064285D01*
X134467319Y-45064285D02*
X134467319Y-44683333D01*
X134467319Y-44683333D02*
X134514938Y-44588095D01*
X134514938Y-44588095D02*
X134562557Y-44540476D01*
X134562557Y-44540476D02*
X134657795Y-44492857D01*
X134657795Y-44492857D02*
X134800652Y-44492857D01*
X134800652Y-44492857D02*
X134895890Y-44540476D01*
X134895890Y-44540476D02*
X134943509Y-44588095D01*
X134943509Y-44588095D02*
X134991128Y-44683333D01*
X134991128Y-44683333D02*
X134991128Y-45064285D01*
X134467319Y-44159523D02*
X134467319Y-43540476D01*
X134467319Y-43540476D02*
X134848271Y-43873809D01*
X134848271Y-43873809D02*
X134848271Y-43730952D01*
X134848271Y-43730952D02*
X134895890Y-43635714D01*
X134895890Y-43635714D02*
X134943509Y-43588095D01*
X134943509Y-43588095D02*
X135038747Y-43540476D01*
X135038747Y-43540476D02*
X135276842Y-43540476D01*
X135276842Y-43540476D02*
X135372080Y-43588095D01*
X135372080Y-43588095D02*
X135419700Y-43635714D01*
X135419700Y-43635714D02*
X135467319Y-43730952D01*
X135467319Y-43730952D02*
X135467319Y-44016666D01*
X135467319Y-44016666D02*
X135419700Y-44111904D01*
X135419700Y-44111904D02*
X135372080Y-44159523D01*
X135467319Y-42588095D02*
X135467319Y-43159523D01*
X135467319Y-42873809D02*
X134467319Y-42873809D01*
X134467319Y-42873809D02*
X134610176Y-42969047D01*
X134610176Y-42969047D02*
X134705414Y-43064285D01*
X134705414Y-43064285D02*
X134753033Y-43159523D01*
%TO.C,R30*%
X118144642Y-47054819D02*
X117811309Y-46578628D01*
X117573214Y-47054819D02*
X117573214Y-46054819D01*
X117573214Y-46054819D02*
X117954166Y-46054819D01*
X117954166Y-46054819D02*
X118049404Y-46102438D01*
X118049404Y-46102438D02*
X118097023Y-46150057D01*
X118097023Y-46150057D02*
X118144642Y-46245295D01*
X118144642Y-46245295D02*
X118144642Y-46388152D01*
X118144642Y-46388152D02*
X118097023Y-46483390D01*
X118097023Y-46483390D02*
X118049404Y-46531009D01*
X118049404Y-46531009D02*
X117954166Y-46578628D01*
X117954166Y-46578628D02*
X117573214Y-46578628D01*
X118477976Y-46054819D02*
X119097023Y-46054819D01*
X119097023Y-46054819D02*
X118763690Y-46435771D01*
X118763690Y-46435771D02*
X118906547Y-46435771D01*
X118906547Y-46435771D02*
X119001785Y-46483390D01*
X119001785Y-46483390D02*
X119049404Y-46531009D01*
X119049404Y-46531009D02*
X119097023Y-46626247D01*
X119097023Y-46626247D02*
X119097023Y-46864342D01*
X119097023Y-46864342D02*
X119049404Y-46959580D01*
X119049404Y-46959580D02*
X119001785Y-47007200D01*
X119001785Y-47007200D02*
X118906547Y-47054819D01*
X118906547Y-47054819D02*
X118620833Y-47054819D01*
X118620833Y-47054819D02*
X118525595Y-47007200D01*
X118525595Y-47007200D02*
X118477976Y-46959580D01*
X119716071Y-46054819D02*
X119811309Y-46054819D01*
X119811309Y-46054819D02*
X119906547Y-46102438D01*
X119906547Y-46102438D02*
X119954166Y-46150057D01*
X119954166Y-46150057D02*
X120001785Y-46245295D01*
X120001785Y-46245295D02*
X120049404Y-46435771D01*
X120049404Y-46435771D02*
X120049404Y-46673866D01*
X120049404Y-46673866D02*
X120001785Y-46864342D01*
X120001785Y-46864342D02*
X119954166Y-46959580D01*
X119954166Y-46959580D02*
X119906547Y-47007200D01*
X119906547Y-47007200D02*
X119811309Y-47054819D01*
X119811309Y-47054819D02*
X119716071Y-47054819D01*
X119716071Y-47054819D02*
X119620833Y-47007200D01*
X119620833Y-47007200D02*
X119573214Y-46959580D01*
X119573214Y-46959580D02*
X119525595Y-46864342D01*
X119525595Y-46864342D02*
X119477976Y-46673866D01*
X119477976Y-46673866D02*
X119477976Y-46435771D01*
X119477976Y-46435771D02*
X119525595Y-46245295D01*
X119525595Y-46245295D02*
X119573214Y-46150057D01*
X119573214Y-46150057D02*
X119620833Y-46102438D01*
X119620833Y-46102438D02*
X119716071Y-46054819D01*
%TO.C,J8*%
X150429166Y-117254819D02*
X150429166Y-117969104D01*
X150429166Y-117969104D02*
X150381547Y-118111961D01*
X150381547Y-118111961D02*
X150286309Y-118207200D01*
X150286309Y-118207200D02*
X150143452Y-118254819D01*
X150143452Y-118254819D02*
X150048214Y-118254819D01*
X151048214Y-117683390D02*
X150952976Y-117635771D01*
X150952976Y-117635771D02*
X150905357Y-117588152D01*
X150905357Y-117588152D02*
X150857738Y-117492914D01*
X150857738Y-117492914D02*
X150857738Y-117445295D01*
X150857738Y-117445295D02*
X150905357Y-117350057D01*
X150905357Y-117350057D02*
X150952976Y-117302438D01*
X150952976Y-117302438D02*
X151048214Y-117254819D01*
X151048214Y-117254819D02*
X151238690Y-117254819D01*
X151238690Y-117254819D02*
X151333928Y-117302438D01*
X151333928Y-117302438D02*
X151381547Y-117350057D01*
X151381547Y-117350057D02*
X151429166Y-117445295D01*
X151429166Y-117445295D02*
X151429166Y-117492914D01*
X151429166Y-117492914D02*
X151381547Y-117588152D01*
X151381547Y-117588152D02*
X151333928Y-117635771D01*
X151333928Y-117635771D02*
X151238690Y-117683390D01*
X151238690Y-117683390D02*
X151048214Y-117683390D01*
X151048214Y-117683390D02*
X150952976Y-117731009D01*
X150952976Y-117731009D02*
X150905357Y-117778628D01*
X150905357Y-117778628D02*
X150857738Y-117873866D01*
X150857738Y-117873866D02*
X150857738Y-118064342D01*
X150857738Y-118064342D02*
X150905357Y-118159580D01*
X150905357Y-118159580D02*
X150952976Y-118207200D01*
X150952976Y-118207200D02*
X151048214Y-118254819D01*
X151048214Y-118254819D02*
X151238690Y-118254819D01*
X151238690Y-118254819D02*
X151333928Y-118207200D01*
X151333928Y-118207200D02*
X151381547Y-118159580D01*
X151381547Y-118159580D02*
X151429166Y-118064342D01*
X151429166Y-118064342D02*
X151429166Y-117873866D01*
X151429166Y-117873866D02*
X151381547Y-117778628D01*
X151381547Y-117778628D02*
X151333928Y-117731009D01*
X151333928Y-117731009D02*
X151238690Y-117683390D01*
%TO.C,C13*%
X143359580Y-71542857D02*
X143407200Y-71590476D01*
X143407200Y-71590476D02*
X143454819Y-71733333D01*
X143454819Y-71733333D02*
X143454819Y-71828571D01*
X143454819Y-71828571D02*
X143407200Y-71971428D01*
X143407200Y-71971428D02*
X143311961Y-72066666D01*
X143311961Y-72066666D02*
X143216723Y-72114285D01*
X143216723Y-72114285D02*
X143026247Y-72161904D01*
X143026247Y-72161904D02*
X142883390Y-72161904D01*
X142883390Y-72161904D02*
X142692914Y-72114285D01*
X142692914Y-72114285D02*
X142597676Y-72066666D01*
X142597676Y-72066666D02*
X142502438Y-71971428D01*
X142502438Y-71971428D02*
X142454819Y-71828571D01*
X142454819Y-71828571D02*
X142454819Y-71733333D01*
X142454819Y-71733333D02*
X142502438Y-71590476D01*
X142502438Y-71590476D02*
X142550057Y-71542857D01*
X143454819Y-70590476D02*
X143454819Y-71161904D01*
X143454819Y-70876190D02*
X142454819Y-70876190D01*
X142454819Y-70876190D02*
X142597676Y-70971428D01*
X142597676Y-70971428D02*
X142692914Y-71066666D01*
X142692914Y-71066666D02*
X142740533Y-71161904D01*
X142454819Y-70257142D02*
X142454819Y-69638095D01*
X142454819Y-69638095D02*
X142835771Y-69971428D01*
X142835771Y-69971428D02*
X142835771Y-69828571D01*
X142835771Y-69828571D02*
X142883390Y-69733333D01*
X142883390Y-69733333D02*
X142931009Y-69685714D01*
X142931009Y-69685714D02*
X143026247Y-69638095D01*
X143026247Y-69638095D02*
X143264342Y-69638095D01*
X143264342Y-69638095D02*
X143359580Y-69685714D01*
X143359580Y-69685714D02*
X143407200Y-69733333D01*
X143407200Y-69733333D02*
X143454819Y-69828571D01*
X143454819Y-69828571D02*
X143454819Y-70114285D01*
X143454819Y-70114285D02*
X143407200Y-70209523D01*
X143407200Y-70209523D02*
X143359580Y-70257142D01*
%TO.C,D4*%
X125554819Y-81538094D02*
X124554819Y-81538094D01*
X124554819Y-81538094D02*
X124554819Y-81299999D01*
X124554819Y-81299999D02*
X124602438Y-81157142D01*
X124602438Y-81157142D02*
X124697676Y-81061904D01*
X124697676Y-81061904D02*
X124792914Y-81014285D01*
X124792914Y-81014285D02*
X124983390Y-80966666D01*
X124983390Y-80966666D02*
X125126247Y-80966666D01*
X125126247Y-80966666D02*
X125316723Y-81014285D01*
X125316723Y-81014285D02*
X125411961Y-81061904D01*
X125411961Y-81061904D02*
X125507200Y-81157142D01*
X125507200Y-81157142D02*
X125554819Y-81299999D01*
X125554819Y-81299999D02*
X125554819Y-81538094D01*
X124888152Y-80109523D02*
X125554819Y-80109523D01*
X124507200Y-80347618D02*
X125221485Y-80585713D01*
X125221485Y-80585713D02*
X125221485Y-79966666D01*
%TO.C,U1*%
X143138095Y-72954819D02*
X143138095Y-73764342D01*
X143138095Y-73764342D02*
X143185714Y-73859580D01*
X143185714Y-73859580D02*
X143233333Y-73907200D01*
X143233333Y-73907200D02*
X143328571Y-73954819D01*
X143328571Y-73954819D02*
X143519047Y-73954819D01*
X143519047Y-73954819D02*
X143614285Y-73907200D01*
X143614285Y-73907200D02*
X143661904Y-73859580D01*
X143661904Y-73859580D02*
X143709523Y-73764342D01*
X143709523Y-73764342D02*
X143709523Y-72954819D01*
X144709523Y-73954819D02*
X144138095Y-73954819D01*
X144423809Y-73954819D02*
X144423809Y-72954819D01*
X144423809Y-72954819D02*
X144328571Y-73097676D01*
X144328571Y-73097676D02*
X144233333Y-73192914D01*
X144233333Y-73192914D02*
X144138095Y-73240533D01*
%TO.C,R1*%
X121467319Y-71016666D02*
X120991128Y-71349999D01*
X121467319Y-71588094D02*
X120467319Y-71588094D01*
X120467319Y-71588094D02*
X120467319Y-71207142D01*
X120467319Y-71207142D02*
X120514938Y-71111904D01*
X120514938Y-71111904D02*
X120562557Y-71064285D01*
X120562557Y-71064285D02*
X120657795Y-71016666D01*
X120657795Y-71016666D02*
X120800652Y-71016666D01*
X120800652Y-71016666D02*
X120895890Y-71064285D01*
X120895890Y-71064285D02*
X120943509Y-71111904D01*
X120943509Y-71111904D02*
X120991128Y-71207142D01*
X120991128Y-71207142D02*
X120991128Y-71588094D01*
X121467319Y-70064285D02*
X121467319Y-70635713D01*
X121467319Y-70349999D02*
X120467319Y-70349999D01*
X120467319Y-70349999D02*
X120610176Y-70445237D01*
X120610176Y-70445237D02*
X120705414Y-70540475D01*
X120705414Y-70540475D02*
X120753033Y-70635713D01*
%TO.C,U3*%
X139600595Y-54742319D02*
X139600595Y-55551842D01*
X139600595Y-55551842D02*
X139648214Y-55647080D01*
X139648214Y-55647080D02*
X139695833Y-55694700D01*
X139695833Y-55694700D02*
X139791071Y-55742319D01*
X139791071Y-55742319D02*
X139981547Y-55742319D01*
X139981547Y-55742319D02*
X140076785Y-55694700D01*
X140076785Y-55694700D02*
X140124404Y-55647080D01*
X140124404Y-55647080D02*
X140172023Y-55551842D01*
X140172023Y-55551842D02*
X140172023Y-54742319D01*
X140552976Y-54742319D02*
X141172023Y-54742319D01*
X141172023Y-54742319D02*
X140838690Y-55123271D01*
X140838690Y-55123271D02*
X140981547Y-55123271D01*
X140981547Y-55123271D02*
X141076785Y-55170890D01*
X141076785Y-55170890D02*
X141124404Y-55218509D01*
X141124404Y-55218509D02*
X141172023Y-55313747D01*
X141172023Y-55313747D02*
X141172023Y-55551842D01*
X141172023Y-55551842D02*
X141124404Y-55647080D01*
X141124404Y-55647080D02*
X141076785Y-55694700D01*
X141076785Y-55694700D02*
X140981547Y-55742319D01*
X140981547Y-55742319D02*
X140695833Y-55742319D01*
X140695833Y-55742319D02*
X140600595Y-55694700D01*
X140600595Y-55694700D02*
X140552976Y-55647080D01*
%TO.C,R21*%
X116417319Y-54992857D02*
X115941128Y-55326190D01*
X116417319Y-55564285D02*
X115417319Y-55564285D01*
X115417319Y-55564285D02*
X115417319Y-55183333D01*
X115417319Y-55183333D02*
X115464938Y-55088095D01*
X115464938Y-55088095D02*
X115512557Y-55040476D01*
X115512557Y-55040476D02*
X115607795Y-54992857D01*
X115607795Y-54992857D02*
X115750652Y-54992857D01*
X115750652Y-54992857D02*
X115845890Y-55040476D01*
X115845890Y-55040476D02*
X115893509Y-55088095D01*
X115893509Y-55088095D02*
X115941128Y-55183333D01*
X115941128Y-55183333D02*
X115941128Y-55564285D01*
X115512557Y-54611904D02*
X115464938Y-54564285D01*
X115464938Y-54564285D02*
X115417319Y-54469047D01*
X115417319Y-54469047D02*
X115417319Y-54230952D01*
X115417319Y-54230952D02*
X115464938Y-54135714D01*
X115464938Y-54135714D02*
X115512557Y-54088095D01*
X115512557Y-54088095D02*
X115607795Y-54040476D01*
X115607795Y-54040476D02*
X115703033Y-54040476D01*
X115703033Y-54040476D02*
X115845890Y-54088095D01*
X115845890Y-54088095D02*
X116417319Y-54659523D01*
X116417319Y-54659523D02*
X116417319Y-54040476D01*
X116417319Y-53088095D02*
X116417319Y-53659523D01*
X116417319Y-53373809D02*
X115417319Y-53373809D01*
X115417319Y-53373809D02*
X115560176Y-53469047D01*
X115560176Y-53469047D02*
X115655414Y-53564285D01*
X115655414Y-53564285D02*
X115703033Y-53659523D01*
%TO.C,C17*%
X136719642Y-39709580D02*
X136672023Y-39757200D01*
X136672023Y-39757200D02*
X136529166Y-39804819D01*
X136529166Y-39804819D02*
X136433928Y-39804819D01*
X136433928Y-39804819D02*
X136291071Y-39757200D01*
X136291071Y-39757200D02*
X136195833Y-39661961D01*
X136195833Y-39661961D02*
X136148214Y-39566723D01*
X136148214Y-39566723D02*
X136100595Y-39376247D01*
X136100595Y-39376247D02*
X136100595Y-39233390D01*
X136100595Y-39233390D02*
X136148214Y-39042914D01*
X136148214Y-39042914D02*
X136195833Y-38947676D01*
X136195833Y-38947676D02*
X136291071Y-38852438D01*
X136291071Y-38852438D02*
X136433928Y-38804819D01*
X136433928Y-38804819D02*
X136529166Y-38804819D01*
X136529166Y-38804819D02*
X136672023Y-38852438D01*
X136672023Y-38852438D02*
X136719642Y-38900057D01*
X137672023Y-39804819D02*
X137100595Y-39804819D01*
X137386309Y-39804819D02*
X137386309Y-38804819D01*
X137386309Y-38804819D02*
X137291071Y-38947676D01*
X137291071Y-38947676D02*
X137195833Y-39042914D01*
X137195833Y-39042914D02*
X137100595Y-39090533D01*
X138005357Y-38804819D02*
X138672023Y-38804819D01*
X138672023Y-38804819D02*
X138243452Y-39804819D01*
%TO.C,C11*%
X133402080Y-62492857D02*
X133449700Y-62540476D01*
X133449700Y-62540476D02*
X133497319Y-62683333D01*
X133497319Y-62683333D02*
X133497319Y-62778571D01*
X133497319Y-62778571D02*
X133449700Y-62921428D01*
X133449700Y-62921428D02*
X133354461Y-63016666D01*
X133354461Y-63016666D02*
X133259223Y-63064285D01*
X133259223Y-63064285D02*
X133068747Y-63111904D01*
X133068747Y-63111904D02*
X132925890Y-63111904D01*
X132925890Y-63111904D02*
X132735414Y-63064285D01*
X132735414Y-63064285D02*
X132640176Y-63016666D01*
X132640176Y-63016666D02*
X132544938Y-62921428D01*
X132544938Y-62921428D02*
X132497319Y-62778571D01*
X132497319Y-62778571D02*
X132497319Y-62683333D01*
X132497319Y-62683333D02*
X132544938Y-62540476D01*
X132544938Y-62540476D02*
X132592557Y-62492857D01*
X133497319Y-61540476D02*
X133497319Y-62111904D01*
X133497319Y-61826190D02*
X132497319Y-61826190D01*
X132497319Y-61826190D02*
X132640176Y-61921428D01*
X132640176Y-61921428D02*
X132735414Y-62016666D01*
X132735414Y-62016666D02*
X132783033Y-62111904D01*
X133497319Y-60588095D02*
X133497319Y-61159523D01*
X133497319Y-60873809D02*
X132497319Y-60873809D01*
X132497319Y-60873809D02*
X132640176Y-60969047D01*
X132640176Y-60969047D02*
X132735414Y-61064285D01*
X132735414Y-61064285D02*
X132783033Y-61159523D01*
%TO.C,J7*%
X150429166Y-34704819D02*
X150429166Y-35419104D01*
X150429166Y-35419104D02*
X150381547Y-35561961D01*
X150381547Y-35561961D02*
X150286309Y-35657200D01*
X150286309Y-35657200D02*
X150143452Y-35704819D01*
X150143452Y-35704819D02*
X150048214Y-35704819D01*
X150810119Y-34704819D02*
X151476785Y-34704819D01*
X151476785Y-34704819D02*
X151048214Y-35704819D01*
%TO.C,R16*%
X120467319Y-44492857D02*
X119991128Y-44826190D01*
X120467319Y-45064285D02*
X119467319Y-45064285D01*
X119467319Y-45064285D02*
X119467319Y-44683333D01*
X119467319Y-44683333D02*
X119514938Y-44588095D01*
X119514938Y-44588095D02*
X119562557Y-44540476D01*
X119562557Y-44540476D02*
X119657795Y-44492857D01*
X119657795Y-44492857D02*
X119800652Y-44492857D01*
X119800652Y-44492857D02*
X119895890Y-44540476D01*
X119895890Y-44540476D02*
X119943509Y-44588095D01*
X119943509Y-44588095D02*
X119991128Y-44683333D01*
X119991128Y-44683333D02*
X119991128Y-45064285D01*
X120467319Y-43540476D02*
X120467319Y-44111904D01*
X120467319Y-43826190D02*
X119467319Y-43826190D01*
X119467319Y-43826190D02*
X119610176Y-43921428D01*
X119610176Y-43921428D02*
X119705414Y-44016666D01*
X119705414Y-44016666D02*
X119753033Y-44111904D01*
X119467319Y-42683333D02*
X119467319Y-42873809D01*
X119467319Y-42873809D02*
X119514938Y-42969047D01*
X119514938Y-42969047D02*
X119562557Y-43016666D01*
X119562557Y-43016666D02*
X119705414Y-43111904D01*
X119705414Y-43111904D02*
X119895890Y-43159523D01*
X119895890Y-43159523D02*
X120276842Y-43159523D01*
X120276842Y-43159523D02*
X120372080Y-43111904D01*
X120372080Y-43111904D02*
X120419700Y-43064285D01*
X120419700Y-43064285D02*
X120467319Y-42969047D01*
X120467319Y-42969047D02*
X120467319Y-42778571D01*
X120467319Y-42778571D02*
X120419700Y-42683333D01*
X120419700Y-42683333D02*
X120372080Y-42635714D01*
X120372080Y-42635714D02*
X120276842Y-42588095D01*
X120276842Y-42588095D02*
X120038747Y-42588095D01*
X120038747Y-42588095D02*
X119943509Y-42635714D01*
X119943509Y-42635714D02*
X119895890Y-42683333D01*
X119895890Y-42683333D02*
X119848271Y-42778571D01*
X119848271Y-42778571D02*
X119848271Y-42969047D01*
X119848271Y-42969047D02*
X119895890Y-43064285D01*
X119895890Y-43064285D02*
X119943509Y-43111904D01*
X119943509Y-43111904D02*
X120038747Y-43159523D01*
%TO.C,R10*%
X149154819Y-70642857D02*
X148678628Y-70976190D01*
X149154819Y-71214285D02*
X148154819Y-71214285D01*
X148154819Y-71214285D02*
X148154819Y-70833333D01*
X148154819Y-70833333D02*
X148202438Y-70738095D01*
X148202438Y-70738095D02*
X148250057Y-70690476D01*
X148250057Y-70690476D02*
X148345295Y-70642857D01*
X148345295Y-70642857D02*
X148488152Y-70642857D01*
X148488152Y-70642857D02*
X148583390Y-70690476D01*
X148583390Y-70690476D02*
X148631009Y-70738095D01*
X148631009Y-70738095D02*
X148678628Y-70833333D01*
X148678628Y-70833333D02*
X148678628Y-71214285D01*
X149154819Y-69690476D02*
X149154819Y-70261904D01*
X149154819Y-69976190D02*
X148154819Y-69976190D01*
X148154819Y-69976190D02*
X148297676Y-70071428D01*
X148297676Y-70071428D02*
X148392914Y-70166666D01*
X148392914Y-70166666D02*
X148440533Y-70261904D01*
X148154819Y-69071428D02*
X148154819Y-68976190D01*
X148154819Y-68976190D02*
X148202438Y-68880952D01*
X148202438Y-68880952D02*
X148250057Y-68833333D01*
X148250057Y-68833333D02*
X148345295Y-68785714D01*
X148345295Y-68785714D02*
X148535771Y-68738095D01*
X148535771Y-68738095D02*
X148773866Y-68738095D01*
X148773866Y-68738095D02*
X148964342Y-68785714D01*
X148964342Y-68785714D02*
X149059580Y-68833333D01*
X149059580Y-68833333D02*
X149107200Y-68880952D01*
X149107200Y-68880952D02*
X149154819Y-68976190D01*
X149154819Y-68976190D02*
X149154819Y-69071428D01*
X149154819Y-69071428D02*
X149107200Y-69166666D01*
X149107200Y-69166666D02*
X149059580Y-69214285D01*
X149059580Y-69214285D02*
X148964342Y-69261904D01*
X148964342Y-69261904D02*
X148773866Y-69309523D01*
X148773866Y-69309523D02*
X148535771Y-69309523D01*
X148535771Y-69309523D02*
X148345295Y-69261904D01*
X148345295Y-69261904D02*
X148250057Y-69214285D01*
X148250057Y-69214285D02*
X148202438Y-69166666D01*
X148202438Y-69166666D02*
X148154819Y-69071428D01*
%TO.C,R37*%
X120054819Y-123842857D02*
X119578628Y-124176190D01*
X120054819Y-124414285D02*
X119054819Y-124414285D01*
X119054819Y-124414285D02*
X119054819Y-124033333D01*
X119054819Y-124033333D02*
X119102438Y-123938095D01*
X119102438Y-123938095D02*
X119150057Y-123890476D01*
X119150057Y-123890476D02*
X119245295Y-123842857D01*
X119245295Y-123842857D02*
X119388152Y-123842857D01*
X119388152Y-123842857D02*
X119483390Y-123890476D01*
X119483390Y-123890476D02*
X119531009Y-123938095D01*
X119531009Y-123938095D02*
X119578628Y-124033333D01*
X119578628Y-124033333D02*
X119578628Y-124414285D01*
X119054819Y-123509523D02*
X119054819Y-122890476D01*
X119054819Y-122890476D02*
X119435771Y-123223809D01*
X119435771Y-123223809D02*
X119435771Y-123080952D01*
X119435771Y-123080952D02*
X119483390Y-122985714D01*
X119483390Y-122985714D02*
X119531009Y-122938095D01*
X119531009Y-122938095D02*
X119626247Y-122890476D01*
X119626247Y-122890476D02*
X119864342Y-122890476D01*
X119864342Y-122890476D02*
X119959580Y-122938095D01*
X119959580Y-122938095D02*
X120007200Y-122985714D01*
X120007200Y-122985714D02*
X120054819Y-123080952D01*
X120054819Y-123080952D02*
X120054819Y-123366666D01*
X120054819Y-123366666D02*
X120007200Y-123461904D01*
X120007200Y-123461904D02*
X119959580Y-123509523D01*
X119054819Y-122557142D02*
X119054819Y-121890476D01*
X119054819Y-121890476D02*
X120054819Y-122319047D01*
%TO.C,R29*%
X127719642Y-46654819D02*
X127386309Y-46178628D01*
X127148214Y-46654819D02*
X127148214Y-45654819D01*
X127148214Y-45654819D02*
X127529166Y-45654819D01*
X127529166Y-45654819D02*
X127624404Y-45702438D01*
X127624404Y-45702438D02*
X127672023Y-45750057D01*
X127672023Y-45750057D02*
X127719642Y-45845295D01*
X127719642Y-45845295D02*
X127719642Y-45988152D01*
X127719642Y-45988152D02*
X127672023Y-46083390D01*
X127672023Y-46083390D02*
X127624404Y-46131009D01*
X127624404Y-46131009D02*
X127529166Y-46178628D01*
X127529166Y-46178628D02*
X127148214Y-46178628D01*
X128100595Y-45750057D02*
X128148214Y-45702438D01*
X128148214Y-45702438D02*
X128243452Y-45654819D01*
X128243452Y-45654819D02*
X128481547Y-45654819D01*
X128481547Y-45654819D02*
X128576785Y-45702438D01*
X128576785Y-45702438D02*
X128624404Y-45750057D01*
X128624404Y-45750057D02*
X128672023Y-45845295D01*
X128672023Y-45845295D02*
X128672023Y-45940533D01*
X128672023Y-45940533D02*
X128624404Y-46083390D01*
X128624404Y-46083390D02*
X128052976Y-46654819D01*
X128052976Y-46654819D02*
X128672023Y-46654819D01*
X129148214Y-46654819D02*
X129338690Y-46654819D01*
X129338690Y-46654819D02*
X129433928Y-46607200D01*
X129433928Y-46607200D02*
X129481547Y-46559580D01*
X129481547Y-46559580D02*
X129576785Y-46416723D01*
X129576785Y-46416723D02*
X129624404Y-46226247D01*
X129624404Y-46226247D02*
X129624404Y-45845295D01*
X129624404Y-45845295D02*
X129576785Y-45750057D01*
X129576785Y-45750057D02*
X129529166Y-45702438D01*
X129529166Y-45702438D02*
X129433928Y-45654819D01*
X129433928Y-45654819D02*
X129243452Y-45654819D01*
X129243452Y-45654819D02*
X129148214Y-45702438D01*
X129148214Y-45702438D02*
X129100595Y-45750057D01*
X129100595Y-45750057D02*
X129052976Y-45845295D01*
X129052976Y-45845295D02*
X129052976Y-46083390D01*
X129052976Y-46083390D02*
X129100595Y-46178628D01*
X129100595Y-46178628D02*
X129148214Y-46226247D01*
X129148214Y-46226247D02*
X129243452Y-46273866D01*
X129243452Y-46273866D02*
X129433928Y-46273866D01*
X129433928Y-46273866D02*
X129529166Y-46226247D01*
X129529166Y-46226247D02*
X129576785Y-46178628D01*
X129576785Y-46178628D02*
X129624404Y-46083390D01*
%TO.C,R35*%
X125954819Y-123742857D02*
X125478628Y-124076190D01*
X125954819Y-124314285D02*
X124954819Y-124314285D01*
X124954819Y-124314285D02*
X124954819Y-123933333D01*
X124954819Y-123933333D02*
X125002438Y-123838095D01*
X125002438Y-123838095D02*
X125050057Y-123790476D01*
X125050057Y-123790476D02*
X125145295Y-123742857D01*
X125145295Y-123742857D02*
X125288152Y-123742857D01*
X125288152Y-123742857D02*
X125383390Y-123790476D01*
X125383390Y-123790476D02*
X125431009Y-123838095D01*
X125431009Y-123838095D02*
X125478628Y-123933333D01*
X125478628Y-123933333D02*
X125478628Y-124314285D01*
X124954819Y-123409523D02*
X124954819Y-122790476D01*
X124954819Y-122790476D02*
X125335771Y-123123809D01*
X125335771Y-123123809D02*
X125335771Y-122980952D01*
X125335771Y-122980952D02*
X125383390Y-122885714D01*
X125383390Y-122885714D02*
X125431009Y-122838095D01*
X125431009Y-122838095D02*
X125526247Y-122790476D01*
X125526247Y-122790476D02*
X125764342Y-122790476D01*
X125764342Y-122790476D02*
X125859580Y-122838095D01*
X125859580Y-122838095D02*
X125907200Y-122885714D01*
X125907200Y-122885714D02*
X125954819Y-122980952D01*
X125954819Y-122980952D02*
X125954819Y-123266666D01*
X125954819Y-123266666D02*
X125907200Y-123361904D01*
X125907200Y-123361904D02*
X125859580Y-123409523D01*
X124954819Y-121885714D02*
X124954819Y-122361904D01*
X124954819Y-122361904D02*
X125431009Y-122409523D01*
X125431009Y-122409523D02*
X125383390Y-122361904D01*
X125383390Y-122361904D02*
X125335771Y-122266666D01*
X125335771Y-122266666D02*
X125335771Y-122028571D01*
X125335771Y-122028571D02*
X125383390Y-121933333D01*
X125383390Y-121933333D02*
X125431009Y-121885714D01*
X125431009Y-121885714D02*
X125526247Y-121838095D01*
X125526247Y-121838095D02*
X125764342Y-121838095D01*
X125764342Y-121838095D02*
X125859580Y-121885714D01*
X125859580Y-121885714D02*
X125907200Y-121933333D01*
X125907200Y-121933333D02*
X125954819Y-122028571D01*
X125954819Y-122028571D02*
X125954819Y-122266666D01*
X125954819Y-122266666D02*
X125907200Y-122361904D01*
X125907200Y-122361904D02*
X125859580Y-122409523D01*
%TO.C,R11*%
X145829642Y-56584819D02*
X145496309Y-56108628D01*
X145258214Y-56584819D02*
X145258214Y-55584819D01*
X145258214Y-55584819D02*
X145639166Y-55584819D01*
X145639166Y-55584819D02*
X145734404Y-55632438D01*
X145734404Y-55632438D02*
X145782023Y-55680057D01*
X145782023Y-55680057D02*
X145829642Y-55775295D01*
X145829642Y-55775295D02*
X145829642Y-55918152D01*
X145829642Y-55918152D02*
X145782023Y-56013390D01*
X145782023Y-56013390D02*
X145734404Y-56061009D01*
X145734404Y-56061009D02*
X145639166Y-56108628D01*
X145639166Y-56108628D02*
X145258214Y-56108628D01*
X146782023Y-56584819D02*
X146210595Y-56584819D01*
X146496309Y-56584819D02*
X146496309Y-55584819D01*
X146496309Y-55584819D02*
X146401071Y-55727676D01*
X146401071Y-55727676D02*
X146305833Y-55822914D01*
X146305833Y-55822914D02*
X146210595Y-55870533D01*
X147734404Y-56584819D02*
X147162976Y-56584819D01*
X147448690Y-56584819D02*
X147448690Y-55584819D01*
X147448690Y-55584819D02*
X147353452Y-55727676D01*
X147353452Y-55727676D02*
X147258214Y-55822914D01*
X147258214Y-55822914D02*
X147162976Y-55870533D01*
%TO.C,C2*%
X118542080Y-85979166D02*
X118589700Y-86026785D01*
X118589700Y-86026785D02*
X118637319Y-86169642D01*
X118637319Y-86169642D02*
X118637319Y-86264880D01*
X118637319Y-86264880D02*
X118589700Y-86407737D01*
X118589700Y-86407737D02*
X118494461Y-86502975D01*
X118494461Y-86502975D02*
X118399223Y-86550594D01*
X118399223Y-86550594D02*
X118208747Y-86598213D01*
X118208747Y-86598213D02*
X118065890Y-86598213D01*
X118065890Y-86598213D02*
X117875414Y-86550594D01*
X117875414Y-86550594D02*
X117780176Y-86502975D01*
X117780176Y-86502975D02*
X117684938Y-86407737D01*
X117684938Y-86407737D02*
X117637319Y-86264880D01*
X117637319Y-86264880D02*
X117637319Y-86169642D01*
X117637319Y-86169642D02*
X117684938Y-86026785D01*
X117684938Y-86026785D02*
X117732557Y-85979166D01*
X117732557Y-85598213D02*
X117684938Y-85550594D01*
X117684938Y-85550594D02*
X117637319Y-85455356D01*
X117637319Y-85455356D02*
X117637319Y-85217261D01*
X117637319Y-85217261D02*
X117684938Y-85122023D01*
X117684938Y-85122023D02*
X117732557Y-85074404D01*
X117732557Y-85074404D02*
X117827795Y-85026785D01*
X117827795Y-85026785D02*
X117923033Y-85026785D01*
X117923033Y-85026785D02*
X118065890Y-85074404D01*
X118065890Y-85074404D02*
X118637319Y-85645832D01*
X118637319Y-85645832D02*
X118637319Y-85026785D01*
%TO.C,C16*%
X150719642Y-68529580D02*
X150672023Y-68577200D01*
X150672023Y-68577200D02*
X150529166Y-68624819D01*
X150529166Y-68624819D02*
X150433928Y-68624819D01*
X150433928Y-68624819D02*
X150291071Y-68577200D01*
X150291071Y-68577200D02*
X150195833Y-68481961D01*
X150195833Y-68481961D02*
X150148214Y-68386723D01*
X150148214Y-68386723D02*
X150100595Y-68196247D01*
X150100595Y-68196247D02*
X150100595Y-68053390D01*
X150100595Y-68053390D02*
X150148214Y-67862914D01*
X150148214Y-67862914D02*
X150195833Y-67767676D01*
X150195833Y-67767676D02*
X150291071Y-67672438D01*
X150291071Y-67672438D02*
X150433928Y-67624819D01*
X150433928Y-67624819D02*
X150529166Y-67624819D01*
X150529166Y-67624819D02*
X150672023Y-67672438D01*
X150672023Y-67672438D02*
X150719642Y-67720057D01*
X151672023Y-68624819D02*
X151100595Y-68624819D01*
X151386309Y-68624819D02*
X151386309Y-67624819D01*
X151386309Y-67624819D02*
X151291071Y-67767676D01*
X151291071Y-67767676D02*
X151195833Y-67862914D01*
X151195833Y-67862914D02*
X151100595Y-67910533D01*
X152529166Y-67624819D02*
X152338690Y-67624819D01*
X152338690Y-67624819D02*
X152243452Y-67672438D01*
X152243452Y-67672438D02*
X152195833Y-67720057D01*
X152195833Y-67720057D02*
X152100595Y-67862914D01*
X152100595Y-67862914D02*
X152052976Y-68053390D01*
X152052976Y-68053390D02*
X152052976Y-68434342D01*
X152052976Y-68434342D02*
X152100595Y-68529580D01*
X152100595Y-68529580D02*
X152148214Y-68577200D01*
X152148214Y-68577200D02*
X152243452Y-68624819D01*
X152243452Y-68624819D02*
X152433928Y-68624819D01*
X152433928Y-68624819D02*
X152529166Y-68577200D01*
X152529166Y-68577200D02*
X152576785Y-68529580D01*
X152576785Y-68529580D02*
X152624404Y-68434342D01*
X152624404Y-68434342D02*
X152624404Y-68196247D01*
X152624404Y-68196247D02*
X152576785Y-68101009D01*
X152576785Y-68101009D02*
X152529166Y-68053390D01*
X152529166Y-68053390D02*
X152433928Y-68005771D01*
X152433928Y-68005771D02*
X152243452Y-68005771D01*
X152243452Y-68005771D02*
X152148214Y-68053390D01*
X152148214Y-68053390D02*
X152100595Y-68101009D01*
X152100595Y-68101009D02*
X152052976Y-68196247D01*
%TO.C,R9*%
X120004819Y-90566666D02*
X119528628Y-90899999D01*
X120004819Y-91138094D02*
X119004819Y-91138094D01*
X119004819Y-91138094D02*
X119004819Y-90757142D01*
X119004819Y-90757142D02*
X119052438Y-90661904D01*
X119052438Y-90661904D02*
X119100057Y-90614285D01*
X119100057Y-90614285D02*
X119195295Y-90566666D01*
X119195295Y-90566666D02*
X119338152Y-90566666D01*
X119338152Y-90566666D02*
X119433390Y-90614285D01*
X119433390Y-90614285D02*
X119481009Y-90661904D01*
X119481009Y-90661904D02*
X119528628Y-90757142D01*
X119528628Y-90757142D02*
X119528628Y-91138094D01*
X120004819Y-90090475D02*
X120004819Y-89899999D01*
X120004819Y-89899999D02*
X119957200Y-89804761D01*
X119957200Y-89804761D02*
X119909580Y-89757142D01*
X119909580Y-89757142D02*
X119766723Y-89661904D01*
X119766723Y-89661904D02*
X119576247Y-89614285D01*
X119576247Y-89614285D02*
X119195295Y-89614285D01*
X119195295Y-89614285D02*
X119100057Y-89661904D01*
X119100057Y-89661904D02*
X119052438Y-89709523D01*
X119052438Y-89709523D02*
X119004819Y-89804761D01*
X119004819Y-89804761D02*
X119004819Y-89995237D01*
X119004819Y-89995237D02*
X119052438Y-90090475D01*
X119052438Y-90090475D02*
X119100057Y-90138094D01*
X119100057Y-90138094D02*
X119195295Y-90185713D01*
X119195295Y-90185713D02*
X119433390Y-90185713D01*
X119433390Y-90185713D02*
X119528628Y-90138094D01*
X119528628Y-90138094D02*
X119576247Y-90090475D01*
X119576247Y-90090475D02*
X119623866Y-89995237D01*
X119623866Y-89995237D02*
X119623866Y-89804761D01*
X119623866Y-89804761D02*
X119576247Y-89709523D01*
X119576247Y-89709523D02*
X119528628Y-89661904D01*
X119528628Y-89661904D02*
X119433390Y-89614285D01*
%TO.C,R39*%
X132357142Y-109804819D02*
X132023809Y-109328628D01*
X131785714Y-109804819D02*
X131785714Y-108804819D01*
X131785714Y-108804819D02*
X132166666Y-108804819D01*
X132166666Y-108804819D02*
X132261904Y-108852438D01*
X132261904Y-108852438D02*
X132309523Y-108900057D01*
X132309523Y-108900057D02*
X132357142Y-108995295D01*
X132357142Y-108995295D02*
X132357142Y-109138152D01*
X132357142Y-109138152D02*
X132309523Y-109233390D01*
X132309523Y-109233390D02*
X132261904Y-109281009D01*
X132261904Y-109281009D02*
X132166666Y-109328628D01*
X132166666Y-109328628D02*
X131785714Y-109328628D01*
X132690476Y-108804819D02*
X133309523Y-108804819D01*
X133309523Y-108804819D02*
X132976190Y-109185771D01*
X132976190Y-109185771D02*
X133119047Y-109185771D01*
X133119047Y-109185771D02*
X133214285Y-109233390D01*
X133214285Y-109233390D02*
X133261904Y-109281009D01*
X133261904Y-109281009D02*
X133309523Y-109376247D01*
X133309523Y-109376247D02*
X133309523Y-109614342D01*
X133309523Y-109614342D02*
X133261904Y-109709580D01*
X133261904Y-109709580D02*
X133214285Y-109757200D01*
X133214285Y-109757200D02*
X133119047Y-109804819D01*
X133119047Y-109804819D02*
X132833333Y-109804819D01*
X132833333Y-109804819D02*
X132738095Y-109757200D01*
X132738095Y-109757200D02*
X132690476Y-109709580D01*
X133785714Y-109804819D02*
X133976190Y-109804819D01*
X133976190Y-109804819D02*
X134071428Y-109757200D01*
X134071428Y-109757200D02*
X134119047Y-109709580D01*
X134119047Y-109709580D02*
X134214285Y-109566723D01*
X134214285Y-109566723D02*
X134261904Y-109376247D01*
X134261904Y-109376247D02*
X134261904Y-108995295D01*
X134261904Y-108995295D02*
X134214285Y-108900057D01*
X134214285Y-108900057D02*
X134166666Y-108852438D01*
X134166666Y-108852438D02*
X134071428Y-108804819D01*
X134071428Y-108804819D02*
X133880952Y-108804819D01*
X133880952Y-108804819D02*
X133785714Y-108852438D01*
X133785714Y-108852438D02*
X133738095Y-108900057D01*
X133738095Y-108900057D02*
X133690476Y-108995295D01*
X133690476Y-108995295D02*
X133690476Y-109233390D01*
X133690476Y-109233390D02*
X133738095Y-109328628D01*
X133738095Y-109328628D02*
X133785714Y-109376247D01*
X133785714Y-109376247D02*
X133880952Y-109423866D01*
X133880952Y-109423866D02*
X134071428Y-109423866D01*
X134071428Y-109423866D02*
X134166666Y-109376247D01*
X134166666Y-109376247D02*
X134214285Y-109328628D01*
X134214285Y-109328628D02*
X134261904Y-109233390D01*
%TO.C,C12*%
X125042080Y-65492857D02*
X125089700Y-65540476D01*
X125089700Y-65540476D02*
X125137319Y-65683333D01*
X125137319Y-65683333D02*
X125137319Y-65778571D01*
X125137319Y-65778571D02*
X125089700Y-65921428D01*
X125089700Y-65921428D02*
X124994461Y-66016666D01*
X124994461Y-66016666D02*
X124899223Y-66064285D01*
X124899223Y-66064285D02*
X124708747Y-66111904D01*
X124708747Y-66111904D02*
X124565890Y-66111904D01*
X124565890Y-66111904D02*
X124375414Y-66064285D01*
X124375414Y-66064285D02*
X124280176Y-66016666D01*
X124280176Y-66016666D02*
X124184938Y-65921428D01*
X124184938Y-65921428D02*
X124137319Y-65778571D01*
X124137319Y-65778571D02*
X124137319Y-65683333D01*
X124137319Y-65683333D02*
X124184938Y-65540476D01*
X124184938Y-65540476D02*
X124232557Y-65492857D01*
X125137319Y-64540476D02*
X125137319Y-65111904D01*
X125137319Y-64826190D02*
X124137319Y-64826190D01*
X124137319Y-64826190D02*
X124280176Y-64921428D01*
X124280176Y-64921428D02*
X124375414Y-65016666D01*
X124375414Y-65016666D02*
X124423033Y-65111904D01*
X124232557Y-64159523D02*
X124184938Y-64111904D01*
X124184938Y-64111904D02*
X124137319Y-64016666D01*
X124137319Y-64016666D02*
X124137319Y-63778571D01*
X124137319Y-63778571D02*
X124184938Y-63683333D01*
X124184938Y-63683333D02*
X124232557Y-63635714D01*
X124232557Y-63635714D02*
X124327795Y-63588095D01*
X124327795Y-63588095D02*
X124423033Y-63588095D01*
X124423033Y-63588095D02*
X124565890Y-63635714D01*
X124565890Y-63635714D02*
X125137319Y-64207142D01*
X125137319Y-64207142D02*
X125137319Y-63588095D01*
D11*
%TO.C,C15*%
X116760000Y-114745563D02*
X115695563Y-115810000D01*
X108040000Y-107090000D02*
X108040000Y-109940000D01*
X115695563Y-107090000D02*
X108040000Y-107090000D01*
X108040000Y-115810000D02*
X108040000Y-112960000D01*
X116760000Y-114745563D02*
X116760000Y-112960000D01*
X118000000Y-113960000D02*
X117000000Y-113960000D01*
X116760000Y-108154437D02*
X116760000Y-109940000D01*
X115695563Y-115810000D02*
X108040000Y-115810000D01*
X116760000Y-108154437D02*
X115695563Y-107090000D01*
X117500000Y-114460000D02*
X117500000Y-113460000D01*
%TO.C,R6*%
X117127500Y-95577064D02*
X117127500Y-95122936D01*
X118597500Y-95577064D02*
X118597500Y-95122936D01*
%TO.C,R44*%
X132772936Y-106765000D02*
X133227064Y-106765000D01*
X132772936Y-108235000D02*
X133227064Y-108235000D01*
%TO.C,J5*%
X133042500Y-37720000D02*
X133042500Y-39050000D01*
X131712500Y-37720000D02*
X133042500Y-37720000D01*
X130442500Y-37720000D02*
X120222500Y-37720000D01*
X130442500Y-37720000D02*
X130442500Y-40380000D01*
X120222500Y-37720000D02*
X120222500Y-40380000D01*
X130442500Y-40380000D02*
X120222500Y-40380000D01*
%TO.C,D2*%
X128225000Y-42290000D02*
X126425000Y-42290000D01*
X128225000Y-42290000D02*
X129025000Y-42290000D01*
X128225000Y-45410000D02*
X127425000Y-45410000D01*
X128225000Y-45410000D02*
X129025000Y-45410000D01*
%TO.C,C18*%
X143623752Y-43585000D02*
X143101248Y-43585000D01*
X143623752Y-42115000D02*
X143101248Y-42115000D01*
%TO.C,U4*%
X125362500Y-101790000D02*
X121912500Y-101790000D01*
X125362500Y-101790000D02*
X127312500Y-101790000D01*
X125362500Y-106910000D02*
X123412500Y-106910000D01*
X125362500Y-106910000D02*
X127312500Y-106910000D01*
%TO.C,R42*%
X127589564Y-97985000D02*
X127135436Y-97985000D01*
X127589564Y-96515000D02*
X127135436Y-96515000D01*
%TO.C,R3*%
X123377500Y-70327064D02*
X123377500Y-69872936D01*
X124847500Y-70327064D02*
X124847500Y-69872936D01*
%TO.C,Q3*%
X142112500Y-88875000D02*
X142112500Y-90685000D01*
X142112500Y-90685000D02*
X136987500Y-90685000D01*
X142112500Y-97465000D02*
X141012500Y-97465000D01*
X142112500Y-99275000D02*
X142112500Y-97465000D01*
X143612500Y-88875000D02*
X142112500Y-88875000D01*
X143612500Y-99275000D02*
X142112500Y-99275000D01*
%TO.C,D5*%
X150422500Y-49712500D02*
X150422500Y-47912500D01*
X150422500Y-49712500D02*
X150422500Y-50512500D01*
X147302500Y-49712500D02*
X147302500Y-48912500D01*
X147302500Y-49712500D02*
X147302500Y-50512500D01*
%TO.C,R38*%
X132635436Y-91115000D02*
X133089564Y-91115000D01*
X132635436Y-92585000D02*
X133089564Y-92585000D01*
%TO.C,R25*%
X129135000Y-119772936D02*
X129135000Y-120227064D01*
X127665000Y-119772936D02*
X127665000Y-120227064D01*
%TO.C,R24*%
X112097500Y-58622936D02*
X112097500Y-59077064D01*
X110627500Y-58622936D02*
X110627500Y-59077064D01*
%TO.C,J1*%
X115672500Y-63770000D02*
X108052500Y-63770000D01*
X108052500Y-63770000D02*
X108052500Y-73930000D01*
X115672500Y-73930000D02*
X115672500Y-63770000D01*
X109322500Y-73930000D02*
X109322500Y-63770000D01*
X108052500Y-73930000D02*
X115672500Y-73930000D01*
%TO.C,C9*%
X135597500Y-61626248D02*
X135597500Y-62148752D01*
X134127500Y-61626248D02*
X134127500Y-62148752D01*
%TO.C,R19*%
X133175436Y-53572500D02*
X133629564Y-53572500D01*
X133175436Y-55042500D02*
X133629564Y-55042500D01*
%TO.C,R20*%
X133175436Y-56522500D02*
X133629564Y-56522500D01*
X133175436Y-57992500D02*
X133629564Y-57992500D01*
%TO.C,D6*%
X109070000Y-101280000D02*
X109070000Y-105921000D01*
X109070000Y-101280000D02*
X119310000Y-101280000D01*
X109070000Y-102790000D02*
X119310000Y-102790000D01*
X109070000Y-105921000D02*
X119310000Y-105921000D01*
X112340000Y-101280000D02*
X112340000Y-102790000D01*
X116041000Y-101280000D02*
X116041000Y-102790000D01*
X119310000Y-101280000D02*
X119310000Y-105921000D01*
%TO.C,J11*%
X146552500Y-84470000D02*
X154172500Y-84470000D01*
X154172500Y-84470000D02*
X154172500Y-74310000D01*
X146552500Y-74310000D02*
X146552500Y-84470000D01*
X152902500Y-74310000D02*
X152902500Y-84470000D01*
X154172500Y-74310000D02*
X146552500Y-74310000D01*
%TO.C,R41*%
X114727064Y-98785000D02*
X114272936Y-98785000D01*
X114727064Y-97315000D02*
X114272936Y-97315000D01*
%TO.C,D1*%
X123225000Y-42290000D02*
X121425000Y-42290000D01*
X123225000Y-42290000D02*
X124025000Y-42290000D01*
X123225000Y-45410000D02*
X122425000Y-45410000D01*
X123225000Y-45410000D02*
X124025000Y-45410000D01*
%TO.C,R18*%
X133629564Y-51922500D02*
X133175436Y-51922500D01*
X133629564Y-50452500D02*
X133175436Y-50452500D01*
%TO.C,R27*%
X128589564Y-56585000D02*
X128135436Y-56585000D01*
X128589564Y-55115000D02*
X128135436Y-55115000D01*
%TO.C,C3*%
X122127500Y-86073752D02*
X122127500Y-85551248D01*
X123597500Y-86073752D02*
X123597500Y-85551248D01*
%TO.C,D11*%
X144372500Y-122500000D02*
X144372500Y-119200000D01*
X144372500Y-122500000D02*
X138862500Y-122500000D01*
X144372500Y-119200000D02*
X138862500Y-119200000D01*
%TO.C,U2*%
X120427500Y-59695000D02*
X116977500Y-59695000D01*
X120427500Y-59695000D02*
X122377500Y-59695000D01*
X120427500Y-64815000D02*
X118477500Y-64815000D01*
X120427500Y-64815000D02*
X122377500Y-64815000D01*
%TO.C,R12*%
X140987500Y-62057064D02*
X140987500Y-61602936D01*
X142457500Y-62057064D02*
X142457500Y-61602936D01*
%TO.C,R4*%
X121735000Y-95122936D02*
X121735000Y-95577064D01*
X120265000Y-95122936D02*
X120265000Y-95577064D01*
%TO.C,R36*%
X123235000Y-119772936D02*
X123235000Y-120227064D01*
X121765000Y-119772936D02*
X121765000Y-120227064D01*
%TO.C,R26*%
X123135436Y-55115000D02*
X123589564Y-55115000D01*
X123135436Y-56585000D02*
X123589564Y-56585000D01*
%TO.C,D10*%
X143872500Y-104500000D02*
X143872500Y-101200000D01*
X143872500Y-104500000D02*
X138362500Y-104500000D01*
X143872500Y-101200000D02*
X138362500Y-101200000D01*
%TO.C,R17*%
X133175436Y-47672500D02*
X133629564Y-47672500D01*
X133175436Y-49142500D02*
X133629564Y-49142500D01*
%TO.C,R34*%
X146135436Y-60215000D02*
X146589564Y-60215000D01*
X146135436Y-61685000D02*
X146589564Y-61685000D01*
%TO.C,R32*%
X146135436Y-66115000D02*
X146589564Y-66115000D01*
X146135436Y-67585000D02*
X146589564Y-67585000D01*
%TO.C,Q4*%
X142112500Y-106375000D02*
X142112500Y-108185000D01*
X142112500Y-108185000D02*
X136987500Y-108185000D01*
X142112500Y-114965000D02*
X141012500Y-114965000D01*
X142112500Y-116775000D02*
X142112500Y-114965000D01*
X143612500Y-106375000D02*
X142112500Y-106375000D01*
X143612500Y-116775000D02*
X142112500Y-116775000D01*
%TO.C,C5*%
X126627500Y-70323752D02*
X126627500Y-69801248D01*
X128097500Y-70323752D02*
X128097500Y-69801248D01*
%TO.C,R8*%
X120265000Y-90827064D02*
X120265000Y-90372936D01*
X121735000Y-90827064D02*
X121735000Y-90372936D01*
%TO.C,R22*%
X115097500Y-58622936D02*
X115097500Y-59077064D01*
X113627500Y-58622936D02*
X113627500Y-59077064D01*
%TO.C,C1*%
X148601248Y-53615000D02*
X149123752Y-53615000D01*
X148601248Y-55085000D02*
X149123752Y-55085000D01*
%TO.C,R14*%
X139097500Y-61622936D02*
X139097500Y-62077064D01*
X137627500Y-61622936D02*
X137627500Y-62077064D01*
%TO.C,R13*%
X142347500Y-66122936D02*
X142347500Y-66577064D01*
X140877500Y-66122936D02*
X140877500Y-66577064D01*
%TO.C,Q2*%
X129922500Y-51912500D02*
X129922500Y-50237500D01*
X129922500Y-51912500D02*
X129922500Y-52562500D01*
X126802500Y-51912500D02*
X126802500Y-51262500D01*
X126802500Y-51912500D02*
X126802500Y-52562500D01*
%TO.C,C8*%
X143097500Y-56876248D02*
X143097500Y-57398752D01*
X141627500Y-56876248D02*
X141627500Y-57398752D01*
%TO.C,R15*%
X139097500Y-66122936D02*
X139097500Y-66577064D01*
X137627500Y-66122936D02*
X137627500Y-66577064D01*
%TO.C,R40*%
X121272936Y-110265000D02*
X121727064Y-110265000D01*
X121272936Y-111735000D02*
X121727064Y-111735000D01*
%TO.C,D8*%
X131752500Y-96212500D02*
X131752500Y-98012500D01*
X131752500Y-96212500D02*
X131752500Y-95412500D01*
X134872500Y-96212500D02*
X134872500Y-97012500D01*
X134872500Y-96212500D02*
X134872500Y-95412500D01*
%TO.C,C4*%
X119262500Y-83360000D02*
X118262500Y-83360000D01*
X118762500Y-83860000D02*
X118762500Y-82860000D01*
X118022500Y-84145563D02*
X118022500Y-82360000D01*
X118022500Y-84145563D02*
X116958063Y-85210000D01*
X118022500Y-77554437D02*
X118022500Y-79340000D01*
X118022500Y-77554437D02*
X116958063Y-76490000D01*
X116958063Y-85210000D02*
X109302500Y-85210000D01*
X116958063Y-76490000D02*
X109302500Y-76490000D01*
X109302500Y-85210000D02*
X109302500Y-82360000D01*
X109302500Y-76490000D02*
X109302500Y-79340000D01*
%TO.C,C6*%
X135847500Y-66088748D02*
X135847500Y-66611252D01*
X134377500Y-66088748D02*
X134377500Y-66611252D01*
%TO.C,R2*%
X131347500Y-69872936D02*
X131347500Y-70327064D01*
X129877500Y-69872936D02*
X129877500Y-70327064D01*
%TO.C,R5*%
X137627500Y-71077064D02*
X137627500Y-70622936D01*
X139097500Y-71077064D02*
X139097500Y-70622936D01*
%TO.C,J2*%
X115192500Y-94020000D02*
X115192500Y-95350000D01*
X113862500Y-94020000D02*
X115192500Y-94020000D01*
X112592500Y-94020000D02*
X109992500Y-94020000D01*
X112592500Y-94020000D02*
X112592500Y-96680000D01*
X109992500Y-94020000D02*
X109992500Y-96680000D01*
X112592500Y-96680000D02*
X109992500Y-96680000D01*
%TO.C,R23*%
X112147500Y-54122936D02*
X112147500Y-54577064D01*
X110677500Y-54122936D02*
X110677500Y-54577064D01*
%TO.C,Q1*%
X124922500Y-51912500D02*
X124922500Y-50237500D01*
X124922500Y-51912500D02*
X124922500Y-52562500D01*
X121802500Y-51912500D02*
X121802500Y-51262500D01*
X121802500Y-51912500D02*
X121802500Y-52562500D01*
%TO.C,J3*%
X115330000Y-89170000D02*
X115330000Y-90500000D01*
X114000000Y-89170000D02*
X115330000Y-89170000D01*
X112730000Y-89170000D02*
X110130000Y-89170000D01*
X112730000Y-89170000D02*
X112730000Y-91830000D01*
X110130000Y-89170000D02*
X110130000Y-91830000D01*
X112730000Y-91830000D02*
X110130000Y-91830000D01*
%TO.C,R45*%
X132635436Y-87615000D02*
X133089564Y-87615000D01*
X132635436Y-89085000D02*
X133089564Y-89085000D01*
%TO.C,R33*%
X146135436Y-63165000D02*
X146589564Y-63165000D01*
X146135436Y-64635000D02*
X146589564Y-64635000D01*
%TO.C,J4*%
X155192500Y-64020000D02*
X155192500Y-65350000D01*
X153862500Y-64020000D02*
X155192500Y-64020000D01*
X152592500Y-64020000D02*
X149992500Y-64020000D01*
X152592500Y-64020000D02*
X152592500Y-66680000D01*
X149992500Y-64020000D02*
X149992500Y-66680000D01*
X152592500Y-66680000D02*
X149992500Y-66680000D01*
%TO.C,R28*%
X123222936Y-47115000D02*
X123677064Y-47115000D01*
X123222936Y-48585000D02*
X123677064Y-48585000D01*
%TO.C,R46*%
X127772936Y-114265000D02*
X128227064Y-114265000D01*
X127772936Y-115735000D02*
X128227064Y-115735000D01*
%TO.C,C14*%
X125265000Y-88261252D02*
X125265000Y-87738748D01*
X126735000Y-88261252D02*
X126735000Y-87738748D01*
%TO.C,R43*%
X127427064Y-100635000D02*
X126972936Y-100635000D01*
X127427064Y-99165000D02*
X126972936Y-99165000D01*
%TO.C,D3*%
X114225000Y-44790000D02*
X112425000Y-44790000D01*
X114225000Y-44790000D02*
X115025000Y-44790000D01*
X114225000Y-47910000D02*
X113425000Y-47910000D01*
X114225000Y-47910000D02*
X115025000Y-47910000D01*
%TO.C,J10*%
X145742500Y-37720000D02*
X145742500Y-39050000D01*
X144412500Y-37720000D02*
X145742500Y-37720000D01*
X143142500Y-37720000D02*
X140542500Y-37720000D01*
X143142500Y-37720000D02*
X143142500Y-40380000D01*
X140542500Y-37720000D02*
X140542500Y-40380000D01*
X143142500Y-40380000D02*
X140542500Y-40380000D01*
%TO.C,C10*%
X132101248Y-103115000D02*
X132623752Y-103115000D01*
X132101248Y-104585000D02*
X132623752Y-104585000D01*
%TO.C,D9*%
X133637500Y-118060000D02*
X135437500Y-118060000D01*
X133637500Y-118060000D02*
X132837500Y-118060000D01*
X133637500Y-114940000D02*
X134437500Y-114940000D01*
X133637500Y-114940000D02*
X132837500Y-114940000D01*
%TO.C,R7*%
X122235000Y-75622936D02*
X122235000Y-76077064D01*
X120765000Y-75622936D02*
X120765000Y-76077064D01*
%TO.C,C7*%
X138373752Y-57335000D02*
X137851248Y-57335000D01*
X138373752Y-55865000D02*
X137851248Y-55865000D01*
%TO.C,D7*%
X125010000Y-116650000D02*
X125010000Y-113350000D01*
X125010000Y-116650000D02*
X119500000Y-116650000D01*
X125010000Y-113350000D02*
X119500000Y-113350000D01*
%TO.C,R31*%
X134097500Y-43622936D02*
X134097500Y-44077064D01*
X132627500Y-43622936D02*
X132627500Y-44077064D01*
%TO.C,R30*%
X118677064Y-49085000D02*
X118222936Y-49085000D01*
X118677064Y-47615000D02*
X118222936Y-47615000D01*
%TO.C,C13*%
X140627500Y-71111252D02*
X140627500Y-70588748D01*
X142097500Y-71111252D02*
X142097500Y-70588748D01*
%TO.C,D4*%
X121052500Y-80737500D02*
X121052500Y-82537500D01*
X121052500Y-80737500D02*
X121052500Y-79937500D01*
X124172500Y-80737500D02*
X124172500Y-81537500D01*
X124172500Y-80737500D02*
X124172500Y-79937500D01*
%TO.C,U1*%
X132537500Y-74650000D02*
X132537500Y-75340000D01*
X132537500Y-75340000D02*
X127412500Y-75340000D01*
X132537500Y-84360000D02*
X131437500Y-84360000D01*
X132537500Y-85050000D02*
X132537500Y-84360000D01*
X134037500Y-74650000D02*
X132537500Y-74650000D01*
X134037500Y-85050000D02*
X132537500Y-85050000D01*
%TO.C,R1*%
X120097500Y-70622936D02*
X120097500Y-71077064D01*
X118627500Y-70622936D02*
X118627500Y-71077064D01*
D10*
%TO.C,U3*%
X143777500Y-54362500D02*
X143777500Y-54137500D01*
X143777500Y-54362500D02*
X140427500Y-54362500D01*
X143777500Y-54137500D02*
X145002500Y-54137500D01*
X143777500Y-51012500D02*
X143777500Y-51312500D01*
X143777500Y-51012500D02*
X140427500Y-51012500D01*
X140427500Y-54362500D02*
X140427500Y-54062500D01*
X140427500Y-51012500D02*
X140427500Y-51312500D01*
D11*
%TO.C,R21*%
X115047500Y-54122936D02*
X115047500Y-54577064D01*
X113577500Y-54122936D02*
X113577500Y-54577064D01*
%TO.C,C17*%
X135877500Y-42061252D02*
X135877500Y-41538748D01*
X137347500Y-42061252D02*
X137347500Y-41538748D01*
%TO.C,C11*%
X132097500Y-61588748D02*
X132097500Y-62111252D01*
X130627500Y-61588748D02*
X130627500Y-62111252D01*
%TO.C,R16*%
X119097500Y-43622936D02*
X119097500Y-44077064D01*
X117627500Y-43622936D02*
X117627500Y-44077064D01*
%TO.C,R10*%
X146135436Y-69215000D02*
X146589564Y-69215000D01*
X146135436Y-70685000D02*
X146589564Y-70685000D01*
%TO.C,R37*%
X120285000Y-119772936D02*
X120285000Y-120227064D01*
X118815000Y-119772936D02*
X118815000Y-120227064D01*
%TO.C,R29*%
X128135436Y-47115000D02*
X128589564Y-47115000D01*
X128135436Y-48585000D02*
X128589564Y-48585000D01*
%TO.C,R35*%
X126185000Y-119772936D02*
X126185000Y-120227064D01*
X124715000Y-119772936D02*
X124715000Y-120227064D01*
%TO.C,R11*%
X146589564Y-58585000D02*
X146135436Y-58585000D01*
X146589564Y-57115000D02*
X146135436Y-57115000D01*
%TO.C,C2*%
X119127500Y-86073752D02*
X119127500Y-85551248D01*
X120597500Y-86073752D02*
X120597500Y-85551248D01*
%TO.C,C16*%
X151101248Y-69115000D02*
X151623752Y-69115000D01*
X151101248Y-70585000D02*
X151623752Y-70585000D01*
%TO.C,R9*%
X118635000Y-90172936D02*
X118635000Y-90627064D01*
X117165000Y-90172936D02*
X117165000Y-90627064D01*
%TO.C,R39*%
X132772936Y-110265000D02*
X133227064Y-110265000D01*
X132772936Y-111735000D02*
X133227064Y-111735000D01*
%TO.C,C12*%
X125627500Y-65111252D02*
X125627500Y-64588748D01*
X127097500Y-65111252D02*
X127097500Y-64588748D01*
%TD*%
M02*
