M48
; DRILL file {KiCad 7.0.5} date Tue Nov 28 19:27:57 2023
; FORMAT={-:-/ absolute / inch / decimal}
; #@! TF.CreationDate,2023-11-28T19:27:57-08:00
; #@! TF.GenerationSoftware,Kicad,Pcbnew,7.0.5
; #@! TF.FileFunction,Plated,1,2,PTH
FMAT,2
INCH
; #@! TA.AperFunction,Plated,PTH,ViaDrill
T1C0.0118
; #@! TA.AperFunction,Plated,PTH,ViaDrill
T2C0.0197
; #@! TA.AperFunction,Plated,PTH,ComponentDrill
T3C0.0394
; #@! TA.AperFunction,Plated,PTH,ComponentDrill
T4C0.0433
; #@! TA.AperFunction,Plated,PTH,ComponentDrill
T5C0.0598
; #@! TA.AperFunction,Plated,PTH,ComponentDrill
T6C0.1260
%
G90
G05
T1
X5.3051Y-2.9626
X5.3051Y-3.0413
X5.3051Y-3.1398
X5.3051Y-3.2382
X5.3051Y-3.3169
X5.3839Y-2.9626
X5.3839Y-3.0413
X5.3839Y-3.1398
X5.3839Y-3.2382
X5.3839Y-3.3169
X5.4626Y-2.9626
X5.4626Y-3.0413
X5.4626Y-3.1398
X5.4626Y-3.2382
X5.4626Y-3.3169
X5.5413Y-2.9626
X5.5413Y-3.0413
X5.5413Y-3.1398
X5.5413Y-3.2382
X5.5413Y-3.3169
X5.6201Y-2.9626
X5.6201Y-3.0413
X5.6201Y-3.1398
X5.6201Y-3.2382
X5.6201Y-3.3169
X5.689Y-3.5236
X5.689Y-3.6024
X5.689Y-3.7008
X5.689Y-3.7992
X5.689Y-3.878
X5.689Y-4.2126
X5.689Y-4.2913
X5.689Y-4.3898
X5.689Y-4.4882
X5.689Y-4.5669
X5.7677Y-3.5236
X5.7677Y-3.6024
X5.7677Y-3.7008
X5.7677Y-3.7992
X5.7677Y-3.878
X5.7677Y-4.2126
X5.7677Y-4.2913
X5.7677Y-4.3898
X5.7677Y-4.4882
X5.7677Y-4.5669
X5.8465Y-3.5236
X5.8465Y-3.6024
X5.8465Y-3.7008
X5.8465Y-3.7992
X5.8465Y-3.878
X5.8465Y-4.2126
X5.8465Y-4.2913
X5.8465Y-4.3898
X5.8465Y-4.4882
X5.8465Y-4.5669
X5.9252Y-3.5236
X5.9252Y-3.6024
X5.9252Y-3.7008
X5.9252Y-3.7992
X5.9252Y-3.878
X5.9252Y-4.2126
X5.9252Y-4.2913
X5.9252Y-4.3898
X5.9252Y-4.4882
X5.9252Y-4.5669
X6.0039Y-3.5236
X6.0039Y-3.6024
X6.0039Y-3.7008
X6.0039Y-3.7992
X6.0039Y-3.878
X6.0039Y-4.2126
X6.0039Y-4.2913
X6.0039Y-4.3898
X6.0039Y-4.4882
X6.0039Y-4.5669
T2
X4.2717Y-2.9567
X4.3504Y-4.2815
X4.3937Y-3.9724
X4.4193Y-4.5965
X4.4783Y-2.4409
X4.498Y-4.1142
X4.498Y-4.2815
X4.5079Y-3.4055
X4.5118Y-2.9567
X4.5157Y-2.0
X4.5669Y-4.4783
X4.5787Y-1.9488
X4.6339Y-3.8622
X4.6378Y-3.6614
X4.6398Y-4.0059
X4.6457Y-2.6378
X4.6457Y-3.061
X4.6575Y-4.2717
X4.6654Y-2.2717
X4.6909Y-2.1004
X4.6993Y-2.6826
X4.7047Y-1.9882
X4.7323Y-4.1299
X4.7441Y-3.6516
X4.7638Y-1.6535
X4.7638Y-1.811
X4.7677Y-2.1102
X4.7717Y-3.3376
X4.7874Y-2.6969
X4.7933Y-3.8681
X4.7953Y-3.0787
X4.8415Y-3.5817
X4.8701Y-3.1417
X4.872Y-4.8524
X4.8878Y-3.4665
X4.8898Y-2.9646
X4.8917Y-3.9665
X4.8962Y-1.9488
X4.9055Y-3.8937
X4.9055Y-4.2441
X4.9409Y-1.6535
X4.9409Y-3.0236
X4.9449Y-4.4449
X4.9488Y-4.6024
X4.9567Y-1.8819
X4.9567Y-2.0472
X4.9606Y-1.811
X4.9606Y-2.1988
X4.9764Y-3.7618
X4.9803Y-3.3425
X4.9961Y-2.1299
X4.998Y-3.6969
X5.0315Y-3.5054
X5.0394Y-2.5945
X5.0551Y-3.3819
X5.0787Y-2.3189
X5.0896Y-1.9488
X5.1122Y-4.0394
X5.1142Y-4.1811
X5.1181Y-4.2638
X5.1299Y-3.6181
X5.1457Y-4.4606
X5.1496Y-2.1381
X5.1535Y-2.2008
X5.1535Y-3.8937
X5.1575Y-2.0079
X5.1654Y-2.8819
X5.1693Y-3.5472
X5.1693Y-3.748
X5.2127Y-1.8307
X5.2244Y-2.6339
X5.2559Y-4.7638
X5.2953Y-3.9134
X5.3051Y-1.8307
X5.3248Y-2.874
X5.3504Y-3.5197
X5.3661Y-2.7283
X5.3701Y-4.5748
X5.378Y-4.1929
X5.3858Y-3.8898
X5.3898Y-2.0748
X5.4331Y-2.1457
X5.4724Y-1.624
X5.4882Y-4.5906
X5.5118Y-2.3425
X5.5512Y-3.8878
X5.5906Y-3.5039
X5.6299Y-1.8996
X5.6398Y-2.8248
X5.6496Y-2.6969
X5.6654Y-2.2904
X5.6811Y-2.1929
X5.7087Y-3.9862
X5.7087Y-4.124
X5.7185Y-3.0118
X5.7185Y-3.1201
X5.7185Y-4.685
X5.7409Y-1.8693
X5.7559Y-1.9764
X5.8017Y-2.6969
X5.8071Y-1.811
X5.8071Y-3.248
X5.8425Y-2.8504
X5.8504Y-3.3937
X5.8701Y-2.4449
X5.9646Y-2.372
X5.9793Y-2.2175
X6.0039Y-2.9134
X6.0039Y-3.1102
X6.0039Y-3.3898
X6.0039Y-4.124
X6.0236Y-3.9862
X6.0531Y-4.6654
X6.1063Y-2.7992
T3
X4.3828Y-3.7539
X4.3882Y-3.563
X4.4828Y-3.7539
X4.4882Y-3.563
X4.7855Y-1.5374
X4.8855Y-1.5374
X4.9855Y-1.5374
X5.0855Y-1.5374
X5.1855Y-1.5374
X5.5855Y-1.5374
X5.6855Y-1.5374
X5.9576Y-2.5728
X6.0576Y-2.5728
T4
X4.3957Y-4.1161
X4.5957Y-4.1161
T5
X4.404Y-2.6106
X4.404Y-2.8106
X5.9198Y-3.0256
X5.9198Y-3.2256
T6
X4.4355Y-1.5374
X4.4355Y-4.7874
X5.9355Y-1.5374
X5.9355Y-4.7874
T0
M30
