M48
; DRILL file {KiCad 7.0.5} date Tue Sep 19 19:20:30 2023
; FORMAT={-:-/ absolute / inch / decimal}
; #@! TF.CreationDate,2023-09-19T19:20:30-07:00
; #@! TF.GenerationSoftware,Kicad,Pcbnew,7.0.5
; #@! TF.FileFunction,Plated,1,2,PTH
FMAT,2
INCH
; #@! TA.AperFunction,Plated,PTH,ViaDrill
T1C0.0118
; #@! TA.AperFunction,Plated,PTH,ViaDrill
T2C0.0197
; #@! TA.AperFunction,Plated,PTH,ComponentDrill
T3C0.0394
; #@! TA.AperFunction,Plated,PTH,ComponentDrill
T4C0.0598
; #@! TA.AperFunction,Plated,PTH,ComponentDrill
T5C0.1260
%
G90
G05
T1
X4.5177Y-5.1772
X4.5374Y-5.5133
X4.5571Y-3.3268
X4.5669Y-3.878
X4.626Y-3.6909
X4.6949Y-3.4252
X4.7244Y-3.1299
X4.7244Y-4.0846
X4.7441Y-3.6909
X4.7539Y-3.8189
X4.7539Y-4.6555
X4.7638Y-3.4941
X4.7736Y-5.2067
X4.7835Y-4.4488
X4.813Y-3.937
X4.813Y-5.4232
X4.8228Y-3.2283
X4.8228Y-3.4252
X4.8228Y-4.9213
X4.8425Y-4.0945
X4.8622Y-3.1201
X4.872Y-4.7835
X4.8819Y-4.9114
X4.9016Y-4.0453
X4.9114Y-3.7402
X4.9213Y-4.5866
X4.9409Y-5.2264
X5.0Y-3.3465
X5.0098Y-3.2874
X5.0098Y-3.8386
X5.0197Y-3.2283
X5.0197Y-3.5039
X5.0197Y-4.252
X5.0197Y-4.3898
X5.0295Y-3.1201
X5.0394Y-5.0098
X5.0591Y-5.2756
X5.062Y-4.065
X5.0787Y-5.4016
X5.0787Y-5.502
X5.1378Y-4.5866
X5.1575Y-4.0551
X5.1673Y-3.2874
X5.1772Y-5.3839
X5.1969Y-3.3366
X5.1969Y-3.7992
X5.2067Y-3.5792
X5.2264Y-3.4449
X5.2264Y-3.7402
X5.2559Y-3.8386
X5.2594Y-3.1531
X5.2707Y-5.0837
X5.3248Y-4.5374
X5.3543Y-4.2421
X5.3543Y-4.9114
X5.3559Y-3.6614
X5.3642Y-4.7835
X5.4232Y-4.1535
X5.4331Y-3.4055
X5.4429Y-3.8583
X5.4528Y-3.5827
X5.4528Y-3.6417
X5.4626Y-4.4783
X5.502Y-3.563
X5.502Y-4.3307
X5.5315Y-3.4449
X5.5512Y-4.7343
X5.5512Y-5.2362
X5.561Y-3.7598
X5.6299Y-4.8031
X5.6594Y-4.5965
X5.6594Y-4.6654
X5.6693Y-3.3563
X5.6693Y-3.6024
X5.6988Y-5.0394
X5.7087Y-4.5571
X5.7776Y-3.6811
X5.7874Y-3.7598
X5.8563Y-4.8031
X5.8661Y-4.5866
X5.9449Y-4.3504
X5.9449Y-4.5276
X5.9646Y-4.1831
X5.9646Y-4.685
X6.063Y-4.7441
T2
X4.626Y-3.2283
X4.8228Y-3.6024
X4.9213Y-4.7441
X4.9213Y-4.9902
X5.0Y-3.6024
X5.2165Y-4.0256
X5.2165Y-4.8031
X5.2461Y-3.2283
X5.2461Y-4.5374
T3
X4.4094Y-4.5276
X4.4094Y-4.6276
X4.85Y-3.0
X4.95Y-3.0
X5.05Y-3.0
X5.15Y-3.0
X5.25Y-3.0
X5.65Y-3.0
X5.75Y-3.0
X6.063Y-4.4094
X6.063Y-4.5094
X6.063Y-4.9787
X6.063Y-5.0787
T4
X4.85Y-5.75
X5.05Y-5.75
X5.45Y-5.75
X5.65Y-5.75
T5
X4.5Y-3.0
X4.5Y-5.75
X6.0Y-3.0
X6.0Y-5.75
T0
M30
