%TF.GenerationSoftware,KiCad,Pcbnew,7.0.5*%
%TF.CreationDate,2023-09-20T10:38:49-07:00*%
%TF.ProjectId,LT3081LEDDriver,4c543330-3831-44c4-9544-447269766572,rev?*%
%TF.SameCoordinates,Original*%
%TF.FileFunction,Copper,L2,Bot*%
%TF.FilePolarity,Positive*%
%FSLAX46Y46*%
G04 Gerber Fmt 4.6, Leading zero omitted, Abs format (unit mm)*
G04 Created by KiCad (PCBNEW 7.0.5) date 2023-09-20 10:38:49*
%MOMM*%
%LPD*%
G01*
G04 APERTURE LIST*
%TA.AperFunction,ComponentPad*%
%ADD10R,1.700000X1.700000*%
%TD*%
%TA.AperFunction,ComponentPad*%
%ADD11O,1.700000X1.700000*%
%TD*%
%TA.AperFunction,ComponentPad*%
%ADD12R,3.000000X3.000000*%
%TD*%
%TA.AperFunction,ComponentPad*%
%ADD13C,3.000000*%
%TD*%
%TA.AperFunction,ComponentPad*%
%ADD14C,5.600000*%
%TD*%
%TA.AperFunction,ViaPad*%
%ADD15C,0.700000*%
%TD*%
%TA.AperFunction,ViaPad*%
%ADD16C,1.000000*%
%TD*%
%TA.AperFunction,Conductor*%
%ADD17C,1.000000*%
%TD*%
%TA.AperFunction,Conductor*%
%ADD18C,0.800000*%
%TD*%
G04 APERTURE END LIST*
D10*
%TO.P,J5,1,Pin_1*%
%TO.N,GND*%
X133350000Y-76200000D03*
D11*
%TO.P,J5,2,Pin_2*%
%TO.N,/I2CConnection/VI2C*%
X130810000Y-76200000D03*
%TO.P,J5,3,Pin_3*%
%TO.N,Net-(D2-A)*%
X128270000Y-76200000D03*
%TO.P,J5,4,Pin_4*%
%TO.N,Net-(D1-A)*%
X125730000Y-76200000D03*
%TO.P,J5,5,Pin_5*%
%TO.N,/HighSideGateDriver/TRIG*%
X123190000Y-76200000D03*
%TD*%
D12*
%TO.P,J11,1,Pin_1*%
%TO.N,GND*%
X123190000Y-146050000D03*
D13*
%TO.P,J11,2,Pin_2*%
%TO.N,Net-(D6-A)*%
X128270000Y-146050000D03*
%TD*%
D12*
%TO.P,J1,1,Pin_1*%
%TO.N,GND*%
X138430000Y-146050000D03*
D13*
%TO.P,J1,2,Pin_2*%
%TO.N,Net-(J1-Pin_2)*%
X143510000Y-146050000D03*
%TD*%
D14*
%TO.P,J6,1,Pin_1*%
%TO.N,GND*%
X114300000Y-76200000D03*
%TD*%
D10*
%TO.P,J2,1,Pin_1*%
%TO.N,Net-(J2-Pin_1)*%
X154000000Y-112000000D03*
D11*
%TO.P,J2,2,Pin_2*%
%TO.N,GND*%
X154000000Y-114540000D03*
%TD*%
D10*
%TO.P,J3,1,Pin_1*%
%TO.N,Net-(J3-Pin_1)*%
X154000000Y-126460000D03*
D11*
%TO.P,J3,2,Pin_2*%
%TO.N,GND*%
X154000000Y-129000000D03*
%TD*%
D10*
%TO.P,J4,1,Pin_1*%
%TO.N,GND*%
X112000000Y-117540000D03*
D11*
%TO.P,J4,2,Pin_2*%
%TO.N,/LT3081CurrentSupply/V_{LED}*%
X112000000Y-115000000D03*
%TD*%
D14*
%TO.P,J9,1,Pin_1*%
%TO.N,GND*%
X114300000Y-146050000D03*
%TD*%
D10*
%TO.P,J10,1,Pin_1*%
%TO.N,GND*%
X146050000Y-76200000D03*
D11*
%TO.P,J10,2,Pin_2*%
%TO.N,+5V*%
X143510000Y-76200000D03*
%TD*%
D14*
%TO.P,J8,1,Pin_1*%
%TO.N,GND*%
X152400000Y-146050000D03*
%TD*%
%TO.P,J7,1,Pin_1*%
%TO.N,GND*%
X152400000Y-76200000D03*
%TD*%
D15*
%TO.N,GND*%
X127500000Y-89000000D03*
X130500000Y-116500000D03*
X136000000Y-107750000D03*
X128692500Y-126750000D03*
X128500000Y-134000000D03*
X148750000Y-122000000D03*
X123500000Y-79250000D03*
X120000000Y-79500000D03*
X124000000Y-132750000D03*
X123000000Y-104000000D03*
X141000000Y-133000000D03*
X138250000Y-98000000D03*
X138750000Y-113750000D03*
X138000000Y-86500000D03*
X151000000Y-110500000D03*
X133500000Y-97500000D03*
X120750000Y-97000000D03*
X109750000Y-133500000D03*
X144000000Y-85250000D03*
X125000000Y-116500000D03*
X124000000Y-124750000D03*
X147000000Y-95500000D03*
X119250000Y-87000000D03*
X131250000Y-83500000D03*
X116000000Y-98500000D03*
X132000000Y-137250000D03*
X141250000Y-95500000D03*
X127500000Y-111500000D03*
X120000000Y-103750000D03*
X135250000Y-115250000D03*
X123750000Y-121500000D03*
X113750000Y-126750000D03*
X133875000Y-129125000D03*
X131000000Y-103000000D03*
X136250000Y-121500000D03*
X122500000Y-87000000D03*
X127500000Y-108000000D03*
X132750000Y-87500000D03*
X127250000Y-83500000D03*
X136000000Y-124750000D03*
X117500000Y-93750000D03*
X151500000Y-106250000D03*
X143000000Y-122000000D03*
X115750000Y-84500000D03*
X151500000Y-119000000D03*
X120750000Y-118250000D03*
X127750000Y-79250000D03*
X144750000Y-128000000D03*
X120500000Y-93750000D03*
X139750000Y-110000000D03*
%TO.N,Net-(U1-Set)*%
X141000000Y-120250000D03*
X137750000Y-105500000D03*
%TO.N,Net-(J2-Pin_1)*%
X143750000Y-116750000D03*
X151000000Y-115000000D03*
D16*
%TO.N,+5V*%
X127000000Y-91500000D03*
X130500000Y-139250000D03*
X122500000Y-91500000D03*
D15*
X139750000Y-90500000D03*
X140500000Y-87500000D03*
D16*
X133250000Y-82000000D03*
X132500000Y-122000000D03*
D15*
X127500000Y-82000000D03*
D16*
X114500000Y-140000000D03*
D15*
X122500000Y-82000000D03*
D16*
X125000000Y-120500000D03*
X117500000Y-82000000D03*
X132500000Y-102250000D03*
X126250000Y-127500000D03*
D15*
X146750000Y-93500000D03*
D16*
X133250000Y-115250000D03*
D15*
%TO.N,Net-(U2-IN+)*%
X127250000Y-97500000D03*
X128575000Y-103250000D03*
%TO.N,/I2CConnection/VI2C*%
X132000000Y-84750000D03*
X127000000Y-85000000D03*
X133587500Y-80087500D03*
%TO.N,/HighSideGateDriver/TRIG*%
X122250000Y-137750000D03*
X121500000Y-113000000D03*
X126250000Y-129250000D03*
X122250000Y-100000000D03*
X121000000Y-88750000D03*
X122500000Y-125000000D03*
%TO.N,Net-(J3-Pin_1)*%
X143750000Y-118500000D03*
X154000000Y-120500000D03*
%TO.N,/DACx0501_DAC/SCL*%
X138500000Y-92500000D03*
X124750000Y-95000000D03*
X124500000Y-102750000D03*
X132750000Y-95000000D03*
%TO.N,/DACx0501_DAC/SDA*%
X132000000Y-96500000D03*
X132250000Y-90912500D03*
X138500000Y-91000000D03*
%TO.N,/LT3081CurrentSupply/V_{OUT}*%
X145000000Y-115750000D03*
X149000000Y-116500000D03*
%TO.N,Net-(U3-A0{slash}~{CS})*%
X144000000Y-91500000D03*
X136040000Y-93000000D03*
%TD*%
D17*
%TO.N,GND*%
X138000000Y-86500000D02*
X136250000Y-86500000D01*
X118250000Y-87000000D02*
X115750000Y-84500000D01*
X132250000Y-79000000D02*
X133350000Y-77900000D01*
X120750000Y-97000000D02*
X117500000Y-97000000D01*
X120000000Y-79500000D02*
X123250000Y-79500000D01*
X132500000Y-130500000D02*
X133875000Y-129125000D01*
X136250000Y-124500000D02*
X136000000Y-124750000D01*
X124250000Y-108000000D02*
X120000000Y-103750000D01*
X135500000Y-95500000D02*
X133500000Y-97500000D01*
X138000000Y-86500000D02*
X139250000Y-85250000D01*
X132750000Y-87500000D02*
X129000000Y-87500000D01*
X119250000Y-87000000D02*
X118250000Y-87000000D01*
X135250000Y-87500000D02*
X132750000Y-87500000D01*
X127750000Y-79250000D02*
X128000000Y-79000000D01*
X132000000Y-137250000D02*
X128750000Y-134000000D01*
X129000000Y-87500000D02*
X127500000Y-89000000D01*
X117500000Y-97000000D02*
X116000000Y-98500000D01*
X128000000Y-79000000D02*
X132250000Y-79000000D01*
X123250000Y-79500000D02*
X123500000Y-79250000D01*
X110500000Y-132750000D02*
X109750000Y-133500000D01*
X136250000Y-86500000D02*
X135250000Y-87500000D01*
X128750000Y-134000000D02*
X128500000Y-134000000D01*
X136250000Y-121500000D02*
X136250000Y-124500000D01*
X127750000Y-79250000D02*
X123500000Y-79250000D01*
X124500000Y-89000000D02*
X122500000Y-87000000D01*
X141250000Y-95500000D02*
X147000000Y-95500000D01*
X128500000Y-134000000D02*
X132000000Y-130500000D01*
X127500000Y-89000000D02*
X124500000Y-89000000D01*
X127500000Y-108000000D02*
X124250000Y-108000000D01*
X133350000Y-77900000D02*
X133350000Y-76200000D01*
X122500000Y-87000000D02*
X119250000Y-87000000D01*
X141250000Y-95500000D02*
X135500000Y-95500000D01*
X124000000Y-132750000D02*
X110500000Y-132750000D01*
X132000000Y-130500000D02*
X132500000Y-130500000D01*
X139250000Y-85250000D02*
X144000000Y-85250000D01*
%TO.N,Net-(U1-Set)*%
X137750000Y-110500000D02*
X137750000Y-105500000D01*
X140200000Y-112950000D02*
X137750000Y-110500000D01*
X141000000Y-120250000D02*
X140200000Y-119450000D01*
X140200000Y-119450000D02*
X140200000Y-112950000D01*
D18*
%TO.N,Net-(J2-Pin_1)*%
X143750000Y-116750000D02*
X145000000Y-118000000D01*
X145000000Y-118000000D02*
X150500000Y-118000000D01*
X150500000Y-118000000D02*
X151000000Y-117500000D01*
X151000000Y-117500000D02*
X151000000Y-115000000D01*
D17*
%TO.N,+5V*%
X122500000Y-91500000D02*
X127000000Y-91500000D01*
X133250000Y-115250000D02*
X133250000Y-121250000D01*
X143250000Y-89750000D02*
X144250000Y-89750000D01*
X126250000Y-127500000D02*
X125500000Y-126750000D01*
X127000000Y-91500000D02*
X127000000Y-93500000D01*
X122500000Y-82000000D02*
X117500000Y-82000000D01*
X139500000Y-88500000D02*
X139500000Y-90250000D01*
X128500000Y-141250000D02*
X115750000Y-141250000D01*
X133250000Y-121250000D02*
X132500000Y-122000000D01*
X130500000Y-139250000D02*
X128500000Y-141250000D01*
X142500000Y-90500000D02*
X143250000Y-89750000D01*
X144250000Y-89750000D02*
X145250000Y-89750000D01*
X146000000Y-90500000D02*
X146750000Y-91250000D01*
X140500000Y-87500000D02*
X139500000Y-88500000D01*
X125500000Y-126750000D02*
X125500000Y-121000000D01*
X115750000Y-141250000D02*
X114500000Y-140000000D01*
X125500000Y-121000000D02*
X125000000Y-120500000D01*
X146750000Y-91250000D02*
X146750000Y-93500000D01*
X139500000Y-90250000D02*
X139750000Y-90500000D01*
X133250000Y-82000000D02*
X127500000Y-82000000D01*
X145250000Y-89750000D02*
X146000000Y-90500000D01*
X127000000Y-93500000D02*
X132500000Y-99000000D01*
X132500000Y-99000000D02*
X132500000Y-102250000D01*
X139750000Y-90500000D02*
X142500000Y-90500000D01*
X127500000Y-82000000D02*
X122500000Y-82000000D01*
%TO.N,Net-(U2-IN+)*%
X127250000Y-97500000D02*
X128750000Y-99000000D01*
X128750000Y-103075000D02*
X128575000Y-103250000D01*
X128750000Y-99000000D02*
X128750000Y-103075000D01*
%TO.N,/I2CConnection/VI2C*%
X132000000Y-84750000D02*
X133250000Y-84750000D01*
X133250000Y-84750000D02*
X134750000Y-83250000D01*
X127000000Y-85000000D02*
X131750000Y-85000000D01*
X134750000Y-81250000D02*
X133587500Y-80087500D01*
X134750000Y-83250000D02*
X134750000Y-81250000D01*
X131750000Y-85000000D02*
X132000000Y-84750000D01*
%TO.N,/HighSideGateDriver/TRIG*%
X122250000Y-113750000D02*
X121500000Y-113000000D01*
X122500000Y-125000000D02*
X122250000Y-124750000D01*
X126250000Y-129250000D02*
X125500000Y-130000000D01*
X125500000Y-134500000D02*
X122250000Y-137750000D01*
X121000000Y-88750000D02*
X121000000Y-92125000D01*
X121000000Y-92125000D02*
X122250000Y-93375000D01*
X125500000Y-130000000D02*
X125500000Y-134500000D01*
X122250000Y-124750000D02*
X122250000Y-113750000D01*
X122250000Y-93375000D02*
X122250000Y-100000000D01*
D18*
%TO.N,Net-(J3-Pin_1)*%
X145750000Y-120500000D02*
X154000000Y-120500000D01*
X143750000Y-118500000D02*
X145750000Y-120500000D01*
D17*
%TO.N,/DACx0501_DAC/SCL*%
X132750000Y-93750000D02*
X132750000Y-95000000D01*
X135000000Y-91500000D02*
X132750000Y-93750000D01*
X124750000Y-95000000D02*
X124750000Y-102500000D01*
X136750000Y-91500000D02*
X135000000Y-91500000D01*
X124750000Y-102500000D02*
X124500000Y-102750000D01*
X137750000Y-92500000D02*
X136750000Y-91500000D01*
X138500000Y-92500000D02*
X137750000Y-92500000D01*
%TO.N,/DACx0501_DAC/SDA*%
X131000000Y-95500000D02*
X132000000Y-96500000D01*
X132250000Y-90912500D02*
X132250000Y-91750000D01*
X132250000Y-90912500D02*
X133412500Y-89750000D01*
X137250000Y-89750000D02*
X138500000Y-91000000D01*
X133412500Y-89750000D02*
X137250000Y-89750000D01*
X131000000Y-93000000D02*
X131000000Y-95500000D01*
X132250000Y-91750000D02*
X131000000Y-93000000D01*
D18*
%TO.N,/LT3081CurrentSupply/V_{OUT}*%
X146000000Y-116750000D02*
X148750000Y-116750000D01*
X148750000Y-116750000D02*
X149000000Y-116500000D01*
X145000000Y-115750000D02*
X146000000Y-116750000D01*
D17*
%TO.N,Net-(U3-A0{slash}~{CS})*%
X141500000Y-94000000D02*
X144000000Y-91500000D01*
X137040000Y-94000000D02*
X141500000Y-94000000D01*
X136040000Y-93000000D02*
X137040000Y-94000000D01*
%TD*%
%TA.AperFunction,Conductor*%
%TO.N,GND*%
G36*
X152401132Y-69850542D02*
G01*
X152667225Y-69860498D01*
X152877583Y-69868764D01*
X152882032Y-69869102D01*
X153135974Y-69897715D01*
X153361099Y-69924360D01*
X153365303Y-69925006D01*
X153613451Y-69971958D01*
X153838986Y-70016819D01*
X153842853Y-70017721D01*
X154085652Y-70082779D01*
X154308288Y-70145569D01*
X154311911Y-70146713D01*
X154548532Y-70229511D01*
X154766363Y-70309873D01*
X154769661Y-70311200D01*
X154998568Y-70411071D01*
X154999704Y-70411581D01*
X155210484Y-70508752D01*
X155213428Y-70510207D01*
X155434014Y-70626790D01*
X155435262Y-70627469D01*
X155638027Y-70741023D01*
X155640662Y-70742587D01*
X155846667Y-70872028D01*
X155851743Y-70875218D01*
X155853185Y-70876152D01*
X156046495Y-71005318D01*
X156048867Y-71006984D01*
X156249333Y-71154935D01*
X156250874Y-71156110D01*
X156433553Y-71300123D01*
X156435549Y-71301767D01*
X156624378Y-71464267D01*
X156626007Y-71465721D01*
X156796852Y-71623648D01*
X156798594Y-71625324D01*
X156974674Y-71801404D01*
X156976362Y-71803159D01*
X157134277Y-71973991D01*
X157135738Y-71975628D01*
X157298223Y-72164440D01*
X157299883Y-72166456D01*
X157443868Y-72349099D01*
X157445063Y-72350665D01*
X157593014Y-72551131D01*
X157594680Y-72553503D01*
X157723834Y-72746795D01*
X157724780Y-72748255D01*
X157857390Y-72959301D01*
X157858988Y-72961993D01*
X157972508Y-73164698D01*
X157973228Y-73166022D01*
X158089777Y-73386542D01*
X158091259Y-73389541D01*
X158188414Y-73600288D01*
X158188936Y-73601451D01*
X158288796Y-73830333D01*
X158290138Y-73833668D01*
X158370486Y-74051463D01*
X158453284Y-74288086D01*
X158454436Y-74291735D01*
X158517221Y-74514353D01*
X158582270Y-74757118D01*
X158583188Y-74761057D01*
X158628039Y-74986534D01*
X158674989Y-75234677D01*
X158675640Y-75238917D01*
X158702279Y-75463983D01*
X158730894Y-75717950D01*
X158731237Y-75722459D01*
X158739521Y-75933300D01*
X158749457Y-76198868D01*
X158749500Y-76201152D01*
X158749500Y-146048847D01*
X158749457Y-146051132D01*
X158740985Y-146277555D01*
X158739521Y-146316699D01*
X158731237Y-146527539D01*
X158730894Y-146532048D01*
X158702279Y-146786015D01*
X158675640Y-147011081D01*
X158674989Y-147015321D01*
X158628039Y-147263464D01*
X158583192Y-147488927D01*
X158582270Y-147492880D01*
X158517221Y-147735645D01*
X158454436Y-147958263D01*
X158453284Y-147961912D01*
X158370486Y-148198535D01*
X158290138Y-148416330D01*
X158288796Y-148419665D01*
X158188936Y-148648547D01*
X158188414Y-148649710D01*
X158091259Y-148860457D01*
X158089769Y-148863472D01*
X157973228Y-149083976D01*
X157972508Y-149085300D01*
X157858988Y-149288005D01*
X157857390Y-149290697D01*
X157724780Y-149501743D01*
X157723834Y-149503203D01*
X157594680Y-149696495D01*
X157593014Y-149698867D01*
X157445063Y-149899333D01*
X157443868Y-149900899D01*
X157299906Y-150083515D01*
X157298210Y-150085574D01*
X157135743Y-150274364D01*
X157134277Y-150276007D01*
X156976362Y-150446839D01*
X156974674Y-150448594D01*
X156798594Y-150624674D01*
X156796839Y-150626362D01*
X156626007Y-150784277D01*
X156624364Y-150785743D01*
X156435574Y-150948210D01*
X156433515Y-150949906D01*
X156250899Y-151093868D01*
X156249333Y-151095063D01*
X156048867Y-151243014D01*
X156046495Y-151244680D01*
X155853203Y-151373834D01*
X155851743Y-151374780D01*
X155640697Y-151507390D01*
X155638005Y-151508988D01*
X155435300Y-151622508D01*
X155433976Y-151623228D01*
X155213472Y-151739769D01*
X155210457Y-151741259D01*
X154999710Y-151838414D01*
X154998547Y-151838936D01*
X154769665Y-151938796D01*
X154766330Y-151940138D01*
X154548535Y-152020486D01*
X154311912Y-152103284D01*
X154308263Y-152104436D01*
X154085645Y-152167221D01*
X153842880Y-152232270D01*
X153838927Y-152233192D01*
X153613464Y-152278039D01*
X153365321Y-152324989D01*
X153361081Y-152325640D01*
X153136015Y-152352279D01*
X152882048Y-152380894D01*
X152877538Y-152381237D01*
X152666889Y-152389513D01*
X152503648Y-152395621D01*
X152401132Y-152399457D01*
X152398848Y-152399500D01*
X114301152Y-152399500D01*
X114298867Y-152399457D01*
X114191409Y-152395436D01*
X114033109Y-152389513D01*
X113822460Y-152381237D01*
X113817950Y-152380894D01*
X113563983Y-152352279D01*
X113338917Y-152325640D01*
X113334677Y-152324989D01*
X113086534Y-152278039D01*
X112861057Y-152233188D01*
X112857118Y-152232270D01*
X112614353Y-152167221D01*
X112391735Y-152104436D01*
X112388086Y-152103284D01*
X112151463Y-152020486D01*
X111933668Y-151940138D01*
X111930333Y-151938796D01*
X111701451Y-151838936D01*
X111700288Y-151838414D01*
X111489541Y-151741259D01*
X111486542Y-151739777D01*
X111351687Y-151668504D01*
X111266022Y-151623228D01*
X111264698Y-151622508D01*
X111061993Y-151508988D01*
X111059313Y-151507397D01*
X110937545Y-151430885D01*
X110848255Y-151374780D01*
X110846795Y-151373834D01*
X110653503Y-151244680D01*
X110651131Y-151243014D01*
X110450665Y-151095063D01*
X110449099Y-151093868D01*
X110266456Y-150949883D01*
X110264440Y-150948223D01*
X110075628Y-150785738D01*
X110073991Y-150784277D01*
X109903159Y-150626362D01*
X109901404Y-150624674D01*
X109725324Y-150448594D01*
X109723648Y-150446852D01*
X109565721Y-150276007D01*
X109564255Y-150274364D01*
X109401767Y-150085549D01*
X109400123Y-150083553D01*
X109256110Y-149900874D01*
X109254935Y-149899333D01*
X109106984Y-149698867D01*
X109105318Y-149696495D01*
X108976164Y-149503203D01*
X108975218Y-149501743D01*
X108972028Y-149496667D01*
X108842587Y-149290662D01*
X108841023Y-149288027D01*
X108727469Y-149085262D01*
X108726790Y-149084014D01*
X108610207Y-148863428D01*
X108608752Y-148860484D01*
X108511581Y-148649704D01*
X108511062Y-148648547D01*
X108411202Y-148419665D01*
X108409873Y-148416363D01*
X108329507Y-148198521D01*
X108246714Y-147961912D01*
X108245569Y-147958288D01*
X108182779Y-147735652D01*
X108117721Y-147492853D01*
X108116819Y-147488986D01*
X108071958Y-147263451D01*
X108025006Y-147015303D01*
X108024360Y-147011099D01*
X107997715Y-146785974D01*
X107969102Y-146532032D01*
X107968764Y-146527581D01*
X107960489Y-146316983D01*
X107950542Y-146051131D01*
X107950521Y-146050001D01*
X126264390Y-146050001D01*
X126284804Y-146335433D01*
X126345628Y-146615037D01*
X126345630Y-146615043D01*
X126345631Y-146615046D01*
X126445633Y-146883161D01*
X126445635Y-146883166D01*
X126582770Y-147134309D01*
X126582775Y-147134317D01*
X126754254Y-147363387D01*
X126754270Y-147363405D01*
X126956594Y-147565729D01*
X126956612Y-147565745D01*
X127185682Y-147737224D01*
X127185690Y-147737229D01*
X127436833Y-147874364D01*
X127436832Y-147874364D01*
X127436836Y-147874365D01*
X127436839Y-147874367D01*
X127704954Y-147974369D01*
X127704960Y-147974370D01*
X127704962Y-147974371D01*
X127984566Y-148035195D01*
X127984568Y-148035195D01*
X127984572Y-148035196D01*
X128238220Y-148053337D01*
X128269999Y-148055610D01*
X128270000Y-148055610D01*
X128270001Y-148055610D01*
X128298595Y-148053564D01*
X128555428Y-148035196D01*
X128835046Y-147974369D01*
X129103161Y-147874367D01*
X129354315Y-147737226D01*
X129583395Y-147565739D01*
X129785739Y-147363395D01*
X129957226Y-147134315D01*
X130094367Y-146883161D01*
X130194369Y-146615046D01*
X130255196Y-146335428D01*
X130275610Y-146050001D01*
X141504390Y-146050001D01*
X141524804Y-146335433D01*
X141585628Y-146615037D01*
X141585630Y-146615043D01*
X141585631Y-146615046D01*
X141685633Y-146883161D01*
X141685635Y-146883166D01*
X141822770Y-147134309D01*
X141822775Y-147134317D01*
X141994254Y-147363387D01*
X141994270Y-147363405D01*
X142196594Y-147565729D01*
X142196612Y-147565745D01*
X142425682Y-147737224D01*
X142425690Y-147737229D01*
X142676833Y-147874364D01*
X142676832Y-147874364D01*
X142676836Y-147874365D01*
X142676839Y-147874367D01*
X142944954Y-147974369D01*
X142944960Y-147974370D01*
X142944962Y-147974371D01*
X143224566Y-148035195D01*
X143224568Y-148035195D01*
X143224572Y-148035196D01*
X143478220Y-148053337D01*
X143509999Y-148055610D01*
X143510000Y-148055610D01*
X143510001Y-148055610D01*
X143538595Y-148053564D01*
X143795428Y-148035196D01*
X144075046Y-147974369D01*
X144343161Y-147874367D01*
X144594315Y-147737226D01*
X144823395Y-147565739D01*
X145025739Y-147363395D01*
X145197226Y-147134315D01*
X145334367Y-146883161D01*
X145434369Y-146615046D01*
X145495196Y-146335428D01*
X145515610Y-146050000D01*
X145495196Y-145764572D01*
X145434369Y-145484954D01*
X145334367Y-145216839D01*
X145197226Y-144965685D01*
X145197224Y-144965682D01*
X145025745Y-144736612D01*
X145025729Y-144736594D01*
X144823405Y-144534270D01*
X144823387Y-144534254D01*
X144594317Y-144362775D01*
X144594309Y-144362770D01*
X144343166Y-144225635D01*
X144343167Y-144225635D01*
X144235915Y-144185632D01*
X144075046Y-144125631D01*
X144075043Y-144125630D01*
X144075037Y-144125628D01*
X143795433Y-144064804D01*
X143510001Y-144044390D01*
X143509999Y-144044390D01*
X143224566Y-144064804D01*
X142944962Y-144125628D01*
X142676833Y-144225635D01*
X142425690Y-144362770D01*
X142425682Y-144362775D01*
X142196612Y-144534254D01*
X142196594Y-144534270D01*
X141994270Y-144736594D01*
X141994254Y-144736612D01*
X141822775Y-144965682D01*
X141822770Y-144965690D01*
X141685635Y-145216833D01*
X141585628Y-145484962D01*
X141524804Y-145764566D01*
X141504390Y-146049998D01*
X141504390Y-146050001D01*
X130275610Y-146050001D01*
X130275610Y-146050000D01*
X130255196Y-145764572D01*
X130194369Y-145484954D01*
X130094367Y-145216839D01*
X129957226Y-144965685D01*
X129957224Y-144965682D01*
X129785745Y-144736612D01*
X129785729Y-144736594D01*
X129583405Y-144534270D01*
X129583387Y-144534254D01*
X129354317Y-144362775D01*
X129354309Y-144362770D01*
X129103166Y-144225635D01*
X129103167Y-144225635D01*
X128995914Y-144185632D01*
X128835046Y-144125631D01*
X128835043Y-144125630D01*
X128835037Y-144125628D01*
X128555433Y-144064804D01*
X128270001Y-144044390D01*
X128269999Y-144044390D01*
X127984566Y-144064804D01*
X127704962Y-144125628D01*
X127436833Y-144225635D01*
X127185690Y-144362770D01*
X127185682Y-144362775D01*
X126956612Y-144534254D01*
X126956594Y-144534270D01*
X126754270Y-144736594D01*
X126754254Y-144736612D01*
X126582775Y-144965682D01*
X126582770Y-144965690D01*
X126445635Y-145216833D01*
X126345628Y-145484962D01*
X126284804Y-145764566D01*
X126264390Y-146049998D01*
X126264390Y-146050001D01*
X107950521Y-146050001D01*
X107950500Y-146048848D01*
X107950500Y-140000004D01*
X113494659Y-140000004D01*
X113497876Y-140032677D01*
X113498155Y-140040328D01*
X113497243Y-140076360D01*
X113497243Y-140076372D01*
X113507766Y-140135081D01*
X113508440Y-140139942D01*
X113513975Y-140196129D01*
X113513976Y-140196132D01*
X113524489Y-140230791D01*
X113526188Y-140237856D01*
X113533140Y-140276648D01*
X113533141Y-140276651D01*
X113554021Y-140328923D01*
X113555776Y-140333927D01*
X113571186Y-140384728D01*
X113589849Y-140419646D01*
X113592748Y-140425877D01*
X113608622Y-140465615D01*
X113637745Y-140509804D01*
X113640658Y-140514699D01*
X113664091Y-140558539D01*
X113691348Y-140591752D01*
X113695192Y-140596970D01*
X113720600Y-140635522D01*
X113755631Y-140670553D01*
X113759720Y-140675064D01*
X113789118Y-140710884D01*
X113824935Y-140740278D01*
X113829436Y-140744357D01*
X114994885Y-141909805D01*
X115032987Y-141947907D01*
X115034052Y-141948998D01*
X115069252Y-141986028D01*
X115094940Y-142013052D01*
X115094947Y-142013058D01*
X115129053Y-142036795D01*
X115145303Y-142048106D01*
X115149044Y-142050926D01*
X115196593Y-142089698D01*
X115227045Y-142105604D01*
X115233758Y-142109672D01*
X115261951Y-142129295D01*
X115318329Y-142153489D01*
X115322578Y-142155507D01*
X115376951Y-142183909D01*
X115404489Y-142191788D01*
X115409974Y-142193358D01*
X115417368Y-142195990D01*
X115448942Y-142209540D01*
X115448945Y-142209540D01*
X115448946Y-142209541D01*
X115509022Y-142221887D01*
X115513600Y-142223010D01*
X115515704Y-142223612D01*
X115572582Y-142239887D01*
X115606839Y-142242495D01*
X115614614Y-142243586D01*
X115648255Y-142250500D01*
X115648259Y-142250500D01*
X115709598Y-142250500D01*
X115714304Y-142250678D01*
X115741595Y-142252757D01*
X115775475Y-142255337D01*
X115775475Y-142255336D01*
X115775476Y-142255337D01*
X115809559Y-142250996D01*
X115817389Y-142250500D01*
X128486507Y-142250500D01*
X128488069Y-142250519D01*
X128525283Y-142251462D01*
X128576358Y-142252757D01*
X128576358Y-142252756D01*
X128576363Y-142252757D01*
X128636753Y-142241932D01*
X128641412Y-142241280D01*
X128683607Y-142236988D01*
X128702438Y-142235074D01*
X128735227Y-142224786D01*
X128742840Y-142222918D01*
X128776653Y-142216858D01*
X128833621Y-142194101D01*
X128838053Y-142192524D01*
X128896588Y-142174159D01*
X128926627Y-142157484D01*
X128933708Y-142154122D01*
X128965617Y-142141377D01*
X129016854Y-142107608D01*
X129020851Y-142105187D01*
X129074502Y-142075409D01*
X129100568Y-142053030D01*
X129106843Y-142048300D01*
X129107145Y-142048101D01*
X129135519Y-142029402D01*
X129178892Y-141986027D01*
X129182350Y-141982823D01*
X129185613Y-141980020D01*
X129228895Y-141942866D01*
X129249928Y-141915691D01*
X129255098Y-141909821D01*
X131170556Y-139994362D01*
X131175045Y-139990293D01*
X131210883Y-139960883D01*
X131240223Y-139925130D01*
X131242144Y-139922902D01*
X131243316Y-139921603D01*
X131243340Y-139921580D01*
X131274453Y-139883422D01*
X131335910Y-139808538D01*
X131335918Y-139808521D01*
X131336055Y-139808319D01*
X131339564Y-139803571D01*
X131339698Y-139803407D01*
X131384620Y-139717407D01*
X131428814Y-139634727D01*
X131428817Y-139634717D01*
X131431612Y-139627969D01*
X131433892Y-139623090D01*
X131433911Y-139623043D01*
X131440297Y-139600719D01*
X131459716Y-139532854D01*
X131486024Y-139446132D01*
X131486025Y-139446126D01*
X131487214Y-139440151D01*
X131487452Y-139440198D01*
X131489828Y-139427738D01*
X131489883Y-139427425D01*
X131489886Y-139427418D01*
X131496719Y-139337672D01*
X131496834Y-139336363D01*
X131497872Y-139325821D01*
X131505341Y-139250000D01*
X131505306Y-139249654D01*
X131505067Y-139228062D01*
X131505337Y-139224524D01*
X131494394Y-139138605D01*
X131494199Y-139136872D01*
X131486024Y-139053869D01*
X131486023Y-139053866D01*
X131484879Y-139050093D01*
X131480532Y-139029758D01*
X131479630Y-139022672D01*
X131452698Y-138943881D01*
X131452041Y-138941843D01*
X131428814Y-138865273D01*
X131425261Y-138858625D01*
X131417288Y-138840286D01*
X131413816Y-138830129D01*
X131413811Y-138830117D01*
X131373287Y-138761279D01*
X131372049Y-138759073D01*
X131349485Y-138716859D01*
X131335911Y-138691463D01*
X131335909Y-138691460D01*
X131328859Y-138682870D01*
X131317854Y-138667113D01*
X131310590Y-138654773D01*
X131259304Y-138598008D01*
X131257383Y-138595778D01*
X131210882Y-138539116D01*
X131208730Y-138537350D01*
X131199520Y-138529791D01*
X131186186Y-138517077D01*
X131174179Y-138503787D01*
X131174178Y-138503786D01*
X131174176Y-138503784D01*
X131174173Y-138503782D01*
X131115233Y-138460501D01*
X131112596Y-138458454D01*
X131058541Y-138414092D01*
X131058539Y-138414091D01*
X131058538Y-138414090D01*
X131042413Y-138405471D01*
X131027478Y-138396062D01*
X131010174Y-138383355D01*
X131010169Y-138383352D01*
X131010167Y-138383351D01*
X130956359Y-138358627D01*
X130946775Y-138354223D01*
X130943436Y-138352565D01*
X130911170Y-138335319D01*
X130884727Y-138321186D01*
X130884724Y-138321185D01*
X130884722Y-138321184D01*
X130859769Y-138313614D01*
X130851874Y-138310619D01*
X130825272Y-138298396D01*
X130825262Y-138298393D01*
X130760595Y-138283386D01*
X130756613Y-138282322D01*
X130696136Y-138263977D01*
X130696128Y-138263975D01*
X130666811Y-138261087D01*
X130658866Y-138259780D01*
X130627051Y-138252397D01*
X130564039Y-138250800D01*
X130559534Y-138250521D01*
X130500002Y-138244659D01*
X130499995Y-138244659D01*
X130467319Y-138247876D01*
X130459669Y-138248155D01*
X130423640Y-138247243D01*
X130423639Y-138247243D01*
X130423637Y-138247243D01*
X130423635Y-138247243D01*
X130423625Y-138247244D01*
X130364917Y-138257766D01*
X130360057Y-138258440D01*
X130303870Y-138263975D01*
X130303862Y-138263977D01*
X130269206Y-138274490D01*
X130262142Y-138276188D01*
X130223350Y-138283141D01*
X130223341Y-138283143D01*
X130171070Y-138304022D01*
X130166070Y-138305775D01*
X130115272Y-138321186D01*
X130080354Y-138339848D01*
X130074126Y-138342746D01*
X130034383Y-138358623D01*
X130034374Y-138358627D01*
X129990193Y-138387744D01*
X129985302Y-138390655D01*
X129941465Y-138414087D01*
X129908252Y-138441343D01*
X129903037Y-138445186D01*
X129864486Y-138470593D01*
X129829444Y-138505634D01*
X129824936Y-138509720D01*
X129789117Y-138539117D01*
X129759720Y-138574935D01*
X129755633Y-138579444D01*
X128121899Y-140213181D01*
X128060576Y-140246666D01*
X128034218Y-140249500D01*
X116215783Y-140249500D01*
X116148744Y-140229815D01*
X116128102Y-140213181D01*
X115718322Y-139803401D01*
X115244360Y-139329439D01*
X115240282Y-139324939D01*
X115210883Y-139289117D01*
X115210883Y-139289116D01*
X115175124Y-139259770D01*
X115172907Y-139257860D01*
X115171592Y-139256672D01*
X115171580Y-139256660D01*
X115133422Y-139225546D01*
X115058538Y-139164090D01*
X115058532Y-139164085D01*
X115058298Y-139163929D01*
X115053573Y-139160436D01*
X115053415Y-139160307D01*
X115053409Y-139160303D01*
X114967382Y-139115365D01*
X114912787Y-139086184D01*
X114884729Y-139071186D01*
X114877967Y-139068385D01*
X114873093Y-139066108D01*
X114873045Y-139066089D01*
X114782784Y-139040262D01*
X114696140Y-139013978D01*
X114696135Y-139013977D01*
X114696132Y-139013976D01*
X114696127Y-139013975D01*
X114690164Y-139012789D01*
X114690210Y-139012553D01*
X114677479Y-139010124D01*
X114677414Y-139010112D01*
X114595085Y-139003843D01*
X114587686Y-139003279D01*
X114586324Y-139003160D01*
X114500001Y-138994659D01*
X114500000Y-138994659D01*
X114499634Y-138994695D01*
X114478075Y-138994933D01*
X114474526Y-138994662D01*
X114388604Y-139005604D01*
X114386850Y-139005802D01*
X114303869Y-139013975D01*
X114303861Y-139013977D01*
X114300076Y-139015125D01*
X114279787Y-139019462D01*
X114272677Y-139020368D01*
X114272664Y-139020371D01*
X114193904Y-139047292D01*
X114191851Y-139047954D01*
X114115271Y-139071186D01*
X114115265Y-139071189D01*
X114108615Y-139074743D01*
X114090298Y-139082706D01*
X114080133Y-139086181D01*
X114080127Y-139086184D01*
X114011298Y-139126700D01*
X114009075Y-139127948D01*
X113941467Y-139164085D01*
X113941462Y-139164089D01*
X113932860Y-139171148D01*
X113917115Y-139182143D01*
X113904776Y-139189407D01*
X113848006Y-139240696D01*
X113845775Y-139242617D01*
X113789113Y-139289120D01*
X113779789Y-139300481D01*
X113767074Y-139313815D01*
X113753791Y-139325816D01*
X113753788Y-139325819D01*
X113710496Y-139384773D01*
X113708450Y-139387407D01*
X113664094Y-139441456D01*
X113664092Y-139441459D01*
X113655469Y-139457590D01*
X113646063Y-139472521D01*
X113633352Y-139489830D01*
X113604216Y-139553237D01*
X113602559Y-139556575D01*
X113571184Y-139615277D01*
X113563614Y-139640229D01*
X113560621Y-139648120D01*
X113548396Y-139674729D01*
X113548393Y-139674737D01*
X113533383Y-139739415D01*
X113532318Y-139743396D01*
X113513978Y-139803857D01*
X113513975Y-139803872D01*
X113511088Y-139833181D01*
X113509781Y-139841122D01*
X113502396Y-139872945D01*
X113502396Y-139872947D01*
X113500799Y-139935968D01*
X113500520Y-139940474D01*
X113494659Y-139999997D01*
X113494659Y-140000004D01*
X107950500Y-140000004D01*
X107950500Y-137775477D01*
X121244662Y-137775477D01*
X121270368Y-137977321D01*
X121270370Y-137977329D01*
X121336183Y-138169870D01*
X121336189Y-138169882D01*
X121439406Y-138345221D01*
X121439410Y-138345227D01*
X121575821Y-138496213D01*
X121594215Y-138509720D01*
X121739828Y-138616646D01*
X121739835Y-138616650D01*
X121902658Y-138691463D01*
X121924732Y-138701605D01*
X121990456Y-138716857D01*
X122122945Y-138747603D01*
X122326358Y-138752757D01*
X122326358Y-138752756D01*
X122326363Y-138752757D01*
X122505853Y-138720586D01*
X122526648Y-138716859D01*
X122526648Y-138716858D01*
X122526653Y-138716858D01*
X122715617Y-138641377D01*
X122885519Y-138529402D01*
X126197981Y-135216937D01*
X126198994Y-135215950D01*
X126263053Y-135155059D01*
X126298099Y-135104706D01*
X126300938Y-135100941D01*
X126304612Y-135096435D01*
X126339698Y-135053407D01*
X126355601Y-135022960D01*
X126359674Y-135016239D01*
X126364489Y-135009320D01*
X126379295Y-134988049D01*
X126403492Y-134931660D01*
X126405498Y-134927435D01*
X126433909Y-134873049D01*
X126443360Y-134840015D01*
X126445991Y-134832628D01*
X126459540Y-134801058D01*
X126471893Y-134740940D01*
X126473006Y-134736412D01*
X126489887Y-134677418D01*
X126492495Y-134643155D01*
X126493587Y-134635376D01*
X126500500Y-134601739D01*
X126500500Y-134540401D01*
X126500679Y-134535692D01*
X126505337Y-134474526D01*
X126500997Y-134440442D01*
X126500500Y-134432603D01*
X126500500Y-130465782D01*
X126520185Y-130398743D01*
X126536819Y-130378101D01*
X126536819Y-130378100D01*
X126993340Y-129921580D01*
X127089698Y-129803407D01*
X127183909Y-129623049D01*
X127239886Y-129427418D01*
X127255337Y-129224524D01*
X127229630Y-129022672D01*
X127163816Y-128830128D01*
X127060590Y-128654773D01*
X126924179Y-128503787D01*
X126885235Y-128475190D01*
X126842853Y-128419646D01*
X126837227Y-128350003D01*
X126870146Y-128288374D01*
X126875501Y-128283238D01*
X126885224Y-128274453D01*
X126902017Y-128259280D01*
X126904203Y-128257397D01*
X126960883Y-128210883D01*
X126970211Y-128199516D01*
X126982923Y-128186185D01*
X126996213Y-128174179D01*
X127039526Y-128115192D01*
X127041540Y-128112602D01*
X127042812Y-128111051D01*
X127085910Y-128058538D01*
X127094527Y-128042414D01*
X127103933Y-128027482D01*
X127116649Y-128010167D01*
X127145785Y-127946754D01*
X127147423Y-127943454D01*
X127178814Y-127884727D01*
X127186386Y-127859762D01*
X127189371Y-127851891D01*
X127201605Y-127825268D01*
X127216617Y-127760576D01*
X127217671Y-127756629D01*
X127236024Y-127696132D01*
X127238911Y-127666804D01*
X127240218Y-127658870D01*
X127247601Y-127627058D01*
X127247602Y-127627051D01*
X127249198Y-127564035D01*
X127249476Y-127559542D01*
X127250186Y-127552331D01*
X127255341Y-127500000D01*
X127252122Y-127467315D01*
X127251843Y-127459659D01*
X127252756Y-127423640D01*
X127252755Y-127423639D01*
X127252756Y-127423637D01*
X127242231Y-127364916D01*
X127241557Y-127360051D01*
X127241342Y-127357870D01*
X152649500Y-127357870D01*
X152649501Y-127357876D01*
X152655908Y-127417483D01*
X152706202Y-127552328D01*
X152706206Y-127552335D01*
X152792452Y-127667544D01*
X152792455Y-127667547D01*
X152907664Y-127753793D01*
X152907671Y-127753797D01*
X153042517Y-127804091D01*
X153042516Y-127804091D01*
X153049444Y-127804835D01*
X153102127Y-127810500D01*
X154897872Y-127810499D01*
X154957483Y-127804091D01*
X155092331Y-127753796D01*
X155207546Y-127667546D01*
X155293796Y-127552331D01*
X155344091Y-127417483D01*
X155350500Y-127357873D01*
X155350499Y-125562128D01*
X155344091Y-125502517D01*
X155335279Y-125478892D01*
X155293797Y-125367671D01*
X155293793Y-125367664D01*
X155207547Y-125252455D01*
X155207544Y-125252452D01*
X155092335Y-125166206D01*
X155092328Y-125166202D01*
X154957482Y-125115908D01*
X154957483Y-125115908D01*
X154897883Y-125109501D01*
X154897881Y-125109500D01*
X154897873Y-125109500D01*
X154897864Y-125109500D01*
X153102129Y-125109500D01*
X153102123Y-125109501D01*
X153042516Y-125115908D01*
X152907671Y-125166202D01*
X152907664Y-125166206D01*
X152792455Y-125252452D01*
X152792452Y-125252455D01*
X152706206Y-125367664D01*
X152706202Y-125367671D01*
X152655908Y-125502517D01*
X152649501Y-125562116D01*
X152649501Y-125562123D01*
X152649500Y-125562135D01*
X152649500Y-127357870D01*
X127241342Y-127357870D01*
X127236024Y-127303870D01*
X127236024Y-127303868D01*
X127225507Y-127269202D01*
X127223810Y-127262139D01*
X127216858Y-127223347D01*
X127195978Y-127171077D01*
X127194224Y-127166074D01*
X127188313Y-127146588D01*
X127178814Y-127115273D01*
X127174277Y-127106784D01*
X127160150Y-127080352D01*
X127157251Y-127074122D01*
X127141380Y-127034389D01*
X127141378Y-127034386D01*
X127141377Y-127034383D01*
X127112246Y-126990183D01*
X127109353Y-126985323D01*
X127085910Y-126941462D01*
X127058655Y-126908252D01*
X127054811Y-126903034D01*
X127029402Y-126864481D01*
X126994356Y-126829435D01*
X126990277Y-126824934D01*
X126960884Y-126789118D01*
X126925062Y-126759719D01*
X126920552Y-126755631D01*
X126536819Y-126371898D01*
X126503334Y-126310575D01*
X126500500Y-126284217D01*
X126500500Y-122000005D01*
X131494659Y-122000005D01*
X131494694Y-122000361D01*
X131494933Y-122021923D01*
X131494662Y-122025472D01*
X131505604Y-122111393D01*
X131505802Y-122113148D01*
X131513975Y-122196130D01*
X131513977Y-122196137D01*
X131515125Y-122199923D01*
X131519463Y-122220220D01*
X131520368Y-122227324D01*
X131520369Y-122227329D01*
X131547297Y-122306110D01*
X131547960Y-122308164D01*
X131571186Y-122384728D01*
X131571188Y-122384733D01*
X131574735Y-122391369D01*
X131582708Y-122409705D01*
X131586184Y-122419872D01*
X131626700Y-122488699D01*
X131627949Y-122490924D01*
X131664091Y-122558539D01*
X131664092Y-122558540D01*
X131671143Y-122567133D01*
X131682143Y-122582884D01*
X131689409Y-122595226D01*
X131740695Y-122651991D01*
X131742609Y-122654213D01*
X131759720Y-122675062D01*
X131789118Y-122710884D01*
X131800473Y-122720203D01*
X131813815Y-122732926D01*
X131825816Y-122746209D01*
X131825820Y-122746212D01*
X131825821Y-122746213D01*
X131884774Y-122789503D01*
X131887402Y-122791544D01*
X131941460Y-122835909D01*
X131957583Y-122844527D01*
X131972519Y-122853936D01*
X131989831Y-122866648D01*
X131989832Y-122866648D01*
X131989833Y-122866649D01*
X132053230Y-122895778D01*
X132056556Y-122897430D01*
X132088338Y-122914417D01*
X132115273Y-122928814D01*
X132134117Y-122934530D01*
X132140231Y-122936385D01*
X132148127Y-122939380D01*
X132174732Y-122951605D01*
X132239421Y-122966616D01*
X132243366Y-122967670D01*
X132303868Y-122986024D01*
X132333194Y-122988912D01*
X132341115Y-122990216D01*
X132372946Y-122997603D01*
X132372941Y-122997603D01*
X132383740Y-122997876D01*
X132435978Y-122999200D01*
X132440470Y-122999477D01*
X132500000Y-123005341D01*
X132532676Y-123002121D01*
X132540328Y-123001843D01*
X132571136Y-123002624D01*
X132576360Y-123002757D01*
X132576360Y-123002756D01*
X132576363Y-123002757D01*
X132635100Y-122992229D01*
X132639948Y-122991557D01*
X132696132Y-122986024D01*
X132730808Y-122975504D01*
X132737836Y-122973814D01*
X132776653Y-122966858D01*
X132795143Y-122959471D01*
X132828928Y-122945977D01*
X132833932Y-122944222D01*
X132884727Y-122928814D01*
X132919653Y-122910145D01*
X132925856Y-122907258D01*
X132965617Y-122891377D01*
X133009825Y-122862239D01*
X133014678Y-122859352D01*
X133058538Y-122835910D01*
X133091764Y-122808640D01*
X133096957Y-122804815D01*
X133135519Y-122779402D01*
X133170562Y-122744357D01*
X133175063Y-122740279D01*
X133175272Y-122740107D01*
X133210883Y-122710883D01*
X133240289Y-122675050D01*
X133244358Y-122670561D01*
X133947982Y-121966936D01*
X133948995Y-121965949D01*
X134013053Y-121905059D01*
X134048099Y-121854706D01*
X134050938Y-121850941D01*
X134054612Y-121846435D01*
X134089698Y-121803407D01*
X134105601Y-121772960D01*
X134109674Y-121766239D01*
X134114489Y-121759320D01*
X134129295Y-121738049D01*
X134153492Y-121681660D01*
X134155498Y-121677435D01*
X134183909Y-121623049D01*
X134193357Y-121590022D01*
X134195988Y-121582633D01*
X134209540Y-121551058D01*
X134221895Y-121490930D01*
X134222999Y-121486429D01*
X134239886Y-121427418D01*
X134242494Y-121393157D01*
X134243585Y-121385389D01*
X134250500Y-121351743D01*
X134250500Y-121290398D01*
X134250679Y-121285688D01*
X134255337Y-121224524D01*
X134250997Y-121190442D01*
X134250500Y-121182603D01*
X134250500Y-115302200D01*
X134250799Y-115296119D01*
X134251871Y-115285230D01*
X134255341Y-115250000D01*
X134250806Y-115203961D01*
X134250589Y-115201034D01*
X134250500Y-115199283D01*
X134250500Y-115199258D01*
X134245525Y-115150336D01*
X134236024Y-115053868D01*
X134236022Y-115053863D01*
X134236022Y-115053858D01*
X134235967Y-115053579D01*
X134235093Y-115047751D01*
X134235074Y-115047562D01*
X134206034Y-114955007D01*
X134178814Y-114865273D01*
X134178810Y-114865266D01*
X134176021Y-114858532D01*
X134174174Y-114853448D01*
X134174160Y-114853417D01*
X134174159Y-114853412D01*
X134128612Y-114771351D01*
X134125001Y-114764596D01*
X134085913Y-114691468D01*
X134085910Y-114691462D01*
X134085904Y-114691455D01*
X134082527Y-114686400D01*
X134082729Y-114686264D01*
X134075522Y-114675661D01*
X134075411Y-114675501D01*
X134075410Y-114675499D01*
X134075409Y-114675498D01*
X134060030Y-114657584D01*
X134016773Y-114607194D01*
X134015890Y-114606142D01*
X133981714Y-114564500D01*
X133960883Y-114539117D01*
X133960880Y-114539114D01*
X133960878Y-114539112D01*
X133960606Y-114538889D01*
X133945185Y-114523806D01*
X133942866Y-114521104D01*
X133942864Y-114521103D01*
X133874358Y-114468075D01*
X133872977Y-114466974D01*
X133808539Y-114414090D01*
X133808536Y-114414089D01*
X133805064Y-114412233D01*
X133787607Y-114400925D01*
X133781959Y-114396553D01*
X133781958Y-114396552D01*
X133751133Y-114381432D01*
X133707220Y-114359891D01*
X133705298Y-114358907D01*
X133634723Y-114321184D01*
X133627521Y-114319000D01*
X133608909Y-114311667D01*
X133604427Y-114309469D01*
X133599270Y-114306939D01*
X133558731Y-114296443D01*
X133521922Y-114286912D01*
X133519496Y-114286230D01*
X133446132Y-114263976D01*
X133435054Y-114262884D01*
X133416149Y-114259526D01*
X133402285Y-114255937D01*
X133325875Y-114252060D01*
X133322941Y-114251841D01*
X133250003Y-114244659D01*
X133249996Y-114244659D01*
X133235369Y-114246099D01*
X133216945Y-114246537D01*
X133199068Y-114245631D01*
X133199058Y-114245631D01*
X133126784Y-114256703D01*
X133123474Y-114257119D01*
X133053872Y-114263975D01*
X133053866Y-114263976D01*
X133036367Y-114269284D01*
X133019163Y-114273190D01*
X132997932Y-114276443D01*
X132997921Y-114276446D01*
X132932510Y-114300672D01*
X132928975Y-114301862D01*
X132865276Y-114321184D01*
X132865272Y-114321186D01*
X132842275Y-114333478D01*
X132834576Y-114336942D01*
X132807113Y-114347114D01*
X132807109Y-114347116D01*
X132750751Y-114382243D01*
X132747195Y-114384298D01*
X132716091Y-114400925D01*
X132691467Y-114414087D01*
X132691454Y-114414095D01*
X132674737Y-114427815D01*
X132668689Y-114432777D01*
X132662154Y-114437466D01*
X132634429Y-114454747D01*
X132634427Y-114454749D01*
X132588732Y-114498184D01*
X132585349Y-114501173D01*
X132539114Y-114539118D01*
X132518282Y-114564500D01*
X132513071Y-114570105D01*
X132486947Y-114594939D01*
X132452866Y-114643905D01*
X132449905Y-114647818D01*
X132414092Y-114691457D01*
X132414089Y-114691463D01*
X132397018Y-114723399D01*
X132393225Y-114729593D01*
X132370706Y-114761948D01*
X132370705Y-114761950D01*
X132348504Y-114813680D01*
X132346209Y-114818456D01*
X132321186Y-114865272D01*
X132321184Y-114865276D01*
X132313458Y-114890746D01*
X132309692Y-114903159D01*
X132307339Y-114909607D01*
X132290461Y-114948937D01*
X132279806Y-115000778D01*
X132278406Y-115006294D01*
X132263975Y-115053870D01*
X132259763Y-115096632D01*
X132258792Y-115103038D01*
X132249500Y-115148257D01*
X132249500Y-115197798D01*
X132249201Y-115203878D01*
X132244659Y-115249999D01*
X132249201Y-115296119D01*
X132249500Y-115302200D01*
X132249500Y-120784217D01*
X132229815Y-120851256D01*
X132213181Y-120871898D01*
X131829449Y-121255629D01*
X131824940Y-121259716D01*
X131789115Y-121289118D01*
X131759794Y-121324845D01*
X131757886Y-121327062D01*
X131756651Y-121328429D01*
X131737642Y-121351743D01*
X131728222Y-121363296D01*
X131725566Y-121366553D01*
X131664080Y-121441472D01*
X131663912Y-121441725D01*
X131660441Y-121446421D01*
X131660309Y-121446582D01*
X131660299Y-121446597D01*
X131615402Y-121532546D01*
X131571182Y-121615279D01*
X131568382Y-121622038D01*
X131566115Y-121626891D01*
X131566089Y-121626957D01*
X131540286Y-121717132D01*
X131513974Y-121803871D01*
X131512788Y-121809837D01*
X131512552Y-121809790D01*
X131510125Y-121822514D01*
X131510112Y-121822587D01*
X131503280Y-121912306D01*
X131503160Y-121913674D01*
X131494659Y-121999998D01*
X131494659Y-122000005D01*
X126500500Y-122000005D01*
X126500500Y-121013491D01*
X126500520Y-121011921D01*
X126502757Y-120923641D01*
X126502756Y-120923640D01*
X126502757Y-120923637D01*
X126491933Y-120863249D01*
X126491280Y-120858587D01*
X126485074Y-120797563D01*
X126485074Y-120797562D01*
X126474784Y-120764768D01*
X126472917Y-120757155D01*
X126466858Y-120723348D01*
X126455987Y-120696132D01*
X126444095Y-120666361D01*
X126442527Y-120661955D01*
X126433367Y-120632760D01*
X126424161Y-120603416D01*
X126424160Y-120603414D01*
X126407492Y-120573385D01*
X126404124Y-120566295D01*
X126391378Y-120534383D01*
X126357612Y-120483150D01*
X126355183Y-120479142D01*
X126325409Y-120425498D01*
X126303034Y-120399434D01*
X126298306Y-120393163D01*
X126279404Y-120364484D01*
X126279399Y-120364478D01*
X126248101Y-120333181D01*
X126236019Y-120321099D01*
X126232828Y-120317655D01*
X126192865Y-120271104D01*
X126165694Y-120250072D01*
X126159807Y-120244887D01*
X125744361Y-119829441D01*
X125740282Y-119824940D01*
X125710885Y-119789119D01*
X125709584Y-119788051D01*
X125675124Y-119759770D01*
X125672907Y-119757860D01*
X125671573Y-119756654D01*
X125633361Y-119725496D01*
X125558532Y-119664085D01*
X125558298Y-119663929D01*
X125553573Y-119660436D01*
X125553415Y-119660307D01*
X125553409Y-119660303D01*
X125467382Y-119615365D01*
X125422553Y-119591404D01*
X125384729Y-119571186D01*
X125377967Y-119568385D01*
X125373093Y-119566108D01*
X125373045Y-119566089D01*
X125282784Y-119540262D01*
X125196140Y-119513978D01*
X125196135Y-119513977D01*
X125196132Y-119513976D01*
X125196127Y-119513975D01*
X125190164Y-119512789D01*
X125190210Y-119512553D01*
X125177479Y-119510124D01*
X125177414Y-119510112D01*
X125095085Y-119503843D01*
X125087686Y-119503279D01*
X125086324Y-119503160D01*
X125000001Y-119494659D01*
X125000000Y-119494659D01*
X124999634Y-119494695D01*
X124978075Y-119494933D01*
X124974526Y-119494662D01*
X124888604Y-119505604D01*
X124886850Y-119505802D01*
X124803869Y-119513975D01*
X124803861Y-119513977D01*
X124800076Y-119515125D01*
X124779787Y-119519462D01*
X124772677Y-119520368D01*
X124772664Y-119520371D01*
X124693904Y-119547292D01*
X124691851Y-119547954D01*
X124615271Y-119571186D01*
X124615265Y-119571189D01*
X124608615Y-119574743D01*
X124590298Y-119582706D01*
X124580133Y-119586181D01*
X124580127Y-119586184D01*
X124511298Y-119626700D01*
X124509075Y-119627948D01*
X124441467Y-119664085D01*
X124441462Y-119664089D01*
X124432860Y-119671148D01*
X124417115Y-119682143D01*
X124404776Y-119689407D01*
X124348006Y-119740696D01*
X124345775Y-119742617D01*
X124289113Y-119789120D01*
X124279789Y-119800481D01*
X124267074Y-119813815D01*
X124253791Y-119825816D01*
X124253788Y-119825819D01*
X124210496Y-119884773D01*
X124208450Y-119887407D01*
X124164094Y-119941456D01*
X124164092Y-119941459D01*
X124155469Y-119957590D01*
X124146064Y-119972518D01*
X124145456Y-119973347D01*
X124133352Y-119989830D01*
X124104216Y-120053237D01*
X124102559Y-120056575D01*
X124071184Y-120115277D01*
X124063614Y-120140229D01*
X124060621Y-120148120D01*
X124048396Y-120174729D01*
X124048393Y-120174737D01*
X124033383Y-120239415D01*
X124032318Y-120243396D01*
X124013978Y-120303857D01*
X124013975Y-120303872D01*
X124011088Y-120333181D01*
X124009781Y-120341122D01*
X124002396Y-120372945D01*
X124002396Y-120372947D01*
X124000799Y-120435968D01*
X124000520Y-120440474D01*
X123994659Y-120499997D01*
X123994659Y-120500004D01*
X123997876Y-120532677D01*
X123998155Y-120540328D01*
X123997243Y-120576360D01*
X123997243Y-120576372D01*
X124007766Y-120635081D01*
X124008440Y-120639942D01*
X124013975Y-120696129D01*
X124013976Y-120696132D01*
X124024489Y-120730791D01*
X124026188Y-120737856D01*
X124033140Y-120776648D01*
X124033141Y-120776651D01*
X124054021Y-120828923D01*
X124055772Y-120833916D01*
X124063256Y-120858587D01*
X124071186Y-120884728D01*
X124089849Y-120919646D01*
X124092748Y-120925877D01*
X124108622Y-120965615D01*
X124137745Y-121009804D01*
X124140658Y-121014699D01*
X124164091Y-121058539D01*
X124191348Y-121091752D01*
X124195192Y-121096970D01*
X124220600Y-121135522D01*
X124255631Y-121170553D01*
X124259720Y-121175064D01*
X124272341Y-121190442D01*
X124289117Y-121210883D01*
X124324458Y-121239887D01*
X124324934Y-121240277D01*
X124329445Y-121244366D01*
X124463182Y-121378102D01*
X124496666Y-121439423D01*
X124499500Y-121465782D01*
X124499500Y-126736506D01*
X124499480Y-126738070D01*
X124498932Y-126759719D01*
X124497243Y-126826362D01*
X124497243Y-126826370D01*
X124508064Y-126886739D01*
X124508718Y-126891404D01*
X124514925Y-126952430D01*
X124514927Y-126952444D01*
X124525208Y-126985213D01*
X124527079Y-126992837D01*
X124533142Y-127026652D01*
X124533142Y-127026655D01*
X124548710Y-127065629D01*
X124554591Y-127080352D01*
X124555894Y-127083612D01*
X124557474Y-127088051D01*
X124575841Y-127146588D01*
X124575844Y-127146595D01*
X124592509Y-127176619D01*
X124595879Y-127183714D01*
X124608622Y-127215614D01*
X124608627Y-127215624D01*
X124613717Y-127223347D01*
X124641646Y-127265725D01*
X124642377Y-127266833D01*
X124644818Y-127270863D01*
X124674588Y-127324498D01*
X124674589Y-127324499D01*
X124674591Y-127324502D01*
X124696968Y-127350567D01*
X124701693Y-127356835D01*
X124720599Y-127385520D01*
X124720600Y-127385522D01*
X124763965Y-127428887D01*
X124767168Y-127432343D01*
X124807133Y-127478894D01*
X124834299Y-127499923D01*
X124840186Y-127505107D01*
X125505637Y-128170557D01*
X125509716Y-128175059D01*
X125539116Y-128210883D01*
X125574848Y-128240207D01*
X125577079Y-128242128D01*
X125578428Y-128243347D01*
X125616577Y-128274453D01*
X125618217Y-128275799D01*
X125657568Y-128333531D01*
X125659459Y-128403375D01*
X125623290Y-128463154D01*
X125617944Y-128467773D01*
X125614481Y-128470596D01*
X124802090Y-129282988D01*
X124800966Y-129284084D01*
X124736946Y-129344942D01*
X124701899Y-129395294D01*
X124699062Y-129399056D01*
X124660302Y-129446592D01*
X124660299Y-129446597D01*
X124644392Y-129477047D01*
X124640324Y-129483761D01*
X124620702Y-129511954D01*
X124596509Y-129568330D01*
X124594488Y-129572584D01*
X124566091Y-129626951D01*
X124566090Y-129626952D01*
X124556640Y-129659975D01*
X124554007Y-129667371D01*
X124540459Y-129698943D01*
X124528113Y-129759019D01*
X124526990Y-129763595D01*
X124510113Y-129822577D01*
X124510113Y-129822579D01*
X124507503Y-129856841D01*
X124506414Y-129864608D01*
X124500980Y-129891052D01*
X124499500Y-129898258D01*
X124499500Y-129959597D01*
X124499321Y-129964306D01*
X124494662Y-130025474D01*
X124496707Y-130041527D01*
X124499003Y-130059560D01*
X124499500Y-130067388D01*
X124499500Y-134034217D01*
X124479815Y-134101256D01*
X124463181Y-134121898D01*
X121506662Y-137078417D01*
X121410304Y-137196590D01*
X121316090Y-137376953D01*
X121260112Y-137572584D01*
X121244662Y-137775474D01*
X121244662Y-137775477D01*
X107950500Y-137775477D01*
X107950500Y-115000000D01*
X110644341Y-115000000D01*
X110664936Y-115235403D01*
X110664938Y-115235413D01*
X110726094Y-115463655D01*
X110726096Y-115463659D01*
X110726097Y-115463663D01*
X110787705Y-115595781D01*
X110825965Y-115677830D01*
X110825967Y-115677834D01*
X110919132Y-115810886D01*
X110961505Y-115871401D01*
X111128599Y-116038495D01*
X111200625Y-116088928D01*
X111322165Y-116174032D01*
X111322167Y-116174033D01*
X111322170Y-116174035D01*
X111536337Y-116273903D01*
X111764592Y-116335063D01*
X111952918Y-116351539D01*
X111999999Y-116355659D01*
X112000000Y-116355659D01*
X112000001Y-116355659D01*
X112039234Y-116352226D01*
X112235408Y-116335063D01*
X112463663Y-116273903D01*
X112677830Y-116174035D01*
X112871401Y-116038495D01*
X113038495Y-115871401D01*
X113174035Y-115677830D01*
X113273903Y-115463663D01*
X113335063Y-115235408D01*
X113355659Y-115000000D01*
X113335063Y-114764592D01*
X113273903Y-114536337D01*
X113174035Y-114322171D01*
X113173346Y-114321186D01*
X113038494Y-114128597D01*
X112871402Y-113961506D01*
X112871395Y-113961501D01*
X112677834Y-113825967D01*
X112677830Y-113825965D01*
X112677828Y-113825964D01*
X112463663Y-113726097D01*
X112463659Y-113726096D01*
X112463655Y-113726094D01*
X112235413Y-113664938D01*
X112235403Y-113664936D01*
X112000001Y-113644341D01*
X111999999Y-113644341D01*
X111764596Y-113664936D01*
X111764586Y-113664938D01*
X111536344Y-113726094D01*
X111536335Y-113726098D01*
X111322171Y-113825964D01*
X111322169Y-113825965D01*
X111128597Y-113961505D01*
X110961505Y-114128597D01*
X110825965Y-114322169D01*
X110825964Y-114322171D01*
X110726098Y-114536335D01*
X110726094Y-114536344D01*
X110664938Y-114764586D01*
X110664936Y-114764596D01*
X110644341Y-114999999D01*
X110644341Y-115000000D01*
X107950500Y-115000000D01*
X107950500Y-113076358D01*
X120497242Y-113076358D01*
X120533140Y-113276648D01*
X120533142Y-113276654D01*
X120608623Y-113465616D01*
X120608629Y-113465628D01*
X120720596Y-113635517D01*
X120720599Y-113635521D01*
X121213181Y-114128101D01*
X121246666Y-114189424D01*
X121249500Y-114215782D01*
X121249500Y-124736506D01*
X121249480Y-124738076D01*
X121247243Y-124826362D01*
X121247243Y-124826370D01*
X121258064Y-124886739D01*
X121258718Y-124891404D01*
X121264925Y-124952430D01*
X121264927Y-124952444D01*
X121275208Y-124985213D01*
X121277079Y-124992837D01*
X121283142Y-125026652D01*
X121283142Y-125026655D01*
X121305894Y-125083612D01*
X121307474Y-125088051D01*
X121325841Y-125146588D01*
X121325844Y-125146595D01*
X121342509Y-125176619D01*
X121345879Y-125183714D01*
X121358622Y-125215614D01*
X121358627Y-125215624D01*
X121392377Y-125266833D01*
X121394818Y-125270863D01*
X121424588Y-125324498D01*
X121424589Y-125324499D01*
X121424591Y-125324502D01*
X121446968Y-125350567D01*
X121451693Y-125356835D01*
X121458834Y-125367669D01*
X121470598Y-125385519D01*
X121513978Y-125428899D01*
X121517169Y-125432343D01*
X121557131Y-125478892D01*
X121557134Y-125478895D01*
X121584294Y-125499918D01*
X121590190Y-125505111D01*
X121828419Y-125743340D01*
X121946593Y-125839698D01*
X122126951Y-125933909D01*
X122322582Y-125989886D01*
X122511117Y-126004243D01*
X122525475Y-126005337D01*
X122525476Y-126005337D01*
X122525477Y-126005337D01*
X122727320Y-125979631D01*
X122727320Y-125979630D01*
X122727327Y-125979630D01*
X122919872Y-125913816D01*
X123095227Y-125810590D01*
X123246213Y-125674179D01*
X123366649Y-125510167D01*
X123451605Y-125325268D01*
X123451784Y-125324500D01*
X123497602Y-125127053D01*
X123498647Y-125085806D01*
X123502756Y-124923636D01*
X123466858Y-124723347D01*
X123391377Y-124534383D01*
X123279402Y-124364481D01*
X123279401Y-124364480D01*
X123279400Y-124364478D01*
X123278399Y-124363250D01*
X123278059Y-124362443D01*
X123275941Y-124359229D01*
X123276539Y-124358834D01*
X123251288Y-124298854D01*
X123250499Y-124284887D01*
X123250499Y-119050858D01*
X123250499Y-113763373D01*
X123250517Y-113761970D01*
X123252756Y-113673637D01*
X123241932Y-113613247D01*
X123241282Y-113608617D01*
X123235074Y-113547562D01*
X123224790Y-113514786D01*
X123222917Y-113507154D01*
X123216858Y-113473349D01*
X123216858Y-113473347D01*
X123194102Y-113416378D01*
X123192521Y-113411937D01*
X123174159Y-113353412D01*
X123174158Y-113353410D01*
X123174157Y-113353407D01*
X123157488Y-113323378D01*
X123154117Y-113316278D01*
X123141378Y-113284386D01*
X123141377Y-113284383D01*
X123107620Y-113233163D01*
X123105180Y-113229134D01*
X123093196Y-113207544D01*
X123075409Y-113175498D01*
X123075407Y-113175495D01*
X123053033Y-113149434D01*
X123048302Y-113143159D01*
X123029402Y-113114481D01*
X122986033Y-113071112D01*
X122982829Y-113067656D01*
X122942867Y-113021106D01*
X122915698Y-113000075D01*
X122909804Y-112994883D01*
X122171582Y-112256662D01*
X122127977Y-112221106D01*
X122053407Y-112160302D01*
X121873049Y-112066091D01*
X121677418Y-112010113D01*
X121677417Y-112010112D01*
X121677416Y-112010112D01*
X121474525Y-111994662D01*
X121474522Y-111994662D01*
X121272678Y-112020368D01*
X121272670Y-112020370D01*
X121080129Y-112086183D01*
X121080117Y-112086189D01*
X120904778Y-112189406D01*
X120904771Y-112189411D01*
X120753787Y-112325820D01*
X120753787Y-112325821D01*
X120633353Y-112489828D01*
X120633349Y-112489835D01*
X120548397Y-112674725D01*
X120548393Y-112674737D01*
X120502396Y-112872945D01*
X120497242Y-113076358D01*
X107950500Y-113076358D01*
X107950500Y-110576370D01*
X136747243Y-110576370D01*
X136758064Y-110636739D01*
X136758718Y-110641404D01*
X136764925Y-110702430D01*
X136764927Y-110702444D01*
X136775208Y-110735213D01*
X136777079Y-110742837D01*
X136783142Y-110776652D01*
X136783142Y-110776655D01*
X136805894Y-110833612D01*
X136807474Y-110838051D01*
X136825841Y-110896588D01*
X136825844Y-110896595D01*
X136842509Y-110926619D01*
X136845879Y-110933714D01*
X136858622Y-110965614D01*
X136858627Y-110965624D01*
X136892377Y-111016833D01*
X136894818Y-111020863D01*
X136924588Y-111074498D01*
X136924589Y-111074499D01*
X136924591Y-111074502D01*
X136946968Y-111100567D01*
X136951693Y-111106835D01*
X136964263Y-111125906D01*
X136970598Y-111135519D01*
X137013978Y-111178899D01*
X137017169Y-111182343D01*
X137057131Y-111228892D01*
X137057130Y-111228892D01*
X137084299Y-111249923D01*
X137090186Y-111255107D01*
X138149558Y-112314478D01*
X139163181Y-113328101D01*
X139196666Y-113389424D01*
X139199500Y-113415782D01*
X139199500Y-119436506D01*
X139199480Y-119438076D01*
X139197243Y-119526362D01*
X139197243Y-119526370D01*
X139205276Y-119571186D01*
X139207964Y-119586184D01*
X139208064Y-119586739D01*
X139208718Y-119591404D01*
X139214925Y-119652430D01*
X139214927Y-119652444D01*
X139225208Y-119685213D01*
X139227079Y-119692837D01*
X139233142Y-119726652D01*
X139233142Y-119726655D01*
X139255894Y-119783612D01*
X139257474Y-119788051D01*
X139275841Y-119846588D01*
X139275844Y-119846595D01*
X139292509Y-119876619D01*
X139295879Y-119883714D01*
X139308622Y-119915614D01*
X139308627Y-119915624D01*
X139342377Y-119966833D01*
X139344818Y-119970863D01*
X139374588Y-120024498D01*
X139374589Y-120024499D01*
X139374591Y-120024502D01*
X139396968Y-120050567D01*
X139401693Y-120056835D01*
X139420599Y-120085520D01*
X139420600Y-120085522D01*
X139463965Y-120128887D01*
X139467168Y-120132343D01*
X139507133Y-120178894D01*
X139534299Y-120199923D01*
X139540186Y-120205107D01*
X140328420Y-120993340D01*
X140446593Y-121089698D01*
X140626951Y-121183909D01*
X140822582Y-121239887D01*
X140881402Y-121244366D01*
X141025474Y-121255337D01*
X141025476Y-121255337D01*
X141025477Y-121255337D01*
X141227321Y-121229631D01*
X141227321Y-121229630D01*
X141227328Y-121229630D01*
X141419872Y-121163816D01*
X141595227Y-121060591D01*
X141746213Y-120924179D01*
X141866649Y-120760167D01*
X141866650Y-120760163D01*
X141866653Y-120760160D01*
X141951102Y-120576363D01*
X141951605Y-120575269D01*
X141997603Y-120377054D01*
X142000287Y-120271105D01*
X142002757Y-120173641D01*
X142002756Y-120173640D01*
X142002757Y-120173637D01*
X141969813Y-119989833D01*
X141966859Y-119973351D01*
X141966857Y-119973344D01*
X141932530Y-119887407D01*
X141891378Y-119784383D01*
X141828494Y-119688969D01*
X141779402Y-119614481D01*
X141236819Y-119071898D01*
X141203334Y-119010575D01*
X141200500Y-118984217D01*
X141200500Y-118452610D01*
X142845780Y-118452610D01*
X142855686Y-118641644D01*
X142855687Y-118641646D01*
X142904679Y-118824487D01*
X142943410Y-118900500D01*
X142984511Y-118981166D01*
X142990620Y-118993154D01*
X143004728Y-119010575D01*
X143079881Y-119103380D01*
X143079889Y-119103388D01*
X145056235Y-121079734D01*
X145068869Y-121094525D01*
X145077112Y-121105871D01*
X145077113Y-121105872D01*
X145128722Y-121152341D01*
X145131078Y-121154577D01*
X145146620Y-121170119D01*
X145163648Y-121183909D01*
X145163702Y-121183952D01*
X145166170Y-121186060D01*
X145217781Y-121232531D01*
X145217782Y-121232531D01*
X145217784Y-121232533D01*
X145229918Y-121239538D01*
X145245955Y-121250560D01*
X145256849Y-121259382D01*
X145256851Y-121259383D01*
X145318747Y-121290920D01*
X145321552Y-121292443D01*
X145340998Y-121303670D01*
X145381707Y-121327175D01*
X145381712Y-121327177D01*
X145381713Y-121327177D01*
X145381716Y-121327179D01*
X145395050Y-121331511D01*
X145413022Y-121338956D01*
X145425512Y-121345320D01*
X145451281Y-121352225D01*
X145492596Y-121363296D01*
X145495708Y-121364218D01*
X145561741Y-121385673D01*
X145561744Y-121385674D01*
X145575684Y-121387138D01*
X145594812Y-121390684D01*
X145608354Y-121394313D01*
X145677720Y-121397947D01*
X145680935Y-121398200D01*
X145702808Y-121400500D01*
X145724797Y-121400500D01*
X145728040Y-121400584D01*
X145797388Y-121404219D01*
X145811227Y-121402027D01*
X145830627Y-121400500D01*
X154047188Y-121400500D01*
X154047192Y-121400500D01*
X154188256Y-121385674D01*
X154368284Y-121327179D01*
X154532216Y-121232533D01*
X154672888Y-121105871D01*
X154784151Y-120952730D01*
X154861144Y-120779803D01*
X154900500Y-120594646D01*
X154900500Y-120405354D01*
X154861144Y-120220197D01*
X154852117Y-120199923D01*
X154784151Y-120047270D01*
X154784148Y-120047265D01*
X154672888Y-119894129D01*
X154620096Y-119846595D01*
X154532216Y-119767467D01*
X154368284Y-119672821D01*
X154368277Y-119672818D01*
X154188259Y-119614327D01*
X154188256Y-119614326D01*
X154047192Y-119599500D01*
X154047188Y-119599500D01*
X146174361Y-119599500D01*
X146107322Y-119579815D01*
X146086680Y-119563181D01*
X145635680Y-119112181D01*
X145602195Y-119050858D01*
X145607179Y-118981166D01*
X145649051Y-118925233D01*
X145714515Y-118900816D01*
X145723361Y-118900500D01*
X150419373Y-118900500D01*
X150438772Y-118902027D01*
X150452612Y-118904219D01*
X150521959Y-118900584D01*
X150525203Y-118900500D01*
X150547191Y-118900500D01*
X150547192Y-118900500D01*
X150563988Y-118898734D01*
X150569064Y-118898201D01*
X150572284Y-118897947D01*
X150641646Y-118894313D01*
X150655187Y-118890683D01*
X150674313Y-118887138D01*
X150688256Y-118885674D01*
X150754306Y-118864212D01*
X150757368Y-118863304D01*
X150824488Y-118845320D01*
X150836976Y-118838956D01*
X150854950Y-118831510D01*
X150868284Y-118827179D01*
X150928476Y-118792425D01*
X150931222Y-118790934D01*
X150993149Y-118759383D01*
X151004031Y-118750569D01*
X151020083Y-118739537D01*
X151032216Y-118732533D01*
X151083847Y-118686043D01*
X151086260Y-118683982D01*
X151103380Y-118670119D01*
X151118929Y-118654568D01*
X151121270Y-118652347D01*
X151172888Y-118605871D01*
X151181130Y-118594525D01*
X151193760Y-118579737D01*
X151579742Y-118193756D01*
X151594525Y-118181130D01*
X151605871Y-118172888D01*
X151652367Y-118121247D01*
X151654531Y-118118966D01*
X151670120Y-118103380D01*
X151683975Y-118086268D01*
X151686054Y-118083834D01*
X151732533Y-118032216D01*
X151739537Y-118020083D01*
X151750563Y-118004041D01*
X151759382Y-117993150D01*
X151790914Y-117931263D01*
X151792442Y-117928447D01*
X151827179Y-117868284D01*
X151831509Y-117854956D01*
X151838960Y-117836969D01*
X151845319Y-117824489D01*
X151845320Y-117824488D01*
X151863296Y-117757397D01*
X151864214Y-117754301D01*
X151867296Y-117744815D01*
X151885674Y-117688256D01*
X151887138Y-117674317D01*
X151890687Y-117655175D01*
X151894313Y-117641645D01*
X151897947Y-117572281D01*
X151898201Y-117569064D01*
X151900499Y-117547199D01*
X151900500Y-117547191D01*
X151900500Y-117525201D01*
X151900585Y-117521956D01*
X151904219Y-117452612D01*
X151902027Y-117438772D01*
X151900500Y-117419373D01*
X151900500Y-114952811D01*
X151900500Y-114952808D01*
X151885674Y-114811744D01*
X151827179Y-114631716D01*
X151732533Y-114467784D01*
X151605871Y-114327112D01*
X151605870Y-114327111D01*
X151452734Y-114215851D01*
X151452729Y-114215848D01*
X151279807Y-114138857D01*
X151279802Y-114138855D01*
X151134001Y-114107865D01*
X151094646Y-114099500D01*
X150905354Y-114099500D01*
X150872897Y-114106398D01*
X150720197Y-114138855D01*
X150720192Y-114138857D01*
X150547270Y-114215848D01*
X150547265Y-114215851D01*
X150394129Y-114327111D01*
X150267466Y-114467785D01*
X150172821Y-114631715D01*
X150172818Y-114631722D01*
X150127444Y-114771371D01*
X150114326Y-114811744D01*
X150099500Y-114952808D01*
X150099500Y-114952811D01*
X150099500Y-116182471D01*
X150079815Y-116249510D01*
X150027011Y-116295265D01*
X149957853Y-116305209D01*
X149894297Y-116276184D01*
X149859736Y-116226909D01*
X149841796Y-116180175D01*
X149806771Y-116088930D01*
X149703674Y-115930175D01*
X149569825Y-115796326D01*
X149411070Y-115693229D01*
X149310641Y-115654678D01*
X149234349Y-115625392D01*
X149234346Y-115625391D01*
X149047390Y-115595781D01*
X149047389Y-115595781D01*
X149047388Y-115595781D01*
X149036322Y-115596360D01*
X148858357Y-115605687D01*
X148858350Y-115605688D01*
X148675515Y-115654678D01*
X148506845Y-115740620D01*
X148439843Y-115794878D01*
X148406517Y-115821865D01*
X148342033Y-115848757D01*
X148328483Y-115849500D01*
X146424362Y-115849500D01*
X146357323Y-115829815D01*
X146336681Y-115813181D01*
X145603388Y-115079889D01*
X145603380Y-115079881D01*
X145561943Y-115046326D01*
X145493154Y-114990620D01*
X145493150Y-114990618D01*
X145493149Y-114990617D01*
X145400145Y-114943229D01*
X145324487Y-114904679D01*
X145141646Y-114855687D01*
X145141644Y-114855686D01*
X144952610Y-114845780D01*
X144952608Y-114845781D01*
X144765653Y-114875391D01*
X144765650Y-114875392D01*
X144588927Y-114943230D01*
X144430173Y-115046327D01*
X144296327Y-115180173D01*
X144193230Y-115338927D01*
X144125392Y-115515650D01*
X144125391Y-115515653D01*
X144095781Y-115702608D01*
X144095780Y-115702611D01*
X144097892Y-115742909D01*
X144081742Y-115810886D01*
X144031404Y-115859341D01*
X143962861Y-115872889D01*
X143941968Y-115869171D01*
X143891646Y-115855687D01*
X143891644Y-115855686D01*
X143702610Y-115845780D01*
X143702608Y-115845781D01*
X143515653Y-115875391D01*
X143515650Y-115875392D01*
X143338927Y-115943230D01*
X143180173Y-116046327D01*
X143046327Y-116180173D01*
X142943230Y-116338927D01*
X142875392Y-116515650D01*
X142875391Y-116515653D01*
X142845781Y-116702608D01*
X142845780Y-116702610D01*
X142855686Y-116891644D01*
X142855687Y-116891646D01*
X142904679Y-117074487D01*
X142990620Y-117243154D01*
X143046734Y-117312448D01*
X143079881Y-117353380D01*
X143079889Y-117353388D01*
X143279640Y-117553139D01*
X143313125Y-117614462D01*
X143308141Y-117684154D01*
X143266269Y-117740087D01*
X143259495Y-117744815D01*
X143180173Y-117796327D01*
X143046327Y-117930173D01*
X142943230Y-118088927D01*
X142875392Y-118265650D01*
X142875391Y-118265653D01*
X142845781Y-118452608D01*
X142845780Y-118452610D01*
X141200500Y-118452610D01*
X141200500Y-112963452D01*
X141200520Y-112961881D01*
X141202142Y-112897870D01*
X152649500Y-112897870D01*
X152649501Y-112897876D01*
X152655908Y-112957483D01*
X152706202Y-113092328D01*
X152706206Y-113092335D01*
X152792452Y-113207544D01*
X152792455Y-113207547D01*
X152907664Y-113293793D01*
X152907671Y-113293797D01*
X153042517Y-113344091D01*
X153042516Y-113344091D01*
X153049444Y-113344835D01*
X153102127Y-113350500D01*
X154897872Y-113350499D01*
X154957483Y-113344091D01*
X155092331Y-113293796D01*
X155207546Y-113207546D01*
X155293796Y-113092331D01*
X155344091Y-112957483D01*
X155350500Y-112897873D01*
X155350499Y-111102128D01*
X155344091Y-111042517D01*
X155335246Y-111018803D01*
X155293797Y-110907671D01*
X155293793Y-110907664D01*
X155207547Y-110792455D01*
X155207544Y-110792452D01*
X155092335Y-110706206D01*
X155092328Y-110706202D01*
X154957482Y-110655908D01*
X154957483Y-110655908D01*
X154897883Y-110649501D01*
X154897881Y-110649500D01*
X154897873Y-110649500D01*
X154897864Y-110649500D01*
X153102129Y-110649500D01*
X153102123Y-110649501D01*
X153042516Y-110655908D01*
X152907671Y-110706202D01*
X152907664Y-110706206D01*
X152792455Y-110792452D01*
X152792452Y-110792455D01*
X152706206Y-110907664D01*
X152706202Y-110907671D01*
X152655908Y-111042517D01*
X152652470Y-111074500D01*
X152649501Y-111102123D01*
X152649500Y-111102135D01*
X152649500Y-112897870D01*
X141202142Y-112897870D01*
X141202756Y-112873637D01*
X141191932Y-112813247D01*
X141191282Y-112808617D01*
X141185074Y-112747562D01*
X141174790Y-112714786D01*
X141172917Y-112707154D01*
X141166858Y-112673349D01*
X141166858Y-112673347D01*
X141144102Y-112616378D01*
X141142521Y-112611937D01*
X141124157Y-112553407D01*
X141107488Y-112523378D01*
X141104117Y-112516278D01*
X141091378Y-112484386D01*
X141091377Y-112484383D01*
X141057620Y-112433163D01*
X141055180Y-112429134D01*
X141044379Y-112409675D01*
X141025409Y-112375498D01*
X141025407Y-112375495D01*
X141003033Y-112349434D01*
X140998302Y-112343159D01*
X140979402Y-112314481D01*
X140936012Y-112271091D01*
X140932822Y-112267648D01*
X140892867Y-112221106D01*
X140892863Y-112221102D01*
X140865698Y-112200074D01*
X140859803Y-112194882D01*
X138786819Y-110121897D01*
X138753334Y-110060574D01*
X138750500Y-110034216D01*
X138750500Y-105449256D01*
X138735074Y-105297560D01*
X138674162Y-105103420D01*
X138674160Y-105103416D01*
X138674159Y-105103412D01*
X138575409Y-104925498D01*
X138575408Y-104925497D01*
X138575407Y-104925495D01*
X138442867Y-104771106D01*
X138442865Y-104771104D01*
X138281962Y-104646554D01*
X138281959Y-104646553D01*
X138281958Y-104646552D01*
X138099271Y-104556940D01*
X137902285Y-104505937D01*
X137902287Y-104505937D01*
X137766804Y-104499066D01*
X137699064Y-104495631D01*
X137699063Y-104495631D01*
X137699061Y-104495631D01*
X137497936Y-104526442D01*
X137497924Y-104526445D01*
X137307118Y-104597111D01*
X137307111Y-104597115D01*
X137134432Y-104704745D01*
X137134427Y-104704749D01*
X136986949Y-104844938D01*
X136986948Y-104844940D01*
X136870705Y-105011949D01*
X136790459Y-105198943D01*
X136749500Y-105398258D01*
X136749500Y-110486506D01*
X136749480Y-110488076D01*
X136747243Y-110576362D01*
X136747243Y-110576370D01*
X107950500Y-110576370D01*
X107950500Y-102775477D01*
X123494662Y-102775477D01*
X123520368Y-102977321D01*
X123520370Y-102977329D01*
X123586183Y-103169870D01*
X123586189Y-103169882D01*
X123689406Y-103345221D01*
X123689411Y-103345228D01*
X123825820Y-103496212D01*
X123989828Y-103616646D01*
X123989835Y-103616650D01*
X124105689Y-103669882D01*
X124174732Y-103701605D01*
X124240456Y-103716857D01*
X124372945Y-103747603D01*
X124576358Y-103752757D01*
X124576358Y-103752756D01*
X124576363Y-103752757D01*
X124755853Y-103720586D01*
X124776648Y-103716859D01*
X124776648Y-103716858D01*
X124776653Y-103716858D01*
X124965617Y-103641377D01*
X125003138Y-103616649D01*
X125135516Y-103529404D01*
X125135516Y-103529403D01*
X125135519Y-103529402D01*
X125448001Y-103216918D01*
X125449014Y-103215931D01*
X125513053Y-103155059D01*
X125548097Y-103104709D01*
X125550924Y-103100957D01*
X125589698Y-103053407D01*
X125605607Y-103022948D01*
X125609667Y-103016248D01*
X125629295Y-102988049D01*
X125653492Y-102931660D01*
X125655498Y-102927435D01*
X125683909Y-102873049D01*
X125693357Y-102840022D01*
X125695988Y-102832633D01*
X125709540Y-102801058D01*
X125721895Y-102740930D01*
X125722999Y-102736429D01*
X125739886Y-102677418D01*
X125742494Y-102643157D01*
X125743585Y-102635389D01*
X125750500Y-102601743D01*
X125750500Y-102540398D01*
X125750679Y-102535688D01*
X125753456Y-102499219D01*
X125755337Y-102474524D01*
X125750997Y-102440442D01*
X125750500Y-102432603D01*
X125750500Y-97576358D01*
X126247242Y-97576358D01*
X126283140Y-97776648D01*
X126283142Y-97776654D01*
X126358623Y-97965616D01*
X126358629Y-97965628D01*
X126470596Y-98135517D01*
X126470599Y-98135521D01*
X127713180Y-99378101D01*
X127746665Y-99439424D01*
X127749499Y-99465782D01*
X127749499Y-102638978D01*
X127735408Y-102696389D01*
X127641090Y-102876951D01*
X127585112Y-103072584D01*
X127569662Y-103275474D01*
X127569662Y-103275477D01*
X127595368Y-103477321D01*
X127595370Y-103477329D01*
X127661183Y-103669870D01*
X127661189Y-103669882D01*
X127764406Y-103845221D01*
X127764411Y-103845228D01*
X127900820Y-103996212D01*
X128064828Y-104116646D01*
X128064832Y-104116648D01*
X128064833Y-104116649D01*
X128249732Y-104201605D01*
X128315456Y-104216857D01*
X128447945Y-104247603D01*
X128651358Y-104252757D01*
X128651358Y-104252756D01*
X128651363Y-104252757D01*
X128830853Y-104220586D01*
X128851648Y-104216859D01*
X128851648Y-104216858D01*
X128851653Y-104216858D01*
X129040617Y-104141377D01*
X129078138Y-104116649D01*
X129210516Y-104029404D01*
X129210516Y-104029403D01*
X129210519Y-104029402D01*
X129448001Y-103791918D01*
X129449014Y-103790931D01*
X129513053Y-103730059D01*
X129548097Y-103679709D01*
X129550924Y-103675957D01*
X129589698Y-103628407D01*
X129605607Y-103597948D01*
X129609667Y-103591248D01*
X129629295Y-103563049D01*
X129653492Y-103506660D01*
X129655498Y-103502435D01*
X129683909Y-103448049D01*
X129693357Y-103415022D01*
X129695988Y-103407633D01*
X129709540Y-103376058D01*
X129721895Y-103315930D01*
X129722999Y-103311429D01*
X129739886Y-103252418D01*
X129742494Y-103218157D01*
X129743585Y-103210389D01*
X129750500Y-103176743D01*
X129750500Y-103115398D01*
X129750679Y-103110688D01*
X129751230Y-103103448D01*
X129755337Y-103049524D01*
X129750995Y-103015430D01*
X129750499Y-103007619D01*
X129750500Y-99013451D01*
X129750520Y-99011881D01*
X129752756Y-98923642D01*
X129752755Y-98923641D01*
X129752756Y-98923636D01*
X129741929Y-98863233D01*
X129741282Y-98858620D01*
X129735074Y-98797562D01*
X129735073Y-98797559D01*
X129735073Y-98797557D01*
X129724790Y-98764787D01*
X129722917Y-98757154D01*
X129716858Y-98723348D01*
X129716856Y-98723344D01*
X129694102Y-98666378D01*
X129692521Y-98661937D01*
X129674157Y-98603407D01*
X129664000Y-98585110D01*
X129657485Y-98573371D01*
X129654117Y-98566278D01*
X129649273Y-98554152D01*
X129641377Y-98534383D01*
X129607618Y-98483159D01*
X129605180Y-98479134D01*
X129594379Y-98459675D01*
X129575409Y-98425498D01*
X129575407Y-98425495D01*
X129553033Y-98399434D01*
X129548302Y-98393159D01*
X129529402Y-98364481D01*
X129486012Y-98321091D01*
X129482822Y-98317648D01*
X129442867Y-98271106D01*
X129442863Y-98271102D01*
X129415698Y-98250074D01*
X129409811Y-98244890D01*
X127921580Y-96756660D01*
X127803407Y-96660302D01*
X127623049Y-96566091D01*
X127427418Y-96510113D01*
X127427417Y-96510112D01*
X127427416Y-96510112D01*
X127224525Y-96494662D01*
X127224522Y-96494662D01*
X127022678Y-96520368D01*
X127022670Y-96520370D01*
X126830129Y-96586183D01*
X126830117Y-96586189D01*
X126654778Y-96689406D01*
X126654771Y-96689411D01*
X126503787Y-96825820D01*
X126503787Y-96825821D01*
X126383353Y-96989828D01*
X126383349Y-96989835D01*
X126298397Y-97174725D01*
X126298393Y-97174737D01*
X126252396Y-97372945D01*
X126247242Y-97576358D01*
X125750500Y-97576358D01*
X125750500Y-94949256D01*
X125735074Y-94797560D01*
X125674162Y-94603420D01*
X125674160Y-94603416D01*
X125674159Y-94603412D01*
X125575409Y-94425498D01*
X125575408Y-94425497D01*
X125575407Y-94425495D01*
X125442867Y-94271106D01*
X125442865Y-94271104D01*
X125281962Y-94146554D01*
X125281959Y-94146553D01*
X125281958Y-94146552D01*
X125099271Y-94056940D01*
X124902285Y-94005937D01*
X124902287Y-94005937D01*
X124766804Y-93999066D01*
X124699064Y-93995631D01*
X124699063Y-93995631D01*
X124699061Y-93995631D01*
X124497936Y-94026442D01*
X124497924Y-94026445D01*
X124307118Y-94097111D01*
X124307111Y-94097115D01*
X124134432Y-94204745D01*
X124134427Y-94204749D01*
X123986949Y-94344938D01*
X123986947Y-94344940D01*
X123986947Y-94344941D01*
X123981026Y-94353448D01*
X123870705Y-94511949D01*
X123790459Y-94698943D01*
X123749500Y-94898258D01*
X123749500Y-102043053D01*
X123729815Y-102110092D01*
X123721602Y-102121413D01*
X123660305Y-102196587D01*
X123566090Y-102376953D01*
X123510112Y-102572584D01*
X123494662Y-102775474D01*
X123494662Y-102775477D01*
X107950500Y-102775477D01*
X107950500Y-92201370D01*
X119997243Y-92201370D01*
X120008064Y-92261739D01*
X120008718Y-92266404D01*
X120014925Y-92327430D01*
X120014927Y-92327444D01*
X120025208Y-92360213D01*
X120027079Y-92367837D01*
X120032002Y-92395294D01*
X120032676Y-92399056D01*
X120033142Y-92401652D01*
X120033142Y-92401655D01*
X120048710Y-92440629D01*
X120052079Y-92449063D01*
X120055894Y-92458612D01*
X120057474Y-92463051D01*
X120075841Y-92521588D01*
X120075844Y-92521595D01*
X120092509Y-92551619D01*
X120095879Y-92558714D01*
X120108622Y-92590614D01*
X120108627Y-92590624D01*
X120142377Y-92641833D01*
X120144818Y-92645863D01*
X120174588Y-92699498D01*
X120174589Y-92699499D01*
X120174591Y-92699502D01*
X120196968Y-92725567D01*
X120201693Y-92731835D01*
X120214263Y-92750906D01*
X120220598Y-92760519D01*
X120263978Y-92803899D01*
X120267169Y-92807343D01*
X120307131Y-92853892D01*
X120307130Y-92853892D01*
X120334299Y-92874923D01*
X120340186Y-92880107D01*
X120847001Y-93386921D01*
X121213181Y-93753101D01*
X121246666Y-93814424D01*
X121249500Y-93840782D01*
X121249500Y-100050743D01*
X121264925Y-100202439D01*
X121325837Y-100396579D01*
X121325844Y-100396594D01*
X121424589Y-100574499D01*
X121424592Y-100574504D01*
X121557132Y-100728893D01*
X121557134Y-100728895D01*
X121718037Y-100853445D01*
X121718038Y-100853445D01*
X121718042Y-100853448D01*
X121900729Y-100943060D01*
X122097715Y-100994063D01*
X122300936Y-101004369D01*
X122502071Y-100973556D01*
X122692887Y-100902886D01*
X122865571Y-100795252D01*
X123013053Y-100655059D01*
X123129295Y-100488049D01*
X123209540Y-100301058D01*
X123250500Y-100101741D01*
X123250500Y-93388490D01*
X123250520Y-93386921D01*
X123252757Y-93298641D01*
X123252756Y-93298640D01*
X123252757Y-93298637D01*
X123241933Y-93238249D01*
X123241280Y-93233587D01*
X123235074Y-93172563D01*
X123235074Y-93172562D01*
X123224784Y-93139768D01*
X123222917Y-93132155D01*
X123216858Y-93098347D01*
X123216857Y-93098345D01*
X123208076Y-93076363D01*
X123194100Y-93041374D01*
X123192521Y-93036938D01*
X123188924Y-93025474D01*
X123174159Y-92978412D01*
X123174158Y-92978410D01*
X123174157Y-92978407D01*
X123157488Y-92948378D01*
X123154117Y-92941278D01*
X123141378Y-92909386D01*
X123141377Y-92909383D01*
X123107620Y-92858163D01*
X123105180Y-92854134D01*
X123094379Y-92834675D01*
X123075409Y-92800498D01*
X123075407Y-92800495D01*
X123053033Y-92774434D01*
X123048302Y-92768159D01*
X123043805Y-92761336D01*
X123029402Y-92739481D01*
X123002102Y-92712181D01*
X122968617Y-92650858D01*
X122973601Y-92581166D01*
X123015473Y-92525233D01*
X123080937Y-92500816D01*
X123089783Y-92500500D01*
X125875500Y-92500500D01*
X125942539Y-92520185D01*
X125988294Y-92572989D01*
X125999500Y-92624500D01*
X125999500Y-93486506D01*
X125999480Y-93488076D01*
X125997243Y-93576362D01*
X125997243Y-93576370D01*
X126001791Y-93601741D01*
X126007845Y-93635521D01*
X126008064Y-93636739D01*
X126008718Y-93641404D01*
X126014925Y-93702430D01*
X126014927Y-93702444D01*
X126025208Y-93735213D01*
X126027079Y-93742837D01*
X126033142Y-93776652D01*
X126033142Y-93776655D01*
X126055894Y-93833612D01*
X126057474Y-93838051D01*
X126075841Y-93896588D01*
X126075844Y-93896595D01*
X126092509Y-93926619D01*
X126095879Y-93933714D01*
X126108622Y-93965614D01*
X126108627Y-93965624D01*
X126142377Y-94016833D01*
X126144818Y-94020863D01*
X126174588Y-94074498D01*
X126174589Y-94074499D01*
X126174591Y-94074502D01*
X126196968Y-94100567D01*
X126201693Y-94106835D01*
X126214263Y-94125906D01*
X126220598Y-94135519D01*
X126263978Y-94178899D01*
X126267169Y-94182343D01*
X126307131Y-94228892D01*
X126307134Y-94228895D01*
X126334294Y-94249918D01*
X126340190Y-94255111D01*
X131463181Y-99378102D01*
X131496666Y-99439425D01*
X131499500Y-99465783D01*
X131499500Y-102197798D01*
X131499201Y-102203878D01*
X131494659Y-102249999D01*
X131494659Y-102250000D01*
X131499189Y-102295999D01*
X131499408Y-102298938D01*
X131499499Y-102300739D01*
X131504434Y-102349276D01*
X131504371Y-102349282D01*
X131504473Y-102349661D01*
X131504474Y-102349663D01*
X131512643Y-102432603D01*
X131513976Y-102446130D01*
X131514034Y-102446419D01*
X131514904Y-102452228D01*
X131514924Y-102452429D01*
X131514927Y-102452441D01*
X131543938Y-102544906D01*
X131571184Y-102634722D01*
X131573980Y-102641473D01*
X131575816Y-102646528D01*
X131575841Y-102646588D01*
X131621387Y-102728649D01*
X131646418Y-102775477D01*
X131664089Y-102808537D01*
X131667474Y-102813602D01*
X131667271Y-102813737D01*
X131674454Y-102824304D01*
X131674588Y-102824497D01*
X131674591Y-102824502D01*
X131674593Y-102824504D01*
X131733225Y-102892804D01*
X131734108Y-102893856D01*
X131789117Y-102960884D01*
X131789395Y-102961112D01*
X131804810Y-102976188D01*
X131807134Y-102978895D01*
X131807137Y-102978897D01*
X131875639Y-103031923D01*
X131877005Y-103033011D01*
X131941462Y-103085910D01*
X131944939Y-103087768D01*
X131962389Y-103099072D01*
X131968042Y-103103448D01*
X131993014Y-103115697D01*
X132042778Y-103140107D01*
X132044701Y-103141092D01*
X132115271Y-103178813D01*
X132115273Y-103178814D01*
X132122477Y-103180999D01*
X132141093Y-103188333D01*
X132150729Y-103193060D01*
X132228088Y-103213089D01*
X132230484Y-103213763D01*
X132303868Y-103236024D01*
X132312956Y-103236918D01*
X132314926Y-103237113D01*
X132333854Y-103240474D01*
X132347711Y-103244062D01*
X132347715Y-103244063D01*
X132424133Y-103247938D01*
X132427034Y-103248154D01*
X132500000Y-103255341D01*
X132514630Y-103253899D01*
X132533056Y-103253462D01*
X132550936Y-103254369D01*
X132623253Y-103243289D01*
X132626525Y-103242879D01*
X132696132Y-103236024D01*
X132713632Y-103230714D01*
X132730837Y-103226808D01*
X132752071Y-103223556D01*
X132817515Y-103199317D01*
X132821019Y-103198138D01*
X132884727Y-103178814D01*
X132907730Y-103166517D01*
X132915421Y-103163057D01*
X132942887Y-103152886D01*
X132942891Y-103152883D01*
X132942894Y-103152882D01*
X132999238Y-103117762D01*
X133002801Y-103115701D01*
X133058538Y-103085910D01*
X133081310Y-103067220D01*
X133087840Y-103062535D01*
X133115571Y-103045252D01*
X133161288Y-103001793D01*
X133164631Y-102998839D01*
X133210883Y-102960883D01*
X133231717Y-102935495D01*
X133236915Y-102929904D01*
X133263053Y-102905059D01*
X133297143Y-102856079D01*
X133300088Y-102852185D01*
X133335910Y-102808538D01*
X133352989Y-102776582D01*
X133356770Y-102770410D01*
X133379295Y-102738049D01*
X133401504Y-102686293D01*
X133403783Y-102681554D01*
X133428814Y-102634727D01*
X133440309Y-102596828D01*
X133442656Y-102590398D01*
X133459540Y-102551058D01*
X133470196Y-102499201D01*
X133471587Y-102493723D01*
X133486024Y-102446132D01*
X133490237Y-102403345D01*
X133491202Y-102396982D01*
X133500500Y-102351741D01*
X133500500Y-102302200D01*
X133500799Y-102296119D01*
X133501871Y-102285230D01*
X133505341Y-102250000D01*
X133500797Y-102203865D01*
X133500499Y-102197818D01*
X133500499Y-99013492D01*
X133500519Y-99011922D01*
X133502757Y-98923642D01*
X133502756Y-98923641D01*
X133502757Y-98923637D01*
X133491930Y-98863234D01*
X133491279Y-98858590D01*
X133485074Y-98797562D01*
X133474790Y-98764786D01*
X133472920Y-98757168D01*
X133466859Y-98723348D01*
X133466858Y-98723346D01*
X133466858Y-98723344D01*
X133444098Y-98666366D01*
X133442517Y-98661925D01*
X133424160Y-98603415D01*
X133424159Y-98603414D01*
X133424159Y-98603412D01*
X133407482Y-98573366D01*
X133404122Y-98566288D01*
X133404118Y-98566278D01*
X133391378Y-98534383D01*
X133391375Y-98534378D01*
X133391374Y-98534376D01*
X133378853Y-98515378D01*
X133357605Y-98483139D01*
X133355179Y-98479134D01*
X133325409Y-98425498D01*
X133303034Y-98399434D01*
X133298306Y-98393163D01*
X133279404Y-98364484D01*
X133279399Y-98364478D01*
X133257715Y-98342795D01*
X133236019Y-98321099D01*
X133232828Y-98317655D01*
X133192865Y-98271104D01*
X133165694Y-98250072D01*
X133159807Y-98244887D01*
X132475780Y-97560860D01*
X132442295Y-97499537D01*
X132447279Y-97429845D01*
X132489151Y-97373912D01*
X132500552Y-97366322D01*
X132547230Y-97338844D01*
X132595221Y-97310595D01*
X132595222Y-97310593D01*
X132595227Y-97310591D01*
X132746214Y-97174179D01*
X132866649Y-97010167D01*
X132951606Y-96825269D01*
X132997603Y-96627054D01*
X133002757Y-96423637D01*
X132966859Y-96223348D01*
X132931653Y-96135212D01*
X132925066Y-96065657D01*
X132957130Y-96003578D01*
X133003734Y-95972939D01*
X133192887Y-95902886D01*
X133365571Y-95795252D01*
X133513053Y-95655059D01*
X133629295Y-95488049D01*
X133709540Y-95301058D01*
X133750500Y-95101741D01*
X133750500Y-94215778D01*
X133770183Y-94148743D01*
X133786813Y-94128106D01*
X134839190Y-93075729D01*
X134900511Y-93042246D01*
X134970203Y-93047230D01*
X135026136Y-93089102D01*
X135048924Y-93141536D01*
X135073140Y-93276648D01*
X135073142Y-93276654D01*
X135148623Y-93465616D01*
X135148629Y-93465628D01*
X135260596Y-93635517D01*
X135260599Y-93635521D01*
X135551698Y-93926619D01*
X136323042Y-94697963D01*
X136324101Y-94699050D01*
X136384937Y-94763050D01*
X136384941Y-94763053D01*
X136435281Y-94798092D01*
X136439043Y-94800928D01*
X136486587Y-94839694D01*
X136486590Y-94839695D01*
X136486593Y-94839698D01*
X136517045Y-94855604D01*
X136523758Y-94859672D01*
X136551951Y-94879295D01*
X136608329Y-94903489D01*
X136612578Y-94905507D01*
X136666951Y-94933909D01*
X136694489Y-94941788D01*
X136699974Y-94943358D01*
X136707368Y-94945990D01*
X136738942Y-94959540D01*
X136738945Y-94959540D01*
X136738946Y-94959541D01*
X136799022Y-94971887D01*
X136803600Y-94973010D01*
X136805704Y-94973612D01*
X136862582Y-94989887D01*
X136896839Y-94992495D01*
X136904614Y-94993586D01*
X136938255Y-95000500D01*
X136938259Y-95000500D01*
X136999599Y-95000500D01*
X137004305Y-95000678D01*
X137031596Y-95002757D01*
X137065476Y-95005337D01*
X137065476Y-95005336D01*
X137065477Y-95005337D01*
X137099560Y-95000996D01*
X137107390Y-95000500D01*
X141486507Y-95000500D01*
X141488069Y-95000519D01*
X141525283Y-95001462D01*
X141576358Y-95002757D01*
X141576358Y-95002756D01*
X141576363Y-95002757D01*
X141636753Y-94991932D01*
X141641412Y-94991280D01*
X141683607Y-94986988D01*
X141702438Y-94985074D01*
X141735227Y-94974786D01*
X141742840Y-94972918D01*
X141776653Y-94966858D01*
X141833621Y-94944101D01*
X141838053Y-94942524D01*
X141896588Y-94924159D01*
X141926627Y-94907484D01*
X141933708Y-94904122D01*
X141965617Y-94891377D01*
X142016854Y-94857608D01*
X142020851Y-94855187D01*
X142074502Y-94825409D01*
X142100568Y-94803030D01*
X142106843Y-94798300D01*
X142107966Y-94797560D01*
X142135519Y-94779402D01*
X142178892Y-94736027D01*
X142182350Y-94732823D01*
X142221691Y-94699050D01*
X142228895Y-94692866D01*
X142249928Y-94665691D01*
X142255098Y-94659821D01*
X144743340Y-92171580D01*
X144839698Y-92053407D01*
X144933909Y-91873049D01*
X144989887Y-91677418D01*
X145005337Y-91474524D01*
X145005164Y-91473168D01*
X144979631Y-91272678D01*
X144979630Y-91272676D01*
X144979630Y-91272672D01*
X144956094Y-91203818D01*
X144953038Y-91134016D01*
X144988205Y-91073641D01*
X145050430Y-91041864D01*
X145119957Y-91048772D01*
X145161110Y-91076030D01*
X145218255Y-91133175D01*
X145218276Y-91133198D01*
X145713181Y-91628101D01*
X145746666Y-91689424D01*
X145749500Y-91715782D01*
X145749500Y-93550743D01*
X145764925Y-93702439D01*
X145825837Y-93896579D01*
X145825844Y-93896594D01*
X145924589Y-94074499D01*
X145924592Y-94074504D01*
X146057132Y-94228893D01*
X146057134Y-94228895D01*
X146218037Y-94353445D01*
X146218038Y-94353445D01*
X146218042Y-94353448D01*
X146400729Y-94443060D01*
X146597715Y-94494063D01*
X146800936Y-94504369D01*
X147002071Y-94473556D01*
X147192887Y-94402886D01*
X147365571Y-94295252D01*
X147513053Y-94155059D01*
X147629295Y-93988049D01*
X147709540Y-93801058D01*
X147750500Y-93601741D01*
X147750500Y-91263453D01*
X147750520Y-91261883D01*
X147752756Y-91173637D01*
X147741932Y-91113247D01*
X147741282Y-91108617D01*
X147735074Y-91047562D01*
X147724790Y-91014786D01*
X147722917Y-91007154D01*
X147718030Y-90979888D01*
X147716858Y-90973347D01*
X147694102Y-90916378D01*
X147692521Y-90911937D01*
X147686312Y-90892147D01*
X147674159Y-90853412D01*
X147674158Y-90853410D01*
X147674157Y-90853407D01*
X147657488Y-90823378D01*
X147654117Y-90816278D01*
X147641378Y-90784386D01*
X147641377Y-90784383D01*
X147607620Y-90733163D01*
X147605180Y-90729134D01*
X147590598Y-90702863D01*
X147575409Y-90675498D01*
X147575407Y-90675495D01*
X147553033Y-90649434D01*
X147548302Y-90643159D01*
X147541299Y-90632533D01*
X147529402Y-90614481D01*
X147486033Y-90571112D01*
X147482829Y-90567656D01*
X147442867Y-90521106D01*
X147434883Y-90514926D01*
X147415698Y-90500075D01*
X147409804Y-90494883D01*
X146786472Y-89871552D01*
X146786470Y-89871549D01*
X145967011Y-89052091D01*
X145965914Y-89050966D01*
X145905061Y-88986949D01*
X145905060Y-88986948D01*
X145905059Y-88986947D01*
X145874652Y-88965783D01*
X145854709Y-88951902D01*
X145850946Y-88949064D01*
X145803413Y-88910305D01*
X145803406Y-88910300D01*
X145772959Y-88894397D01*
X145766251Y-88890334D01*
X145738049Y-88870705D01*
X145738046Y-88870703D01*
X145738045Y-88870703D01*
X145738041Y-88870701D01*
X145681680Y-88846514D01*
X145677424Y-88844493D01*
X145623057Y-88816094D01*
X145623050Y-88816091D01*
X145623049Y-88816091D01*
X145617008Y-88814362D01*
X145590030Y-88806642D01*
X145582630Y-88804008D01*
X145551057Y-88790459D01*
X145551058Y-88790459D01*
X145490966Y-88778109D01*
X145486391Y-88776986D01*
X145427420Y-88760113D01*
X145427425Y-88760113D01*
X145393158Y-88757503D01*
X145385380Y-88756412D01*
X145351742Y-88749500D01*
X145351741Y-88749500D01*
X145290402Y-88749500D01*
X145285695Y-88749321D01*
X145280121Y-88748896D01*
X145224524Y-88744662D01*
X145204589Y-88747201D01*
X145190440Y-88749003D01*
X145182611Y-88749500D01*
X143263453Y-88749500D01*
X143261891Y-88749480D01*
X143173637Y-88747244D01*
X143173626Y-88747245D01*
X143113271Y-88758062D01*
X143108607Y-88758716D01*
X143047563Y-88764925D01*
X143047555Y-88764927D01*
X143014781Y-88775210D01*
X143007153Y-88777082D01*
X142973349Y-88783141D01*
X142916381Y-88805895D01*
X142911945Y-88807474D01*
X142853414Y-88825840D01*
X142853410Y-88825842D01*
X142823378Y-88842510D01*
X142816284Y-88845879D01*
X142784382Y-88858623D01*
X142784377Y-88858625D01*
X142733156Y-88892381D01*
X142729128Y-88894822D01*
X142675501Y-88924588D01*
X142649434Y-88946965D01*
X142643165Y-88951692D01*
X142614484Y-88970595D01*
X142614478Y-88970600D01*
X142571110Y-89013967D01*
X142567656Y-89017168D01*
X142521104Y-89057134D01*
X142500075Y-89084300D01*
X142494884Y-89090193D01*
X142322252Y-89262826D01*
X142121897Y-89463182D01*
X142060577Y-89496666D01*
X142034218Y-89499500D01*
X140624500Y-89499500D01*
X140557461Y-89479815D01*
X140511706Y-89427011D01*
X140500500Y-89375500D01*
X140500500Y-88965783D01*
X140520185Y-88898744D01*
X140536819Y-88878102D01*
X140889447Y-88525474D01*
X141243341Y-88171580D01*
X141339698Y-88053407D01*
X141433909Y-87873049D01*
X141489887Y-87677418D01*
X141505337Y-87474523D01*
X141479630Y-87272672D01*
X141413816Y-87080127D01*
X141310591Y-86904773D01*
X141174179Y-86753786D01*
X141174178Y-86753785D01*
X141174177Y-86753784D01*
X141010170Y-86633353D01*
X141010163Y-86633348D01*
X140825273Y-86548395D01*
X140825264Y-86548392D01*
X140627054Y-86502396D01*
X140423639Y-86497243D01*
X140423636Y-86497243D01*
X140223351Y-86533139D01*
X140223345Y-86533141D01*
X140034387Y-86608619D01*
X140034377Y-86608625D01*
X139864481Y-86720597D01*
X138802091Y-87782987D01*
X138800967Y-87784083D01*
X138736946Y-87844942D01*
X138701899Y-87895294D01*
X138699062Y-87899056D01*
X138660302Y-87946592D01*
X138660299Y-87946597D01*
X138644392Y-87977047D01*
X138640324Y-87983761D01*
X138620702Y-88011954D01*
X138596509Y-88068330D01*
X138594488Y-88072584D01*
X138566091Y-88126951D01*
X138566090Y-88126952D01*
X138556640Y-88159975D01*
X138554007Y-88167371D01*
X138540459Y-88198943D01*
X138528113Y-88259019D01*
X138526990Y-88263595D01*
X138510113Y-88322577D01*
X138510113Y-88322579D01*
X138507503Y-88356841D01*
X138506414Y-88364608D01*
X138500980Y-88391052D01*
X138499500Y-88398258D01*
X138499500Y-88459597D01*
X138499321Y-88464306D01*
X138494662Y-88525474D01*
X138496707Y-88541527D01*
X138499003Y-88559560D01*
X138499500Y-88567388D01*
X138499500Y-89285217D01*
X138479815Y-89352256D01*
X138427011Y-89398011D01*
X138357853Y-89407955D01*
X138294297Y-89378930D01*
X138287819Y-89372898D01*
X137967011Y-89052091D01*
X137965914Y-89050966D01*
X137905061Y-88986949D01*
X137905060Y-88986948D01*
X137905059Y-88986947D01*
X137874652Y-88965783D01*
X137854709Y-88951902D01*
X137850946Y-88949064D01*
X137803413Y-88910305D01*
X137803406Y-88910300D01*
X137772959Y-88894397D01*
X137766251Y-88890334D01*
X137738049Y-88870705D01*
X137738046Y-88870703D01*
X137738045Y-88870703D01*
X137738041Y-88870701D01*
X137681680Y-88846514D01*
X137677424Y-88844493D01*
X137623057Y-88816094D01*
X137623050Y-88816091D01*
X137623049Y-88816091D01*
X137617008Y-88814362D01*
X137590030Y-88806642D01*
X137582630Y-88804008D01*
X137551057Y-88790459D01*
X137551058Y-88790459D01*
X137490966Y-88778109D01*
X137486391Y-88776986D01*
X137427420Y-88760113D01*
X137427425Y-88760113D01*
X137393158Y-88757503D01*
X137385380Y-88756412D01*
X137351742Y-88749500D01*
X137351741Y-88749500D01*
X137290402Y-88749500D01*
X137285695Y-88749321D01*
X137280121Y-88748896D01*
X137224524Y-88744662D01*
X137204589Y-88747201D01*
X137190440Y-88749003D01*
X137182611Y-88749500D01*
X133425953Y-88749500D01*
X133424391Y-88749480D01*
X133336137Y-88747244D01*
X133336126Y-88747245D01*
X133275771Y-88758062D01*
X133271107Y-88758716D01*
X133210063Y-88764925D01*
X133210055Y-88764927D01*
X133177281Y-88775210D01*
X133169653Y-88777082D01*
X133135849Y-88783141D01*
X133078881Y-88805895D01*
X133074445Y-88807474D01*
X133015914Y-88825840D01*
X133015910Y-88825842D01*
X132985878Y-88842510D01*
X132978784Y-88845879D01*
X132946882Y-88858623D01*
X132946877Y-88858625D01*
X132895656Y-88892381D01*
X132891628Y-88894822D01*
X132838001Y-88924588D01*
X132811934Y-88946965D01*
X132805665Y-88951692D01*
X132776984Y-88970595D01*
X132776978Y-88970600D01*
X132733609Y-89013968D01*
X132730155Y-89017169D01*
X132683602Y-89057136D01*
X132683601Y-89057137D01*
X132662577Y-89084298D01*
X132657385Y-89090193D01*
X131552090Y-90195488D01*
X131550966Y-90196584D01*
X131486946Y-90257442D01*
X131451899Y-90307794D01*
X131449062Y-90311556D01*
X131410302Y-90359092D01*
X131410299Y-90359097D01*
X131394392Y-90389547D01*
X131390324Y-90396261D01*
X131370702Y-90424454D01*
X131346509Y-90480830D01*
X131344488Y-90485084D01*
X131316091Y-90539451D01*
X131316090Y-90539452D01*
X131306640Y-90572475D01*
X131304007Y-90579871D01*
X131290459Y-90611443D01*
X131278113Y-90671519D01*
X131276990Y-90676095D01*
X131260113Y-90735077D01*
X131260113Y-90735079D01*
X131257503Y-90769341D01*
X131256414Y-90777108D01*
X131254419Y-90786819D01*
X131249499Y-90810758D01*
X131249500Y-90872097D01*
X131249321Y-90876806D01*
X131244662Y-90937974D01*
X131245107Y-90941463D01*
X131249003Y-90972060D01*
X131249500Y-90979888D01*
X131249500Y-91284217D01*
X131229815Y-91351256D01*
X131213181Y-91371898D01*
X130302090Y-92282988D01*
X130300966Y-92284084D01*
X130236946Y-92344942D01*
X130201899Y-92395294D01*
X130199062Y-92399056D01*
X130160302Y-92446592D01*
X130160299Y-92446597D01*
X130144392Y-92477047D01*
X130140324Y-92483761D01*
X130120702Y-92511954D01*
X130096509Y-92568330D01*
X130094488Y-92572584D01*
X130066091Y-92626951D01*
X130066090Y-92626952D01*
X130056640Y-92659975D01*
X130054007Y-92667371D01*
X130040459Y-92698943D01*
X130028113Y-92759019D01*
X130026990Y-92763595D01*
X130010113Y-92822577D01*
X130010113Y-92822579D01*
X130007503Y-92856841D01*
X130006414Y-92864610D01*
X130004295Y-92874923D01*
X129999499Y-92898258D01*
X129999499Y-92959599D01*
X129999320Y-92964307D01*
X129994662Y-93025474D01*
X129995776Y-93034218D01*
X129999003Y-93059560D01*
X129999500Y-93067388D01*
X129999500Y-94785218D01*
X129979815Y-94852257D01*
X129927011Y-94898012D01*
X129857853Y-94907956D01*
X129794297Y-94878931D01*
X129787819Y-94872899D01*
X128036819Y-93121899D01*
X128003334Y-93060576D01*
X128000500Y-93034218D01*
X128000500Y-91552200D01*
X128000799Y-91546120D01*
X128003809Y-91515553D01*
X128005341Y-91500000D01*
X128003899Y-91485369D01*
X128003462Y-91466937D01*
X128004369Y-91449064D01*
X127993291Y-91376758D01*
X127992878Y-91373464D01*
X127990691Y-91351256D01*
X127986024Y-91303868D01*
X127986020Y-91303856D01*
X127985968Y-91303589D01*
X127985093Y-91297749D01*
X127985074Y-91297565D01*
X127985074Y-91297563D01*
X127982890Y-91290602D01*
X127980248Y-91282183D01*
X127975994Y-91263849D01*
X127973556Y-91247929D01*
X127949320Y-91182494D01*
X127948144Y-91178998D01*
X127928814Y-91115273D01*
X127928811Y-91115268D01*
X127926022Y-91108535D01*
X127924177Y-91103457D01*
X127924159Y-91103413D01*
X127924159Y-91103412D01*
X127916338Y-91089322D01*
X127908479Y-91072215D01*
X127902887Y-91057117D01*
X127902886Y-91057113D01*
X127867756Y-91000751D01*
X127865707Y-90997209D01*
X127835910Y-90941462D01*
X127835906Y-90941457D01*
X127832527Y-90936400D01*
X127832729Y-90936264D01*
X127825559Y-90925715D01*
X127825412Y-90925504D01*
X127825409Y-90925498D01*
X127814917Y-90913276D01*
X127803773Y-90898100D01*
X127795252Y-90884429D01*
X127795250Y-90884427D01*
X127751802Y-90838720D01*
X127748840Y-90835368D01*
X127710883Y-90789117D01*
X127710881Y-90789115D01*
X127710880Y-90789114D01*
X127710606Y-90788889D01*
X127695185Y-90773806D01*
X127692870Y-90771110D01*
X127692866Y-90771105D01*
X127692861Y-90771101D01*
X127692857Y-90771097D01*
X127680127Y-90761243D01*
X127666157Y-90748622D01*
X127655061Y-90736949D01*
X127655054Y-90736943D01*
X127606090Y-90702863D01*
X127602184Y-90699909D01*
X127558538Y-90664090D01*
X127555059Y-90662230D01*
X127537608Y-90650925D01*
X127531964Y-90646555D01*
X127531744Y-90646447D01*
X127517487Y-90639453D01*
X127501270Y-90629906D01*
X127488054Y-90620708D01*
X127488046Y-90620703D01*
X127436329Y-90598509D01*
X127431551Y-90596213D01*
X127384731Y-90571187D01*
X127384723Y-90571184D01*
X127377517Y-90568998D01*
X127358909Y-90561667D01*
X127349273Y-90556940D01*
X127333680Y-90552903D01*
X127315864Y-90546813D01*
X127301060Y-90540460D01*
X127273905Y-90534879D01*
X127249218Y-90529806D01*
X127243708Y-90528407D01*
X127196140Y-90513978D01*
X127196128Y-90513975D01*
X127185061Y-90512885D01*
X127166148Y-90509526D01*
X127152285Y-90505937D01*
X127152283Y-90505936D01*
X127152280Y-90505936D01*
X127136188Y-90505119D01*
X127117523Y-90502742D01*
X127101743Y-90499500D01*
X127101741Y-90499500D01*
X127052201Y-90499500D01*
X127046120Y-90499201D01*
X127000001Y-90494659D01*
X126999996Y-90494659D01*
X126985368Y-90496099D01*
X126966946Y-90496537D01*
X126949067Y-90495631D01*
X126949060Y-90495631D01*
X126935754Y-90497670D01*
X126933142Y-90498070D01*
X126914367Y-90499500D01*
X122552200Y-90499500D01*
X122546119Y-90499201D01*
X122500000Y-90494659D01*
X122454001Y-90499189D01*
X122451062Y-90499408D01*
X122449257Y-90499499D01*
X122400388Y-90504468D01*
X122303859Y-90513976D01*
X122303558Y-90514037D01*
X122297767Y-90514904D01*
X122297576Y-90514923D01*
X122297554Y-90514927D01*
X122219394Y-90539451D01*
X122205007Y-90543965D01*
X122195619Y-90546813D01*
X122160493Y-90557468D01*
X122090626Y-90558091D01*
X122031514Y-90520842D01*
X122001923Y-90457548D01*
X122000500Y-90438820D01*
X122000500Y-88699258D01*
X121985074Y-88547562D01*
X121985074Y-88547560D01*
X121924162Y-88353420D01*
X121924160Y-88353416D01*
X121924159Y-88353412D01*
X121825409Y-88175498D01*
X121825408Y-88175497D01*
X121825407Y-88175495D01*
X121692867Y-88021106D01*
X121692865Y-88021104D01*
X121531962Y-87896554D01*
X121531959Y-87896553D01*
X121531958Y-87896552D01*
X121349271Y-87806940D01*
X121152285Y-87755937D01*
X121152287Y-87755937D01*
X121016804Y-87749066D01*
X120949064Y-87745631D01*
X120949063Y-87745631D01*
X120949061Y-87745631D01*
X120747936Y-87776442D01*
X120747924Y-87776445D01*
X120557118Y-87847111D01*
X120557111Y-87847115D01*
X120384432Y-87954745D01*
X120384427Y-87954749D01*
X120236949Y-88094938D01*
X120236948Y-88094940D01*
X120120705Y-88261949D01*
X120040459Y-88448943D01*
X119999499Y-88648258D01*
X119999499Y-92111506D01*
X119999479Y-92113075D01*
X119997243Y-92201361D01*
X119997243Y-92201370D01*
X107950500Y-92201370D01*
X107950500Y-81999995D01*
X116494658Y-81999995D01*
X116494659Y-82000003D01*
X116496099Y-82014630D01*
X116496537Y-82033053D01*
X116495631Y-82050936D01*
X116504095Y-82106193D01*
X116506703Y-82123214D01*
X116507119Y-82126524D01*
X116513975Y-82196131D01*
X116519282Y-82213626D01*
X116523189Y-82230831D01*
X116526443Y-82252068D01*
X116526445Y-82252075D01*
X116550670Y-82317483D01*
X116551860Y-82321019D01*
X116571186Y-82384728D01*
X116583478Y-82407724D01*
X116586943Y-82415426D01*
X116591832Y-82428627D01*
X116597114Y-82442887D01*
X116597115Y-82442888D01*
X116597116Y-82442892D01*
X116621364Y-82481793D01*
X116632243Y-82499247D01*
X116634299Y-82502806D01*
X116664090Y-82558538D01*
X116682776Y-82581308D01*
X116687469Y-82587850D01*
X116704748Y-82615571D01*
X116748194Y-82661276D01*
X116751172Y-82664647D01*
X116789117Y-82710883D01*
X116814502Y-82731717D01*
X116820093Y-82736914D01*
X116844941Y-82763053D01*
X116893918Y-82797143D01*
X116897810Y-82800086D01*
X116941462Y-82835910D01*
X116973399Y-82852980D01*
X116979585Y-82856767D01*
X116999563Y-82870673D01*
X117011950Y-82879295D01*
X117011952Y-82879296D01*
X117063683Y-82901495D01*
X117068446Y-82903784D01*
X117115273Y-82928814D01*
X117153166Y-82940308D01*
X117159599Y-82942656D01*
X117198942Y-82959540D01*
X117250776Y-82970192D01*
X117256296Y-82971593D01*
X117303868Y-82986024D01*
X117346644Y-82990236D01*
X117353026Y-82991204D01*
X117367700Y-82994219D01*
X117398256Y-83000500D01*
X117398259Y-83000500D01*
X117447800Y-83000500D01*
X117453881Y-83000799D01*
X117463930Y-83001788D01*
X117500000Y-83005341D01*
X117536069Y-83001788D01*
X117546119Y-83000799D01*
X117552200Y-83000500D01*
X122398259Y-83000500D01*
X127398259Y-83000500D01*
X133197800Y-83000500D01*
X133203881Y-83000799D01*
X133214769Y-83001871D01*
X133250000Y-83005341D01*
X133270874Y-83003285D01*
X133339520Y-83016304D01*
X133390230Y-83064369D01*
X133406905Y-83132219D01*
X133384249Y-83198314D01*
X133370709Y-83214369D01*
X132871899Y-83713181D01*
X132810576Y-83746666D01*
X132784218Y-83749500D01*
X132013452Y-83749500D01*
X132011889Y-83749480D01*
X131923636Y-83747244D01*
X131923635Y-83747244D01*
X131923626Y-83747244D01*
X131863263Y-83758064D01*
X131858597Y-83758718D01*
X131797564Y-83764925D01*
X131764780Y-83775210D01*
X131757153Y-83777082D01*
X131723349Y-83783141D01*
X131666381Y-83805895D01*
X131661945Y-83807474D01*
X131603414Y-83825840D01*
X131603410Y-83825842D01*
X131573378Y-83842510D01*
X131566284Y-83845879D01*
X131534382Y-83858623D01*
X131534377Y-83858625D01*
X131483156Y-83892381D01*
X131479128Y-83894822D01*
X131425501Y-83924588D01*
X131399434Y-83946965D01*
X131393165Y-83951692D01*
X131364480Y-83970597D01*
X131363248Y-83971603D01*
X131362439Y-83971943D01*
X131359234Y-83974056D01*
X131358840Y-83973458D01*
X131298852Y-83998711D01*
X131284889Y-83999500D01*
X126949257Y-83999500D01*
X126797560Y-84014925D01*
X126603420Y-84075837D01*
X126603405Y-84075844D01*
X126425500Y-84174589D01*
X126425495Y-84174592D01*
X126271106Y-84307132D01*
X126271104Y-84307134D01*
X126146554Y-84468037D01*
X126146553Y-84468040D01*
X126056940Y-84650728D01*
X126005937Y-84847714D01*
X125995631Y-85050936D01*
X126026442Y-85252063D01*
X126026445Y-85252075D01*
X126097111Y-85442881D01*
X126097115Y-85442888D01*
X126204745Y-85615567D01*
X126204747Y-85615569D01*
X126204748Y-85615571D01*
X126344941Y-85763053D01*
X126473344Y-85852424D01*
X126511949Y-85879294D01*
X126511950Y-85879294D01*
X126511951Y-85879295D01*
X126698942Y-85959540D01*
X126898259Y-86000500D01*
X131736507Y-86000500D01*
X131738069Y-86000519D01*
X131775283Y-86001462D01*
X131826358Y-86002757D01*
X131826358Y-86002756D01*
X131826363Y-86002757D01*
X131886753Y-85991932D01*
X131891412Y-85991280D01*
X131933607Y-85986988D01*
X131952438Y-85985074D01*
X131985227Y-85974786D01*
X131992840Y-85972918D01*
X132026653Y-85966858D01*
X132083621Y-85944101D01*
X132088053Y-85942524D01*
X132146588Y-85924159D01*
X132176627Y-85907484D01*
X132183708Y-85904122D01*
X132215617Y-85891377D01*
X132266854Y-85857608D01*
X132270851Y-85855187D01*
X132324502Y-85825409D01*
X132350576Y-85803023D01*
X132356830Y-85798308D01*
X132385519Y-85779402D01*
X132385528Y-85779392D01*
X132386747Y-85778400D01*
X132387554Y-85778060D01*
X132390773Y-85775939D01*
X132391168Y-85776538D01*
X132451143Y-85751289D01*
X132465110Y-85750500D01*
X133236507Y-85750500D01*
X133238069Y-85750519D01*
X133275283Y-85751462D01*
X133326358Y-85752757D01*
X133326358Y-85752756D01*
X133326363Y-85752757D01*
X133386753Y-85741932D01*
X133391412Y-85741280D01*
X133433607Y-85736988D01*
X133452438Y-85735074D01*
X133485227Y-85724786D01*
X133492840Y-85722918D01*
X133526653Y-85716858D01*
X133583621Y-85694101D01*
X133588053Y-85692524D01*
X133646588Y-85674159D01*
X133676627Y-85657484D01*
X133683708Y-85654122D01*
X133715617Y-85641377D01*
X133766854Y-85607608D01*
X133770851Y-85605187D01*
X133824502Y-85575409D01*
X133850568Y-85553030D01*
X133856843Y-85548300D01*
X133885519Y-85529402D01*
X133928917Y-85486002D01*
X133932336Y-85482834D01*
X133978895Y-85442866D01*
X133999931Y-85415688D01*
X134005101Y-85409818D01*
X135448001Y-83966918D01*
X135449014Y-83965931D01*
X135513053Y-83905059D01*
X135545371Y-83858625D01*
X135548097Y-83854709D01*
X135550924Y-83850957D01*
X135589698Y-83803407D01*
X135605607Y-83772948D01*
X135609667Y-83766248D01*
X135629295Y-83738049D01*
X135653492Y-83681660D01*
X135655498Y-83677435D01*
X135683909Y-83623049D01*
X135693357Y-83590022D01*
X135695988Y-83582633D01*
X135709540Y-83551058D01*
X135721895Y-83490930D01*
X135722999Y-83486429D01*
X135739886Y-83427418D01*
X135742494Y-83393157D01*
X135743585Y-83385389D01*
X135750500Y-83351743D01*
X135750500Y-83290398D01*
X135750679Y-83285688D01*
X135755337Y-83224524D01*
X135750997Y-83190442D01*
X135750500Y-83182603D01*
X135750500Y-81263452D01*
X135750520Y-81261881D01*
X135751235Y-81233656D01*
X135752756Y-81173637D01*
X135741932Y-81113247D01*
X135741282Y-81108617D01*
X135735074Y-81047562D01*
X135724790Y-81014786D01*
X135722917Y-81007154D01*
X135716858Y-80973349D01*
X135716858Y-80973347D01*
X135694102Y-80916378D01*
X135692521Y-80911937D01*
X135674157Y-80853407D01*
X135657488Y-80823378D01*
X135654117Y-80816278D01*
X135641378Y-80784386D01*
X135641377Y-80784383D01*
X135607620Y-80733163D01*
X135605180Y-80729134D01*
X135594379Y-80709675D01*
X135575409Y-80675498D01*
X135575407Y-80675495D01*
X135553033Y-80649434D01*
X135548302Y-80643159D01*
X135529402Y-80614481D01*
X135486012Y-80571091D01*
X135482822Y-80567648D01*
X135442867Y-80521106D01*
X135442863Y-80521102D01*
X135415698Y-80500074D01*
X135409811Y-80494890D01*
X134259080Y-79344160D01*
X134140907Y-79247802D01*
X133960549Y-79153591D01*
X133764918Y-79097613D01*
X133764917Y-79097612D01*
X133764916Y-79097612D01*
X133562025Y-79082162D01*
X133562022Y-79082162D01*
X133360178Y-79107868D01*
X133360170Y-79107870D01*
X133167629Y-79173683D01*
X133167617Y-79173689D01*
X132992278Y-79276906D01*
X132992271Y-79276911D01*
X132841287Y-79413320D01*
X132841287Y-79413321D01*
X132720853Y-79577328D01*
X132720849Y-79577335D01*
X132635897Y-79762225D01*
X132635893Y-79762237D01*
X132589896Y-79960445D01*
X132584742Y-80163858D01*
X132620640Y-80364148D01*
X132620642Y-80364153D01*
X132683336Y-80521106D01*
X132696123Y-80553116D01*
X132696129Y-80553128D01*
X132808096Y-80723017D01*
X132808100Y-80723022D01*
X132872897Y-80787819D01*
X132906382Y-80849142D01*
X132901398Y-80918834D01*
X132859526Y-80974767D01*
X132794062Y-80999184D01*
X132785216Y-80999500D01*
X117552200Y-80999500D01*
X117546119Y-80999201D01*
X117500000Y-80994659D01*
X117454001Y-80999189D01*
X117451062Y-80999408D01*
X117449257Y-80999499D01*
X117400388Y-81004468D01*
X117303859Y-81013976D01*
X117303558Y-81014037D01*
X117297767Y-81014904D01*
X117297576Y-81014923D01*
X117297554Y-81014927D01*
X117229667Y-81036227D01*
X117205007Y-81043965D01*
X117150403Y-81060529D01*
X117115265Y-81071188D01*
X117108515Y-81073984D01*
X117103460Y-81075820D01*
X117103405Y-81075844D01*
X117021327Y-81121400D01*
X116941464Y-81164088D01*
X116936402Y-81167471D01*
X116936268Y-81167270D01*
X116925566Y-81174542D01*
X116925498Y-81174590D01*
X116857212Y-81233211D01*
X116856160Y-81234094D01*
X116789119Y-81289113D01*
X116789109Y-81289123D01*
X116788864Y-81289423D01*
X116773821Y-81304801D01*
X116771111Y-81307128D01*
X116771107Y-81307132D01*
X116771105Y-81307134D01*
X116718074Y-81375642D01*
X116716995Y-81376996D01*
X116664093Y-81441456D01*
X116664085Y-81441469D01*
X116662224Y-81444951D01*
X116650937Y-81462374D01*
X116646555Y-81468035D01*
X116646553Y-81468038D01*
X116609880Y-81542802D01*
X116608895Y-81544724D01*
X116571185Y-81615273D01*
X116571185Y-81615274D01*
X116568998Y-81622483D01*
X116561672Y-81641079D01*
X116556943Y-81650721D01*
X116556939Y-81650731D01*
X116536920Y-81728045D01*
X116536230Y-81730501D01*
X116513976Y-81803866D01*
X116512885Y-81814938D01*
X116509527Y-81833848D01*
X116505937Y-81847715D01*
X116502060Y-81924123D01*
X116501841Y-81927057D01*
X116494658Y-81999995D01*
X107950500Y-81999995D01*
X107950500Y-76201150D01*
X107950521Y-76200000D01*
X121834341Y-76200000D01*
X121854936Y-76435403D01*
X121854938Y-76435413D01*
X121916094Y-76663655D01*
X121916096Y-76663659D01*
X121916097Y-76663663D01*
X121920000Y-76672032D01*
X122015965Y-76877830D01*
X122015967Y-76877834D01*
X122124281Y-77032521D01*
X122151505Y-77071401D01*
X122318599Y-77238495D01*
X122415384Y-77306264D01*
X122512165Y-77374032D01*
X122512167Y-77374033D01*
X122512170Y-77374035D01*
X122726337Y-77473903D01*
X122954592Y-77535063D01*
X123142918Y-77551539D01*
X123189999Y-77555659D01*
X123190000Y-77555659D01*
X123190001Y-77555659D01*
X123229234Y-77552226D01*
X123425408Y-77535063D01*
X123653663Y-77473903D01*
X123867830Y-77374035D01*
X124061401Y-77238495D01*
X124228495Y-77071401D01*
X124358426Y-76885840D01*
X124413001Y-76842217D01*
X124482499Y-76835023D01*
X124544854Y-76866546D01*
X124561574Y-76885841D01*
X124691505Y-77071401D01*
X124858599Y-77238495D01*
X124955384Y-77306264D01*
X125052165Y-77374032D01*
X125052167Y-77374033D01*
X125052170Y-77374035D01*
X125266337Y-77473903D01*
X125494592Y-77535063D01*
X125682918Y-77551539D01*
X125729999Y-77555659D01*
X125730000Y-77555659D01*
X125730001Y-77555659D01*
X125769234Y-77552226D01*
X125965408Y-77535063D01*
X126193663Y-77473903D01*
X126407830Y-77374035D01*
X126601401Y-77238495D01*
X126768495Y-77071401D01*
X126898426Y-76885841D01*
X126953002Y-76842217D01*
X127022500Y-76835023D01*
X127084855Y-76866546D01*
X127101575Y-76885842D01*
X127231500Y-77071395D01*
X127231505Y-77071401D01*
X127398599Y-77238495D01*
X127495384Y-77306264D01*
X127592165Y-77374032D01*
X127592167Y-77374033D01*
X127592170Y-77374035D01*
X127806337Y-77473903D01*
X128034592Y-77535063D01*
X128222918Y-77551539D01*
X128269999Y-77555659D01*
X128270000Y-77555659D01*
X128270001Y-77555659D01*
X128309234Y-77552226D01*
X128505408Y-77535063D01*
X128733663Y-77473903D01*
X128947830Y-77374035D01*
X129141401Y-77238495D01*
X129308495Y-77071401D01*
X129438426Y-76885840D01*
X129493001Y-76842217D01*
X129562499Y-76835023D01*
X129624854Y-76866546D01*
X129641574Y-76885841D01*
X129771505Y-77071401D01*
X129938599Y-77238495D01*
X130035384Y-77306264D01*
X130132165Y-77374032D01*
X130132167Y-77374033D01*
X130132170Y-77374035D01*
X130346337Y-77473903D01*
X130574592Y-77535063D01*
X130762918Y-77551539D01*
X130809999Y-77555659D01*
X130810000Y-77555659D01*
X130810001Y-77555659D01*
X130849234Y-77552226D01*
X131045408Y-77535063D01*
X131273663Y-77473903D01*
X131487830Y-77374035D01*
X131681401Y-77238495D01*
X131848495Y-77071401D01*
X131984035Y-76877830D01*
X132083903Y-76663663D01*
X132145063Y-76435408D01*
X132165659Y-76200000D01*
X142154341Y-76200000D01*
X142174936Y-76435403D01*
X142174938Y-76435413D01*
X142236094Y-76663655D01*
X142236096Y-76663659D01*
X142236097Y-76663663D01*
X142240000Y-76672032D01*
X142335965Y-76877830D01*
X142335967Y-76877834D01*
X142444281Y-77032521D01*
X142471505Y-77071401D01*
X142638599Y-77238495D01*
X142735384Y-77306265D01*
X142832165Y-77374032D01*
X142832167Y-77374033D01*
X142832170Y-77374035D01*
X143046337Y-77473903D01*
X143274592Y-77535063D01*
X143462918Y-77551539D01*
X143509999Y-77555659D01*
X143510000Y-77555659D01*
X143510001Y-77555659D01*
X143549234Y-77552226D01*
X143745408Y-77535063D01*
X143973663Y-77473903D01*
X144187830Y-77374035D01*
X144381401Y-77238495D01*
X144548495Y-77071401D01*
X144684035Y-76877830D01*
X144783903Y-76663663D01*
X144845063Y-76435408D01*
X144865659Y-76200000D01*
X144845063Y-75964592D01*
X144783903Y-75736337D01*
X144684035Y-75522171D01*
X144678425Y-75514158D01*
X144548494Y-75328597D01*
X144381402Y-75161506D01*
X144381395Y-75161501D01*
X144187834Y-75025967D01*
X144187830Y-75025965D01*
X144103270Y-74986534D01*
X143973663Y-74926097D01*
X143973659Y-74926096D01*
X143973655Y-74926094D01*
X143745413Y-74864938D01*
X143745403Y-74864936D01*
X143510001Y-74844341D01*
X143509999Y-74844341D01*
X143274596Y-74864936D01*
X143274586Y-74864938D01*
X143046344Y-74926094D01*
X143046335Y-74926098D01*
X142832171Y-75025964D01*
X142832169Y-75025965D01*
X142638597Y-75161505D01*
X142471505Y-75328597D01*
X142335965Y-75522169D01*
X142335964Y-75522171D01*
X142236098Y-75736335D01*
X142236094Y-75736344D01*
X142174938Y-75964586D01*
X142174936Y-75964596D01*
X142154341Y-76199999D01*
X142154341Y-76200000D01*
X132165659Y-76200000D01*
X132145063Y-75964592D01*
X132083903Y-75736337D01*
X131984035Y-75522171D01*
X131978425Y-75514158D01*
X131848494Y-75328597D01*
X131681402Y-75161506D01*
X131681395Y-75161501D01*
X131487834Y-75025967D01*
X131487830Y-75025965D01*
X131403270Y-74986534D01*
X131273663Y-74926097D01*
X131273659Y-74926096D01*
X131273655Y-74926094D01*
X131045413Y-74864938D01*
X131045403Y-74864936D01*
X130810001Y-74844341D01*
X130809999Y-74844341D01*
X130574596Y-74864936D01*
X130574586Y-74864938D01*
X130346344Y-74926094D01*
X130346335Y-74926098D01*
X130132171Y-75025964D01*
X130132169Y-75025965D01*
X129938597Y-75161505D01*
X129771505Y-75328597D01*
X129641575Y-75514158D01*
X129586998Y-75557783D01*
X129517500Y-75564977D01*
X129455145Y-75533454D01*
X129438425Y-75514158D01*
X129308494Y-75328597D01*
X129141402Y-75161506D01*
X129141395Y-75161501D01*
X128947834Y-75025967D01*
X128947830Y-75025965D01*
X128863270Y-74986534D01*
X128733663Y-74926097D01*
X128733659Y-74926096D01*
X128733655Y-74926094D01*
X128505413Y-74864938D01*
X128505403Y-74864936D01*
X128270001Y-74844341D01*
X128269999Y-74844341D01*
X128034596Y-74864936D01*
X128034586Y-74864938D01*
X127806344Y-74926094D01*
X127806335Y-74926098D01*
X127592171Y-75025964D01*
X127592169Y-75025965D01*
X127398597Y-75161505D01*
X127231505Y-75328597D01*
X127101575Y-75514158D01*
X127046998Y-75557783D01*
X126977500Y-75564977D01*
X126915145Y-75533454D01*
X126898425Y-75514158D01*
X126768494Y-75328597D01*
X126601402Y-75161506D01*
X126601395Y-75161501D01*
X126407834Y-75025967D01*
X126407830Y-75025965D01*
X126323270Y-74986534D01*
X126193663Y-74926097D01*
X126193659Y-74926096D01*
X126193655Y-74926094D01*
X125965413Y-74864938D01*
X125965403Y-74864936D01*
X125730001Y-74844341D01*
X125729999Y-74844341D01*
X125494596Y-74864936D01*
X125494586Y-74864938D01*
X125266344Y-74926094D01*
X125266335Y-74926098D01*
X125052171Y-75025964D01*
X125052169Y-75025965D01*
X124858597Y-75161505D01*
X124691505Y-75328597D01*
X124561575Y-75514158D01*
X124506998Y-75557783D01*
X124437500Y-75564977D01*
X124375145Y-75533454D01*
X124358425Y-75514158D01*
X124228494Y-75328597D01*
X124061402Y-75161506D01*
X124061395Y-75161501D01*
X123867834Y-75025967D01*
X123867830Y-75025965D01*
X123783270Y-74986534D01*
X123653663Y-74926097D01*
X123653659Y-74926096D01*
X123653655Y-74926094D01*
X123425413Y-74864938D01*
X123425403Y-74864936D01*
X123190001Y-74844341D01*
X123189999Y-74844341D01*
X122954596Y-74864936D01*
X122954586Y-74864938D01*
X122726344Y-74926094D01*
X122726335Y-74926098D01*
X122512171Y-75025964D01*
X122512169Y-75025965D01*
X122318597Y-75161505D01*
X122151505Y-75328597D01*
X122015965Y-75522169D01*
X122015964Y-75522171D01*
X121916098Y-75736335D01*
X121916094Y-75736344D01*
X121854938Y-75964586D01*
X121854936Y-75964596D01*
X121834341Y-76199999D01*
X121834341Y-76200000D01*
X107950521Y-76200000D01*
X107950542Y-76198867D01*
X107960498Y-75932776D01*
X107968764Y-75722412D01*
X107969102Y-75717972D01*
X107997725Y-75463937D01*
X108024361Y-75238891D01*
X108025004Y-75234705D01*
X108071966Y-74986503D01*
X108116822Y-74760999D01*
X108117718Y-74757159D01*
X108182778Y-74514353D01*
X108245575Y-74291692D01*
X108246707Y-74288106D01*
X108329524Y-74051429D01*
X108409882Y-73833612D01*
X108411190Y-73830361D01*
X108511104Y-73601355D01*
X108511547Y-73600369D01*
X108608766Y-73389485D01*
X108610191Y-73386601D01*
X108726829Y-73165913D01*
X108727432Y-73164804D01*
X108841042Y-72961937D01*
X108842565Y-72959372D01*
X108975260Y-72748189D01*
X108976109Y-72746878D01*
X109105345Y-72553463D01*
X109106950Y-72551179D01*
X109254984Y-72350600D01*
X109256063Y-72349186D01*
X109400160Y-72166399D01*
X109401728Y-72164496D01*
X109564317Y-71975564D01*
X109565670Y-71974047D01*
X109723696Y-71803096D01*
X109725273Y-71801456D01*
X109901456Y-71625273D01*
X109903096Y-71623696D01*
X110074047Y-71465670D01*
X110075564Y-71464317D01*
X110264496Y-71301728D01*
X110266399Y-71300160D01*
X110449186Y-71156063D01*
X110450600Y-71154984D01*
X110651179Y-71006950D01*
X110653463Y-71005345D01*
X110846878Y-70876109D01*
X110848189Y-70875260D01*
X111059372Y-70742565D01*
X111061937Y-70741042D01*
X111264804Y-70627432D01*
X111265913Y-70626829D01*
X111486601Y-70510191D01*
X111489485Y-70508766D01*
X111700369Y-70411547D01*
X111701355Y-70411104D01*
X111930361Y-70311190D01*
X111933612Y-70309882D01*
X112151429Y-70229524D01*
X112388106Y-70146707D01*
X112391692Y-70145575D01*
X112614378Y-70082771D01*
X112857159Y-70017718D01*
X112860999Y-70016822D01*
X113086503Y-69971966D01*
X113334705Y-69925004D01*
X113338891Y-69924361D01*
X113563937Y-69897725D01*
X113817972Y-69869102D01*
X113822412Y-69868764D01*
X114033056Y-69860488D01*
X114298867Y-69850542D01*
X114301152Y-69850500D01*
X152398848Y-69850500D01*
X152401132Y-69850542D01*
G37*
%TD.AperFunction*%
%TD*%
M02*
