%TF.GenerationSoftware,KiCad,Pcbnew,7.0.5*%
%TF.CreationDate,2023-11-28T19:27:54-08:00*%
%TF.ProjectId,LT3081LEDDummyDriver,4c543330-3831-44c4-9544-44756d6d7944,rev?*%
%TF.SameCoordinates,Original*%
%TF.FileFunction,Copper,L2,Bot*%
%TF.FilePolarity,Positive*%
%FSLAX46Y46*%
G04 Gerber Fmt 4.6, Leading zero omitted, Abs format (unit mm)*
G04 Created by KiCad (PCBNEW 7.0.5) date 2023-11-28 19:27:54*
%MOMM*%
%LPD*%
G01*
G04 APERTURE LIST*
%TA.AperFunction,ComponentPad*%
%ADD10R,1.700000X1.700000*%
%TD*%
%TA.AperFunction,ComponentPad*%
%ADD11O,1.700000X1.700000*%
%TD*%
%TA.AperFunction,ComponentPad*%
%ADD12R,3.000000X3.000000*%
%TD*%
%TA.AperFunction,ComponentPad*%
%ADD13C,3.000000*%
%TD*%
%TA.AperFunction,ComponentPad*%
%ADD14R,2.000000X2.000000*%
%TD*%
%TA.AperFunction,ComponentPad*%
%ADD15O,2.000000X2.000000*%
%TD*%
%TA.AperFunction,ComponentPad*%
%ADD16C,5.600000*%
%TD*%
%TA.AperFunction,ViaPad*%
%ADD17C,1.000000*%
%TD*%
%TA.AperFunction,ViaPad*%
%ADD18C,0.700000*%
%TD*%
%TA.AperFunction,Conductor*%
%ADD19C,1.000000*%
%TD*%
%TA.AperFunction,Conductor*%
%ADD20C,0.500000*%
%TD*%
G04 APERTURE END LIST*
D10*
%TO.P,J5,1,Pin_1*%
%TO.N,GND*%
X131712500Y-39050000D03*
D11*
%TO.P,J5,2,Pin_2*%
%TO.N,/I2CConnection/VI2C*%
X129172500Y-39050000D03*
%TO.P,J5,3,Pin_3*%
%TO.N,Net-(D2-A)*%
X126632500Y-39050000D03*
%TO.P,J5,4,Pin_4*%
%TO.N,Net-(D1-A)*%
X124092500Y-39050000D03*
%TO.P,J5,5,Pin_5*%
%TO.N,Net-(J5-Pin_5)*%
X121552500Y-39050000D03*
%TD*%
D12*
%TO.P,J1,1,Pin_1*%
%TO.N,GND*%
X111862500Y-66310000D03*
D13*
%TO.P,J1,2,Pin_2*%
%TO.N,/FETSwitch/V_{IN}*%
X111862500Y-71390000D03*
%TD*%
D14*
%TO.P,D6,1,K*%
%TO.N,Net-(D6-K)*%
X111650000Y-104550000D03*
D15*
%TO.P,D6,2,A*%
%TO.N,/V_{LED}*%
X116730000Y-104550000D03*
%TD*%
D12*
%TO.P,J11,1,Pin_1*%
%TO.N,/FETSwitch/LEDGND*%
X150362500Y-81930000D03*
D13*
%TO.P,J11,2,Pin_2*%
%TO.N,/V_{LED}*%
X150362500Y-76850000D03*
%TD*%
D16*
%TO.P,J6,1,Pin_1*%
%TO.N,GND*%
X112662500Y-39050000D03*
%TD*%
D10*
%TO.P,J2,1,Pin_1*%
%TO.N,Net-(J2-Pin_1)*%
X113862500Y-95350000D03*
D11*
%TO.P,J2,2,Pin_2*%
%TO.N,GND*%
X111322500Y-95350000D03*
%TD*%
D10*
%TO.P,J3,1,Pin_1*%
%TO.N,Net-(J3-Pin_1)*%
X114000000Y-90500000D03*
D11*
%TO.P,J3,2,Pin_2*%
%TO.N,GND*%
X111460000Y-90500000D03*
%TD*%
D10*
%TO.P,J4,1,Pin_1*%
%TO.N,GND*%
X153862500Y-65350000D03*
D11*
%TO.P,J4,2,Pin_2*%
%TO.N,/V_{LED}*%
X151322500Y-65350000D03*
%TD*%
D16*
%TO.P,J9,1,Pin_1*%
%TO.N,GND*%
X112662500Y-121600000D03*
%TD*%
D10*
%TO.P,J10,1,Pin_1*%
%TO.N,GND*%
X144412500Y-39050000D03*
D11*
%TO.P,J10,2,Pin_2*%
%TO.N,+5V*%
X141872500Y-39050000D03*
%TD*%
D16*
%TO.P,J8,1,Pin_1*%
%TO.N,GND*%
X150762500Y-121600000D03*
%TD*%
%TO.P,J7,1,Pin_1*%
%TO.N,GND*%
X150762500Y-39050000D03*
%TD*%
D17*
%TO.N,GND*%
X138000000Y-54500000D03*
X114500000Y-86500000D03*
X139000000Y-41250000D03*
X143000000Y-48250000D03*
X147500000Y-46000000D03*
X151500000Y-60250000D03*
X113750000Y-62000000D03*
X123750000Y-123250000D03*
X133500000Y-121000000D03*
X112250000Y-116750000D03*
X110500000Y-108750000D03*
X116000000Y-113750000D03*
X114250000Y-108750000D03*
X114250000Y-104500000D03*
X121750000Y-98250000D03*
X152500000Y-74000000D03*
X152500000Y-79000000D03*
X147500000Y-82500000D03*
X142000000Y-89000000D03*
X145250000Y-79250000D03*
X143250000Y-71750000D03*
X145250000Y-76500000D03*
X153750000Y-118500000D03*
X152500000Y-104750000D03*
X145250000Y-119000000D03*
X145000000Y-104750000D03*
X141000000Y-98750000D03*
X153000000Y-101250000D03*
X145000000Y-101250000D03*
D18*
%TO.N,/LT3081CurrentSupply/V_{OUT}*%
X136750000Y-77250000D03*
X138750000Y-79750000D03*
X136750000Y-84250000D03*
X134750000Y-79750000D03*
X140750000Y-77250000D03*
X136750000Y-79750000D03*
X142750000Y-79750000D03*
X142750000Y-82250000D03*
X134750000Y-84250000D03*
X136750000Y-82250000D03*
X138750000Y-77250000D03*
X140750000Y-82250000D03*
X142750000Y-75250000D03*
X134750000Y-82250000D03*
X138750000Y-84250000D03*
X142750000Y-84250000D03*
X142750000Y-77250000D03*
X138750000Y-82250000D03*
X140750000Y-79750000D03*
X134750000Y-77250000D03*
X140750000Y-84250000D03*
X136750000Y-75250000D03*
X140750000Y-75250000D03*
X138750000Y-75250000D03*
X134750000Y-75250000D03*
%TO.N,/DummyLEDLoad/GATEDGND*%
X146500000Y-109000000D03*
X148500000Y-111500000D03*
X146500000Y-116000000D03*
X144500000Y-111500000D03*
X150500000Y-109000000D03*
X146500000Y-111500000D03*
X152500000Y-111500000D03*
X152500000Y-114000000D03*
X144500000Y-116000000D03*
X146500000Y-114000000D03*
X148500000Y-109000000D03*
X150500000Y-114000000D03*
X152500000Y-107000000D03*
X144500000Y-114000000D03*
X148500000Y-116000000D03*
X152500000Y-116000000D03*
X152500000Y-109000000D03*
X148500000Y-114000000D03*
X150500000Y-111500000D03*
X144500000Y-109000000D03*
X150500000Y-116000000D03*
X146500000Y-107000000D03*
X150500000Y-107000000D03*
X148500000Y-107000000D03*
X144500000Y-107000000D03*
%TO.N,/FETSwitch/LEDGND*%
X152500000Y-96500000D03*
X146500000Y-96500000D03*
X150500000Y-96500000D03*
X148500000Y-96500000D03*
X144500000Y-96500000D03*
X152500000Y-91500000D03*
X146500000Y-91500000D03*
X150500000Y-91500000D03*
X148500000Y-91500000D03*
X144500000Y-91500000D03*
X152500000Y-94000000D03*
X146500000Y-94000000D03*
X150500000Y-94000000D03*
X148500000Y-94000000D03*
X144500000Y-94000000D03*
X152500000Y-98500000D03*
X146500000Y-98500000D03*
X150500000Y-98500000D03*
X148500000Y-98500000D03*
X144500000Y-98500000D03*
X146500000Y-89500000D03*
X150500000Y-89500000D03*
X148500000Y-89500000D03*
X144500000Y-89500000D03*
X152500000Y-89500000D03*
D17*
%TO.N,GND*%
X126950000Y-93900000D03*
X129850000Y-102600000D03*
X117700000Y-98100000D03*
X111600000Y-100900000D03*
X117850000Y-101750000D03*
X124250000Y-100750000D03*
%TO.N,/FETSwitch/V_{IN}*%
X126400000Y-95550000D03*
X121200000Y-84775000D03*
%TO.N,GND*%
X125700000Y-116900000D03*
X125900000Y-47800000D03*
X130700000Y-113300000D03*
X117800000Y-93000000D03*
X118000000Y-77750000D03*
X134750000Y-46500000D03*
X146200000Y-50200000D03*
X131300000Y-90100000D03*
X136800000Y-98800000D03*
X125600000Y-112900000D03*
X128400000Y-85900000D03*
X108500000Y-75100000D03*
X148600000Y-86200000D03*
X121100000Y-53600000D03*
X151875000Y-56325000D03*
X114700000Y-50800000D03*
X130000000Y-108300000D03*
X135250000Y-73000000D03*
X125900000Y-52000000D03*
X119500000Y-50500000D03*
X139400000Y-116600000D03*
X155100000Y-71100000D03*
X143900000Y-58175000D03*
X140000000Y-59500000D03*
X121600000Y-68500000D03*
X131000000Y-51000000D03*
X148400000Y-72400000D03*
X118000000Y-67000000D03*
X125500000Y-42000000D03*
X124200000Y-75300000D03*
X130900000Y-98900000D03*
X135900000Y-89400000D03*
X121000000Y-42000000D03*
X136600000Y-106500000D03*
X114600000Y-75100000D03*
X129000000Y-58900000D03*
X118300000Y-108500000D03*
X124600000Y-107800000D03*
X152500000Y-86100000D03*
X118500000Y-57700000D03*
X131200000Y-73200000D03*
X132700000Y-66900000D03*
%TO.N,/DACx0501_DAC/V_{OUT}*%
X136300000Y-69300000D03*
X149100000Y-62100000D03*
%TO.N,Net-(J2-Pin_1)*%
X124150000Y-88049500D03*
X125500000Y-76800000D03*
%TO.N,+5V*%
X119150000Y-53350000D03*
X128000000Y-65900000D03*
X124600000Y-98900000D03*
X119362500Y-68137500D03*
X144300000Y-55700000D03*
X126000000Y-55850000D03*
X132402500Y-46500000D03*
X145818750Y-47481250D03*
X121000000Y-46000000D03*
X126000000Y-46000000D03*
%TO.N,/I2CConnection/VI2C*%
X124362500Y-49500000D03*
X129275000Y-49500000D03*
%TO.N,/V_{LED}*%
X131300000Y-95200000D03*
X143500000Y-68500000D03*
X136400000Y-116200000D03*
X127800000Y-89037500D03*
X147362500Y-68500000D03*
X123700000Y-79800000D03*
X134500000Y-99400000D03*
%TO.N,Net-(J3-Pin_1)*%
X126500000Y-84900000D03*
X122975250Y-90974750D03*
%TO.N,/DACx0501_DAC/SCL*%
X126900000Y-54100000D03*
X130900000Y-55900000D03*
%TO.N,/DACx0501_DAC/SDA*%
X136900000Y-52700000D03*
X130800000Y-54307500D03*
%TO.N,/LT3081CurrentSupply/V_{OUT}*%
X120499500Y-92750000D03*
X121800000Y-78200000D03*
%TO.N,/FETSwitch/TRIG*%
X116300000Y-49500000D03*
X120200000Y-104900000D03*
%TO.N,Net-(U4-OUTB)*%
X129900000Y-106200000D03*
X130300000Y-91900000D03*
%TD*%
D19*
%TO.N,/FETSwitch/V_{IN}*%
X121200000Y-89250000D02*
X121750000Y-89800000D01*
X121200000Y-84775000D02*
X121200000Y-89250000D01*
X121750000Y-89800000D02*
X121750000Y-93650000D01*
X121750000Y-93650000D02*
X123650000Y-95550000D01*
X123650000Y-95550000D02*
X126400000Y-95550000D01*
%TO.N,/FETSwitch/TRIG*%
X116300000Y-94350000D02*
X116300000Y-49500000D01*
X120200000Y-98250000D02*
X116300000Y-94350000D01*
X120200000Y-104900000D02*
X120200000Y-98250000D01*
%TO.N,Net-(J3-Pin_1)*%
X128102943Y-87700000D02*
X126500000Y-86097057D01*
X128600000Y-87700000D02*
X128102943Y-87700000D01*
X129500000Y-88600000D02*
X128600000Y-87700000D01*
X126900000Y-92400000D02*
X129500000Y-89800000D01*
X129500000Y-89800000D02*
X129500000Y-88600000D01*
X124400500Y-92400000D02*
X126900000Y-92400000D01*
X126500000Y-86097057D02*
X126500000Y-84900000D01*
X122975250Y-90974750D02*
X124400500Y-92400000D01*
%TO.N,/V_{LED}*%
X122700000Y-80800000D02*
X123700000Y-79800000D01*
X124650000Y-90700000D02*
X122700000Y-88750000D01*
X126137500Y-90700000D02*
X124650000Y-90700000D01*
X122700000Y-88750000D02*
X122700000Y-80800000D01*
X127800000Y-89037500D02*
X126137500Y-90700000D01*
%TO.N,/LT3081CurrentSupply/V_{OUT}*%
X119300000Y-80700000D02*
X121800000Y-78200000D01*
X119300000Y-89400000D02*
X119300000Y-80700000D01*
X120499500Y-90599500D02*
X119300000Y-89400000D01*
X120499500Y-92750000D02*
X120499500Y-90599500D01*
%TO.N,+5V*%
X117800000Y-69700000D02*
X119362500Y-68137500D01*
X119600000Y-78450000D02*
X119600000Y-76900000D01*
X117800000Y-75100000D02*
X117800000Y-69700000D01*
X117800000Y-80250000D02*
X119600000Y-78450000D01*
X119100000Y-91150000D02*
X117800000Y-89850000D01*
X119600000Y-76900000D02*
X117800000Y-75100000D01*
X119100000Y-93400000D02*
X119100000Y-91150000D01*
X117800000Y-89850000D02*
X117800000Y-80250000D01*
X124600000Y-98900000D02*
X119100000Y-93400000D01*
%TO.N,Net-(J2-Pin_1)*%
X125100000Y-77200000D02*
X125500000Y-76800000D01*
X125100000Y-87099500D02*
X125100000Y-77200000D01*
X124150000Y-88049500D02*
X125100000Y-87099500D01*
%TO.N,GND*%
X130600000Y-93800000D02*
X129600000Y-94800000D01*
X118000000Y-49000000D02*
X118000000Y-44387500D01*
X121000000Y-52000000D02*
X119500000Y-50500000D01*
X129600000Y-94800000D02*
X129600000Y-95200000D01*
X150025000Y-58175000D02*
X151875000Y-56325000D01*
X125100000Y-108300000D02*
X124600000Y-107800000D01*
X131300000Y-88100000D02*
X131300000Y-90100000D01*
X128400000Y-85900000D02*
X129100000Y-85900000D01*
X119500000Y-50500000D02*
X118000000Y-49000000D01*
X125500000Y-42000000D02*
X121000000Y-42000000D01*
X125900000Y-52000000D02*
X121000000Y-52000000D01*
X132100000Y-92300000D02*
X130600000Y-93800000D01*
X115612500Y-42000000D02*
X112662500Y-39050000D01*
X118000000Y-44387500D02*
X115612500Y-42000000D01*
X131000000Y-51000000D02*
X130000000Y-52000000D01*
X130000000Y-108300000D02*
X125100000Y-108300000D01*
X131300000Y-90100000D02*
X132100000Y-90900000D01*
X129600000Y-95200000D02*
X129600000Y-97600000D01*
X129100000Y-85900000D02*
X131300000Y-88100000D01*
X130000000Y-52000000D02*
X125900000Y-52000000D01*
X132100000Y-90900000D02*
X132100000Y-92300000D01*
X140000000Y-59500000D02*
X140000000Y-59600000D01*
X129600000Y-97600000D02*
X130900000Y-98900000D01*
X140000000Y-59600000D02*
X132700000Y-66900000D01*
X143900000Y-58175000D02*
X150025000Y-58175000D01*
X114600000Y-75100000D02*
X108500000Y-75100000D01*
X121000000Y-42000000D02*
X115612500Y-42000000D01*
%TO.N,/DACx0501_DAC/V_{OUT}*%
X149100000Y-62100000D02*
X143500000Y-62100000D01*
X143500000Y-62100000D02*
X136300000Y-69300000D01*
%TO.N,+5V*%
X126000000Y-63900000D02*
X126000000Y-55850000D01*
X144300000Y-55700000D02*
X144300000Y-49400000D01*
X145818750Y-47881250D02*
X145818750Y-47481250D01*
X126500000Y-45500000D02*
X126000000Y-46000000D01*
X126000000Y-46000000D02*
X121000000Y-46000000D01*
X128000000Y-65900000D02*
X126000000Y-63900000D01*
X125850000Y-56000000D02*
X126000000Y-55850000D01*
X120500000Y-56000000D02*
X125850000Y-56000000D01*
X119150000Y-53350000D02*
X119150000Y-54650000D01*
X119150000Y-54650000D02*
X120500000Y-56000000D01*
X131402500Y-45500000D02*
X126500000Y-45500000D01*
X132402500Y-46500000D02*
X131402500Y-45500000D01*
X144300000Y-49400000D02*
X145818750Y-47881250D01*
%TO.N,/I2CConnection/VI2C*%
X129275000Y-49500000D02*
X124362500Y-49500000D01*
%TO.N,/V_{LED}*%
X134500000Y-114300000D02*
X136400000Y-116200000D01*
X131300000Y-95200000D02*
X131300000Y-96200000D01*
X147362500Y-68500000D02*
X143500000Y-68500000D01*
X134500000Y-99400000D02*
X134500000Y-114300000D01*
X131300000Y-96200000D02*
X134500000Y-99400000D01*
%TO.N,/DACx0501_DAC/SCL*%
X128700000Y-55900000D02*
X126900000Y-54100000D01*
X130900000Y-55900000D02*
X128700000Y-55900000D01*
%TO.N,/DACx0501_DAC/SDA*%
X135292500Y-54307500D02*
X130800000Y-54307500D01*
X136900000Y-52700000D02*
X135292500Y-54307500D01*
D20*
%TO.N,Net-(U4-OUTB)*%
X128200000Y-94000000D02*
X130300000Y-91900000D01*
X129900000Y-106200000D02*
X128200000Y-104500000D01*
X128200000Y-104500000D02*
X128200000Y-94000000D01*
%TD*%
%TA.AperFunction,Conductor*%
%TO.N,GND*%
G36*
X129233033Y-91584400D02*
G01*
X129288966Y-91626272D01*
X129313383Y-91691736D01*
X129313102Y-91712738D01*
X129305127Y-91793700D01*
X129278965Y-91858486D01*
X129269405Y-91869225D01*
X127714358Y-93424272D01*
X127700729Y-93436051D01*
X127681468Y-93450390D01*
X127647898Y-93490397D01*
X127644253Y-93494376D01*
X127638407Y-93500223D01*
X127618618Y-93525251D01*
X127617481Y-93526647D01*
X127568694Y-93584790D01*
X127564729Y-93590819D01*
X127564682Y-93590788D01*
X127560630Y-93597147D01*
X127560679Y-93597177D01*
X127556889Y-93603321D01*
X127524812Y-93672110D01*
X127524027Y-93673731D01*
X127489957Y-93741572D01*
X127487488Y-93748357D01*
X127487432Y-93748336D01*
X127484960Y-93755450D01*
X127485015Y-93755469D01*
X127482743Y-93762325D01*
X127467391Y-93836670D01*
X127467001Y-93838428D01*
X127449499Y-93912279D01*
X127448661Y-93919454D01*
X127448601Y-93919447D01*
X127447835Y-93926945D01*
X127447895Y-93926951D01*
X127447265Y-93934140D01*
X127449474Y-94010030D01*
X127449500Y-94011833D01*
X127449500Y-94905165D01*
X127429815Y-94972204D01*
X127377011Y-95017959D01*
X127307853Y-95027903D01*
X127244297Y-94998878D01*
X127229647Y-94983831D01*
X127217225Y-94968694D01*
X127212534Y-94962156D01*
X127195252Y-94934429D01*
X127151802Y-94888720D01*
X127148840Y-94885368D01*
X127110883Y-94839117D01*
X127110881Y-94839115D01*
X127110880Y-94839114D01*
X127085500Y-94818285D01*
X127079894Y-94813073D01*
X127055059Y-94786947D01*
X127006088Y-94752861D01*
X127002184Y-94749909D01*
X126958538Y-94714090D01*
X126958535Y-94714088D01*
X126958531Y-94714085D01*
X126926602Y-94697019D01*
X126920406Y-94693225D01*
X126888051Y-94670706D01*
X126836328Y-94648509D01*
X126831552Y-94646213D01*
X126784727Y-94621186D01*
X126784721Y-94621183D01*
X126746841Y-94609692D01*
X126740388Y-94607337D01*
X126701061Y-94590461D01*
X126701059Y-94590460D01*
X126701058Y-94590460D01*
X126649218Y-94579806D01*
X126643708Y-94578407D01*
X126596139Y-94563977D01*
X126596128Y-94563975D01*
X126553368Y-94559763D01*
X126546962Y-94558792D01*
X126501743Y-94549500D01*
X126501741Y-94549500D01*
X126452200Y-94549500D01*
X126446119Y-94549201D01*
X126400000Y-94544659D01*
X126353881Y-94549201D01*
X126347800Y-94549500D01*
X124115782Y-94549500D01*
X124048743Y-94529815D01*
X124028101Y-94513181D01*
X122786819Y-93271899D01*
X122753334Y-93210576D01*
X122750500Y-93184218D01*
X122750500Y-92464282D01*
X122770185Y-92397243D01*
X122822989Y-92351488D01*
X122892147Y-92341544D01*
X122955703Y-92370569D01*
X122962181Y-92376601D01*
X123683487Y-93097907D01*
X123684552Y-93098998D01*
X123719752Y-93136028D01*
X123745440Y-93163052D01*
X123745447Y-93163058D01*
X123775850Y-93184218D01*
X123795803Y-93198106D01*
X123799544Y-93200926D01*
X123847093Y-93239698D01*
X123877545Y-93255604D01*
X123884258Y-93259672D01*
X123912451Y-93279295D01*
X123968829Y-93303489D01*
X123973078Y-93305507D01*
X124027451Y-93333909D01*
X124054989Y-93341788D01*
X124060474Y-93343358D01*
X124067868Y-93345990D01*
X124099442Y-93359540D01*
X124099445Y-93359540D01*
X124099446Y-93359541D01*
X124159522Y-93371887D01*
X124164100Y-93373010D01*
X124166204Y-93373612D01*
X124223082Y-93389887D01*
X124257339Y-93392495D01*
X124265114Y-93393586D01*
X124298755Y-93400500D01*
X124298759Y-93400500D01*
X124360098Y-93400500D01*
X124364804Y-93400678D01*
X124392095Y-93402757D01*
X124425975Y-93405337D01*
X124425975Y-93405336D01*
X124425976Y-93405337D01*
X124460059Y-93400996D01*
X124467889Y-93400500D01*
X126886507Y-93400500D01*
X126888069Y-93400519D01*
X126925283Y-93401462D01*
X126976358Y-93402757D01*
X126976358Y-93402756D01*
X126976363Y-93402757D01*
X127036753Y-93391932D01*
X127041412Y-93391280D01*
X127083607Y-93386988D01*
X127102438Y-93385074D01*
X127135227Y-93374786D01*
X127142840Y-93372918D01*
X127176653Y-93366858D01*
X127233621Y-93344101D01*
X127238053Y-93342524D01*
X127296588Y-93324159D01*
X127326627Y-93307484D01*
X127333708Y-93304122D01*
X127365617Y-93291377D01*
X127416854Y-93257608D01*
X127420851Y-93255187D01*
X127474502Y-93225409D01*
X127500568Y-93203030D01*
X127506843Y-93198300D01*
X127507145Y-93198101D01*
X127535519Y-93179402D01*
X127578917Y-93136002D01*
X127582336Y-93132834D01*
X127628895Y-93092866D01*
X127649931Y-93065688D01*
X127655101Y-93059818D01*
X129102020Y-91612899D01*
X129163341Y-91579416D01*
X129233033Y-91584400D01*
G37*
%TD.AperFunction*%
%TA.AperFunction,Conductor*%
G36*
X117505703Y-76221070D02*
G01*
X117512181Y-76227102D01*
X118563181Y-77278102D01*
X118596666Y-77339425D01*
X118599500Y-77365783D01*
X118599500Y-77984217D01*
X118579815Y-78051256D01*
X118563181Y-78071898D01*
X117512181Y-79122898D01*
X117450858Y-79156383D01*
X117381166Y-79151399D01*
X117325233Y-79109527D01*
X117300816Y-79044063D01*
X117300500Y-79035217D01*
X117300500Y-76314783D01*
X117320185Y-76247744D01*
X117372989Y-76201989D01*
X117442147Y-76192045D01*
X117505703Y-76221070D01*
G37*
%TD.AperFunction*%
%TA.AperFunction,Conductor*%
G36*
X150763632Y-32700542D02*
G01*
X151029725Y-32710498D01*
X151240083Y-32718764D01*
X151244532Y-32719102D01*
X151498474Y-32747715D01*
X151723599Y-32774360D01*
X151727803Y-32775006D01*
X151975951Y-32821958D01*
X152201486Y-32866819D01*
X152205353Y-32867721D01*
X152448152Y-32932779D01*
X152670788Y-32995569D01*
X152674411Y-32996713D01*
X152911032Y-33079511D01*
X153128863Y-33159873D01*
X153132161Y-33161200D01*
X153361068Y-33261071D01*
X153362204Y-33261581D01*
X153572984Y-33358752D01*
X153575928Y-33360207D01*
X153796514Y-33476790D01*
X153797762Y-33477469D01*
X154000527Y-33591023D01*
X154003162Y-33592587D01*
X154209167Y-33722028D01*
X154214243Y-33725218D01*
X154215685Y-33726152D01*
X154408995Y-33855318D01*
X154411367Y-33856984D01*
X154611833Y-34004935D01*
X154613374Y-34006110D01*
X154796053Y-34150123D01*
X154798049Y-34151767D01*
X154986878Y-34314267D01*
X154988507Y-34315721D01*
X155159352Y-34473648D01*
X155161094Y-34475324D01*
X155337174Y-34651404D01*
X155338862Y-34653159D01*
X155496777Y-34823991D01*
X155498238Y-34825628D01*
X155660723Y-35014440D01*
X155662383Y-35016456D01*
X155806368Y-35199099D01*
X155807563Y-35200665D01*
X155955514Y-35401131D01*
X155957180Y-35403503D01*
X156086334Y-35596795D01*
X156087280Y-35598255D01*
X156219890Y-35809301D01*
X156221488Y-35811993D01*
X156335008Y-36014698D01*
X156335728Y-36016022D01*
X156452277Y-36236542D01*
X156453759Y-36239541D01*
X156550914Y-36450288D01*
X156551436Y-36451451D01*
X156651296Y-36680333D01*
X156652638Y-36683668D01*
X156732986Y-36901463D01*
X156815784Y-37138086D01*
X156816936Y-37141735D01*
X156879721Y-37364353D01*
X156944770Y-37607118D01*
X156945688Y-37611057D01*
X156990539Y-37836534D01*
X157037489Y-38084677D01*
X157038140Y-38088917D01*
X157064779Y-38313983D01*
X157093394Y-38567950D01*
X157093737Y-38572459D01*
X157102021Y-38783300D01*
X157111957Y-39048868D01*
X157112000Y-39051152D01*
X157112000Y-121598847D01*
X157111957Y-121601132D01*
X157103485Y-121827555D01*
X157102021Y-121866699D01*
X157093737Y-122077539D01*
X157093394Y-122082048D01*
X157064779Y-122336015D01*
X157038140Y-122561081D01*
X157037489Y-122565321D01*
X156990539Y-122813464D01*
X156945692Y-123038927D01*
X156944770Y-123042880D01*
X156879721Y-123285645D01*
X156816936Y-123508263D01*
X156815784Y-123511912D01*
X156732986Y-123748535D01*
X156652638Y-123966330D01*
X156651296Y-123969665D01*
X156551436Y-124198547D01*
X156550914Y-124199710D01*
X156453759Y-124410457D01*
X156452269Y-124413472D01*
X156335728Y-124633976D01*
X156335008Y-124635300D01*
X156221488Y-124838005D01*
X156219890Y-124840697D01*
X156087280Y-125051743D01*
X156086334Y-125053203D01*
X155957180Y-125246495D01*
X155955514Y-125248867D01*
X155807563Y-125449333D01*
X155806368Y-125450899D01*
X155662406Y-125633515D01*
X155660710Y-125635574D01*
X155498243Y-125824364D01*
X155496777Y-125826007D01*
X155338862Y-125996839D01*
X155337174Y-125998594D01*
X155161094Y-126174674D01*
X155159339Y-126176362D01*
X154988507Y-126334277D01*
X154986864Y-126335743D01*
X154798074Y-126498210D01*
X154796015Y-126499906D01*
X154613399Y-126643868D01*
X154611833Y-126645063D01*
X154411367Y-126793014D01*
X154408995Y-126794680D01*
X154215703Y-126923834D01*
X154214243Y-126924780D01*
X154003197Y-127057390D01*
X154000505Y-127058988D01*
X153797800Y-127172508D01*
X153796476Y-127173228D01*
X153575972Y-127289769D01*
X153572957Y-127291259D01*
X153362210Y-127388414D01*
X153361047Y-127388936D01*
X153132165Y-127488796D01*
X153128830Y-127490138D01*
X152911035Y-127570486D01*
X152674412Y-127653284D01*
X152670763Y-127654436D01*
X152448145Y-127717221D01*
X152205380Y-127782270D01*
X152201427Y-127783192D01*
X151975964Y-127828039D01*
X151727821Y-127874989D01*
X151723581Y-127875640D01*
X151498515Y-127902279D01*
X151244548Y-127930894D01*
X151240038Y-127931237D01*
X151029389Y-127939513D01*
X150866148Y-127945621D01*
X150763632Y-127949457D01*
X150761348Y-127949500D01*
X112663652Y-127949500D01*
X112661367Y-127949457D01*
X112553909Y-127945436D01*
X112395609Y-127939513D01*
X112184960Y-127931237D01*
X112180450Y-127930894D01*
X111926483Y-127902279D01*
X111701417Y-127875640D01*
X111697177Y-127874989D01*
X111449034Y-127828039D01*
X111223557Y-127783188D01*
X111219618Y-127782270D01*
X110976853Y-127717221D01*
X110754235Y-127654436D01*
X110750586Y-127653284D01*
X110513963Y-127570486D01*
X110296168Y-127490138D01*
X110292833Y-127488796D01*
X110063951Y-127388936D01*
X110062788Y-127388414D01*
X109852041Y-127291259D01*
X109849042Y-127289777D01*
X109714187Y-127218504D01*
X109628522Y-127173228D01*
X109627198Y-127172508D01*
X109424493Y-127058988D01*
X109421813Y-127057397D01*
X109300045Y-126980885D01*
X109210755Y-126924780D01*
X109209295Y-126923834D01*
X109016003Y-126794680D01*
X109013631Y-126793014D01*
X108813165Y-126645063D01*
X108811599Y-126643868D01*
X108628956Y-126499883D01*
X108626940Y-126498223D01*
X108438128Y-126335738D01*
X108436491Y-126334277D01*
X108265659Y-126176362D01*
X108263904Y-126174674D01*
X108087824Y-125998594D01*
X108086148Y-125996852D01*
X107928221Y-125826007D01*
X107926755Y-125824364D01*
X107764267Y-125635549D01*
X107762623Y-125633553D01*
X107618610Y-125450874D01*
X107617435Y-125449333D01*
X107469484Y-125248867D01*
X107467818Y-125246495D01*
X107338664Y-125053203D01*
X107337718Y-125051743D01*
X107334528Y-125046667D01*
X107205087Y-124840662D01*
X107203523Y-124838027D01*
X107089969Y-124635262D01*
X107089290Y-124634014D01*
X106972707Y-124413428D01*
X106971252Y-124410484D01*
X106874081Y-124199704D01*
X106873562Y-124198547D01*
X106773702Y-123969665D01*
X106772373Y-123966363D01*
X106692007Y-123748521D01*
X106609214Y-123511912D01*
X106608069Y-123508288D01*
X106545279Y-123285652D01*
X106480221Y-123042853D01*
X106479319Y-123038986D01*
X106434458Y-122813451D01*
X106387506Y-122565303D01*
X106386860Y-122561099D01*
X106360215Y-122335974D01*
X106331602Y-122082032D01*
X106331264Y-122077581D01*
X106322988Y-121866962D01*
X106313040Y-121601078D01*
X106312999Y-121598901D01*
X106312999Y-105597870D01*
X110149500Y-105597870D01*
X110149501Y-105597876D01*
X110155908Y-105657483D01*
X110206202Y-105792328D01*
X110206206Y-105792335D01*
X110292452Y-105907544D01*
X110292455Y-105907547D01*
X110407664Y-105993793D01*
X110407671Y-105993797D01*
X110542517Y-106044091D01*
X110542516Y-106044091D01*
X110549444Y-106044835D01*
X110602127Y-106050500D01*
X112697872Y-106050499D01*
X112757483Y-106044091D01*
X112892331Y-105993796D01*
X113007546Y-105907546D01*
X113093796Y-105792331D01*
X113144091Y-105657483D01*
X113150500Y-105597873D01*
X113150500Y-104550005D01*
X115224357Y-104550005D01*
X115244890Y-104797812D01*
X115244892Y-104797824D01*
X115305936Y-105038881D01*
X115405826Y-105266606D01*
X115541833Y-105474782D01*
X115559985Y-105494500D01*
X115710256Y-105657738D01*
X115906491Y-105810474D01*
X115940380Y-105828814D01*
X116036290Y-105880718D01*
X116125190Y-105928828D01*
X116360386Y-106009571D01*
X116605665Y-106050500D01*
X116854335Y-106050500D01*
X117099614Y-106009571D01*
X117334810Y-105928828D01*
X117553509Y-105810474D01*
X117749744Y-105657738D01*
X117918164Y-105474785D01*
X118054173Y-105266607D01*
X118154063Y-105038881D01*
X118215108Y-104797821D01*
X118225347Y-104674255D01*
X118235643Y-104550005D01*
X118235643Y-104549994D01*
X118215109Y-104302187D01*
X118215107Y-104302175D01*
X118154063Y-104061118D01*
X118054173Y-103833393D01*
X117918166Y-103625217D01*
X117896557Y-103601744D01*
X117749744Y-103442262D01*
X117553509Y-103289526D01*
X117553507Y-103289525D01*
X117553506Y-103289524D01*
X117334811Y-103171172D01*
X117334802Y-103171169D01*
X117099616Y-103090429D01*
X116854335Y-103049500D01*
X116605665Y-103049500D01*
X116360383Y-103090429D01*
X116125197Y-103171169D01*
X116125188Y-103171172D01*
X115906493Y-103289524D01*
X115710257Y-103442261D01*
X115541833Y-103625217D01*
X115405826Y-103833393D01*
X115305936Y-104061118D01*
X115244892Y-104302175D01*
X115244890Y-104302187D01*
X115224357Y-104549994D01*
X115224357Y-104550005D01*
X113150500Y-104550005D01*
X113150499Y-103502128D01*
X113144091Y-103442517D01*
X113093796Y-103307669D01*
X113093795Y-103307668D01*
X113093793Y-103307664D01*
X113007547Y-103192455D01*
X113007544Y-103192452D01*
X112892335Y-103106206D01*
X112892328Y-103106202D01*
X112757482Y-103055908D01*
X112757483Y-103055908D01*
X112697883Y-103049501D01*
X112697881Y-103049500D01*
X112697873Y-103049500D01*
X112697864Y-103049500D01*
X110602129Y-103049500D01*
X110602123Y-103049501D01*
X110542516Y-103055908D01*
X110407671Y-103106202D01*
X110407664Y-103106206D01*
X110292455Y-103192452D01*
X110292452Y-103192455D01*
X110206206Y-103307664D01*
X110206202Y-103307671D01*
X110155908Y-103442517D01*
X110149501Y-103502116D01*
X110149501Y-103502123D01*
X110149500Y-103502135D01*
X110149500Y-105597870D01*
X106312999Y-105597870D01*
X106312999Y-96247870D01*
X112512000Y-96247870D01*
X112512001Y-96247876D01*
X112518408Y-96307483D01*
X112568702Y-96442328D01*
X112568706Y-96442335D01*
X112654952Y-96557544D01*
X112654955Y-96557547D01*
X112770164Y-96643793D01*
X112770171Y-96643797D01*
X112905017Y-96694091D01*
X112905016Y-96694091D01*
X112911944Y-96694835D01*
X112964627Y-96700500D01*
X114760372Y-96700499D01*
X114819983Y-96694091D01*
X114954831Y-96643796D01*
X115070046Y-96557546D01*
X115156296Y-96442331D01*
X115206591Y-96307483D01*
X115213000Y-96247873D01*
X115212999Y-94932275D01*
X115232684Y-94865237D01*
X115285487Y-94819482D01*
X115354646Y-94809538D01*
X115418202Y-94838563D01*
X115440519Y-94864015D01*
X115442374Y-94866829D01*
X115444815Y-94870857D01*
X115474588Y-94924498D01*
X115474589Y-94924499D01*
X115474591Y-94924502D01*
X115496968Y-94950567D01*
X115501693Y-94956835D01*
X115507454Y-94965576D01*
X115520598Y-94985519D01*
X115563978Y-95028899D01*
X115567169Y-95032343D01*
X115607131Y-95078892D01*
X115607130Y-95078892D01*
X115634299Y-95099923D01*
X115640186Y-95105107D01*
X117463972Y-96928892D01*
X119163181Y-98628101D01*
X119196666Y-98689424D01*
X119199500Y-98715782D01*
X119199500Y-104847798D01*
X119199201Y-104853878D01*
X119194659Y-104899999D01*
X119194659Y-104900000D01*
X119199189Y-104945999D01*
X119199408Y-104948938D01*
X119199499Y-104950739D01*
X119204434Y-104999276D01*
X119204371Y-104999282D01*
X119204473Y-104999661D01*
X119204474Y-104999663D01*
X119209132Y-105046957D01*
X119213976Y-105096130D01*
X119214034Y-105096419D01*
X119214904Y-105102228D01*
X119214924Y-105102429D01*
X119214927Y-105102441D01*
X119243938Y-105194906D01*
X119271184Y-105284722D01*
X119273980Y-105291473D01*
X119275816Y-105296528D01*
X119275841Y-105296588D01*
X119321387Y-105378649D01*
X119347016Y-105426595D01*
X119364089Y-105458537D01*
X119367474Y-105463602D01*
X119367271Y-105463737D01*
X119374454Y-105474304D01*
X119374588Y-105474497D01*
X119374591Y-105474502D01*
X119374834Y-105474785D01*
X119433225Y-105542804D01*
X119434108Y-105543856D01*
X119489117Y-105610884D01*
X119489395Y-105611112D01*
X119504810Y-105626188D01*
X119507134Y-105628895D01*
X119507137Y-105628897D01*
X119575639Y-105681923D01*
X119577005Y-105683011D01*
X119641462Y-105735910D01*
X119644939Y-105737768D01*
X119662389Y-105749072D01*
X119668042Y-105753448D01*
X119693014Y-105765697D01*
X119742778Y-105790107D01*
X119744701Y-105791092D01*
X119789927Y-105815266D01*
X119815273Y-105828814D01*
X119822477Y-105830999D01*
X119841093Y-105838333D01*
X119850729Y-105843060D01*
X119928088Y-105863089D01*
X119930484Y-105863763D01*
X120003868Y-105886024D01*
X120012956Y-105886918D01*
X120014926Y-105887113D01*
X120033854Y-105890474D01*
X120047711Y-105894062D01*
X120047715Y-105894063D01*
X120124133Y-105897938D01*
X120127034Y-105898154D01*
X120200000Y-105905341D01*
X120214630Y-105903899D01*
X120233056Y-105903462D01*
X120250936Y-105904369D01*
X120323253Y-105893289D01*
X120326525Y-105892879D01*
X120396132Y-105886024D01*
X120413632Y-105880714D01*
X120430837Y-105876808D01*
X120452071Y-105873556D01*
X120517515Y-105849317D01*
X120521019Y-105848138D01*
X120584727Y-105828814D01*
X120607730Y-105816517D01*
X120615421Y-105813057D01*
X120642887Y-105802886D01*
X120642891Y-105802883D01*
X120642894Y-105802882D01*
X120699238Y-105767762D01*
X120702801Y-105765701D01*
X120758538Y-105735910D01*
X120781310Y-105717220D01*
X120787840Y-105712535D01*
X120815571Y-105695252D01*
X120861288Y-105651793D01*
X120864631Y-105648839D01*
X120910883Y-105610883D01*
X120931717Y-105585495D01*
X120936915Y-105579904D01*
X120963053Y-105555059D01*
X120997143Y-105506079D01*
X121000088Y-105502185D01*
X121035910Y-105458538D01*
X121052989Y-105426582D01*
X121056770Y-105420410D01*
X121079295Y-105388049D01*
X121101504Y-105336293D01*
X121103783Y-105331554D01*
X121128814Y-105284727D01*
X121140309Y-105246828D01*
X121142656Y-105240398D01*
X121159540Y-105201058D01*
X121170196Y-105149201D01*
X121171587Y-105143723D01*
X121186024Y-105096132D01*
X121190237Y-105053345D01*
X121191202Y-105046982D01*
X121200500Y-105001741D01*
X121200500Y-104952200D01*
X121200799Y-104946119D01*
X121205341Y-104899999D01*
X121200799Y-104853878D01*
X121200500Y-104847798D01*
X121200500Y-98263491D01*
X121200520Y-98261921D01*
X121202757Y-98173641D01*
X121202756Y-98173640D01*
X121202757Y-98173637D01*
X121191933Y-98113249D01*
X121191280Y-98108587D01*
X121185074Y-98047563D01*
X121185074Y-98047562D01*
X121174784Y-98014768D01*
X121172917Y-98007155D01*
X121166858Y-97973347D01*
X121166857Y-97973345D01*
X121144102Y-97916379D01*
X121142521Y-97911938D01*
X121124157Y-97853407D01*
X121107488Y-97823378D01*
X121104117Y-97816278D01*
X121091378Y-97784386D01*
X121091377Y-97784383D01*
X121057620Y-97733163D01*
X121055180Y-97729134D01*
X121044379Y-97709675D01*
X121025409Y-97675498D01*
X121025407Y-97675495D01*
X121003033Y-97649434D01*
X120998302Y-97643159D01*
X120979402Y-97614481D01*
X120936012Y-97571091D01*
X120932822Y-97567648D01*
X120892867Y-97521106D01*
X120892863Y-97521102D01*
X120865698Y-97500074D01*
X120859803Y-97494882D01*
X117336819Y-93971897D01*
X117303334Y-93910574D01*
X117300500Y-93884216D01*
X117300500Y-92610883D01*
X117300499Y-91064778D01*
X117320184Y-90997743D01*
X117372987Y-90951988D01*
X117442146Y-90942044D01*
X117505702Y-90971069D01*
X117512180Y-90977101D01*
X118063181Y-91528101D01*
X118096666Y-91589424D01*
X118099500Y-91615782D01*
X118099500Y-93386506D01*
X118099480Y-93388076D01*
X118097243Y-93476362D01*
X118097243Y-93476370D01*
X118108064Y-93536739D01*
X118108718Y-93541404D01*
X118114925Y-93602430D01*
X118114927Y-93602444D01*
X118125208Y-93635213D01*
X118127079Y-93642837D01*
X118133142Y-93676652D01*
X118133142Y-93676655D01*
X118155894Y-93733612D01*
X118157474Y-93738051D01*
X118175841Y-93796588D01*
X118175844Y-93796595D01*
X118192509Y-93826619D01*
X118195879Y-93833714D01*
X118208622Y-93865614D01*
X118208627Y-93865624D01*
X118230808Y-93899280D01*
X118239375Y-93912279D01*
X118242377Y-93916833D01*
X118244818Y-93920863D01*
X118274588Y-93974498D01*
X118274589Y-93974499D01*
X118274591Y-93974502D01*
X118296968Y-94000567D01*
X118301693Y-94006835D01*
X118314263Y-94025906D01*
X118320598Y-94035519D01*
X118363978Y-94078899D01*
X118367169Y-94082343D01*
X118407131Y-94128892D01*
X118407134Y-94128895D01*
X118434294Y-94149918D01*
X118440190Y-94155111D01*
X123855641Y-99570562D01*
X123859720Y-99575063D01*
X123889117Y-99610883D01*
X123924828Y-99640191D01*
X123927058Y-99642111D01*
X123928425Y-99643346D01*
X123966398Y-99674308D01*
X123966384Y-99674324D01*
X123966705Y-99674558D01*
X124041461Y-99735909D01*
X124041693Y-99736064D01*
X124046423Y-99739559D01*
X124046593Y-99739698D01*
X124132592Y-99784620D01*
X124215273Y-99828814D01*
X124215276Y-99828815D01*
X124222027Y-99831612D01*
X124226901Y-99833888D01*
X124226948Y-99833907D01*
X124226951Y-99833909D01*
X124317172Y-99859724D01*
X124403868Y-99886024D01*
X124403870Y-99886024D01*
X124403873Y-99886025D01*
X124409842Y-99887213D01*
X124409794Y-99887451D01*
X124422365Y-99889848D01*
X124422580Y-99889886D01*
X124422582Y-99889887D01*
X124512322Y-99896720D01*
X124513666Y-99896838D01*
X124536835Y-99899119D01*
X124600000Y-99905341D01*
X124600346Y-99905306D01*
X124621921Y-99905066D01*
X124625477Y-99905337D01*
X124711435Y-99894389D01*
X124713117Y-99894199D01*
X124796132Y-99886024D01*
X124799896Y-99884881D01*
X124820228Y-99880534D01*
X124827328Y-99879630D01*
X124906133Y-99852692D01*
X124908151Y-99852042D01*
X124984727Y-99828814D01*
X124991369Y-99825263D01*
X125009706Y-99817290D01*
X125019873Y-99813816D01*
X125019876Y-99813813D01*
X125019879Y-99813813D01*
X125063015Y-99788418D01*
X125088727Y-99773282D01*
X125090945Y-99772038D01*
X125158538Y-99735910D01*
X125167125Y-99728861D01*
X125182883Y-99717856D01*
X125195227Y-99710591D01*
X125252019Y-99659280D01*
X125254233Y-99657374D01*
X125271326Y-99643346D01*
X125310883Y-99610883D01*
X125320203Y-99599525D01*
X125332925Y-99586183D01*
X125346214Y-99574179D01*
X125389531Y-99515186D01*
X125391520Y-99512625D01*
X125435910Y-99458538D01*
X125444527Y-99442414D01*
X125453933Y-99427482D01*
X125466649Y-99410167D01*
X125495787Y-99346748D01*
X125497426Y-99343447D01*
X125528814Y-99284727D01*
X125536383Y-99259776D01*
X125539376Y-99251884D01*
X125551606Y-99225269D01*
X125566627Y-99160536D01*
X125567672Y-99156627D01*
X125586024Y-99096132D01*
X125588912Y-99066803D01*
X125590215Y-99058886D01*
X125597603Y-99027054D01*
X125599200Y-98964018D01*
X125599478Y-98959526D01*
X125601954Y-98934385D01*
X125605341Y-98900000D01*
X125602122Y-98867322D01*
X125601843Y-98859663D01*
X125602462Y-98835287D01*
X125602757Y-98823637D01*
X125592229Y-98764905D01*
X125591557Y-98760062D01*
X125586024Y-98703868D01*
X125575508Y-98669205D01*
X125573812Y-98662146D01*
X125566859Y-98623349D01*
X125566857Y-98623343D01*
X125545975Y-98571066D01*
X125544221Y-98566063D01*
X125528814Y-98515273D01*
X125510152Y-98480360D01*
X125507255Y-98474132D01*
X125491377Y-98434381D01*
X125491377Y-98434380D01*
X125462251Y-98390189D01*
X125459347Y-98385311D01*
X125435910Y-98341462D01*
X125408645Y-98308240D01*
X125404810Y-98303035D01*
X125379402Y-98264482D01*
X125379399Y-98264479D01*
X125379398Y-98264477D01*
X125361885Y-98246965D01*
X125344362Y-98229442D01*
X125340283Y-98224941D01*
X125310884Y-98189118D01*
X125310883Y-98189117D01*
X125275046Y-98159706D01*
X125270547Y-98155627D01*
X123877101Y-96762181D01*
X123843616Y-96700858D01*
X123848600Y-96631166D01*
X123890472Y-96575233D01*
X123955936Y-96550816D01*
X123964782Y-96550500D01*
X126347800Y-96550500D01*
X126353881Y-96550799D01*
X126363930Y-96551788D01*
X126400000Y-96555341D01*
X126431510Y-96552237D01*
X126445999Y-96550811D01*
X126448941Y-96550591D01*
X126450738Y-96550500D01*
X126450742Y-96550500D01*
X126499663Y-96545525D01*
X126596132Y-96536024D01*
X126596151Y-96536017D01*
X126596391Y-96535971D01*
X126602230Y-96535095D01*
X126602438Y-96535074D01*
X126694992Y-96506034D01*
X126784727Y-96478814D01*
X126784735Y-96478809D01*
X126791463Y-96476023D01*
X126796533Y-96474181D01*
X126796575Y-96474162D01*
X126796588Y-96474159D01*
X126878648Y-96428612D01*
X126958538Y-96385910D01*
X126958544Y-96385904D01*
X126963604Y-96382525D01*
X126963740Y-96382729D01*
X126974215Y-96375608D01*
X126974503Y-96375408D01*
X127042854Y-96316728D01*
X127043749Y-96315977D01*
X127110883Y-96260883D01*
X127111103Y-96260614D01*
X127126198Y-96245180D01*
X127128895Y-96242866D01*
X127181926Y-96174354D01*
X127182997Y-96173011D01*
X127229646Y-96116170D01*
X127287392Y-96076836D01*
X127357236Y-96074965D01*
X127417005Y-96111153D01*
X127447720Y-96173909D01*
X127449499Y-96194835D01*
X127449500Y-104436294D01*
X127448191Y-104454263D01*
X127444710Y-104478025D01*
X127449264Y-104530064D01*
X127449500Y-104535470D01*
X127449500Y-104543712D01*
X127453202Y-104575391D01*
X127453386Y-104577185D01*
X127460000Y-104652792D01*
X127461461Y-104659867D01*
X127461403Y-104659878D01*
X127463034Y-104667237D01*
X127463092Y-104667224D01*
X127464757Y-104674249D01*
X127490708Y-104745551D01*
X127491299Y-104747253D01*
X127515182Y-104819326D01*
X127518236Y-104825874D01*
X127518182Y-104825898D01*
X127521470Y-104832688D01*
X127521521Y-104832663D01*
X127524761Y-104839113D01*
X127524762Y-104839114D01*
X127524763Y-104839117D01*
X127566494Y-104902567D01*
X127567443Y-104904058D01*
X127596238Y-104950742D01*
X127607289Y-104968657D01*
X127611766Y-104974319D01*
X127611719Y-104974356D01*
X127616482Y-104980202D01*
X127616528Y-104980164D01*
X127621173Y-104985699D01*
X127676363Y-105037768D01*
X127677657Y-105039025D01*
X128869405Y-106230773D01*
X128902890Y-106292096D01*
X128905127Y-106306298D01*
X128913975Y-106396129D01*
X128971188Y-106584733D01*
X129064086Y-106758532D01*
X129064090Y-106758539D01*
X129189116Y-106910883D01*
X129341460Y-107035909D01*
X129341467Y-107035913D01*
X129515266Y-107128811D01*
X129515269Y-107128811D01*
X129515273Y-107128814D01*
X129703868Y-107186024D01*
X129900000Y-107205341D01*
X130096132Y-107186024D01*
X130284727Y-107128814D01*
X130458538Y-107035910D01*
X130610883Y-106910883D01*
X130735910Y-106758538D01*
X130828814Y-106584727D01*
X130886024Y-106396132D01*
X130905341Y-106200000D01*
X130886024Y-106003868D01*
X130828814Y-105815273D01*
X130828811Y-105815269D01*
X130828811Y-105815266D01*
X130735913Y-105641467D01*
X130735909Y-105641460D01*
X130610883Y-105489116D01*
X130458539Y-105364090D01*
X130458532Y-105364086D01*
X130284733Y-105271188D01*
X130284727Y-105271186D01*
X130096132Y-105213976D01*
X130096129Y-105213975D01*
X130006298Y-105205127D01*
X129941511Y-105178965D01*
X129930773Y-105169405D01*
X128986818Y-104225450D01*
X128953333Y-104164127D01*
X128950499Y-104137769D01*
X128950499Y-95199999D01*
X130294659Y-95199999D01*
X130299201Y-95246119D01*
X130299500Y-95252200D01*
X130299500Y-96186506D01*
X130299480Y-96188076D01*
X130297243Y-96276362D01*
X130297243Y-96276370D01*
X130308064Y-96336739D01*
X130308718Y-96341404D01*
X130314925Y-96402430D01*
X130314927Y-96402444D01*
X130325208Y-96435213D01*
X130327079Y-96442837D01*
X130333142Y-96476652D01*
X130333142Y-96476655D01*
X130355894Y-96533612D01*
X130357474Y-96538051D01*
X130375841Y-96596588D01*
X130375844Y-96596595D01*
X130392509Y-96626619D01*
X130395879Y-96633714D01*
X130408622Y-96665614D01*
X130408627Y-96665624D01*
X130427389Y-96694091D01*
X130431612Y-96700500D01*
X130442377Y-96716833D01*
X130444818Y-96720863D01*
X130474588Y-96774498D01*
X130474589Y-96774499D01*
X130474591Y-96774502D01*
X130496968Y-96800567D01*
X130501693Y-96806835D01*
X130514263Y-96825906D01*
X130520598Y-96835519D01*
X130563978Y-96878899D01*
X130567169Y-96882343D01*
X130607131Y-96928892D01*
X130607134Y-96928895D01*
X130634294Y-96949918D01*
X130640190Y-96955111D01*
X133463180Y-99778101D01*
X133496665Y-99839424D01*
X133499499Y-99865782D01*
X133499499Y-114286506D01*
X133499479Y-114288075D01*
X133497243Y-114376361D01*
X133497243Y-114376370D01*
X133508064Y-114436739D01*
X133508718Y-114441404D01*
X133514925Y-114502430D01*
X133514927Y-114502444D01*
X133525208Y-114535213D01*
X133527079Y-114542837D01*
X133533142Y-114576652D01*
X133533142Y-114576655D01*
X133555894Y-114633612D01*
X133557474Y-114638051D01*
X133575841Y-114696588D01*
X133575844Y-114696595D01*
X133592509Y-114726619D01*
X133595879Y-114733714D01*
X133608622Y-114765614D01*
X133608627Y-114765624D01*
X133642377Y-114816833D01*
X133644818Y-114820863D01*
X133674588Y-114874498D01*
X133674589Y-114874499D01*
X133674591Y-114874502D01*
X133696968Y-114900567D01*
X133701693Y-114906835D01*
X133714263Y-114925906D01*
X133720598Y-114935519D01*
X133763978Y-114978899D01*
X133767169Y-114982343D01*
X133807131Y-115028892D01*
X133807134Y-115028895D01*
X133834294Y-115049918D01*
X133840189Y-115055110D01*
X135655641Y-116870562D01*
X135659720Y-116875063D01*
X135689117Y-116910883D01*
X135724828Y-116940191D01*
X135727058Y-116942111D01*
X135728425Y-116943346D01*
X135766398Y-116974308D01*
X135766384Y-116974324D01*
X135766705Y-116974558D01*
X135841461Y-117035909D01*
X135841693Y-117036064D01*
X135846423Y-117039559D01*
X135846593Y-117039698D01*
X135932592Y-117084620D01*
X136015273Y-117128814D01*
X136015276Y-117128815D01*
X136022027Y-117131612D01*
X136026901Y-117133888D01*
X136026948Y-117133907D01*
X136026951Y-117133909D01*
X136117172Y-117159724D01*
X136203868Y-117186024D01*
X136203870Y-117186024D01*
X136203873Y-117186025D01*
X136209842Y-117187213D01*
X136209794Y-117187451D01*
X136222365Y-117189848D01*
X136222580Y-117189886D01*
X136222582Y-117189887D01*
X136312322Y-117196720D01*
X136313666Y-117196838D01*
X136336835Y-117199119D01*
X136400000Y-117205341D01*
X136400346Y-117205306D01*
X136421921Y-117205066D01*
X136425477Y-117205337D01*
X136511435Y-117194389D01*
X136513117Y-117194199D01*
X136596132Y-117186024D01*
X136599896Y-117184881D01*
X136620228Y-117180534D01*
X136627328Y-117179630D01*
X136706149Y-117152687D01*
X136708137Y-117152046D01*
X136784727Y-117128814D01*
X136789990Y-117126000D01*
X143244500Y-117126000D01*
X143244501Y-117126009D01*
X143256052Y-117233450D01*
X143256054Y-117233462D01*
X143267260Y-117284972D01*
X143301383Y-117387497D01*
X143301386Y-117387503D01*
X143379171Y-117508537D01*
X143379179Y-117508548D01*
X143424923Y-117561340D01*
X143424926Y-117561343D01*
X143424930Y-117561347D01*
X143533664Y-117655567D01*
X143533667Y-117655568D01*
X143533668Y-117655569D01*
X143664536Y-117715336D01*
X143664537Y-117715336D01*
X143664541Y-117715338D01*
X143731580Y-117735023D01*
X143731584Y-117735024D01*
X143874000Y-117755500D01*
X143874003Y-117755500D01*
X153125990Y-117755500D01*
X153126000Y-117755500D01*
X153233456Y-117743947D01*
X153284967Y-117732741D01*
X153319197Y-117721347D01*
X153387497Y-117698616D01*
X153387501Y-117698613D01*
X153387504Y-117698613D01*
X153508543Y-117620825D01*
X153561347Y-117575070D01*
X153655567Y-117466336D01*
X153715338Y-117335459D01*
X153735023Y-117268420D01*
X153735024Y-117268416D01*
X153755500Y-117126000D01*
X153755500Y-106124000D01*
X153743947Y-106016544D01*
X153732741Y-105965033D01*
X153732637Y-105964722D01*
X153698616Y-105862502D01*
X153698613Y-105862496D01*
X153668260Y-105815266D01*
X153620825Y-105741457D01*
X153617628Y-105737767D01*
X153575076Y-105688659D01*
X153575072Y-105688656D01*
X153575070Y-105688653D01*
X153466336Y-105594433D01*
X153466333Y-105594431D01*
X153466331Y-105594430D01*
X153335463Y-105534663D01*
X153276195Y-105517260D01*
X153268420Y-105514977D01*
X153268416Y-105514976D01*
X153126000Y-105494500D01*
X143874000Y-105494500D01*
X143873991Y-105494500D01*
X143873990Y-105494501D01*
X143766549Y-105506052D01*
X143766537Y-105506054D01*
X143715027Y-105517260D01*
X143612502Y-105551383D01*
X143612496Y-105551386D01*
X143491462Y-105629171D01*
X143491451Y-105629179D01*
X143438659Y-105674923D01*
X143344433Y-105783664D01*
X143344430Y-105783668D01*
X143284663Y-105914536D01*
X143269836Y-105965033D01*
X143264977Y-105981580D01*
X143264976Y-105981584D01*
X143244500Y-106124000D01*
X143244500Y-117126000D01*
X136789990Y-117126000D01*
X136791372Y-117125261D01*
X136809712Y-117117288D01*
X136819872Y-117113816D01*
X136888757Y-117073265D01*
X136890911Y-117072056D01*
X136958538Y-117035910D01*
X136967125Y-117028861D01*
X136982883Y-117017856D01*
X136995227Y-117010591D01*
X137052025Y-116959274D01*
X137054211Y-116957391D01*
X137110883Y-116910883D01*
X137120211Y-116899516D01*
X137132923Y-116886185D01*
X137146213Y-116874179D01*
X137189526Y-116815192D01*
X137191540Y-116812602D01*
X137192812Y-116811051D01*
X137235910Y-116758538D01*
X137244527Y-116742414D01*
X137253933Y-116727482D01*
X137266649Y-116710167D01*
X137295786Y-116646751D01*
X137297435Y-116643431D01*
X137328812Y-116584731D01*
X137328814Y-116584726D01*
X137336383Y-116559773D01*
X137339381Y-116551871D01*
X137351605Y-116525268D01*
X137351606Y-116525265D01*
X137352331Y-116522138D01*
X137366623Y-116460547D01*
X137367669Y-116456634D01*
X137386024Y-116396132D01*
X137388911Y-116366806D01*
X137390216Y-116358881D01*
X137397603Y-116327054D01*
X137399200Y-116264018D01*
X137399478Y-116259526D01*
X137405341Y-116200000D01*
X137402122Y-116167322D01*
X137401843Y-116159663D01*
X137402757Y-116123638D01*
X137392231Y-116064912D01*
X137391557Y-116060047D01*
X137386024Y-116003868D01*
X137375509Y-115969207D01*
X137373810Y-115962138D01*
X137373624Y-115961101D01*
X137366858Y-115923347D01*
X137345977Y-115871074D01*
X137344223Y-115866071D01*
X137328812Y-115815268D01*
X137328811Y-115815267D01*
X137324872Y-115807898D01*
X137310148Y-115780352D01*
X137307258Y-115774138D01*
X137291378Y-115734383D01*
X137291374Y-115734378D01*
X137291373Y-115734374D01*
X137262251Y-115690189D01*
X137259347Y-115685311D01*
X137235910Y-115641462D01*
X137208645Y-115608240D01*
X137204810Y-115603035D01*
X137179402Y-115564482D01*
X137179399Y-115564479D01*
X137179398Y-115564477D01*
X137161885Y-115546965D01*
X137144362Y-115529442D01*
X137140283Y-115524941D01*
X137110884Y-115489118D01*
X137110883Y-115489117D01*
X137075046Y-115459706D01*
X137070547Y-115455627D01*
X135536819Y-113921899D01*
X135503334Y-113860576D01*
X135500500Y-113834218D01*
X135500500Y-99626000D01*
X142994500Y-99626000D01*
X142994501Y-99626009D01*
X143006052Y-99733450D01*
X143006054Y-99733462D01*
X143017260Y-99784972D01*
X143051383Y-99887497D01*
X143051386Y-99887503D01*
X143129171Y-100008537D01*
X143129179Y-100008548D01*
X143174923Y-100061340D01*
X143174926Y-100061343D01*
X143174930Y-100061347D01*
X143283664Y-100155567D01*
X143283667Y-100155568D01*
X143283668Y-100155569D01*
X143414536Y-100215336D01*
X143414537Y-100215336D01*
X143414541Y-100215338D01*
X143481580Y-100235023D01*
X143481584Y-100235024D01*
X143624000Y-100255500D01*
X143624003Y-100255500D01*
X153375990Y-100255500D01*
X153376000Y-100255500D01*
X153483456Y-100243947D01*
X153534967Y-100232741D01*
X153569197Y-100221347D01*
X153637497Y-100198616D01*
X153637501Y-100198613D01*
X153637504Y-100198613D01*
X153758543Y-100120825D01*
X153811347Y-100075070D01*
X153905567Y-99966336D01*
X153965338Y-99835459D01*
X153985023Y-99768420D01*
X153985024Y-99768416D01*
X154005500Y-99626000D01*
X154005500Y-88624000D01*
X153993947Y-88516544D01*
X153982741Y-88465033D01*
X153980599Y-88458598D01*
X153948616Y-88362502D01*
X153948613Y-88362496D01*
X153882250Y-88259235D01*
X153870825Y-88241457D01*
X153837859Y-88203412D01*
X153825076Y-88188659D01*
X153825072Y-88188656D01*
X153825070Y-88188653D01*
X153716336Y-88094433D01*
X153716333Y-88094431D01*
X153716331Y-88094430D01*
X153585463Y-88034663D01*
X153526195Y-88017260D01*
X153518420Y-88014977D01*
X153518416Y-88014976D01*
X153376000Y-87994500D01*
X143624000Y-87994500D01*
X143623991Y-87994500D01*
X143623990Y-87994501D01*
X143516549Y-88006052D01*
X143516537Y-88006054D01*
X143465027Y-88017260D01*
X143362502Y-88051383D01*
X143362496Y-88051386D01*
X143241462Y-88129171D01*
X143241451Y-88129179D01*
X143188659Y-88174923D01*
X143094433Y-88283664D01*
X143094430Y-88283668D01*
X143034663Y-88414536D01*
X143019836Y-88465033D01*
X143014977Y-88481580D01*
X143014976Y-88481584D01*
X142994500Y-88624000D01*
X142994500Y-99626000D01*
X135500500Y-99626000D01*
X135500500Y-99452200D01*
X135500799Y-99446120D01*
X135505341Y-99399999D01*
X135505341Y-99399994D01*
X135502121Y-99367315D01*
X135501842Y-99359655D01*
X135502756Y-99323639D01*
X135502755Y-99323638D01*
X135502756Y-99323636D01*
X135492230Y-99264915D01*
X135491558Y-99260072D01*
X135486024Y-99203868D01*
X135486019Y-99203853D01*
X135485969Y-99203596D01*
X135485093Y-99197756D01*
X135485074Y-99197562D01*
X135474789Y-99164784D01*
X135472917Y-99157155D01*
X135466858Y-99123349D01*
X135466858Y-99123347D01*
X135445979Y-99071077D01*
X135444224Y-99066074D01*
X135442040Y-99058873D01*
X135428814Y-99015273D01*
X135428811Y-99015267D01*
X135426020Y-99008529D01*
X135424172Y-99003442D01*
X135424158Y-99003409D01*
X135407489Y-98973378D01*
X135404118Y-98966279D01*
X135391378Y-98934385D01*
X135391377Y-98934383D01*
X135362246Y-98890183D01*
X135359353Y-98885323D01*
X135335910Y-98841462D01*
X135335902Y-98841453D01*
X135332525Y-98836397D01*
X135332727Y-98836261D01*
X135325559Y-98825715D01*
X135325413Y-98825506D01*
X135325409Y-98825498D01*
X135303030Y-98799431D01*
X135298309Y-98793170D01*
X135279402Y-98764481D01*
X135244356Y-98729435D01*
X135240278Y-98724935D01*
X135232766Y-98715782D01*
X135210883Y-98689117D01*
X135210881Y-98689115D01*
X135210880Y-98689114D01*
X135210606Y-98688889D01*
X135195185Y-98673806D01*
X135192869Y-98671108D01*
X135192868Y-98671107D01*
X135192867Y-98671106D01*
X135192866Y-98671105D01*
X135165698Y-98650075D01*
X135159804Y-98644883D01*
X132336818Y-95821897D01*
X132303333Y-95760574D01*
X132300500Y-95734225D01*
X132300500Y-95252200D01*
X132300799Y-95246119D01*
X132302312Y-95230758D01*
X132305341Y-95200000D01*
X132300806Y-95153961D01*
X132300589Y-95151034D01*
X132300500Y-95149283D01*
X132300500Y-95149258D01*
X132295525Y-95100336D01*
X132286024Y-95003868D01*
X132286022Y-95003863D01*
X132286022Y-95003858D01*
X132285967Y-95003579D01*
X132285093Y-94997751D01*
X132285074Y-94997562D01*
X132256034Y-94905007D01*
X132228814Y-94815273D01*
X132228810Y-94815266D01*
X132226021Y-94808532D01*
X132224174Y-94803448D01*
X132224160Y-94803417D01*
X132224159Y-94803412D01*
X132178612Y-94721351D01*
X132135910Y-94641462D01*
X132135904Y-94641455D01*
X132132527Y-94636400D01*
X132132729Y-94636264D01*
X132125522Y-94625661D01*
X132125411Y-94625501D01*
X132125410Y-94625499D01*
X132125409Y-94625498D01*
X132109818Y-94607337D01*
X132066773Y-94557194D01*
X132065890Y-94556142D01*
X132030632Y-94513181D01*
X132010883Y-94489117D01*
X132010880Y-94489114D01*
X132010878Y-94489112D01*
X132010606Y-94488889D01*
X131995185Y-94473806D01*
X131992866Y-94471104D01*
X131992864Y-94471103D01*
X131924358Y-94418075D01*
X131922977Y-94416974D01*
X131858539Y-94364090D01*
X131858536Y-94364089D01*
X131855064Y-94362233D01*
X131837607Y-94350925D01*
X131831959Y-94346553D01*
X131831958Y-94346552D01*
X131801133Y-94331432D01*
X131757220Y-94309891D01*
X131755298Y-94308907D01*
X131684723Y-94271184D01*
X131677521Y-94269000D01*
X131658909Y-94261667D01*
X131654427Y-94259469D01*
X131649270Y-94256939D01*
X131608731Y-94246443D01*
X131571922Y-94236912D01*
X131569496Y-94236230D01*
X131496132Y-94213976D01*
X131485054Y-94212884D01*
X131466149Y-94209526D01*
X131452285Y-94205937D01*
X131375875Y-94202060D01*
X131372941Y-94201841D01*
X131300003Y-94194659D01*
X131299996Y-94194659D01*
X131285369Y-94196099D01*
X131266945Y-94196537D01*
X131249068Y-94195631D01*
X131249058Y-94195631D01*
X131176784Y-94206703D01*
X131173474Y-94207119D01*
X131103872Y-94213975D01*
X131103866Y-94213976D01*
X131086367Y-94219284D01*
X131069163Y-94223190D01*
X131047932Y-94226443D01*
X131047921Y-94226446D01*
X130982510Y-94250672D01*
X130978975Y-94251862D01*
X130915276Y-94271184D01*
X130915272Y-94271186D01*
X130892275Y-94283478D01*
X130884576Y-94286942D01*
X130857113Y-94297114D01*
X130857109Y-94297116D01*
X130800751Y-94332243D01*
X130797195Y-94334298D01*
X130766091Y-94350925D01*
X130741467Y-94364087D01*
X130741454Y-94364095D01*
X130724737Y-94377815D01*
X130718689Y-94382777D01*
X130712154Y-94387466D01*
X130684429Y-94404747D01*
X130684427Y-94404749D01*
X130638732Y-94448184D01*
X130635349Y-94451173D01*
X130589114Y-94489118D01*
X130568282Y-94514500D01*
X130563071Y-94520105D01*
X130536947Y-94544939D01*
X130513653Y-94578407D01*
X130506302Y-94588969D01*
X130502866Y-94593905D01*
X130499905Y-94597818D01*
X130464092Y-94641457D01*
X130464089Y-94641463D01*
X130447018Y-94673399D01*
X130443225Y-94679593D01*
X130420706Y-94711948D01*
X130420705Y-94711950D01*
X130398504Y-94763680D01*
X130396209Y-94768456D01*
X130371186Y-94815272D01*
X130371184Y-94815276D01*
X130364121Y-94838563D01*
X130359692Y-94853159D01*
X130357339Y-94859607D01*
X130340461Y-94898937D01*
X130329806Y-94950778D01*
X130328406Y-94956294D01*
X130313975Y-95003870D01*
X130309763Y-95046632D01*
X130308792Y-95053038D01*
X130299500Y-95098257D01*
X130299500Y-95147798D01*
X130299201Y-95153878D01*
X130294659Y-95199999D01*
X128950499Y-95199999D01*
X128950499Y-94362229D01*
X128970184Y-94295190D01*
X128986818Y-94274548D01*
X129626153Y-93635213D01*
X130330775Y-92930591D01*
X130392096Y-92897108D01*
X130406295Y-92894871D01*
X130496132Y-92886024D01*
X130684727Y-92828814D01*
X130858538Y-92735910D01*
X131010883Y-92610883D01*
X131135910Y-92458538D01*
X131182930Y-92370569D01*
X131228811Y-92284733D01*
X131228811Y-92284732D01*
X131228814Y-92284727D01*
X131286024Y-92096132D01*
X131305341Y-91900000D01*
X131286024Y-91703868D01*
X131228814Y-91515273D01*
X131228811Y-91515269D01*
X131228811Y-91515266D01*
X131135913Y-91341467D01*
X131135909Y-91341460D01*
X131010883Y-91189116D01*
X130858539Y-91064090D01*
X130858532Y-91064086D01*
X130684733Y-90971188D01*
X130684727Y-90971186D01*
X130496132Y-90913976D01*
X130496129Y-90913975D01*
X130300000Y-90894659D01*
X130112736Y-90913102D01*
X130044090Y-90900083D01*
X129993379Y-90852018D01*
X129976705Y-90784167D01*
X129999361Y-90718072D01*
X130012895Y-90702024D01*
X130198001Y-90516918D01*
X130199014Y-90515931D01*
X130263053Y-90455059D01*
X130298097Y-90404709D01*
X130300924Y-90400957D01*
X130339698Y-90353407D01*
X130355607Y-90322948D01*
X130359667Y-90316248D01*
X130379295Y-90288049D01*
X130403492Y-90231660D01*
X130405498Y-90227435D01*
X130433909Y-90173049D01*
X130443357Y-90140022D01*
X130445988Y-90132633D01*
X130459540Y-90101058D01*
X130471895Y-90040930D01*
X130472999Y-90036429D01*
X130489886Y-89977418D01*
X130492494Y-89943157D01*
X130493585Y-89935389D01*
X130500500Y-89901743D01*
X130500500Y-89840398D01*
X130500679Y-89835688D01*
X130505337Y-89774524D01*
X130500997Y-89740442D01*
X130500500Y-89732603D01*
X130500500Y-88613453D01*
X130500520Y-88611883D01*
X130502756Y-88523637D01*
X130491932Y-88463247D01*
X130491282Y-88458617D01*
X130485074Y-88397562D01*
X130474790Y-88364786D01*
X130472917Y-88357154D01*
X130466858Y-88323349D01*
X130466858Y-88323347D01*
X130444102Y-88266378D01*
X130442521Y-88261937D01*
X130441673Y-88259235D01*
X130424159Y-88203412D01*
X130424158Y-88203410D01*
X130424157Y-88203407D01*
X130407488Y-88173378D01*
X130404117Y-88166278D01*
X130391378Y-88134386D01*
X130391377Y-88134383D01*
X130357620Y-88083163D01*
X130355180Y-88079134D01*
X130344379Y-88059675D01*
X130325409Y-88025498D01*
X130308715Y-88006052D01*
X130303033Y-87999433D01*
X130298301Y-87993158D01*
X130279402Y-87964481D01*
X130236013Y-87921093D01*
X130232823Y-87917650D01*
X130228782Y-87912942D01*
X130192866Y-87871105D01*
X130192861Y-87871101D01*
X130165698Y-87850074D01*
X130159811Y-87844890D01*
X129317010Y-87002090D01*
X129315914Y-87000966D01*
X129255061Y-86936949D01*
X129255060Y-86936948D01*
X129255059Y-86936947D01*
X129210428Y-86905883D01*
X129204709Y-86901902D01*
X129200946Y-86899064D01*
X129153413Y-86860305D01*
X129153406Y-86860300D01*
X129122959Y-86844397D01*
X129116251Y-86840334D01*
X129088049Y-86820705D01*
X129088046Y-86820703D01*
X129088045Y-86820703D01*
X129088041Y-86820701D01*
X129031680Y-86796514D01*
X129027424Y-86794493D01*
X128973057Y-86766094D01*
X128973050Y-86766091D01*
X128973049Y-86766091D01*
X128967008Y-86764362D01*
X128940030Y-86756642D01*
X128932630Y-86754008D01*
X128901057Y-86740459D01*
X128901058Y-86740459D01*
X128840966Y-86728109D01*
X128836391Y-86726986D01*
X128777420Y-86710113D01*
X128777425Y-86710113D01*
X128743158Y-86707503D01*
X128735380Y-86706412D01*
X128701742Y-86699500D01*
X128701741Y-86699500D01*
X128640402Y-86699500D01*
X128635695Y-86699321D01*
X128630121Y-86698896D01*
X128574524Y-86694662D01*
X128568241Y-86694822D01*
X128568172Y-86692135D01*
X128510740Y-86682859D01*
X128476519Y-86658656D01*
X127536818Y-85718955D01*
X127503333Y-85657632D01*
X127500500Y-85631283D01*
X127500500Y-84952199D01*
X127500799Y-84946119D01*
X127501871Y-84935230D01*
X127505341Y-84900000D01*
X127500806Y-84853961D01*
X127500589Y-84851034D01*
X127500500Y-84849283D01*
X127500500Y-84849258D01*
X127495525Y-84800336D01*
X127486024Y-84703868D01*
X127486022Y-84703863D01*
X127486022Y-84703858D01*
X127485967Y-84703579D01*
X127485093Y-84697751D01*
X127485074Y-84697562D01*
X127456034Y-84605007D01*
X127428814Y-84515273D01*
X127428810Y-84515266D01*
X127426021Y-84508532D01*
X127424174Y-84503448D01*
X127424160Y-84503417D01*
X127424159Y-84503412D01*
X127378612Y-84421351D01*
X127335910Y-84341462D01*
X127335904Y-84341455D01*
X127332527Y-84336400D01*
X127332729Y-84336264D01*
X127325522Y-84325661D01*
X127325411Y-84325501D01*
X127325410Y-84325499D01*
X127325409Y-84325498D01*
X127310030Y-84307584D01*
X127266773Y-84257194D01*
X127265890Y-84256142D01*
X127239333Y-84223784D01*
X127210883Y-84189117D01*
X127210880Y-84189114D01*
X127210878Y-84189112D01*
X127210606Y-84188889D01*
X127195185Y-84173806D01*
X127192866Y-84171104D01*
X127192864Y-84171103D01*
X127124358Y-84118075D01*
X127122977Y-84116974D01*
X127058539Y-84064090D01*
X127058536Y-84064089D01*
X127055064Y-84062233D01*
X127037607Y-84050925D01*
X127031959Y-84046553D01*
X127031958Y-84046552D01*
X126987491Y-84024740D01*
X126957220Y-84009891D01*
X126955298Y-84008907D01*
X126884723Y-83971184D01*
X126877521Y-83969000D01*
X126858909Y-83961667D01*
X126854427Y-83959469D01*
X126849270Y-83956939D01*
X126808731Y-83946443D01*
X126771922Y-83936912D01*
X126769496Y-83936230D01*
X126696132Y-83913976D01*
X126685054Y-83912884D01*
X126666149Y-83909526D01*
X126652285Y-83905937D01*
X126575875Y-83902060D01*
X126572941Y-83901841D01*
X126500003Y-83894659D01*
X126499996Y-83894659D01*
X126485369Y-83896099D01*
X126466945Y-83896537D01*
X126449068Y-83895631D01*
X126449058Y-83895631D01*
X126376784Y-83906703D01*
X126373474Y-83907119D01*
X126303872Y-83913975D01*
X126303866Y-83913976D01*
X126286367Y-83919284D01*
X126269163Y-83923190D01*
X126252946Y-83925675D01*
X126247929Y-83926444D01*
X126247928Y-83926444D01*
X126243284Y-83927156D01*
X126174036Y-83917854D01*
X126120810Y-83872590D01*
X126100505Y-83805736D01*
X126100500Y-83804587D01*
X126100500Y-80759597D01*
X126100500Y-77665778D01*
X126120184Y-77598743D01*
X126136813Y-77578106D01*
X126170562Y-77544357D01*
X126175064Y-77540278D01*
X126210883Y-77510883D01*
X126240217Y-77475137D01*
X126242125Y-77472924D01*
X126243322Y-77471598D01*
X126243340Y-77471581D01*
X126274529Y-77433329D01*
X126274530Y-77433328D01*
X126274580Y-77433368D01*
X126274777Y-77433026D01*
X126335910Y-77358538D01*
X126335917Y-77358523D01*
X126336057Y-77358317D01*
X126339574Y-77353559D01*
X126339600Y-77353526D01*
X126339697Y-77353408D01*
X126384609Y-77267427D01*
X126428814Y-77184727D01*
X126428814Y-77184724D01*
X126431613Y-77177970D01*
X126433891Y-77173093D01*
X126433911Y-77173043D01*
X126455308Y-77098259D01*
X126459716Y-77082854D01*
X126486024Y-76996132D01*
X126486025Y-76996126D01*
X126487214Y-76990151D01*
X126487452Y-76990198D01*
X126489828Y-76977738D01*
X126489883Y-76977425D01*
X126489886Y-76977418D01*
X126496719Y-76887672D01*
X126496834Y-76886363D01*
X126499433Y-76859975D01*
X126505341Y-76800000D01*
X126505306Y-76799654D01*
X126505067Y-76778063D01*
X126505337Y-76774524D01*
X126494394Y-76688605D01*
X126494199Y-76686873D01*
X126486024Y-76603872D01*
X126486024Y-76603868D01*
X126484881Y-76600101D01*
X126480530Y-76579746D01*
X126479630Y-76572675D01*
X126479630Y-76572673D01*
X126452699Y-76493886D01*
X126452042Y-76491848D01*
X126428814Y-76415273D01*
X126425261Y-76408625D01*
X126417288Y-76390286D01*
X126413816Y-76380128D01*
X126413814Y-76380125D01*
X126413811Y-76380117D01*
X126373287Y-76311279D01*
X126372049Y-76309073D01*
X126335910Y-76241462D01*
X126335909Y-76241460D01*
X126328859Y-76232870D01*
X126317854Y-76217113D01*
X126310590Y-76204773D01*
X126259304Y-76148008D01*
X126257383Y-76145778D01*
X126243983Y-76129450D01*
X126210883Y-76089117D01*
X126199520Y-76079791D01*
X126186186Y-76067077D01*
X126174179Y-76053787D01*
X126174178Y-76053786D01*
X126174176Y-76053784D01*
X126174173Y-76053782D01*
X126115233Y-76010501D01*
X126112596Y-76008454D01*
X126058541Y-75964092D01*
X126058539Y-75964091D01*
X126058538Y-75964090D01*
X126042413Y-75955471D01*
X126027478Y-75946062D01*
X126010174Y-75933355D01*
X126010169Y-75933352D01*
X126010167Y-75933351D01*
X125956359Y-75908627D01*
X125946775Y-75904223D01*
X125943436Y-75902565D01*
X125911170Y-75885319D01*
X125884727Y-75871186D01*
X125884724Y-75871185D01*
X125884722Y-75871184D01*
X125859769Y-75863614D01*
X125851874Y-75860619D01*
X125825273Y-75848397D01*
X125825260Y-75848392D01*
X125760590Y-75833386D01*
X125756606Y-75832321D01*
X125696133Y-75813975D01*
X125666812Y-75811088D01*
X125658864Y-75809780D01*
X125627052Y-75802397D01*
X125564046Y-75800801D01*
X125559539Y-75800522D01*
X125500001Y-75794659D01*
X125499996Y-75794659D01*
X125467312Y-75797877D01*
X125459660Y-75798156D01*
X125423638Y-75797244D01*
X125423628Y-75797244D01*
X125364922Y-75807767D01*
X125360059Y-75808441D01*
X125303868Y-75813975D01*
X125269207Y-75824489D01*
X125262146Y-75826186D01*
X125223350Y-75833141D01*
X125223338Y-75833144D01*
X125171070Y-75854022D01*
X125166070Y-75855775D01*
X125115272Y-75871186D01*
X125080354Y-75889848D01*
X125074126Y-75892746D01*
X125034383Y-75908623D01*
X125034374Y-75908627D01*
X124990193Y-75937744D01*
X124985302Y-75940655D01*
X124941465Y-75964087D01*
X124908252Y-75991343D01*
X124903037Y-75995186D01*
X124864486Y-76020593D01*
X124829449Y-76055629D01*
X124824941Y-76059714D01*
X124789117Y-76089115D01*
X124789115Y-76089117D01*
X124759714Y-76124941D01*
X124755627Y-76129450D01*
X124402089Y-76482989D01*
X124400965Y-76484085D01*
X124336946Y-76544942D01*
X124301899Y-76595294D01*
X124299062Y-76599056D01*
X124260302Y-76646592D01*
X124260299Y-76646597D01*
X124244392Y-76677047D01*
X124240324Y-76683761D01*
X124220702Y-76711954D01*
X124196509Y-76768330D01*
X124194488Y-76772584D01*
X124166091Y-76826951D01*
X124166090Y-76826952D01*
X124156640Y-76859975D01*
X124154007Y-76867371D01*
X124140459Y-76898943D01*
X124128113Y-76959019D01*
X124126990Y-76963595D01*
X124110113Y-77022577D01*
X124110113Y-77022579D01*
X124107503Y-77056841D01*
X124106414Y-77064608D01*
X124100980Y-77091052D01*
X124099500Y-77098258D01*
X124099500Y-77159597D01*
X124099321Y-77164306D01*
X124094662Y-77225474D01*
X124095639Y-77233141D01*
X124099003Y-77259560D01*
X124099500Y-77267388D01*
X124099500Y-78708471D01*
X124079815Y-78775510D01*
X124027011Y-78821265D01*
X123957853Y-78831209D01*
X123939507Y-78827132D01*
X123896143Y-78813978D01*
X123896127Y-78813975D01*
X123866818Y-78811088D01*
X123858878Y-78809781D01*
X123850201Y-78807768D01*
X123827052Y-78802396D01*
X123764030Y-78800799D01*
X123759524Y-78800520D01*
X123700002Y-78794659D01*
X123699995Y-78794659D01*
X123667320Y-78797876D01*
X123659670Y-78798155D01*
X123623641Y-78797243D01*
X123623632Y-78797243D01*
X123564910Y-78807768D01*
X123560048Y-78808442D01*
X123503868Y-78813975D01*
X123469214Y-78824487D01*
X123462152Y-78826185D01*
X123423348Y-78833140D01*
X123423346Y-78833141D01*
X123371069Y-78854022D01*
X123366069Y-78855776D01*
X123315273Y-78871185D01*
X123280363Y-78889844D01*
X123274134Y-78892743D01*
X123234384Y-78908621D01*
X123190191Y-78937746D01*
X123185299Y-78940657D01*
X123141461Y-78964090D01*
X123108246Y-78991349D01*
X123103029Y-78995192D01*
X123064485Y-79020595D01*
X123064483Y-79020596D01*
X123029449Y-79055629D01*
X123024941Y-79059715D01*
X122989116Y-79089116D01*
X122959715Y-79124941D01*
X122955627Y-79129451D01*
X122002091Y-80082987D01*
X122000967Y-80084083D01*
X121936946Y-80144942D01*
X121901899Y-80195294D01*
X121899062Y-80199056D01*
X121860302Y-80246592D01*
X121860299Y-80246597D01*
X121844392Y-80277047D01*
X121840324Y-80283761D01*
X121820702Y-80311954D01*
X121796509Y-80368330D01*
X121794488Y-80372584D01*
X121766091Y-80426951D01*
X121766090Y-80426952D01*
X121756640Y-80459975D01*
X121754007Y-80467371D01*
X121740459Y-80498943D01*
X121728113Y-80559019D01*
X121726990Y-80563595D01*
X121710113Y-80622577D01*
X121710113Y-80622579D01*
X121707503Y-80656841D01*
X121706414Y-80664608D01*
X121700980Y-80691052D01*
X121699500Y-80698258D01*
X121699500Y-80759597D01*
X121699321Y-80764306D01*
X121694662Y-80825474D01*
X121696707Y-80841527D01*
X121699003Y-80859560D01*
X121699500Y-80867388D01*
X121699500Y-83710642D01*
X121679815Y-83777681D01*
X121627011Y-83823436D01*
X121557853Y-83833380D01*
X121544419Y-83830683D01*
X121507740Y-83821186D01*
X121471923Y-83811912D01*
X121469497Y-83811230D01*
X121396133Y-83788976D01*
X121385054Y-83787884D01*
X121366149Y-83784526D01*
X121352285Y-83780937D01*
X121275875Y-83777060D01*
X121272941Y-83776841D01*
X121200003Y-83769659D01*
X121199996Y-83769659D01*
X121185369Y-83771099D01*
X121166945Y-83771537D01*
X121149068Y-83770631D01*
X121149058Y-83770631D01*
X121076784Y-83781703D01*
X121073474Y-83782119D01*
X121003872Y-83788975D01*
X121003866Y-83788976D01*
X120986367Y-83794284D01*
X120969163Y-83798190D01*
X120947932Y-83801443D01*
X120947921Y-83801446D01*
X120882510Y-83825672D01*
X120878975Y-83826862D01*
X120815276Y-83846184D01*
X120815272Y-83846186D01*
X120792275Y-83858478D01*
X120784576Y-83861942D01*
X120757113Y-83872114D01*
X120757109Y-83872116D01*
X120700751Y-83907243D01*
X120697195Y-83909298D01*
X120673713Y-83921851D01*
X120641467Y-83939087D01*
X120641454Y-83939095D01*
X120626558Y-83951321D01*
X120618689Y-83957777D01*
X120612154Y-83962466D01*
X120584429Y-83979747D01*
X120584427Y-83979749D01*
X120538732Y-84023184D01*
X120535350Y-84026173D01*
X120503167Y-84052585D01*
X120438858Y-84079900D01*
X120369990Y-84068110D01*
X120318429Y-84020959D01*
X120300500Y-83956734D01*
X120300500Y-81165781D01*
X120320185Y-81098742D01*
X120336814Y-81078105D01*
X122470556Y-78944362D01*
X122475045Y-78940293D01*
X122510883Y-78910883D01*
X122540223Y-78875130D01*
X122542144Y-78872902D01*
X122543316Y-78871603D01*
X122543340Y-78871580D01*
X122574453Y-78833422D01*
X122635910Y-78758538D01*
X122635918Y-78758521D01*
X122636055Y-78758319D01*
X122639564Y-78753571D01*
X122639698Y-78753407D01*
X122684620Y-78667407D01*
X122728814Y-78584727D01*
X122728817Y-78584717D01*
X122731612Y-78577969D01*
X122733890Y-78573094D01*
X122733902Y-78573060D01*
X122733909Y-78573049D01*
X122759724Y-78482827D01*
X122786024Y-78396132D01*
X122786024Y-78396126D01*
X122787212Y-78390159D01*
X122787451Y-78390206D01*
X122789843Y-78377662D01*
X122789884Y-78377427D01*
X122789887Y-78377418D01*
X122796720Y-78287674D01*
X122796838Y-78286331D01*
X122797961Y-78274921D01*
X122805341Y-78200000D01*
X122805306Y-78199654D01*
X122805067Y-78178062D01*
X122805337Y-78174524D01*
X122794394Y-78088605D01*
X122794199Y-78086872D01*
X122786024Y-78003869D01*
X122786023Y-78003866D01*
X122784879Y-78000093D01*
X122780532Y-77979758D01*
X122779630Y-77972672D01*
X122752698Y-77893881D01*
X122752041Y-77891843D01*
X122728814Y-77815273D01*
X122725261Y-77808625D01*
X122717288Y-77790286D01*
X122713816Y-77780128D01*
X122673293Y-77711289D01*
X122672046Y-77709066D01*
X122635908Y-77641459D01*
X122628863Y-77632875D01*
X122617857Y-77617116D01*
X122610592Y-77604775D01*
X122610591Y-77604773D01*
X122559292Y-77547994D01*
X122557375Y-77545767D01*
X122510885Y-77489118D01*
X122505712Y-77484873D01*
X122499520Y-77479791D01*
X122486186Y-77467077D01*
X122474179Y-77453787D01*
X122474178Y-77453786D01*
X122474176Y-77453784D01*
X122474173Y-77453782D01*
X122415233Y-77410501D01*
X122412596Y-77408454D01*
X122358541Y-77364092D01*
X122358539Y-77364091D01*
X122358538Y-77364090D01*
X122342413Y-77355471D01*
X122327478Y-77346062D01*
X122310174Y-77333355D01*
X122310169Y-77333352D01*
X122310167Y-77333351D01*
X122256359Y-77308627D01*
X122246775Y-77304223D01*
X122243436Y-77302565D01*
X122197666Y-77278102D01*
X122184727Y-77271186D01*
X122184724Y-77271185D01*
X122184722Y-77271184D01*
X122159769Y-77263614D01*
X122151874Y-77260619D01*
X122125271Y-77248396D01*
X122125260Y-77248392D01*
X122060591Y-77233385D01*
X122056609Y-77232320D01*
X121996135Y-77213976D01*
X121996128Y-77213975D01*
X121966820Y-77211088D01*
X121958876Y-77209781D01*
X121927050Y-77202396D01*
X121927052Y-77202396D01*
X121864030Y-77200799D01*
X121859524Y-77200520D01*
X121800002Y-77194659D01*
X121799995Y-77194659D01*
X121767320Y-77197876D01*
X121759670Y-77198155D01*
X121723640Y-77197243D01*
X121723639Y-77197243D01*
X121723637Y-77197243D01*
X121723635Y-77197243D01*
X121723625Y-77197244D01*
X121664917Y-77207766D01*
X121660057Y-77208440D01*
X121603870Y-77213975D01*
X121603862Y-77213977D01*
X121569206Y-77224490D01*
X121562142Y-77226188D01*
X121523350Y-77233141D01*
X121523341Y-77233143D01*
X121471070Y-77254022D01*
X121466070Y-77255775D01*
X121415272Y-77271186D01*
X121380354Y-77289848D01*
X121374126Y-77292746D01*
X121334383Y-77308623D01*
X121334374Y-77308627D01*
X121290193Y-77337744D01*
X121285302Y-77340655D01*
X121241465Y-77364087D01*
X121208252Y-77391343D01*
X121203037Y-77395186D01*
X121164486Y-77420593D01*
X121129444Y-77455634D01*
X121124936Y-77459720D01*
X121089117Y-77489117D01*
X121059720Y-77524935D01*
X121055633Y-77529444D01*
X120812181Y-77772897D01*
X120750858Y-77806382D01*
X120681167Y-77801398D01*
X120625233Y-77759527D01*
X120600816Y-77694062D01*
X120600500Y-77685216D01*
X120600500Y-76913451D01*
X120600520Y-76911881D01*
X120602756Y-76823642D01*
X120602755Y-76823641D01*
X120602756Y-76823636D01*
X120591929Y-76763233D01*
X120591282Y-76758620D01*
X120585074Y-76697562D01*
X120585073Y-76697560D01*
X120585073Y-76697557D01*
X120574790Y-76664787D01*
X120572917Y-76657154D01*
X120566858Y-76623348D01*
X120544102Y-76566378D01*
X120542521Y-76561937D01*
X120537189Y-76544942D01*
X120524159Y-76503412D01*
X120524158Y-76503410D01*
X120524157Y-76503407D01*
X120507488Y-76473378D01*
X120504117Y-76466278D01*
X120491378Y-76434386D01*
X120491377Y-76434383D01*
X120457620Y-76383163D01*
X120455180Y-76379134D01*
X120444379Y-76359675D01*
X120425409Y-76325498D01*
X120425407Y-76325495D01*
X120403033Y-76299434D01*
X120398302Y-76293159D01*
X120392900Y-76284962D01*
X120379402Y-76264481D01*
X120336012Y-76221091D01*
X120332822Y-76217648D01*
X120292867Y-76171106D01*
X120292863Y-76171102D01*
X120265698Y-76150074D01*
X120259803Y-76144882D01*
X118836819Y-74721897D01*
X118803334Y-74660574D01*
X118800500Y-74634216D01*
X118800500Y-74374003D01*
X133494499Y-74374003D01*
X133494500Y-79929500D01*
X133494500Y-85376000D01*
X133494501Y-85376009D01*
X133506052Y-85483450D01*
X133506054Y-85483462D01*
X133517260Y-85534972D01*
X133551383Y-85637497D01*
X133551386Y-85637503D01*
X133629171Y-85758537D01*
X133629179Y-85758548D01*
X133674923Y-85811340D01*
X133674926Y-85811343D01*
X133674930Y-85811347D01*
X133783664Y-85905567D01*
X133783667Y-85905568D01*
X133783668Y-85905569D01*
X133914536Y-85965336D01*
X133914537Y-85965336D01*
X133914541Y-85965338D01*
X133981580Y-85985023D01*
X133981584Y-85985024D01*
X134124000Y-86005500D01*
X134124003Y-86005500D01*
X143625990Y-86005500D01*
X143626000Y-86005500D01*
X143733456Y-85993947D01*
X143784967Y-85982741D01*
X143819197Y-85971347D01*
X143887497Y-85948616D01*
X143887501Y-85948613D01*
X143887504Y-85948613D01*
X144008543Y-85870825D01*
X144061347Y-85825070D01*
X144155567Y-85716336D01*
X144215338Y-85585459D01*
X144235023Y-85518420D01*
X144235024Y-85518416D01*
X144255500Y-85376000D01*
X144255500Y-83477870D01*
X148362000Y-83477870D01*
X148362001Y-83477876D01*
X148368408Y-83537483D01*
X148418702Y-83672328D01*
X148418706Y-83672335D01*
X148504952Y-83787544D01*
X148504955Y-83787547D01*
X148620164Y-83873793D01*
X148620171Y-83873797D01*
X148755017Y-83924091D01*
X148755016Y-83924091D01*
X148761944Y-83924835D01*
X148814627Y-83930500D01*
X151910372Y-83930499D01*
X151969983Y-83924091D01*
X152104831Y-83873796D01*
X152220046Y-83787546D01*
X152306296Y-83672331D01*
X152356591Y-83537483D01*
X152363000Y-83477873D01*
X152362999Y-80382128D01*
X152356591Y-80322517D01*
X152352651Y-80311954D01*
X152306297Y-80187671D01*
X152306293Y-80187664D01*
X152220047Y-80072455D01*
X152220044Y-80072452D01*
X152104835Y-79986206D01*
X152104828Y-79986202D01*
X151969982Y-79935908D01*
X151969983Y-79935908D01*
X151910383Y-79929501D01*
X151910381Y-79929500D01*
X151910373Y-79929500D01*
X151910364Y-79929500D01*
X148814629Y-79929500D01*
X148814623Y-79929501D01*
X148755016Y-79935908D01*
X148620171Y-79986202D01*
X148620164Y-79986206D01*
X148504955Y-80072452D01*
X148504952Y-80072455D01*
X148418706Y-80187664D01*
X148418702Y-80187671D01*
X148368408Y-80322517D01*
X148363483Y-80368330D01*
X148362001Y-80382123D01*
X148362000Y-80382135D01*
X148362000Y-83477870D01*
X144255500Y-83477870D01*
X144255500Y-76850001D01*
X148356890Y-76850001D01*
X148377304Y-77135433D01*
X148438128Y-77415037D01*
X148438130Y-77415043D01*
X148438131Y-77415046D01*
X148519377Y-77632875D01*
X148538135Y-77683166D01*
X148675270Y-77934309D01*
X148675275Y-77934317D01*
X148846754Y-78163387D01*
X148846770Y-78163405D01*
X149049094Y-78365729D01*
X149049112Y-78365745D01*
X149278182Y-78537224D01*
X149278190Y-78537229D01*
X149529333Y-78674364D01*
X149529332Y-78674364D01*
X149529336Y-78674365D01*
X149529339Y-78674367D01*
X149797454Y-78774369D01*
X149797460Y-78774370D01*
X149797462Y-78774371D01*
X150077066Y-78835195D01*
X150077068Y-78835195D01*
X150077072Y-78835196D01*
X150330720Y-78853337D01*
X150362499Y-78855610D01*
X150362500Y-78855610D01*
X150362501Y-78855610D01*
X150391095Y-78853564D01*
X150647928Y-78835196D01*
X150656787Y-78833269D01*
X150927537Y-78774371D01*
X150927537Y-78774370D01*
X150927546Y-78774369D01*
X151195661Y-78674367D01*
X151446815Y-78537226D01*
X151675895Y-78365739D01*
X151878239Y-78163395D01*
X152049726Y-77934315D01*
X152186867Y-77683161D01*
X152286869Y-77415046D01*
X152292025Y-77391343D01*
X152347695Y-77135433D01*
X152347695Y-77135432D01*
X152347696Y-77135428D01*
X152368110Y-76850000D01*
X152366224Y-76823636D01*
X152358237Y-76711954D01*
X152347696Y-76564572D01*
X152334391Y-76503412D01*
X152286871Y-76284962D01*
X152286870Y-76284960D01*
X152286869Y-76284954D01*
X152186867Y-76016839D01*
X152182288Y-76008454D01*
X152049729Y-75765690D01*
X152049724Y-75765682D01*
X151878245Y-75536612D01*
X151878229Y-75536594D01*
X151675905Y-75334270D01*
X151675887Y-75334254D01*
X151446817Y-75162775D01*
X151446809Y-75162770D01*
X151195666Y-75025635D01*
X151195667Y-75025635D01*
X151088414Y-74985632D01*
X150927546Y-74925631D01*
X150927543Y-74925630D01*
X150927537Y-74925628D01*
X150647933Y-74864804D01*
X150362501Y-74844390D01*
X150362499Y-74844390D01*
X150077066Y-74864804D01*
X149797462Y-74925628D01*
X149529333Y-75025635D01*
X149278190Y-75162770D01*
X149278182Y-75162775D01*
X149049112Y-75334254D01*
X149049094Y-75334270D01*
X148846770Y-75536594D01*
X148846754Y-75536612D01*
X148675275Y-75765682D01*
X148675270Y-75765690D01*
X148538135Y-76016833D01*
X148438128Y-76284962D01*
X148377304Y-76564566D01*
X148356890Y-76849998D01*
X148356890Y-76850001D01*
X144255500Y-76850001D01*
X144255500Y-74374000D01*
X144243947Y-74266544D01*
X144232741Y-74215033D01*
X144232637Y-74214722D01*
X144198616Y-74112502D01*
X144198613Y-74112496D01*
X144120828Y-73991462D01*
X144120825Y-73991457D01*
X144120820Y-73991451D01*
X144075076Y-73938659D01*
X144075072Y-73938656D01*
X144075070Y-73938653D01*
X143966336Y-73844433D01*
X143966333Y-73844431D01*
X143966331Y-73844430D01*
X143835463Y-73784663D01*
X143776195Y-73767260D01*
X143768420Y-73764977D01*
X143768416Y-73764976D01*
X143626000Y-73744500D01*
X134124000Y-73744500D01*
X134123991Y-73744500D01*
X134123990Y-73744501D01*
X134016549Y-73756052D01*
X134016537Y-73756054D01*
X133965027Y-73767260D01*
X133862502Y-73801383D01*
X133862496Y-73801386D01*
X133741462Y-73879171D01*
X133741451Y-73879179D01*
X133688659Y-73924923D01*
X133594433Y-74033664D01*
X133594430Y-74033668D01*
X133534663Y-74164536D01*
X133519836Y-74215033D01*
X133514977Y-74231580D01*
X133514976Y-74231584D01*
X133494502Y-74373990D01*
X133494500Y-74374001D01*
X133494499Y-74374003D01*
X118800500Y-74374003D01*
X118800500Y-72474309D01*
X118800499Y-70165778D01*
X118820184Y-70098743D01*
X118836809Y-70078111D01*
X119614914Y-69300005D01*
X135294659Y-69300005D01*
X135294694Y-69300361D01*
X135294933Y-69321923D01*
X135294662Y-69325472D01*
X135305604Y-69411393D01*
X135305802Y-69413148D01*
X135313975Y-69496130D01*
X135313977Y-69496137D01*
X135315125Y-69499923D01*
X135319463Y-69520220D01*
X135320368Y-69527324D01*
X135320369Y-69527329D01*
X135347297Y-69606110D01*
X135347960Y-69608164D01*
X135371186Y-69684728D01*
X135371188Y-69684733D01*
X135374735Y-69691369D01*
X135382708Y-69709705D01*
X135386184Y-69719872D01*
X135426700Y-69788699D01*
X135427949Y-69790924D01*
X135464091Y-69858539D01*
X135464092Y-69858540D01*
X135471143Y-69867133D01*
X135482143Y-69882884D01*
X135489409Y-69895226D01*
X135540695Y-69951991D01*
X135542609Y-69954213D01*
X135559721Y-69975064D01*
X135589118Y-70010884D01*
X135600473Y-70020203D01*
X135613815Y-70032926D01*
X135625816Y-70046209D01*
X135625820Y-70046212D01*
X135625821Y-70046213D01*
X135684774Y-70089503D01*
X135687402Y-70091544D01*
X135741460Y-70135909D01*
X135757583Y-70144527D01*
X135772519Y-70153936D01*
X135789831Y-70166648D01*
X135789832Y-70166648D01*
X135789833Y-70166649D01*
X135853230Y-70195778D01*
X135856556Y-70197430D01*
X135888338Y-70214417D01*
X135915273Y-70228814D01*
X135934117Y-70234530D01*
X135940231Y-70236385D01*
X135948127Y-70239380D01*
X135974732Y-70251605D01*
X136039421Y-70266616D01*
X136043366Y-70267670D01*
X136103868Y-70286024D01*
X136133194Y-70288912D01*
X136141115Y-70290216D01*
X136172946Y-70297603D01*
X136172941Y-70297603D01*
X136183740Y-70297876D01*
X136235978Y-70299200D01*
X136240470Y-70299477D01*
X136300000Y-70305341D01*
X136332676Y-70302121D01*
X136340328Y-70301843D01*
X136371136Y-70302624D01*
X136376360Y-70302757D01*
X136376360Y-70302756D01*
X136376363Y-70302757D01*
X136435100Y-70292229D01*
X136439948Y-70291557D01*
X136496132Y-70286024D01*
X136530808Y-70275504D01*
X136537836Y-70273814D01*
X136576653Y-70266858D01*
X136595143Y-70259471D01*
X136628928Y-70245977D01*
X136633932Y-70244222D01*
X136684727Y-70228814D01*
X136719653Y-70210145D01*
X136725856Y-70207258D01*
X136765617Y-70191377D01*
X136809825Y-70162239D01*
X136814678Y-70159352D01*
X136858538Y-70135910D01*
X136891764Y-70108640D01*
X136896957Y-70104815D01*
X136935519Y-70079402D01*
X136970562Y-70044357D01*
X136975063Y-70040279D01*
X136999526Y-70020203D01*
X137010883Y-70010883D01*
X137040279Y-69975062D01*
X137044357Y-69970562D01*
X138514916Y-68500003D01*
X142494659Y-68500003D01*
X142496099Y-68514630D01*
X142496537Y-68533053D01*
X142495631Y-68550936D01*
X142501480Y-68589117D01*
X142506703Y-68623214D01*
X142507119Y-68626524D01*
X142513975Y-68696131D01*
X142519282Y-68713626D01*
X142523189Y-68730831D01*
X142526443Y-68752068D01*
X142526445Y-68752075D01*
X142550670Y-68817483D01*
X142551860Y-68821019D01*
X142571186Y-68884728D01*
X142583478Y-68907724D01*
X142586943Y-68915426D01*
X142588586Y-68919862D01*
X142597114Y-68942887D01*
X142597115Y-68942888D01*
X142597116Y-68942892D01*
X142621364Y-68981793D01*
X142632243Y-68999247D01*
X142634299Y-69002806D01*
X142664090Y-69058538D01*
X142682776Y-69081308D01*
X142687469Y-69087850D01*
X142701144Y-69109790D01*
X142704748Y-69115571D01*
X142748194Y-69161276D01*
X142751172Y-69164647D01*
X142789117Y-69210883D01*
X142814502Y-69231717D01*
X142820093Y-69236914D01*
X142844941Y-69263053D01*
X142893918Y-69297143D01*
X142897810Y-69300086D01*
X142941462Y-69335910D01*
X142973399Y-69352980D01*
X142979585Y-69356767D01*
X142999563Y-69370673D01*
X143011950Y-69379295D01*
X143011952Y-69379296D01*
X143063683Y-69401495D01*
X143068446Y-69403784D01*
X143115273Y-69428814D01*
X143153166Y-69440308D01*
X143159599Y-69442656D01*
X143198942Y-69459540D01*
X143228582Y-69465631D01*
X143250776Y-69470192D01*
X143256296Y-69471593D01*
X143303868Y-69486024D01*
X143346644Y-69490236D01*
X143353026Y-69491204D01*
X143367700Y-69494219D01*
X143398256Y-69500500D01*
X143398259Y-69500500D01*
X143447800Y-69500500D01*
X143453881Y-69500799D01*
X143463930Y-69501788D01*
X143500000Y-69505341D01*
X143536069Y-69501788D01*
X143546119Y-69500799D01*
X143552200Y-69500500D01*
X147310300Y-69500500D01*
X147316381Y-69500799D01*
X147326430Y-69501788D01*
X147362500Y-69505341D01*
X147394010Y-69502237D01*
X147408499Y-69500811D01*
X147411441Y-69500591D01*
X147413238Y-69500500D01*
X147413242Y-69500500D01*
X147462163Y-69495525D01*
X147558632Y-69486024D01*
X147558651Y-69486017D01*
X147558891Y-69485971D01*
X147564730Y-69485095D01*
X147564938Y-69485074D01*
X147657492Y-69456034D01*
X147747227Y-69428814D01*
X147747235Y-69428809D01*
X147753963Y-69426023D01*
X147759033Y-69424181D01*
X147759075Y-69424162D01*
X147759088Y-69424159D01*
X147841148Y-69378612D01*
X147921038Y-69335910D01*
X147921044Y-69335904D01*
X147926104Y-69332525D01*
X147926240Y-69332729D01*
X147936715Y-69325608D01*
X147937003Y-69325408D01*
X148005354Y-69266728D01*
X148006249Y-69265977D01*
X148073383Y-69210883D01*
X148073603Y-69210614D01*
X148088698Y-69195180D01*
X148091395Y-69192866D01*
X148144425Y-69124355D01*
X148145498Y-69123011D01*
X148198407Y-69058542D01*
X148198407Y-69058541D01*
X148198410Y-69058538D01*
X148200266Y-69055063D01*
X148211576Y-69037605D01*
X148215948Y-69031958D01*
X148252618Y-68957199D01*
X148253582Y-68955314D01*
X148291314Y-68884727D01*
X148293500Y-68877517D01*
X148300830Y-68858912D01*
X148305560Y-68849271D01*
X148325590Y-68771906D01*
X148326262Y-68769518D01*
X148348524Y-68696132D01*
X148349613Y-68685065D01*
X148352973Y-68666148D01*
X148356563Y-68652285D01*
X148360438Y-68575861D01*
X148360654Y-68572967D01*
X148367841Y-68500000D01*
X148366399Y-68485369D01*
X148365962Y-68466937D01*
X148366869Y-68449064D01*
X148355791Y-68376754D01*
X148355378Y-68373464D01*
X148352842Y-68347715D01*
X148348524Y-68303868D01*
X148343213Y-68286361D01*
X148339309Y-68269167D01*
X148336056Y-68247929D01*
X148311820Y-68182494D01*
X148310635Y-68178969D01*
X148291314Y-68115273D01*
X148279018Y-68092270D01*
X148275555Y-68084572D01*
X148265387Y-68057116D01*
X148265386Y-68057113D01*
X148230256Y-68000751D01*
X148228202Y-67997199D01*
X148209588Y-67962374D01*
X148198411Y-67941463D01*
X148198409Y-67941460D01*
X148179725Y-67918694D01*
X148175034Y-67912156D01*
X148157752Y-67884429D01*
X148114302Y-67838720D01*
X148111340Y-67835368D01*
X148073383Y-67789117D01*
X148073381Y-67789115D01*
X148073380Y-67789114D01*
X148048000Y-67768285D01*
X148042394Y-67763073D01*
X148021183Y-67740759D01*
X148017561Y-67736949D01*
X148017558Y-67736946D01*
X147968590Y-67702863D01*
X147964684Y-67699909D01*
X147921038Y-67664090D01*
X147921035Y-67664088D01*
X147921031Y-67664085D01*
X147889102Y-67647019D01*
X147882906Y-67643225D01*
X147850551Y-67620706D01*
X147798828Y-67598509D01*
X147794052Y-67596213D01*
X147747227Y-67571186D01*
X147747221Y-67571183D01*
X147709341Y-67559692D01*
X147702888Y-67557337D01*
X147663561Y-67540461D01*
X147663559Y-67540460D01*
X147663558Y-67540460D01*
X147611718Y-67529806D01*
X147606208Y-67528407D01*
X147558639Y-67513977D01*
X147558628Y-67513975D01*
X147515868Y-67509763D01*
X147509462Y-67508792D01*
X147464243Y-67499500D01*
X147464241Y-67499500D01*
X147414700Y-67499500D01*
X147408619Y-67499201D01*
X147362500Y-67494659D01*
X147316381Y-67499201D01*
X147310300Y-67499500D01*
X143552200Y-67499500D01*
X143546119Y-67499201D01*
X143500000Y-67494659D01*
X143454001Y-67499189D01*
X143451062Y-67499408D01*
X143449257Y-67499499D01*
X143400388Y-67504468D01*
X143303859Y-67513976D01*
X143303558Y-67514037D01*
X143297767Y-67514904D01*
X143297576Y-67514923D01*
X143297554Y-67514927D01*
X143229667Y-67536227D01*
X143205007Y-67543965D01*
X143156450Y-67558695D01*
X143115265Y-67571188D01*
X143108515Y-67573984D01*
X143103460Y-67575820D01*
X143103405Y-67575844D01*
X143021327Y-67621400D01*
X142941464Y-67664088D01*
X142936402Y-67667471D01*
X142936268Y-67667270D01*
X142925566Y-67674542D01*
X142925498Y-67674590D01*
X142857212Y-67733211D01*
X142856160Y-67734094D01*
X142789119Y-67789113D01*
X142789109Y-67789123D01*
X142788864Y-67789423D01*
X142773821Y-67804801D01*
X142771111Y-67807128D01*
X142771107Y-67807132D01*
X142771105Y-67807134D01*
X142718074Y-67875642D01*
X142716995Y-67876996D01*
X142664093Y-67941456D01*
X142664085Y-67941469D01*
X142662224Y-67944951D01*
X142650937Y-67962374D01*
X142646555Y-67968035D01*
X142646553Y-67968038D01*
X142609880Y-68042802D01*
X142608895Y-68044724D01*
X142571185Y-68115273D01*
X142571185Y-68115274D01*
X142568998Y-68122483D01*
X142561672Y-68141079D01*
X142556943Y-68150721D01*
X142556939Y-68150731D01*
X142536920Y-68228045D01*
X142536230Y-68230501D01*
X142513976Y-68303866D01*
X142512885Y-68314938D01*
X142509527Y-68333848D01*
X142505937Y-68347715D01*
X142502060Y-68424123D01*
X142501841Y-68427057D01*
X142494659Y-68499995D01*
X142494659Y-68500003D01*
X138514916Y-68500003D01*
X141664920Y-65350000D01*
X149966841Y-65350000D01*
X149987436Y-65585403D01*
X149987438Y-65585413D01*
X150048594Y-65813655D01*
X150048596Y-65813659D01*
X150048597Y-65813663D01*
X150117666Y-65961781D01*
X150148465Y-66027830D01*
X150148467Y-66027834D01*
X150240017Y-66158580D01*
X150284005Y-66221401D01*
X150451099Y-66388495D01*
X150482043Y-66410162D01*
X150644665Y-66524032D01*
X150644667Y-66524033D01*
X150644670Y-66524035D01*
X150858837Y-66623903D01*
X151087092Y-66685063D01*
X151275418Y-66701539D01*
X151322499Y-66705659D01*
X151322500Y-66705659D01*
X151322501Y-66705659D01*
X151361734Y-66702226D01*
X151557908Y-66685063D01*
X151786163Y-66623903D01*
X152000330Y-66524035D01*
X152193901Y-66388495D01*
X152360995Y-66221401D01*
X152496535Y-66027830D01*
X152596403Y-65813663D01*
X152657563Y-65585408D01*
X152678159Y-65350000D01*
X152657563Y-65114592D01*
X152596403Y-64886337D01*
X152496535Y-64672171D01*
X152484593Y-64655115D01*
X152360994Y-64478597D01*
X152193902Y-64311506D01*
X152193895Y-64311501D01*
X152000334Y-64175967D01*
X152000330Y-64175965D01*
X151912937Y-64135213D01*
X151786163Y-64076097D01*
X151786159Y-64076096D01*
X151786155Y-64076094D01*
X151557913Y-64014938D01*
X151557903Y-64014936D01*
X151322501Y-63994341D01*
X151322499Y-63994341D01*
X151087096Y-64014936D01*
X151087086Y-64014938D01*
X150858844Y-64076094D01*
X150858835Y-64076098D01*
X150644671Y-64175964D01*
X150644669Y-64175965D01*
X150451097Y-64311505D01*
X150284005Y-64478597D01*
X150148465Y-64672169D01*
X150148464Y-64672171D01*
X150048598Y-64886335D01*
X150048594Y-64886344D01*
X149987438Y-65114586D01*
X149987436Y-65114596D01*
X149966841Y-65349999D01*
X149966841Y-65350000D01*
X141664920Y-65350000D01*
X143878101Y-63136819D01*
X143939425Y-63103334D01*
X143965783Y-63100500D01*
X149047800Y-63100500D01*
X149053881Y-63100799D01*
X149063930Y-63101788D01*
X149100000Y-63105341D01*
X149131510Y-63102237D01*
X149145999Y-63100811D01*
X149148941Y-63100591D01*
X149150738Y-63100500D01*
X149150742Y-63100500D01*
X149199663Y-63095525D01*
X149296132Y-63086024D01*
X149296151Y-63086017D01*
X149296391Y-63085971D01*
X149302230Y-63085095D01*
X149302438Y-63085074D01*
X149394992Y-63056034D01*
X149484727Y-63028814D01*
X149484735Y-63028809D01*
X149491463Y-63026023D01*
X149496533Y-63024181D01*
X149496575Y-63024162D01*
X149496588Y-63024159D01*
X149578648Y-62978612D01*
X149658538Y-62935910D01*
X149658544Y-62935904D01*
X149663604Y-62932525D01*
X149663740Y-62932729D01*
X149674215Y-62925608D01*
X149674503Y-62925408D01*
X149742854Y-62866728D01*
X149743749Y-62865977D01*
X149810883Y-62810883D01*
X149811103Y-62810614D01*
X149826198Y-62795180D01*
X149828895Y-62792866D01*
X149881925Y-62724355D01*
X149882998Y-62723011D01*
X149935907Y-62658542D01*
X149935907Y-62658541D01*
X149935910Y-62658538D01*
X149937766Y-62655063D01*
X149949076Y-62637605D01*
X149953448Y-62631958D01*
X149990118Y-62557199D01*
X149991082Y-62555314D01*
X150028814Y-62484727D01*
X150031000Y-62477517D01*
X150038330Y-62458912D01*
X150043060Y-62449271D01*
X150063090Y-62371906D01*
X150063762Y-62369518D01*
X150086024Y-62296132D01*
X150087113Y-62285065D01*
X150090473Y-62266148D01*
X150094063Y-62252285D01*
X150097938Y-62175861D01*
X150098154Y-62172967D01*
X150105341Y-62100000D01*
X150103899Y-62085369D01*
X150103462Y-62066937D01*
X150104369Y-62049064D01*
X150093291Y-61976754D01*
X150092878Y-61973464D01*
X150086024Y-61903872D01*
X150086024Y-61903868D01*
X150080713Y-61886361D01*
X150076809Y-61869167D01*
X150073556Y-61847929D01*
X150049320Y-61782494D01*
X150048135Y-61778969D01*
X150028814Y-61715273D01*
X150016518Y-61692270D01*
X150013055Y-61684572D01*
X150002887Y-61657116D01*
X150002886Y-61657113D01*
X149967756Y-61600751D01*
X149965702Y-61597199D01*
X149935910Y-61541462D01*
X149935909Y-61541460D01*
X149917225Y-61518694D01*
X149912534Y-61512156D01*
X149895252Y-61484429D01*
X149851802Y-61438720D01*
X149848840Y-61435368D01*
X149810883Y-61389117D01*
X149810881Y-61389115D01*
X149810880Y-61389114D01*
X149785500Y-61368285D01*
X149779894Y-61363073D01*
X149755059Y-61336947D01*
X149731577Y-61320603D01*
X149706090Y-61302863D01*
X149702184Y-61299909D01*
X149658538Y-61264090D01*
X149658535Y-61264088D01*
X149658531Y-61264085D01*
X149626602Y-61247019D01*
X149620406Y-61243225D01*
X149588051Y-61220706D01*
X149536328Y-61198509D01*
X149531552Y-61196213D01*
X149484727Y-61171186D01*
X149484721Y-61171183D01*
X149446841Y-61159692D01*
X149440388Y-61157337D01*
X149401061Y-61140461D01*
X149401059Y-61140460D01*
X149401058Y-61140460D01*
X149349218Y-61129806D01*
X149343708Y-61128407D01*
X149296139Y-61113977D01*
X149296128Y-61113975D01*
X149253368Y-61109763D01*
X149246962Y-61108792D01*
X149201743Y-61099500D01*
X149201741Y-61099500D01*
X149152200Y-61099500D01*
X149146119Y-61099201D01*
X149100000Y-61094659D01*
X149053881Y-61099201D01*
X149047800Y-61099500D01*
X143513493Y-61099500D01*
X143511930Y-61099480D01*
X143423637Y-61097243D01*
X143423628Y-61097243D01*
X143363260Y-61108064D01*
X143358595Y-61108718D01*
X143297563Y-61114925D01*
X143297555Y-61114927D01*
X143264781Y-61125210D01*
X143257154Y-61127082D01*
X143223350Y-61133141D01*
X143166384Y-61155894D01*
X143161948Y-61157473D01*
X143103414Y-61175840D01*
X143103412Y-61175841D01*
X143073385Y-61192506D01*
X143066293Y-61195874D01*
X143034383Y-61208621D01*
X142983154Y-61242383D01*
X142979126Y-61244824D01*
X142925502Y-61274588D01*
X142925499Y-61274590D01*
X142899427Y-61296970D01*
X142893160Y-61301695D01*
X142864482Y-61320598D01*
X142864475Y-61320603D01*
X142821116Y-61363962D01*
X142817661Y-61367164D01*
X142771106Y-61407132D01*
X142771105Y-61407133D01*
X142750076Y-61434300D01*
X142744884Y-61440194D01*
X135629451Y-68555627D01*
X135624941Y-68559715D01*
X135589119Y-68589114D01*
X135559794Y-68624845D01*
X135557886Y-68627062D01*
X135556663Y-68628415D01*
X135525552Y-68666568D01*
X135464080Y-68741473D01*
X135463912Y-68741725D01*
X135460441Y-68746421D01*
X135460309Y-68746582D01*
X135460299Y-68746597D01*
X135415402Y-68832546D01*
X135371182Y-68915279D01*
X135368382Y-68922038D01*
X135366115Y-68926891D01*
X135366089Y-68926957D01*
X135340286Y-69017132D01*
X135313974Y-69103871D01*
X135312788Y-69109837D01*
X135312552Y-69109790D01*
X135310125Y-69122514D01*
X135310112Y-69122587D01*
X135303280Y-69212306D01*
X135303160Y-69213674D01*
X135294659Y-69299998D01*
X135294659Y-69300005D01*
X119614914Y-69300005D01*
X120033062Y-68881857D01*
X120037564Y-68877778D01*
X120037864Y-68877532D01*
X120073383Y-68848383D01*
X120102703Y-68812654D01*
X120104638Y-68810410D01*
X120105827Y-68809093D01*
X120105841Y-68809080D01*
X120137058Y-68770794D01*
X120198410Y-68696038D01*
X120198416Y-68696025D01*
X120198555Y-68695819D01*
X120202064Y-68691071D01*
X120202198Y-68690907D01*
X120247120Y-68604907D01*
X120291314Y-68522227D01*
X120291317Y-68522217D01*
X120294112Y-68515469D01*
X120296390Y-68510594D01*
X120296402Y-68510560D01*
X120296409Y-68510549D01*
X120322224Y-68420327D01*
X120348524Y-68333632D01*
X120348524Y-68333626D01*
X120349712Y-68327659D01*
X120349951Y-68327706D01*
X120352343Y-68315162D01*
X120352384Y-68314927D01*
X120352387Y-68314918D01*
X120359220Y-68225168D01*
X120359338Y-68223832D01*
X120363580Y-68180758D01*
X120367841Y-68137500D01*
X120367806Y-68137154D01*
X120367567Y-68115564D01*
X120367589Y-68115273D01*
X120367837Y-68112023D01*
X120356890Y-68026071D01*
X120356699Y-68024373D01*
X120348524Y-67941369D01*
X120348523Y-67941366D01*
X120347379Y-67937593D01*
X120343032Y-67917258D01*
X120342818Y-67915576D01*
X120342130Y-67910172D01*
X120315198Y-67831381D01*
X120314541Y-67829343D01*
X120307804Y-67807134D01*
X120291314Y-67752773D01*
X120287761Y-67746125D01*
X120279788Y-67727786D01*
X120276316Y-67717628D01*
X120235793Y-67648789D01*
X120234546Y-67646566D01*
X120198408Y-67578959D01*
X120191363Y-67570375D01*
X120180357Y-67554616D01*
X120173092Y-67542275D01*
X120173090Y-67542272D01*
X120161310Y-67529233D01*
X120121787Y-67485487D01*
X120119872Y-67483263D01*
X120102783Y-67462441D01*
X120073383Y-67426617D01*
X120073381Y-67426615D01*
X120073380Y-67426614D01*
X120068800Y-67422856D01*
X120062022Y-67417293D01*
X120048689Y-67404579D01*
X120036679Y-67391286D01*
X119977718Y-67347991D01*
X119975085Y-67345945D01*
X119921039Y-67301591D01*
X119921038Y-67301590D01*
X119904913Y-67292971D01*
X119889978Y-67283562D01*
X119872672Y-67270854D01*
X119872663Y-67270848D01*
X119809267Y-67241719D01*
X119805926Y-67240061D01*
X119785172Y-67228968D01*
X119747227Y-67208686D01*
X119747224Y-67208685D01*
X119722273Y-67201116D01*
X119714376Y-67198120D01*
X119687771Y-67185895D01*
X119687764Y-67185893D01*
X119623088Y-67170884D01*
X119619106Y-67169819D01*
X119558635Y-67151476D01*
X119558628Y-67151475D01*
X119529320Y-67148588D01*
X119521376Y-67147281D01*
X119489550Y-67139896D01*
X119489552Y-67139896D01*
X119426530Y-67138299D01*
X119422024Y-67138020D01*
X119362502Y-67132159D01*
X119362495Y-67132159D01*
X119329820Y-67135376D01*
X119322170Y-67135655D01*
X119286139Y-67134743D01*
X119286127Y-67134743D01*
X119227418Y-67145266D01*
X119222557Y-67145940D01*
X119166371Y-67151475D01*
X119166365Y-67151476D01*
X119131707Y-67161989D01*
X119124647Y-67163686D01*
X119085850Y-67170641D01*
X119085843Y-67170643D01*
X119033577Y-67191520D01*
X119028576Y-67193274D01*
X118977773Y-67208685D01*
X118942861Y-67227346D01*
X118936631Y-67230244D01*
X118896884Y-67246121D01*
X118852691Y-67275246D01*
X118847799Y-67278157D01*
X118803961Y-67301590D01*
X118770746Y-67328849D01*
X118765529Y-67332692D01*
X118726985Y-67358095D01*
X118726983Y-67358096D01*
X118691949Y-67393129D01*
X118687441Y-67397215D01*
X118651616Y-67426616D01*
X118622215Y-67462441D01*
X118618127Y-67466951D01*
X117512181Y-68572897D01*
X117450858Y-68606382D01*
X117381166Y-68601398D01*
X117325233Y-68559526D01*
X117300816Y-68494062D01*
X117300500Y-68485216D01*
X117300500Y-61094659D01*
X117300500Y-53349999D01*
X118144659Y-53349999D01*
X118149201Y-53396119D01*
X118149500Y-53402200D01*
X118149500Y-54636506D01*
X118149480Y-54638070D01*
X118148837Y-54663440D01*
X118147243Y-54726362D01*
X118147243Y-54726370D01*
X118158064Y-54786739D01*
X118158718Y-54791404D01*
X118164925Y-54852430D01*
X118164927Y-54852444D01*
X118175208Y-54885213D01*
X118177079Y-54892837D01*
X118183142Y-54926652D01*
X118183142Y-54926655D01*
X118205894Y-54983612D01*
X118207474Y-54988051D01*
X118225841Y-55046588D01*
X118225844Y-55046595D01*
X118242509Y-55076619D01*
X118245879Y-55083714D01*
X118258622Y-55115614D01*
X118258627Y-55115624D01*
X118292377Y-55166833D01*
X118294818Y-55170863D01*
X118324588Y-55224498D01*
X118324589Y-55224499D01*
X118324591Y-55224502D01*
X118346968Y-55250567D01*
X118351693Y-55256835D01*
X118363241Y-55274356D01*
X118370598Y-55285519D01*
X118413978Y-55328899D01*
X118417169Y-55332343D01*
X118457131Y-55378892D01*
X118457134Y-55378895D01*
X118484294Y-55399918D01*
X118490190Y-55405111D01*
X119783005Y-56697926D01*
X119784070Y-56699017D01*
X119822742Y-56739700D01*
X119844940Y-56763052D01*
X119844947Y-56763058D01*
X119868278Y-56779296D01*
X119895295Y-56798100D01*
X119899050Y-56800932D01*
X119946593Y-56839698D01*
X119977045Y-56855604D01*
X119983756Y-56859671D01*
X120011951Y-56879295D01*
X120068332Y-56903490D01*
X120072567Y-56905501D01*
X120126951Y-56933909D01*
X120159973Y-56943356D01*
X120167365Y-56945989D01*
X120198940Y-56959539D01*
X120198941Y-56959540D01*
X120212054Y-56962234D01*
X120259055Y-56971892D01*
X120263595Y-56973006D01*
X120322582Y-56989886D01*
X120356841Y-56992494D01*
X120364609Y-56993585D01*
X120398255Y-57000500D01*
X120398259Y-57000500D01*
X120459601Y-57000500D01*
X120464308Y-57000678D01*
X120500651Y-57003446D01*
X120525475Y-57005337D01*
X120525475Y-57005336D01*
X120525476Y-57005337D01*
X120559559Y-57000996D01*
X120567389Y-57000500D01*
X124875500Y-57000500D01*
X124942539Y-57020185D01*
X124988294Y-57072989D01*
X124999500Y-57124500D01*
X124999500Y-63886506D01*
X124999480Y-63888076D01*
X124997243Y-63976362D01*
X124997243Y-63976370D01*
X125008064Y-64036739D01*
X125008718Y-64041404D01*
X125014925Y-64102430D01*
X125014927Y-64102444D01*
X125025208Y-64135213D01*
X125027079Y-64142837D01*
X125032433Y-64172697D01*
X125033018Y-64175964D01*
X125033142Y-64176652D01*
X125033142Y-64176655D01*
X125055894Y-64233612D01*
X125057474Y-64238051D01*
X125075841Y-64296588D01*
X125075844Y-64296595D01*
X125092509Y-64326619D01*
X125095879Y-64333714D01*
X125108622Y-64365614D01*
X125108627Y-64365624D01*
X125142377Y-64416833D01*
X125144818Y-64420863D01*
X125174588Y-64474498D01*
X125174589Y-64474499D01*
X125174591Y-64474502D01*
X125196968Y-64500567D01*
X125201693Y-64506835D01*
X125214263Y-64525906D01*
X125220598Y-64535519D01*
X125263978Y-64578899D01*
X125267169Y-64582343D01*
X125307131Y-64628892D01*
X125307130Y-64628892D01*
X125334299Y-64649923D01*
X125340186Y-64655107D01*
X126308426Y-65623346D01*
X127255627Y-66570547D01*
X127259706Y-66575046D01*
X127289117Y-66610883D01*
X127289118Y-66610884D01*
X127324848Y-66640207D01*
X127327079Y-66642128D01*
X127328428Y-66643347D01*
X127366636Y-66674502D01*
X127441461Y-66735909D01*
X127441693Y-66736064D01*
X127446423Y-66739559D01*
X127446593Y-66739698D01*
X127532592Y-66784620D01*
X127615273Y-66828814D01*
X127615276Y-66828815D01*
X127622027Y-66831612D01*
X127626901Y-66833888D01*
X127626951Y-66833909D01*
X127717145Y-66859716D01*
X127803868Y-66886024D01*
X127803871Y-66886024D01*
X127809850Y-66887214D01*
X127809802Y-66887453D01*
X127822285Y-66889833D01*
X127822577Y-66889884D01*
X127822582Y-66889886D01*
X127912319Y-66896718D01*
X127913627Y-66896833D01*
X128000000Y-66905341D01*
X128000346Y-66905306D01*
X128021932Y-66905067D01*
X128025476Y-66905337D01*
X128111401Y-66894393D01*
X128113126Y-66894199D01*
X128157455Y-66889833D01*
X128196132Y-66886024D01*
X128199896Y-66884881D01*
X128220228Y-66880534D01*
X128227328Y-66879630D01*
X128306149Y-66852687D01*
X128308137Y-66852046D01*
X128384727Y-66828814D01*
X128391372Y-66825261D01*
X128409712Y-66817288D01*
X128419872Y-66813816D01*
X128419874Y-66813814D01*
X128419876Y-66813814D01*
X128435593Y-66804561D01*
X128488736Y-66773277D01*
X128490881Y-66772072D01*
X128558538Y-66735910D01*
X128567133Y-66728855D01*
X128582888Y-66717852D01*
X128595227Y-66710590D01*
X128652017Y-66659280D01*
X128654203Y-66657397D01*
X128710883Y-66610883D01*
X128720211Y-66599516D01*
X128732923Y-66586185D01*
X128746213Y-66574179D01*
X128789526Y-66515192D01*
X128791540Y-66512602D01*
X128792812Y-66511051D01*
X128835910Y-66458538D01*
X128844527Y-66442414D01*
X128853933Y-66427482D01*
X128866649Y-66410167D01*
X128895785Y-66346754D01*
X128897423Y-66343454D01*
X128928814Y-66284727D01*
X128936386Y-66259762D01*
X128939371Y-66251891D01*
X128951605Y-66225268D01*
X128966617Y-66160576D01*
X128967671Y-66156629D01*
X128986024Y-66096132D01*
X128988911Y-66066807D01*
X128990218Y-66058871D01*
X128997601Y-66027060D01*
X128997602Y-66027051D01*
X128999199Y-65964026D01*
X128999477Y-65959535D01*
X129005341Y-65900000D01*
X129002122Y-65867322D01*
X129001843Y-65859663D01*
X129002757Y-65823638D01*
X128992231Y-65764912D01*
X128991557Y-65760047D01*
X128986024Y-65703868D01*
X128975509Y-65669207D01*
X128973810Y-65662138D01*
X128973585Y-65660882D01*
X128966858Y-65623347D01*
X128945978Y-65571077D01*
X128944224Y-65566074D01*
X128928814Y-65515273D01*
X128924277Y-65506784D01*
X128910150Y-65480352D01*
X128907251Y-65474122D01*
X128891380Y-65434389D01*
X128891378Y-65434386D01*
X128891377Y-65434383D01*
X128862246Y-65390183D01*
X128859353Y-65385323D01*
X128835910Y-65341462D01*
X128808655Y-65308252D01*
X128804811Y-65303034D01*
X128779402Y-65264481D01*
X128744356Y-65229435D01*
X128740277Y-65224934D01*
X128710883Y-65189116D01*
X128675063Y-65159720D01*
X128670562Y-65155641D01*
X127036819Y-63521898D01*
X127003334Y-63460575D01*
X127000500Y-63434217D01*
X127000500Y-61094659D01*
X127000500Y-55914778D01*
X127020184Y-55847743D01*
X127072988Y-55801988D01*
X127142146Y-55792044D01*
X127205702Y-55821069D01*
X127212180Y-55827101D01*
X127983005Y-56597926D01*
X127984070Y-56599017D01*
X128038428Y-56656201D01*
X128044939Y-56663051D01*
X128044945Y-56663056D01*
X128095295Y-56698101D01*
X128099047Y-56700929D01*
X128146592Y-56739697D01*
X128146595Y-56739698D01*
X128146597Y-56739700D01*
X128177039Y-56755601D01*
X128183753Y-56759668D01*
X128210964Y-56778608D01*
X128211947Y-56779292D01*
X128211953Y-56779296D01*
X128268331Y-56803490D01*
X128272569Y-56805502D01*
X128326951Y-56833909D01*
X128359973Y-56843356D01*
X128367365Y-56845989D01*
X128393732Y-56857304D01*
X128394011Y-56857424D01*
X128398940Y-56859539D01*
X128398941Y-56859540D01*
X128412054Y-56862234D01*
X128459055Y-56871892D01*
X128463595Y-56873006D01*
X128522582Y-56889886D01*
X128556841Y-56892494D01*
X128564609Y-56893585D01*
X128598255Y-56900500D01*
X128598259Y-56900500D01*
X128659601Y-56900500D01*
X128664308Y-56900678D01*
X128700651Y-56903446D01*
X128725475Y-56905337D01*
X128725475Y-56905336D01*
X128725476Y-56905337D01*
X128759559Y-56900996D01*
X128767389Y-56900500D01*
X130847800Y-56900500D01*
X130853881Y-56900799D01*
X130863930Y-56901788D01*
X130900000Y-56905341D01*
X130931510Y-56902237D01*
X130945999Y-56900811D01*
X130948941Y-56900591D01*
X130950738Y-56900500D01*
X130950742Y-56900500D01*
X130999663Y-56895525D01*
X131096132Y-56886024D01*
X131096151Y-56886017D01*
X131096391Y-56885971D01*
X131102230Y-56885095D01*
X131102438Y-56885074D01*
X131194992Y-56856034D01*
X131284727Y-56828814D01*
X131284735Y-56828809D01*
X131291463Y-56826023D01*
X131296533Y-56824181D01*
X131296575Y-56824162D01*
X131296588Y-56824159D01*
X131378648Y-56778612D01*
X131458538Y-56735910D01*
X131458544Y-56735904D01*
X131463604Y-56732525D01*
X131463740Y-56732729D01*
X131474215Y-56725608D01*
X131474503Y-56725408D01*
X131542854Y-56666728D01*
X131543749Y-56665977D01*
X131610883Y-56610883D01*
X131611103Y-56610614D01*
X131626198Y-56595180D01*
X131628895Y-56592866D01*
X131681925Y-56524355D01*
X131682998Y-56523011D01*
X131735907Y-56458542D01*
X131735907Y-56458541D01*
X131735910Y-56458538D01*
X131737766Y-56455063D01*
X131749076Y-56437605D01*
X131753448Y-56431958D01*
X131790118Y-56357199D01*
X131791082Y-56355314D01*
X131828814Y-56284727D01*
X131831000Y-56277517D01*
X131838330Y-56258912D01*
X131843060Y-56249271D01*
X131863090Y-56171906D01*
X131863762Y-56169518D01*
X131886024Y-56096132D01*
X131887113Y-56085065D01*
X131890473Y-56066148D01*
X131894063Y-56052285D01*
X131897938Y-55975861D01*
X131898154Y-55972967D01*
X131905341Y-55900000D01*
X131903899Y-55885369D01*
X131903462Y-55866937D01*
X131904369Y-55849064D01*
X131893291Y-55776754D01*
X131892878Y-55773464D01*
X131890484Y-55749152D01*
X131886024Y-55703868D01*
X131884851Y-55700000D01*
X143294659Y-55700000D01*
X143299189Y-55745999D01*
X143299408Y-55748938D01*
X143299499Y-55750739D01*
X143304434Y-55799276D01*
X143304371Y-55799282D01*
X143304473Y-55799661D01*
X143304474Y-55799663D01*
X143311100Y-55866937D01*
X143313976Y-55896130D01*
X143314034Y-55896419D01*
X143314904Y-55902228D01*
X143314924Y-55902429D01*
X143314927Y-55902441D01*
X143343938Y-55994906D01*
X143371184Y-56084722D01*
X143373980Y-56091473D01*
X143375816Y-56096528D01*
X143375841Y-56096588D01*
X143421387Y-56178649D01*
X143447016Y-56226595D01*
X143464089Y-56258537D01*
X143467474Y-56263602D01*
X143467271Y-56263737D01*
X143474454Y-56274304D01*
X143474588Y-56274497D01*
X143474591Y-56274502D01*
X143474593Y-56274504D01*
X143533225Y-56342804D01*
X143534108Y-56343856D01*
X143589117Y-56410884D01*
X143589395Y-56411112D01*
X143604810Y-56426188D01*
X143607134Y-56428895D01*
X143611091Y-56431958D01*
X143675639Y-56481923D01*
X143677005Y-56483011D01*
X143741462Y-56535910D01*
X143744939Y-56537768D01*
X143762389Y-56549072D01*
X143768042Y-56553448D01*
X143793014Y-56565697D01*
X143842778Y-56590107D01*
X143844701Y-56591092D01*
X143892273Y-56616520D01*
X143915273Y-56628814D01*
X143922477Y-56630999D01*
X143941093Y-56638333D01*
X143950729Y-56643060D01*
X144028088Y-56663089D01*
X144030484Y-56663763D01*
X144103868Y-56686024D01*
X144112956Y-56686918D01*
X144114926Y-56687113D01*
X144133854Y-56690474D01*
X144147711Y-56694062D01*
X144147715Y-56694063D01*
X144224133Y-56697938D01*
X144227034Y-56698154D01*
X144300000Y-56705341D01*
X144314630Y-56703899D01*
X144333056Y-56703462D01*
X144350936Y-56704369D01*
X144423253Y-56693289D01*
X144426525Y-56692879D01*
X144496132Y-56686024D01*
X144513632Y-56680714D01*
X144530837Y-56676808D01*
X144552071Y-56673556D01*
X144617515Y-56649317D01*
X144621019Y-56648138D01*
X144684727Y-56628814D01*
X144707730Y-56616517D01*
X144715421Y-56613057D01*
X144742887Y-56602886D01*
X144742891Y-56602883D01*
X144742894Y-56602882D01*
X144799238Y-56567762D01*
X144802801Y-56565701D01*
X144858538Y-56535910D01*
X144881310Y-56517220D01*
X144887840Y-56512535D01*
X144915571Y-56495252D01*
X144961288Y-56451793D01*
X144964631Y-56448839D01*
X145010883Y-56410883D01*
X145031717Y-56385495D01*
X145036915Y-56379904D01*
X145060802Y-56357199D01*
X145063050Y-56355062D01*
X145063050Y-56355061D01*
X145063053Y-56355059D01*
X145097143Y-56306079D01*
X145100088Y-56302185D01*
X145135910Y-56258538D01*
X145152989Y-56226582D01*
X145156770Y-56220410D01*
X145179295Y-56188049D01*
X145201504Y-56136293D01*
X145203783Y-56131554D01*
X145228814Y-56084727D01*
X145240309Y-56046828D01*
X145242656Y-56040398D01*
X145259540Y-56001058D01*
X145270196Y-55949201D01*
X145271587Y-55943723D01*
X145286024Y-55896132D01*
X145290237Y-55853345D01*
X145291202Y-55846982D01*
X145300500Y-55801741D01*
X145300500Y-55752200D01*
X145300799Y-55746119D01*
X145301717Y-55736787D01*
X145305341Y-55700000D01*
X145300799Y-55653878D01*
X145300500Y-55647798D01*
X145300500Y-49865781D01*
X145320185Y-49798742D01*
X145336814Y-49778104D01*
X146516732Y-48598186D01*
X146517745Y-48597199D01*
X146581803Y-48536309D01*
X146607630Y-48499201D01*
X146616849Y-48485956D01*
X146619688Y-48482191D01*
X146623362Y-48477685D01*
X146658448Y-48434657D01*
X146674351Y-48404210D01*
X146678424Y-48397489D01*
X146683239Y-48390570D01*
X146698045Y-48369299D01*
X146722242Y-48312910D01*
X146724248Y-48308685D01*
X146752659Y-48254299D01*
X146762110Y-48221265D01*
X146764741Y-48213878D01*
X146778290Y-48182308D01*
X146790643Y-48122190D01*
X146791756Y-48117662D01*
X146808637Y-48058668D01*
X146811245Y-48024405D01*
X146812337Y-48016626D01*
X146819250Y-47982989D01*
X146819250Y-47921651D01*
X146819429Y-47916942D01*
X146824087Y-47855776D01*
X146819747Y-47821692D01*
X146819250Y-47813853D01*
X146819250Y-47533450D01*
X146819549Y-47527369D01*
X146821718Y-47505340D01*
X146824091Y-47481250D01*
X146819556Y-47435211D01*
X146819339Y-47432284D01*
X146819250Y-47430533D01*
X146819250Y-47430508D01*
X146814275Y-47381586D01*
X146804774Y-47285118D01*
X146804772Y-47285113D01*
X146804772Y-47285108D01*
X146804717Y-47284829D01*
X146803843Y-47279001D01*
X146803824Y-47278812D01*
X146774784Y-47186257D01*
X146747564Y-47096523D01*
X146747560Y-47096516D01*
X146744771Y-47089782D01*
X146742924Y-47084698D01*
X146742910Y-47084667D01*
X146742909Y-47084662D01*
X146697362Y-47002601D01*
X146688501Y-46986024D01*
X146667516Y-46946764D01*
X146654660Y-46922712D01*
X146654654Y-46922705D01*
X146651277Y-46917650D01*
X146651479Y-46917514D01*
X146644272Y-46906911D01*
X146644161Y-46906751D01*
X146644160Y-46906749D01*
X146644159Y-46906748D01*
X146628780Y-46888834D01*
X146585523Y-46838444D01*
X146584640Y-46837392D01*
X146550464Y-46795750D01*
X146529633Y-46770367D01*
X146529630Y-46770364D01*
X146529628Y-46770362D01*
X146529356Y-46770139D01*
X146513935Y-46755056D01*
X146511616Y-46752354D01*
X146511614Y-46752353D01*
X146443108Y-46699325D01*
X146441727Y-46698224D01*
X146435198Y-46692866D01*
X146405772Y-46668716D01*
X146377289Y-46645340D01*
X146377286Y-46645339D01*
X146373814Y-46643483D01*
X146356357Y-46632175D01*
X146350709Y-46627803D01*
X146350708Y-46627802D01*
X146319883Y-46612682D01*
X146275970Y-46591141D01*
X146274048Y-46590157D01*
X146203473Y-46552434D01*
X146196271Y-46550250D01*
X146177659Y-46542917D01*
X146173177Y-46540719D01*
X146168020Y-46538189D01*
X146127481Y-46527693D01*
X146090672Y-46518162D01*
X146088246Y-46517480D01*
X146014882Y-46495226D01*
X146003804Y-46494134D01*
X145984899Y-46490776D01*
X145971035Y-46487187D01*
X145894625Y-46483310D01*
X145891691Y-46483091D01*
X145818753Y-46475909D01*
X145818746Y-46475909D01*
X145804119Y-46477349D01*
X145785695Y-46477787D01*
X145767818Y-46476881D01*
X145767808Y-46476881D01*
X145695534Y-46487953D01*
X145692224Y-46488369D01*
X145622622Y-46495225D01*
X145622616Y-46495226D01*
X145605117Y-46500534D01*
X145587913Y-46504440D01*
X145566682Y-46507693D01*
X145566671Y-46507696D01*
X145501260Y-46531922D01*
X145497725Y-46533112D01*
X145434026Y-46552434D01*
X145434022Y-46552436D01*
X145411025Y-46564728D01*
X145403326Y-46568192D01*
X145375863Y-46578364D01*
X145375859Y-46578366D01*
X145319501Y-46613493D01*
X145315945Y-46615548D01*
X145284841Y-46632175D01*
X145260217Y-46645337D01*
X145260204Y-46645345D01*
X145243721Y-46658873D01*
X145237439Y-46664027D01*
X145230904Y-46668716D01*
X145203179Y-46685997D01*
X145203177Y-46685999D01*
X145157482Y-46729434D01*
X145154099Y-46732423D01*
X145107864Y-46770368D01*
X145087032Y-46795750D01*
X145081821Y-46801355D01*
X145055697Y-46826189D01*
X145021616Y-46875155D01*
X145018655Y-46879068D01*
X144982842Y-46922707D01*
X144982839Y-46922713D01*
X144965768Y-46954649D01*
X144961975Y-46960843D01*
X144939456Y-46993198D01*
X144939455Y-46993200D01*
X144917254Y-47044930D01*
X144914959Y-47049706D01*
X144889936Y-47096522D01*
X144889934Y-47096526D01*
X144882208Y-47121996D01*
X144878442Y-47134409D01*
X144876089Y-47140857D01*
X144859211Y-47180187D01*
X144848556Y-47232028D01*
X144847156Y-47237544D01*
X144832725Y-47285120D01*
X144828513Y-47327882D01*
X144827542Y-47334288D01*
X144818250Y-47379507D01*
X144818250Y-47415467D01*
X144798565Y-47482506D01*
X144781931Y-47503148D01*
X143602091Y-48682987D01*
X143600967Y-48684083D01*
X143536946Y-48744942D01*
X143501899Y-48795294D01*
X143499062Y-48799056D01*
X143460302Y-48846592D01*
X143460299Y-48846597D01*
X143444392Y-48877047D01*
X143440324Y-48883761D01*
X143420702Y-48911954D01*
X143396509Y-48968330D01*
X143394488Y-48972584D01*
X143366091Y-49026951D01*
X143366090Y-49026952D01*
X143356640Y-49059975D01*
X143354007Y-49067371D01*
X143340459Y-49098943D01*
X143328113Y-49159019D01*
X143326990Y-49163595D01*
X143310113Y-49222577D01*
X143310113Y-49222579D01*
X143307503Y-49256841D01*
X143306414Y-49264608D01*
X143301941Y-49286382D01*
X143299500Y-49298258D01*
X143299500Y-49359597D01*
X143299321Y-49364306D01*
X143294662Y-49425474D01*
X143294677Y-49425588D01*
X143299003Y-49459560D01*
X143299500Y-49467388D01*
X143299500Y-55647798D01*
X143299201Y-55653878D01*
X143294659Y-55699999D01*
X143294659Y-55700000D01*
X131884851Y-55700000D01*
X131880713Y-55686361D01*
X131876809Y-55669167D01*
X131873556Y-55647929D01*
X131849320Y-55582494D01*
X131848135Y-55578969D01*
X131828814Y-55515273D01*
X131816521Y-55492275D01*
X131813056Y-55484576D01*
X131809531Y-55475058D01*
X131804712Y-55405356D01*
X131838342Y-55344112D01*
X131899744Y-55310772D01*
X131925816Y-55308000D01*
X135279007Y-55308000D01*
X135280569Y-55308019D01*
X135317783Y-55308962D01*
X135368858Y-55310257D01*
X135368858Y-55310256D01*
X135368863Y-55310257D01*
X135429253Y-55299432D01*
X135433912Y-55298780D01*
X135476107Y-55294488D01*
X135494938Y-55292574D01*
X135527727Y-55282286D01*
X135535340Y-55280418D01*
X135569153Y-55274358D01*
X135626121Y-55251601D01*
X135630553Y-55250024D01*
X135689088Y-55231659D01*
X135719127Y-55214984D01*
X135726208Y-55211622D01*
X135758117Y-55198877D01*
X135809354Y-55165108D01*
X135813351Y-55162687D01*
X135867002Y-55132909D01*
X135893068Y-55110530D01*
X135899343Y-55105800D01*
X135928019Y-55086902D01*
X135971417Y-55043502D01*
X135974836Y-55040334D01*
X136021395Y-55000366D01*
X136042431Y-54973188D01*
X136047601Y-54967318D01*
X137570562Y-53444357D01*
X137575064Y-53440278D01*
X137610883Y-53410883D01*
X137640215Y-53375140D01*
X137642134Y-53372914D01*
X137643322Y-53371598D01*
X137643340Y-53371581D01*
X137674452Y-53333424D01*
X137725944Y-53270681D01*
X137735910Y-53258538D01*
X137735920Y-53258518D01*
X137736050Y-53258325D01*
X137739564Y-53253570D01*
X137739698Y-53253407D01*
X137784620Y-53167407D01*
X137828814Y-53084727D01*
X137828817Y-53084717D01*
X137831612Y-53077969D01*
X137833892Y-53073090D01*
X137833905Y-53073055D01*
X137833909Y-53073049D01*
X137859716Y-52982854D01*
X137886024Y-52896132D01*
X137886025Y-52896126D01*
X137887214Y-52890151D01*
X137887452Y-52890198D01*
X137889828Y-52877738D01*
X137889883Y-52877425D01*
X137889886Y-52877418D01*
X137896719Y-52787672D01*
X137896834Y-52786363D01*
X137897904Y-52775498D01*
X137905341Y-52700000D01*
X137905306Y-52699654D01*
X137905067Y-52678062D01*
X137905337Y-52674524D01*
X137894394Y-52588605D01*
X137894199Y-52586872D01*
X137886024Y-52503869D01*
X137886023Y-52503866D01*
X137884879Y-52500093D01*
X137880532Y-52479758D01*
X137879630Y-52472672D01*
X137852698Y-52393881D01*
X137852041Y-52391843D01*
X137850548Y-52386921D01*
X137828814Y-52315273D01*
X137825261Y-52308625D01*
X137817288Y-52290286D01*
X137813816Y-52280129D01*
X137813811Y-52280117D01*
X137773287Y-52211279D01*
X137772049Y-52209073D01*
X137735910Y-52141462D01*
X137735909Y-52141460D01*
X137728859Y-52132870D01*
X137717854Y-52117113D01*
X137710590Y-52104773D01*
X137659304Y-52048008D01*
X137657383Y-52045778D01*
X137643981Y-52029447D01*
X137610883Y-51989117D01*
X137599520Y-51979791D01*
X137586186Y-51967077D01*
X137574179Y-51953787D01*
X137574178Y-51953786D01*
X137574176Y-51953784D01*
X137574173Y-51953782D01*
X137515233Y-51910501D01*
X137512596Y-51908454D01*
X137458541Y-51864092D01*
X137458539Y-51864091D01*
X137458538Y-51864090D01*
X137442413Y-51855471D01*
X137427478Y-51846062D01*
X137410174Y-51833355D01*
X137410169Y-51833352D01*
X137410167Y-51833351D01*
X137356359Y-51808627D01*
X137346775Y-51804223D01*
X137343436Y-51802565D01*
X137311170Y-51785319D01*
X137284727Y-51771186D01*
X137284724Y-51771185D01*
X137284722Y-51771184D01*
X137259769Y-51763614D01*
X137251874Y-51760619D01*
X137225273Y-51748397D01*
X137225260Y-51748392D01*
X137160590Y-51733386D01*
X137156606Y-51732321D01*
X137096133Y-51713975D01*
X137066812Y-51711088D01*
X137058864Y-51709780D01*
X137027052Y-51702397D01*
X136964046Y-51700801D01*
X136959539Y-51700522D01*
X136900001Y-51694659D01*
X136899996Y-51694659D01*
X136867312Y-51697877D01*
X136859660Y-51698156D01*
X136823638Y-51697244D01*
X136823628Y-51697244D01*
X136764922Y-51707767D01*
X136760059Y-51708441D01*
X136703868Y-51713975D01*
X136669207Y-51724489D01*
X136662146Y-51726186D01*
X136623350Y-51733141D01*
X136623338Y-51733144D01*
X136571070Y-51754022D01*
X136566070Y-51755775D01*
X136515272Y-51771186D01*
X136480354Y-51789848D01*
X136474126Y-51792746D01*
X136434383Y-51808623D01*
X136434374Y-51808627D01*
X136390193Y-51837744D01*
X136385302Y-51840655D01*
X136341465Y-51864087D01*
X136308252Y-51891343D01*
X136303037Y-51895186D01*
X136264486Y-51920593D01*
X136229443Y-51955634D01*
X136224935Y-51959720D01*
X136189117Y-51989116D01*
X136159720Y-52024936D01*
X136155631Y-52029447D01*
X135520580Y-52664500D01*
X134914399Y-53270681D01*
X134853076Y-53304166D01*
X134826718Y-53307000D01*
X130852200Y-53307000D01*
X130846119Y-53306701D01*
X130800000Y-53302159D01*
X130754001Y-53306689D01*
X130751062Y-53306908D01*
X130749257Y-53306999D01*
X130700388Y-53311968D01*
X130603859Y-53321476D01*
X130603558Y-53321537D01*
X130597767Y-53322404D01*
X130597576Y-53322423D01*
X130597554Y-53322427D01*
X130536175Y-53341686D01*
X130505007Y-53351465D01*
X130450403Y-53368029D01*
X130415265Y-53378688D01*
X130408515Y-53381484D01*
X130403460Y-53383320D01*
X130403405Y-53383344D01*
X130321327Y-53428900D01*
X130241464Y-53471588D01*
X130236402Y-53474971D01*
X130236268Y-53474770D01*
X130225566Y-53482042D01*
X130225498Y-53482090D01*
X130157212Y-53540711D01*
X130156160Y-53541594D01*
X130089119Y-53596613D01*
X130089109Y-53596623D01*
X130088864Y-53596923D01*
X130073821Y-53612301D01*
X130071111Y-53614628D01*
X130071107Y-53614632D01*
X130071105Y-53614634D01*
X130018074Y-53683142D01*
X130016995Y-53684496D01*
X129964093Y-53748956D01*
X129964085Y-53748969D01*
X129962224Y-53752451D01*
X129950937Y-53769874D01*
X129946555Y-53775535D01*
X129946553Y-53775538D01*
X129909880Y-53850302D01*
X129908895Y-53852224D01*
X129871185Y-53922773D01*
X129871185Y-53922774D01*
X129868998Y-53929983D01*
X129861672Y-53948579D01*
X129856943Y-53958221D01*
X129856939Y-53958231D01*
X129836920Y-54035545D01*
X129836230Y-54038001D01*
X129813976Y-54111366D01*
X129812885Y-54122438D01*
X129809527Y-54141348D01*
X129805937Y-54155215D01*
X129802060Y-54231623D01*
X129801841Y-54234557D01*
X129794658Y-54307495D01*
X129794659Y-54307503D01*
X129796099Y-54322130D01*
X129796537Y-54340553D01*
X129795631Y-54358436D01*
X129798422Y-54376653D01*
X129806703Y-54430714D01*
X129807119Y-54434024D01*
X129813975Y-54503631D01*
X129819282Y-54521126D01*
X129823189Y-54538331D01*
X129826443Y-54559568D01*
X129826445Y-54559575D01*
X129850670Y-54624983D01*
X129851860Y-54628519D01*
X129871186Y-54692228D01*
X129883477Y-54715222D01*
X129886940Y-54722919D01*
X129890461Y-54732423D01*
X129895292Y-54802125D01*
X129861672Y-54863374D01*
X129800275Y-54896724D01*
X129774184Y-54899500D01*
X129165783Y-54899500D01*
X129098744Y-54879815D01*
X129078102Y-54863181D01*
X128734567Y-54519646D01*
X127644361Y-53429441D01*
X127640282Y-53424940D01*
X127628743Y-53410880D01*
X127619119Y-53399152D01*
X127610885Y-53389119D01*
X127610883Y-53389117D01*
X127575124Y-53359770D01*
X127572907Y-53357860D01*
X127571573Y-53356654D01*
X127533361Y-53325496D01*
X127529621Y-53322427D01*
X127458538Y-53264090D01*
X127458532Y-53264085D01*
X127458298Y-53263929D01*
X127453573Y-53260436D01*
X127453415Y-53260307D01*
X127453409Y-53260303D01*
X127367382Y-53215365D01*
X127312787Y-53186184D01*
X127284729Y-53171186D01*
X127277967Y-53168385D01*
X127273093Y-53166108D01*
X127273045Y-53166089D01*
X127182784Y-53140262D01*
X127096140Y-53113978D01*
X127096135Y-53113977D01*
X127096132Y-53113976D01*
X127096127Y-53113975D01*
X127090164Y-53112789D01*
X127090210Y-53112553D01*
X127077479Y-53110124D01*
X127077414Y-53110112D01*
X126995085Y-53103843D01*
X126987686Y-53103279D01*
X126986324Y-53103160D01*
X126900001Y-53094659D01*
X126900000Y-53094659D01*
X126899634Y-53094695D01*
X126878075Y-53094933D01*
X126874526Y-53094662D01*
X126788604Y-53105604D01*
X126786850Y-53105802D01*
X126703869Y-53113975D01*
X126703861Y-53113977D01*
X126700076Y-53115125D01*
X126679787Y-53119462D01*
X126672677Y-53120368D01*
X126672664Y-53120371D01*
X126593904Y-53147292D01*
X126591851Y-53147954D01*
X126515271Y-53171186D01*
X126515265Y-53171189D01*
X126508615Y-53174743D01*
X126490298Y-53182706D01*
X126480133Y-53186181D01*
X126480127Y-53186184D01*
X126411298Y-53226700D01*
X126409075Y-53227948D01*
X126341467Y-53264085D01*
X126341462Y-53264089D01*
X126332860Y-53271148D01*
X126317115Y-53282143D01*
X126304776Y-53289407D01*
X126248006Y-53340696D01*
X126245775Y-53342617D01*
X126189113Y-53389120D01*
X126179789Y-53400481D01*
X126167074Y-53413815D01*
X126153791Y-53425816D01*
X126153788Y-53425819D01*
X126110496Y-53484773D01*
X126108450Y-53487407D01*
X126064094Y-53541456D01*
X126064092Y-53541459D01*
X126064090Y-53541462D01*
X126055469Y-53557590D01*
X126046063Y-53572521D01*
X126033352Y-53589830D01*
X126004216Y-53653237D01*
X126002559Y-53656575D01*
X125971184Y-53715277D01*
X125963614Y-53740229D01*
X125960621Y-53748120D01*
X125948396Y-53774729D01*
X125948393Y-53774737D01*
X125933383Y-53839415D01*
X125932318Y-53843396D01*
X125913978Y-53903857D01*
X125913975Y-53903872D01*
X125911088Y-53933181D01*
X125909781Y-53941122D01*
X125902396Y-53972945D01*
X125902396Y-53972947D01*
X125900799Y-54035968D01*
X125900520Y-54040474D01*
X125894659Y-54099997D01*
X125894659Y-54100004D01*
X125897876Y-54132677D01*
X125898155Y-54140328D01*
X125897243Y-54176360D01*
X125897243Y-54176372D01*
X125907766Y-54235081D01*
X125908440Y-54239942D01*
X125913975Y-54296129D01*
X125913976Y-54296132D01*
X125924489Y-54330791D01*
X125926188Y-54337856D01*
X125933140Y-54376648D01*
X125933141Y-54376651D01*
X125954021Y-54428923D01*
X125955776Y-54433927D01*
X125971186Y-54484728D01*
X125989849Y-54519646D01*
X125992748Y-54525877D01*
X126008622Y-54565615D01*
X126037745Y-54609804D01*
X126040658Y-54614699D01*
X126066710Y-54663440D01*
X126080951Y-54731843D01*
X126055950Y-54797087D01*
X125999644Y-54838457D01*
X125955332Y-54845095D01*
X125955344Y-54845313D01*
X125953129Y-54845425D01*
X125951076Y-54845733D01*
X125949068Y-54845631D01*
X125949057Y-54845631D01*
X125947306Y-54845900D01*
X125925422Y-54847288D01*
X125923640Y-54847243D01*
X125923639Y-54847243D01*
X125923637Y-54847243D01*
X125923635Y-54847243D01*
X125923626Y-54847244D01*
X125864917Y-54857766D01*
X125860057Y-54858440D01*
X125803869Y-54863975D01*
X125786367Y-54869284D01*
X125769164Y-54873190D01*
X125747926Y-54876444D01*
X125747923Y-54876445D01*
X125746247Y-54877066D01*
X125725105Y-54882825D01*
X125723357Y-54883138D01*
X125723346Y-54883141D01*
X125671070Y-54904022D01*
X125666070Y-54905775D01*
X125615273Y-54921186D01*
X125615272Y-54921186D01*
X125592275Y-54933478D01*
X125584576Y-54936942D01*
X125557117Y-54947112D01*
X125557102Y-54947119D01*
X125555596Y-54948058D01*
X125536036Y-54957962D01*
X125534387Y-54958620D01*
X125534379Y-54958624D01*
X125503407Y-54979037D01*
X125436598Y-54999492D01*
X125435172Y-54999500D01*
X120965783Y-54999500D01*
X120898744Y-54979815D01*
X120878102Y-54963181D01*
X120186819Y-54271898D01*
X120153334Y-54210575D01*
X120150500Y-54184217D01*
X120150500Y-53402200D01*
X120150799Y-53396119D01*
X120152293Y-53380946D01*
X120155341Y-53350000D01*
X120150806Y-53303961D01*
X120150589Y-53301034D01*
X120150500Y-53299283D01*
X120150500Y-53299258D01*
X120145525Y-53250336D01*
X120136024Y-53153868D01*
X120136022Y-53153863D01*
X120136022Y-53153858D01*
X120135967Y-53153579D01*
X120135093Y-53147751D01*
X120135082Y-53147644D01*
X120135074Y-53147562D01*
X120106034Y-53055007D01*
X120078814Y-52965273D01*
X120078810Y-52965266D01*
X120076021Y-52958532D01*
X120074174Y-52953448D01*
X120074160Y-52953417D01*
X120074159Y-52953412D01*
X120028612Y-52871351D01*
X119985910Y-52791462D01*
X119985904Y-52791455D01*
X119982527Y-52786400D01*
X119982729Y-52786264D01*
X119975522Y-52775661D01*
X119975411Y-52775501D01*
X119975410Y-52775499D01*
X119975409Y-52775498D01*
X119960030Y-52757584D01*
X119916773Y-52707194D01*
X119915890Y-52706142D01*
X119881714Y-52664500D01*
X119860883Y-52639117D01*
X119860880Y-52639114D01*
X119860878Y-52639112D01*
X119860606Y-52638889D01*
X119845185Y-52623806D01*
X119842866Y-52621104D01*
X119842864Y-52621103D01*
X119774358Y-52568075D01*
X119772977Y-52566974D01*
X119708539Y-52514090D01*
X119708536Y-52514089D01*
X119705064Y-52512233D01*
X119687607Y-52500925D01*
X119681959Y-52496553D01*
X119681958Y-52496552D01*
X119633271Y-52472670D01*
X119607220Y-52459891D01*
X119605298Y-52458907D01*
X119534723Y-52421184D01*
X119527521Y-52419000D01*
X119508909Y-52411667D01*
X119504427Y-52409469D01*
X119499270Y-52406939D01*
X119448905Y-52393899D01*
X119421922Y-52386912D01*
X119419496Y-52386230D01*
X119346132Y-52363976D01*
X119335054Y-52362884D01*
X119316149Y-52359526D01*
X119302285Y-52355937D01*
X119225875Y-52352060D01*
X119222941Y-52351841D01*
X119150003Y-52344659D01*
X119149996Y-52344659D01*
X119135369Y-52346099D01*
X119116945Y-52346537D01*
X119099068Y-52345631D01*
X119099058Y-52345631D01*
X119026784Y-52356703D01*
X119023474Y-52357119D01*
X118953872Y-52363975D01*
X118953866Y-52363976D01*
X118936367Y-52369284D01*
X118919163Y-52373190D01*
X118897932Y-52376443D01*
X118897921Y-52376446D01*
X118832510Y-52400672D01*
X118828975Y-52401862D01*
X118765276Y-52421184D01*
X118765272Y-52421186D01*
X118742275Y-52433478D01*
X118734576Y-52436942D01*
X118707113Y-52447114D01*
X118707109Y-52447116D01*
X118650751Y-52482243D01*
X118647195Y-52484298D01*
X118617648Y-52500093D01*
X118591467Y-52514087D01*
X118591454Y-52514095D01*
X118574737Y-52527815D01*
X118568689Y-52532777D01*
X118562154Y-52537466D01*
X118534429Y-52554747D01*
X118534427Y-52554749D01*
X118488732Y-52598184D01*
X118485349Y-52601173D01*
X118439114Y-52639118D01*
X118418282Y-52664500D01*
X118413071Y-52670105D01*
X118386947Y-52694939D01*
X118352866Y-52743905D01*
X118349905Y-52747818D01*
X118314092Y-52791457D01*
X118314089Y-52791463D01*
X118297018Y-52823399D01*
X118293225Y-52829593D01*
X118270706Y-52861948D01*
X118270705Y-52861950D01*
X118248504Y-52913680D01*
X118246209Y-52918456D01*
X118221186Y-52965272D01*
X118221184Y-52965276D01*
X118213458Y-52990746D01*
X118209692Y-53003159D01*
X118207339Y-53009607D01*
X118190461Y-53048937D01*
X118179806Y-53100778D01*
X118178406Y-53106294D01*
X118163975Y-53153870D01*
X118159763Y-53196632D01*
X118158792Y-53203038D01*
X118149500Y-53248257D01*
X118149500Y-53297798D01*
X118149201Y-53303878D01*
X118144659Y-53349999D01*
X117300500Y-53349999D01*
X117300500Y-49552178D01*
X117300797Y-49546135D01*
X117305341Y-49500000D01*
X117305341Y-49499995D01*
X123357158Y-49499995D01*
X123357159Y-49500003D01*
X123358599Y-49514630D01*
X123359037Y-49533053D01*
X123358131Y-49550936D01*
X123366595Y-49606193D01*
X123369203Y-49623214D01*
X123369619Y-49626524D01*
X123376475Y-49696131D01*
X123381782Y-49713626D01*
X123385689Y-49730831D01*
X123388943Y-49752068D01*
X123388945Y-49752075D01*
X123413170Y-49817483D01*
X123414360Y-49821019D01*
X123433686Y-49884728D01*
X123445978Y-49907724D01*
X123449443Y-49915426D01*
X123454332Y-49928627D01*
X123459614Y-49942887D01*
X123459615Y-49942888D01*
X123459616Y-49942892D01*
X123483864Y-49981793D01*
X123494743Y-49999247D01*
X123496799Y-50002806D01*
X123526590Y-50058538D01*
X123545276Y-50081308D01*
X123549969Y-50087850D01*
X123567248Y-50115571D01*
X123610694Y-50161276D01*
X123613672Y-50164647D01*
X123651617Y-50210883D01*
X123677002Y-50231717D01*
X123682593Y-50236914D01*
X123707441Y-50263053D01*
X123756418Y-50297143D01*
X123760310Y-50300086D01*
X123803962Y-50335910D01*
X123835899Y-50352980D01*
X123842085Y-50356767D01*
X123862063Y-50370673D01*
X123874450Y-50379295D01*
X123874452Y-50379296D01*
X123926183Y-50401495D01*
X123930946Y-50403784D01*
X123977773Y-50428814D01*
X124015666Y-50440308D01*
X124022099Y-50442656D01*
X124061442Y-50459540D01*
X124113276Y-50470192D01*
X124118796Y-50471593D01*
X124166368Y-50486024D01*
X124209144Y-50490236D01*
X124215526Y-50491204D01*
X124230200Y-50494219D01*
X124260756Y-50500500D01*
X124260759Y-50500500D01*
X124310300Y-50500500D01*
X124316381Y-50500799D01*
X124327269Y-50501871D01*
X124362500Y-50505341D01*
X124399287Y-50501717D01*
X124408619Y-50500799D01*
X124414700Y-50500500D01*
X129222800Y-50500500D01*
X129228881Y-50500799D01*
X129238930Y-50501788D01*
X129275000Y-50505341D01*
X129306510Y-50502237D01*
X129320999Y-50500811D01*
X129323941Y-50500591D01*
X129325738Y-50500500D01*
X129325742Y-50500500D01*
X129374663Y-50495525D01*
X129471132Y-50486024D01*
X129471151Y-50486017D01*
X129471391Y-50485971D01*
X129477230Y-50485095D01*
X129477438Y-50485074D01*
X129569992Y-50456034D01*
X129659727Y-50428814D01*
X129659735Y-50428809D01*
X129666463Y-50426023D01*
X129671533Y-50424181D01*
X129671575Y-50424162D01*
X129671588Y-50424159D01*
X129753648Y-50378612D01*
X129833538Y-50335910D01*
X129833544Y-50335904D01*
X129838604Y-50332525D01*
X129838740Y-50332729D01*
X129849215Y-50325608D01*
X129849503Y-50325408D01*
X129878987Y-50300096D01*
X129917854Y-50266728D01*
X129918749Y-50265977D01*
X129985883Y-50210883D01*
X129986103Y-50210614D01*
X130001198Y-50195180D01*
X130003895Y-50192866D01*
X130056925Y-50124355D01*
X130057998Y-50123011D01*
X130110907Y-50058542D01*
X130110907Y-50058541D01*
X130110910Y-50058538D01*
X130112766Y-50055063D01*
X130124076Y-50037605D01*
X130128448Y-50031958D01*
X130165118Y-49957199D01*
X130166082Y-49955314D01*
X130203814Y-49884727D01*
X130206000Y-49877517D01*
X130213330Y-49858912D01*
X130218060Y-49849271D01*
X130238090Y-49771906D01*
X130238762Y-49769518D01*
X130261024Y-49696132D01*
X130262113Y-49685065D01*
X130265473Y-49666148D01*
X130269063Y-49652285D01*
X130272938Y-49575861D01*
X130273154Y-49572967D01*
X130280341Y-49500000D01*
X130278899Y-49485369D01*
X130278462Y-49466937D01*
X130279369Y-49449064D01*
X130268291Y-49376754D01*
X130267878Y-49373464D01*
X130266976Y-49364306D01*
X130261024Y-49303868D01*
X130255713Y-49286361D01*
X130251809Y-49269167D01*
X130248556Y-49247929D01*
X130224320Y-49182494D01*
X130223135Y-49178969D01*
X130203814Y-49115273D01*
X130191518Y-49092270D01*
X130188055Y-49084572D01*
X130177887Y-49057116D01*
X130177886Y-49057113D01*
X130142756Y-49000751D01*
X130140702Y-48997199D01*
X130122088Y-48962374D01*
X130110911Y-48941463D01*
X130110909Y-48941460D01*
X130092225Y-48918694D01*
X130087534Y-48912156D01*
X130070252Y-48884429D01*
X130026802Y-48838720D01*
X130023840Y-48835368D01*
X129985883Y-48789117D01*
X129985881Y-48789115D01*
X129985880Y-48789114D01*
X129960500Y-48768285D01*
X129954894Y-48763073D01*
X129930059Y-48736947D01*
X129924691Y-48733211D01*
X129881090Y-48702863D01*
X129877184Y-48699909D01*
X129833538Y-48664090D01*
X129833535Y-48664088D01*
X129833531Y-48664085D01*
X129801602Y-48647019D01*
X129795406Y-48643225D01*
X129763051Y-48620706D01*
X129711328Y-48598509D01*
X129706552Y-48596213D01*
X129659727Y-48571186D01*
X129659721Y-48571183D01*
X129621841Y-48559692D01*
X129615388Y-48557337D01*
X129576061Y-48540461D01*
X129576059Y-48540460D01*
X129576058Y-48540460D01*
X129524218Y-48529806D01*
X129518708Y-48528407D01*
X129471139Y-48513977D01*
X129471128Y-48513975D01*
X129428368Y-48509763D01*
X129421962Y-48508792D01*
X129376743Y-48499500D01*
X129376741Y-48499500D01*
X129327200Y-48499500D01*
X129321119Y-48499201D01*
X129275000Y-48494659D01*
X129228881Y-48499201D01*
X129222800Y-48499500D01*
X124414700Y-48499500D01*
X124408619Y-48499201D01*
X124362500Y-48494659D01*
X124316501Y-48499189D01*
X124313562Y-48499408D01*
X124311757Y-48499499D01*
X124262888Y-48504468D01*
X124166359Y-48513976D01*
X124166058Y-48514037D01*
X124160267Y-48514904D01*
X124160076Y-48514923D01*
X124160054Y-48514927D01*
X124092167Y-48536227D01*
X124067507Y-48543965D01*
X124018950Y-48558695D01*
X123977765Y-48571188D01*
X123971015Y-48573984D01*
X123965960Y-48575820D01*
X123965905Y-48575844D01*
X123883827Y-48621400D01*
X123803964Y-48664088D01*
X123798902Y-48667471D01*
X123798768Y-48667270D01*
X123788066Y-48674542D01*
X123787998Y-48674590D01*
X123719712Y-48733211D01*
X123718660Y-48734094D01*
X123651619Y-48789113D01*
X123651609Y-48789123D01*
X123651364Y-48789423D01*
X123636321Y-48804801D01*
X123633611Y-48807128D01*
X123633607Y-48807132D01*
X123633605Y-48807134D01*
X123580574Y-48875642D01*
X123579495Y-48876996D01*
X123526593Y-48941456D01*
X123526585Y-48941469D01*
X123524724Y-48944951D01*
X123513437Y-48962374D01*
X123509055Y-48968035D01*
X123509053Y-48968038D01*
X123472380Y-49042802D01*
X123471395Y-49044724D01*
X123433685Y-49115273D01*
X123433685Y-49115274D01*
X123431498Y-49122483D01*
X123424172Y-49141079D01*
X123419443Y-49150721D01*
X123419439Y-49150731D01*
X123399420Y-49228045D01*
X123398730Y-49230501D01*
X123376476Y-49303866D01*
X123375385Y-49314938D01*
X123372027Y-49333848D01*
X123368437Y-49347715D01*
X123364560Y-49424123D01*
X123364341Y-49427057D01*
X123357158Y-49499995D01*
X117305341Y-49499995D01*
X117300806Y-49453961D01*
X117300589Y-49451034D01*
X117300500Y-49449283D01*
X117300500Y-49449258D01*
X117295525Y-49400336D01*
X117286024Y-49303868D01*
X117286022Y-49303863D01*
X117286022Y-49303858D01*
X117285967Y-49303579D01*
X117285093Y-49297751D01*
X117285074Y-49297562D01*
X117256034Y-49205007D01*
X117228814Y-49115273D01*
X117228810Y-49115266D01*
X117226021Y-49108532D01*
X117224174Y-49103448D01*
X117224160Y-49103417D01*
X117224159Y-49103412D01*
X117178612Y-49021351D01*
X117135910Y-48941462D01*
X117135904Y-48941455D01*
X117132527Y-48936400D01*
X117132729Y-48936264D01*
X117125522Y-48925661D01*
X117125411Y-48925501D01*
X117125410Y-48925499D01*
X117125409Y-48925498D01*
X117110030Y-48907584D01*
X117066773Y-48857194D01*
X117065890Y-48856142D01*
X117025669Y-48807134D01*
X117010883Y-48789117D01*
X117010880Y-48789114D01*
X117010878Y-48789112D01*
X117010606Y-48788889D01*
X116995185Y-48773806D01*
X116992866Y-48771104D01*
X116992864Y-48771103D01*
X116924358Y-48718075D01*
X116922977Y-48716974D01*
X116858539Y-48664090D01*
X116858536Y-48664089D01*
X116855064Y-48662233D01*
X116837607Y-48650925D01*
X116831959Y-48646553D01*
X116831958Y-48646552D01*
X116780682Y-48621400D01*
X116757220Y-48609891D01*
X116755298Y-48608907D01*
X116693436Y-48575841D01*
X116684727Y-48571186D01*
X116684726Y-48571185D01*
X116684723Y-48571184D01*
X116677521Y-48569000D01*
X116658909Y-48561667D01*
X116652849Y-48558695D01*
X116649270Y-48556939D01*
X116608731Y-48546443D01*
X116571922Y-48536912D01*
X116569496Y-48536230D01*
X116496132Y-48513976D01*
X116485054Y-48512884D01*
X116466149Y-48509526D01*
X116452285Y-48505937D01*
X116375875Y-48502060D01*
X116372941Y-48501841D01*
X116300003Y-48494659D01*
X116299996Y-48494659D01*
X116285369Y-48496099D01*
X116266945Y-48496537D01*
X116249068Y-48495631D01*
X116249058Y-48495631D01*
X116176784Y-48506703D01*
X116173474Y-48507119D01*
X116103872Y-48513975D01*
X116103866Y-48513976D01*
X116086367Y-48519284D01*
X116069163Y-48523190D01*
X116047932Y-48526443D01*
X116047921Y-48526446D01*
X115982510Y-48550672D01*
X115978975Y-48551862D01*
X115915276Y-48571184D01*
X115915272Y-48571186D01*
X115892275Y-48583478D01*
X115884576Y-48586942D01*
X115857113Y-48597114D01*
X115857109Y-48597116D01*
X115800751Y-48632243D01*
X115797195Y-48634298D01*
X115766091Y-48650925D01*
X115741467Y-48664087D01*
X115741454Y-48664095D01*
X115724737Y-48677815D01*
X115718689Y-48682777D01*
X115712154Y-48687466D01*
X115684429Y-48704747D01*
X115684427Y-48704749D01*
X115638732Y-48748184D01*
X115635349Y-48751173D01*
X115589114Y-48789118D01*
X115568282Y-48814500D01*
X115563071Y-48820105D01*
X115536947Y-48844939D01*
X115502866Y-48893905D01*
X115499905Y-48897818D01*
X115464092Y-48941457D01*
X115464089Y-48941463D01*
X115447018Y-48973399D01*
X115443225Y-48979593D01*
X115420706Y-49011948D01*
X115420705Y-49011950D01*
X115398504Y-49063680D01*
X115396209Y-49068456D01*
X115371186Y-49115272D01*
X115371184Y-49115276D01*
X115366087Y-49132080D01*
X115359692Y-49153159D01*
X115357339Y-49159607D01*
X115340461Y-49198937D01*
X115329806Y-49250778D01*
X115328406Y-49256294D01*
X115313975Y-49303870D01*
X115309763Y-49346632D01*
X115308792Y-49353038D01*
X115299500Y-49398257D01*
X115299500Y-49447798D01*
X115299201Y-49453878D01*
X115294659Y-49499999D01*
X115299201Y-49546119D01*
X115299500Y-49552200D01*
X115299499Y-89113568D01*
X115279814Y-89180607D01*
X115227010Y-89226362D01*
X115157852Y-89236306D01*
X115101186Y-89212833D01*
X115092332Y-89206204D01*
X115092328Y-89206202D01*
X114957482Y-89155908D01*
X114957483Y-89155908D01*
X114897883Y-89149501D01*
X114897881Y-89149500D01*
X114897873Y-89149500D01*
X114897864Y-89149500D01*
X113102129Y-89149500D01*
X113102123Y-89149501D01*
X113042516Y-89155908D01*
X112907671Y-89206202D01*
X112907664Y-89206206D01*
X112792455Y-89292452D01*
X112792452Y-89292455D01*
X112706206Y-89407664D01*
X112706202Y-89407671D01*
X112655908Y-89542517D01*
X112649501Y-89602116D01*
X112649500Y-89602135D01*
X112649500Y-91397870D01*
X112649501Y-91397876D01*
X112655908Y-91457483D01*
X112706202Y-91592328D01*
X112706206Y-91592335D01*
X112792452Y-91707544D01*
X112792455Y-91707547D01*
X112907664Y-91793793D01*
X112907671Y-91793797D01*
X113042517Y-91844091D01*
X113042516Y-91844091D01*
X113049444Y-91844835D01*
X113102127Y-91850500D01*
X114897872Y-91850499D01*
X114957483Y-91844091D01*
X115092331Y-91793796D01*
X115101185Y-91787167D01*
X115166644Y-91762748D01*
X115234918Y-91777595D01*
X115284327Y-91826997D01*
X115299499Y-91886431D01*
X115299499Y-94076407D01*
X115279814Y-94143446D01*
X115227010Y-94189201D01*
X115157852Y-94199145D01*
X115094296Y-94170120D01*
X115076233Y-94150719D01*
X115070046Y-94142454D01*
X115070044Y-94142453D01*
X115070044Y-94142452D01*
X114954835Y-94056206D01*
X114954828Y-94056202D01*
X114819982Y-94005908D01*
X114819983Y-94005908D01*
X114760383Y-93999501D01*
X114760381Y-93999500D01*
X114760373Y-93999500D01*
X114760364Y-93999500D01*
X112964629Y-93999500D01*
X112964623Y-93999501D01*
X112905016Y-94005908D01*
X112770171Y-94056202D01*
X112770164Y-94056206D01*
X112654955Y-94142452D01*
X112654952Y-94142455D01*
X112568706Y-94257664D01*
X112568702Y-94257671D01*
X112518408Y-94392517D01*
X112512001Y-94452116D01*
X112512000Y-94452135D01*
X112512000Y-96247870D01*
X106312999Y-96247870D01*
X106312999Y-71390001D01*
X109856890Y-71390001D01*
X109877304Y-71675433D01*
X109938128Y-71955037D01*
X110038135Y-72223166D01*
X110175270Y-72474309D01*
X110175275Y-72474317D01*
X110346754Y-72703387D01*
X110346770Y-72703405D01*
X110549094Y-72905729D01*
X110549112Y-72905745D01*
X110778182Y-73077224D01*
X110778190Y-73077229D01*
X111029333Y-73214364D01*
X111029332Y-73214364D01*
X111029336Y-73214365D01*
X111029339Y-73214367D01*
X111297454Y-73314369D01*
X111297460Y-73314370D01*
X111297462Y-73314371D01*
X111577066Y-73375195D01*
X111577068Y-73375195D01*
X111577072Y-73375196D01*
X111830720Y-73393337D01*
X111862499Y-73395610D01*
X111862500Y-73395610D01*
X111862501Y-73395610D01*
X111891095Y-73393564D01*
X112147928Y-73375196D01*
X112427546Y-73314369D01*
X112695661Y-73214367D01*
X112946815Y-73077226D01*
X113175895Y-72905739D01*
X113378239Y-72703395D01*
X113549726Y-72474315D01*
X113686867Y-72223161D01*
X113786869Y-71955046D01*
X113847696Y-71675428D01*
X113868110Y-71390000D01*
X113847696Y-71104572D01*
X113786869Y-70824954D01*
X113686867Y-70556839D01*
X113549726Y-70305685D01*
X113549724Y-70305682D01*
X113378245Y-70076612D01*
X113378229Y-70076594D01*
X113175905Y-69874270D01*
X113175887Y-69874254D01*
X112946817Y-69702775D01*
X112946809Y-69702770D01*
X112695666Y-69565635D01*
X112695667Y-69565635D01*
X112534012Y-69505341D01*
X112427546Y-69465631D01*
X112427543Y-69465630D01*
X112427537Y-69465628D01*
X112147933Y-69404804D01*
X111862501Y-69384390D01*
X111862499Y-69384390D01*
X111577066Y-69404804D01*
X111297462Y-69465628D01*
X111029333Y-69565635D01*
X110778190Y-69702770D01*
X110778182Y-69702775D01*
X110549112Y-69874254D01*
X110549094Y-69874270D01*
X110346770Y-70076594D01*
X110346754Y-70076612D01*
X110175275Y-70305682D01*
X110175270Y-70305690D01*
X110038135Y-70556833D01*
X109938128Y-70824962D01*
X109877304Y-71104566D01*
X109856890Y-71389998D01*
X109856890Y-71390001D01*
X106312999Y-71390001D01*
X106312999Y-45999995D01*
X119994658Y-45999995D01*
X119994659Y-46000003D01*
X119996099Y-46014630D01*
X119996537Y-46033053D01*
X119995631Y-46050936D01*
X120004095Y-46106193D01*
X120006703Y-46123214D01*
X120007119Y-46126524D01*
X120013975Y-46196131D01*
X120019282Y-46213626D01*
X120023189Y-46230831D01*
X120026443Y-46252068D01*
X120026445Y-46252075D01*
X120050670Y-46317483D01*
X120051860Y-46321019D01*
X120071186Y-46384728D01*
X120083478Y-46407724D01*
X120086943Y-46415426D01*
X120091832Y-46428627D01*
X120097114Y-46442887D01*
X120097115Y-46442888D01*
X120097116Y-46442892D01*
X120121364Y-46481793D01*
X120132243Y-46499247D01*
X120134299Y-46502806D01*
X120164090Y-46558538D01*
X120182776Y-46581308D01*
X120187469Y-46587850D01*
X120204748Y-46615571D01*
X120248194Y-46661276D01*
X120251172Y-46664647D01*
X120277011Y-46696132D01*
X120289117Y-46710883D01*
X120314502Y-46731717D01*
X120320093Y-46736914D01*
X120344941Y-46763053D01*
X120393918Y-46797143D01*
X120397810Y-46800086D01*
X120441462Y-46835910D01*
X120471337Y-46851878D01*
X120473399Y-46852980D01*
X120479585Y-46856767D01*
X120499563Y-46870673D01*
X120511950Y-46879295D01*
X120511952Y-46879296D01*
X120563683Y-46901495D01*
X120568446Y-46903784D01*
X120615273Y-46928814D01*
X120653166Y-46940308D01*
X120659599Y-46942656D01*
X120698942Y-46959540D01*
X120750776Y-46970192D01*
X120756296Y-46971593D01*
X120803868Y-46986024D01*
X120846644Y-46990236D01*
X120853026Y-46991204D01*
X120862738Y-46993200D01*
X120898256Y-47000500D01*
X120898259Y-47000500D01*
X120947800Y-47000500D01*
X120953881Y-47000799D01*
X120963499Y-47001746D01*
X121000000Y-47005341D01*
X121036501Y-47001746D01*
X121046119Y-47000799D01*
X121052200Y-47000500D01*
X125947800Y-47000500D01*
X125953880Y-47000799D01*
X125968617Y-47002250D01*
X126000000Y-47005341D01*
X126032676Y-47002121D01*
X126040328Y-47001843D01*
X126070211Y-47002601D01*
X126076360Y-47002757D01*
X126076360Y-47002756D01*
X126076363Y-47002757D01*
X126135100Y-46992229D01*
X126139948Y-46991557D01*
X126196132Y-46986024D01*
X126196153Y-46986017D01*
X126196391Y-46985971D01*
X126202230Y-46985095D01*
X126202438Y-46985074D01*
X126235227Y-46974786D01*
X126242840Y-46972918D01*
X126276653Y-46966858D01*
X126328927Y-46945976D01*
X126333932Y-46944222D01*
X126384720Y-46928816D01*
X126384718Y-46928816D01*
X126384727Y-46928814D01*
X126384734Y-46928810D01*
X126391455Y-46926026D01*
X126396565Y-46924169D01*
X126396585Y-46924160D01*
X126396585Y-46924159D01*
X126396588Y-46924159D01*
X126426634Y-46907481D01*
X126433714Y-46904119D01*
X126465617Y-46891377D01*
X126509816Y-46862245D01*
X126514694Y-46859343D01*
X126558538Y-46835910D01*
X126558542Y-46835906D01*
X126563607Y-46832523D01*
X126563743Y-46832727D01*
X126574182Y-46825630D01*
X126574496Y-46825411D01*
X126574502Y-46825409D01*
X126600576Y-46803023D01*
X126606830Y-46798308D01*
X126635519Y-46779402D01*
X126670571Y-46744348D01*
X126675050Y-46740289D01*
X126710883Y-46710883D01*
X126711103Y-46710614D01*
X126726198Y-46695180D01*
X126728895Y-46692866D01*
X126749913Y-46665711D01*
X126755107Y-46659814D01*
X126878103Y-46536818D01*
X126939426Y-46503334D01*
X126965784Y-46500500D01*
X130936717Y-46500500D01*
X131003756Y-46520185D01*
X131024397Y-46536818D01*
X131658141Y-47170562D01*
X131662220Y-47175063D01*
X131691617Y-47210883D01*
X131727328Y-47240191D01*
X131729558Y-47242111D01*
X131730925Y-47243346D01*
X131768898Y-47274308D01*
X131768884Y-47274324D01*
X131769205Y-47274558D01*
X131843961Y-47335909D01*
X131844193Y-47336064D01*
X131848923Y-47339559D01*
X131849093Y-47339698D01*
X131935092Y-47384620D01*
X132017773Y-47428814D01*
X132017776Y-47428815D01*
X132024527Y-47431612D01*
X132029401Y-47433888D01*
X132029448Y-47433907D01*
X132029451Y-47433909D01*
X132029452Y-47433909D01*
X132029454Y-47433910D01*
X132059122Y-47442398D01*
X132119672Y-47459724D01*
X132206368Y-47486024D01*
X132206370Y-47486024D01*
X132206373Y-47486025D01*
X132212342Y-47487213D01*
X132212294Y-47487451D01*
X132224865Y-47489848D01*
X132225080Y-47489886D01*
X132225082Y-47489887D01*
X132314822Y-47496720D01*
X132316166Y-47496838D01*
X132339335Y-47499119D01*
X132402500Y-47505341D01*
X132402846Y-47505306D01*
X132424421Y-47505066D01*
X132427977Y-47505337D01*
X132513935Y-47494389D01*
X132515617Y-47494199D01*
X132598632Y-47486024D01*
X132602396Y-47484881D01*
X132622728Y-47480534D01*
X132629828Y-47479630D01*
X132708633Y-47452692D01*
X132710651Y-47452042D01*
X132787227Y-47428814D01*
X132793869Y-47425263D01*
X132812206Y-47417290D01*
X132822373Y-47413816D01*
X132822376Y-47413813D01*
X132822379Y-47413813D01*
X132877122Y-47381586D01*
X132891227Y-47373282D01*
X132893445Y-47372038D01*
X132961038Y-47335910D01*
X132969625Y-47328861D01*
X132985383Y-47317856D01*
X132997727Y-47310591D01*
X133054519Y-47259280D01*
X133056733Y-47257374D01*
X133073826Y-47243346D01*
X133113383Y-47210883D01*
X133122703Y-47199525D01*
X133135425Y-47186183D01*
X133148714Y-47174179D01*
X133192031Y-47115186D01*
X133194020Y-47112625D01*
X133238410Y-47058538D01*
X133247027Y-47042414D01*
X133256433Y-47027482D01*
X133269149Y-47010167D01*
X133298287Y-46946748D01*
X133299926Y-46943447D01*
X133331314Y-46884727D01*
X133338883Y-46859776D01*
X133341876Y-46851884D01*
X133354106Y-46825269D01*
X133369127Y-46760536D01*
X133370172Y-46756627D01*
X133388524Y-46696132D01*
X133391412Y-46666803D01*
X133392715Y-46658886D01*
X133400103Y-46627054D01*
X133401700Y-46564018D01*
X133401978Y-46559526D01*
X133407841Y-46500000D01*
X133404622Y-46467322D01*
X133404343Y-46459663D01*
X133405257Y-46423640D01*
X133405256Y-46423639D01*
X133405257Y-46423637D01*
X133394729Y-46364905D01*
X133394057Y-46360062D01*
X133388524Y-46303868D01*
X133378008Y-46269205D01*
X133376312Y-46262146D01*
X133374506Y-46252071D01*
X133369359Y-46223348D01*
X133348471Y-46171057D01*
X133346721Y-46166063D01*
X133331314Y-46115273D01*
X133312652Y-46080360D01*
X133309755Y-46074132D01*
X133293877Y-46034381D01*
X133293877Y-46034380D01*
X133264751Y-45990189D01*
X133261847Y-45985311D01*
X133238410Y-45941462D01*
X133211145Y-45908240D01*
X133207310Y-45903035D01*
X133181902Y-45864482D01*
X133181899Y-45864479D01*
X133181898Y-45864477D01*
X133164384Y-45846965D01*
X133146862Y-45829442D01*
X133142783Y-45824941D01*
X133113384Y-45789118D01*
X133113383Y-45789117D01*
X133077546Y-45759706D01*
X133073047Y-45755627D01*
X132606533Y-45289113D01*
X132119473Y-44802053D01*
X132118415Y-44800967D01*
X132057561Y-44736949D01*
X132057560Y-44736948D01*
X132057559Y-44736947D01*
X132029704Y-44717559D01*
X132007209Y-44701902D01*
X132003446Y-44699064D01*
X131955913Y-44660305D01*
X131955906Y-44660300D01*
X131925459Y-44644397D01*
X131918751Y-44640334D01*
X131890549Y-44620705D01*
X131890546Y-44620703D01*
X131890545Y-44620703D01*
X131890541Y-44620701D01*
X131834180Y-44596514D01*
X131829924Y-44594493D01*
X131775557Y-44566094D01*
X131775550Y-44566091D01*
X131775549Y-44566091D01*
X131769508Y-44564362D01*
X131742530Y-44556642D01*
X131735130Y-44554008D01*
X131703557Y-44540459D01*
X131703558Y-44540459D01*
X131643466Y-44528109D01*
X131638891Y-44526986D01*
X131579920Y-44510113D01*
X131579925Y-44510113D01*
X131545658Y-44507503D01*
X131537880Y-44506412D01*
X131504242Y-44499500D01*
X131504241Y-44499500D01*
X131442902Y-44499500D01*
X131438195Y-44499321D01*
X131432621Y-44498896D01*
X131377024Y-44494662D01*
X131357089Y-44497201D01*
X131342940Y-44499003D01*
X131335111Y-44499500D01*
X126513493Y-44499500D01*
X126511930Y-44499480D01*
X126423637Y-44497243D01*
X126423628Y-44497243D01*
X126372476Y-44506412D01*
X126363254Y-44508064D01*
X126358595Y-44508718D01*
X126297564Y-44514925D01*
X126297562Y-44514926D01*
X126264780Y-44525210D01*
X126257156Y-44527081D01*
X126254057Y-44527637D01*
X126223349Y-44533141D01*
X126223341Y-44533143D01*
X126166382Y-44555895D01*
X126161946Y-44557474D01*
X126103415Y-44575840D01*
X126103412Y-44575841D01*
X126103410Y-44575842D01*
X126103403Y-44575845D01*
X126073384Y-44592507D01*
X126066290Y-44595876D01*
X126034390Y-44608619D01*
X126034388Y-44608619D01*
X126034383Y-44608622D01*
X126034376Y-44608626D01*
X126034377Y-44608626D01*
X125983154Y-44642383D01*
X125979126Y-44644824D01*
X125925502Y-44674588D01*
X125925499Y-44674590D01*
X125899427Y-44696970D01*
X125893160Y-44701695D01*
X125864482Y-44720598D01*
X125864475Y-44720603D01*
X125821116Y-44763962D01*
X125817661Y-44767164D01*
X125771106Y-44807132D01*
X125771104Y-44807134D01*
X125750080Y-44834294D01*
X125744889Y-44840189D01*
X125621899Y-44963181D01*
X125560576Y-44996666D01*
X125534217Y-44999500D01*
X121052200Y-44999500D01*
X121046119Y-44999201D01*
X121000000Y-44994659D01*
X120954001Y-44999189D01*
X120951062Y-44999408D01*
X120949257Y-44999499D01*
X120900388Y-45004468D01*
X120803859Y-45013976D01*
X120803558Y-45014037D01*
X120797767Y-45014904D01*
X120797576Y-45014923D01*
X120797554Y-45014927D01*
X120729667Y-45036227D01*
X120705007Y-45043965D01*
X120650403Y-45060529D01*
X120615265Y-45071188D01*
X120608515Y-45073984D01*
X120603460Y-45075820D01*
X120603405Y-45075844D01*
X120521327Y-45121400D01*
X120441464Y-45164088D01*
X120436402Y-45167471D01*
X120436268Y-45167270D01*
X120425566Y-45174542D01*
X120425498Y-45174590D01*
X120357212Y-45233211D01*
X120356160Y-45234094D01*
X120289119Y-45289113D01*
X120289109Y-45289123D01*
X120288864Y-45289423D01*
X120273821Y-45304801D01*
X120271111Y-45307128D01*
X120271107Y-45307132D01*
X120271105Y-45307134D01*
X120218074Y-45375642D01*
X120216995Y-45376996D01*
X120164093Y-45441456D01*
X120164085Y-45441469D01*
X120162224Y-45444951D01*
X120150937Y-45462374D01*
X120146555Y-45468035D01*
X120146553Y-45468038D01*
X120109880Y-45542802D01*
X120108895Y-45544724D01*
X120071185Y-45615273D01*
X120071185Y-45615274D01*
X120068998Y-45622483D01*
X120061672Y-45641079D01*
X120056943Y-45650721D01*
X120056939Y-45650731D01*
X120036920Y-45728045D01*
X120036230Y-45730501D01*
X120013976Y-45803866D01*
X120012885Y-45814938D01*
X120009527Y-45833848D01*
X120005937Y-45847715D01*
X120002060Y-45924123D01*
X120001841Y-45927057D01*
X119994658Y-45999995D01*
X106312999Y-45999995D01*
X106312999Y-39051149D01*
X106313020Y-39050000D01*
X120196841Y-39050000D01*
X120217436Y-39285403D01*
X120217438Y-39285413D01*
X120278594Y-39513655D01*
X120278596Y-39513659D01*
X120278597Y-39513663D01*
X120282500Y-39522032D01*
X120378465Y-39727830D01*
X120378467Y-39727834D01*
X120486781Y-39882521D01*
X120514005Y-39921401D01*
X120681099Y-40088495D01*
X120777884Y-40156265D01*
X120874665Y-40224032D01*
X120874667Y-40224033D01*
X120874670Y-40224035D01*
X121088837Y-40323903D01*
X121317092Y-40385063D01*
X121505418Y-40401539D01*
X121552499Y-40405659D01*
X121552500Y-40405659D01*
X121552501Y-40405659D01*
X121591734Y-40402226D01*
X121787908Y-40385063D01*
X122016163Y-40323903D01*
X122230330Y-40224035D01*
X122423901Y-40088495D01*
X122590995Y-39921401D01*
X122720924Y-39735842D01*
X122775502Y-39692217D01*
X122845000Y-39685023D01*
X122907355Y-39716546D01*
X122924075Y-39735842D01*
X123054000Y-39921395D01*
X123054005Y-39921401D01*
X123221099Y-40088495D01*
X123317884Y-40156265D01*
X123414665Y-40224032D01*
X123414667Y-40224033D01*
X123414670Y-40224035D01*
X123628837Y-40323903D01*
X123857092Y-40385063D01*
X124045418Y-40401539D01*
X124092499Y-40405659D01*
X124092500Y-40405659D01*
X124092501Y-40405659D01*
X124131734Y-40402226D01*
X124327908Y-40385063D01*
X124556163Y-40323903D01*
X124770330Y-40224035D01*
X124963901Y-40088495D01*
X125130995Y-39921401D01*
X125260924Y-39735842D01*
X125315502Y-39692217D01*
X125385000Y-39685023D01*
X125447355Y-39716546D01*
X125464075Y-39735842D01*
X125594000Y-39921395D01*
X125594005Y-39921401D01*
X125761099Y-40088495D01*
X125857884Y-40156265D01*
X125954665Y-40224032D01*
X125954667Y-40224033D01*
X125954670Y-40224035D01*
X126168837Y-40323903D01*
X126397092Y-40385063D01*
X126585418Y-40401539D01*
X126632499Y-40405659D01*
X126632500Y-40405659D01*
X126632501Y-40405659D01*
X126671734Y-40402226D01*
X126867908Y-40385063D01*
X127096163Y-40323903D01*
X127310330Y-40224035D01*
X127503901Y-40088495D01*
X127670995Y-39921401D01*
X127800924Y-39735842D01*
X127855502Y-39692217D01*
X127925000Y-39685023D01*
X127987355Y-39716546D01*
X128004075Y-39735842D01*
X128134000Y-39921395D01*
X128134005Y-39921401D01*
X128301099Y-40088495D01*
X128397884Y-40156265D01*
X128494665Y-40224032D01*
X128494667Y-40224033D01*
X128494670Y-40224035D01*
X128708837Y-40323903D01*
X128937092Y-40385063D01*
X129125418Y-40401539D01*
X129172499Y-40405659D01*
X129172500Y-40405659D01*
X129172501Y-40405659D01*
X129211734Y-40402226D01*
X129407908Y-40385063D01*
X129636163Y-40323903D01*
X129850330Y-40224035D01*
X130043901Y-40088495D01*
X130210995Y-39921401D01*
X130346535Y-39727830D01*
X130446403Y-39513663D01*
X130507563Y-39285408D01*
X130528159Y-39050000D01*
X140516841Y-39050000D01*
X140537436Y-39285403D01*
X140537438Y-39285413D01*
X140598594Y-39513655D01*
X140598596Y-39513659D01*
X140598597Y-39513663D01*
X140602500Y-39522032D01*
X140698465Y-39727830D01*
X140698467Y-39727834D01*
X140806781Y-39882521D01*
X140834005Y-39921401D01*
X141001099Y-40088495D01*
X141097884Y-40156265D01*
X141194665Y-40224032D01*
X141194667Y-40224033D01*
X141194670Y-40224035D01*
X141408837Y-40323903D01*
X141637092Y-40385063D01*
X141825418Y-40401539D01*
X141872499Y-40405659D01*
X141872500Y-40405659D01*
X141872501Y-40405659D01*
X141911734Y-40402226D01*
X142107908Y-40385063D01*
X142336163Y-40323903D01*
X142550330Y-40224035D01*
X142743901Y-40088495D01*
X142910995Y-39921401D01*
X143046535Y-39727830D01*
X143146403Y-39513663D01*
X143207563Y-39285408D01*
X143228159Y-39050000D01*
X143207563Y-38814592D01*
X143146403Y-38586337D01*
X143046535Y-38372171D01*
X143040925Y-38364158D01*
X142910994Y-38178597D01*
X142743902Y-38011506D01*
X142743895Y-38011501D01*
X142550334Y-37875967D01*
X142550330Y-37875965D01*
X142465770Y-37836534D01*
X142336163Y-37776097D01*
X142336159Y-37776096D01*
X142336155Y-37776094D01*
X142107913Y-37714938D01*
X142107903Y-37714936D01*
X141872501Y-37694341D01*
X141872499Y-37694341D01*
X141637096Y-37714936D01*
X141637086Y-37714938D01*
X141408844Y-37776094D01*
X141408835Y-37776098D01*
X141194671Y-37875964D01*
X141194669Y-37875965D01*
X141001097Y-38011505D01*
X140834005Y-38178597D01*
X140698465Y-38372169D01*
X140698464Y-38372171D01*
X140598598Y-38586335D01*
X140598594Y-38586344D01*
X140537438Y-38814586D01*
X140537436Y-38814596D01*
X140516841Y-39049999D01*
X140516841Y-39050000D01*
X130528159Y-39050000D01*
X130507563Y-38814592D01*
X130446403Y-38586337D01*
X130346535Y-38372171D01*
X130340925Y-38364158D01*
X130210994Y-38178597D01*
X130043902Y-38011506D01*
X130043895Y-38011501D01*
X129850334Y-37875967D01*
X129850330Y-37875965D01*
X129765770Y-37836534D01*
X129636163Y-37776097D01*
X129636159Y-37776096D01*
X129636155Y-37776094D01*
X129407913Y-37714938D01*
X129407903Y-37714936D01*
X129172501Y-37694341D01*
X129172499Y-37694341D01*
X128937096Y-37714936D01*
X128937086Y-37714938D01*
X128708844Y-37776094D01*
X128708835Y-37776098D01*
X128494671Y-37875964D01*
X128494669Y-37875965D01*
X128301097Y-38011505D01*
X128134005Y-38178597D01*
X128004075Y-38364158D01*
X127949498Y-38407783D01*
X127880000Y-38414977D01*
X127817645Y-38383454D01*
X127800925Y-38364158D01*
X127670994Y-38178597D01*
X127503902Y-38011506D01*
X127503895Y-38011501D01*
X127310334Y-37875967D01*
X127310330Y-37875965D01*
X127225770Y-37836534D01*
X127096163Y-37776097D01*
X127096159Y-37776096D01*
X127096155Y-37776094D01*
X126867913Y-37714938D01*
X126867903Y-37714936D01*
X126632501Y-37694341D01*
X126632499Y-37694341D01*
X126397096Y-37714936D01*
X126397086Y-37714938D01*
X126168844Y-37776094D01*
X126168835Y-37776098D01*
X125954671Y-37875964D01*
X125954669Y-37875965D01*
X125761097Y-38011505D01*
X125594005Y-38178597D01*
X125464075Y-38364158D01*
X125409498Y-38407783D01*
X125340000Y-38414977D01*
X125277645Y-38383454D01*
X125260925Y-38364158D01*
X125130994Y-38178597D01*
X124963902Y-38011506D01*
X124963895Y-38011501D01*
X124770334Y-37875967D01*
X124770330Y-37875965D01*
X124685770Y-37836534D01*
X124556163Y-37776097D01*
X124556159Y-37776096D01*
X124556155Y-37776094D01*
X124327913Y-37714938D01*
X124327903Y-37714936D01*
X124092501Y-37694341D01*
X124092499Y-37694341D01*
X123857096Y-37714936D01*
X123857086Y-37714938D01*
X123628844Y-37776094D01*
X123628835Y-37776098D01*
X123414671Y-37875964D01*
X123414669Y-37875965D01*
X123221097Y-38011505D01*
X123054008Y-38178594D01*
X122924074Y-38364160D01*
X122869497Y-38407784D01*
X122799998Y-38414977D01*
X122737644Y-38383455D01*
X122720929Y-38364164D01*
X122590995Y-38178599D01*
X122590993Y-38178596D01*
X122423902Y-38011506D01*
X122423895Y-38011501D01*
X122230334Y-37875967D01*
X122230330Y-37875965D01*
X122145770Y-37836534D01*
X122016163Y-37776097D01*
X122016159Y-37776096D01*
X122016155Y-37776094D01*
X121787913Y-37714938D01*
X121787903Y-37714936D01*
X121552501Y-37694341D01*
X121552499Y-37694341D01*
X121317096Y-37714936D01*
X121317086Y-37714938D01*
X121088844Y-37776094D01*
X121088835Y-37776098D01*
X120874671Y-37875964D01*
X120874669Y-37875965D01*
X120681097Y-38011505D01*
X120514005Y-38178597D01*
X120378465Y-38372169D01*
X120378464Y-38372171D01*
X120278598Y-38586335D01*
X120278594Y-38586344D01*
X120217438Y-38814586D01*
X120217436Y-38814596D01*
X120196841Y-39049999D01*
X120196841Y-39050000D01*
X106313020Y-39050000D01*
X106313041Y-39048868D01*
X106322988Y-38783039D01*
X106331264Y-38572414D01*
X106331602Y-38567972D01*
X106360225Y-38313937D01*
X106386861Y-38088891D01*
X106387504Y-38084705D01*
X106434466Y-37836503D01*
X106479322Y-37610999D01*
X106480218Y-37607159D01*
X106545278Y-37364353D01*
X106608075Y-37141692D01*
X106609207Y-37138106D01*
X106692024Y-36901429D01*
X106772382Y-36683612D01*
X106773690Y-36680361D01*
X106873604Y-36451355D01*
X106874047Y-36450369D01*
X106971266Y-36239485D01*
X106972691Y-36236601D01*
X107089329Y-36015913D01*
X107089932Y-36014804D01*
X107203542Y-35811937D01*
X107205065Y-35809372D01*
X107337760Y-35598189D01*
X107338609Y-35596878D01*
X107467845Y-35403463D01*
X107469450Y-35401179D01*
X107617484Y-35200600D01*
X107618563Y-35199186D01*
X107762660Y-35016399D01*
X107764228Y-35014496D01*
X107926817Y-34825564D01*
X107928170Y-34824047D01*
X108086196Y-34653096D01*
X108087773Y-34651456D01*
X108263956Y-34475273D01*
X108265596Y-34473696D01*
X108436547Y-34315670D01*
X108438064Y-34314317D01*
X108626996Y-34151728D01*
X108628899Y-34150160D01*
X108811686Y-34006063D01*
X108813100Y-34004984D01*
X109013679Y-33856950D01*
X109015963Y-33855345D01*
X109209378Y-33726109D01*
X109210689Y-33725260D01*
X109421872Y-33592565D01*
X109424437Y-33591042D01*
X109627304Y-33477432D01*
X109628413Y-33476829D01*
X109849101Y-33360191D01*
X109851985Y-33358766D01*
X110062869Y-33261547D01*
X110063855Y-33261104D01*
X110292861Y-33161190D01*
X110296112Y-33159882D01*
X110513929Y-33079524D01*
X110750606Y-32996707D01*
X110754192Y-32995575D01*
X110976878Y-32932771D01*
X111219659Y-32867718D01*
X111223499Y-32866822D01*
X111449003Y-32821966D01*
X111697205Y-32775004D01*
X111701391Y-32774361D01*
X111926437Y-32747725D01*
X112180472Y-32719102D01*
X112184912Y-32718764D01*
X112395556Y-32710488D01*
X112661367Y-32700542D01*
X112663652Y-32700500D01*
X150761348Y-32700500D01*
X150763632Y-32700542D01*
G37*
%TD.AperFunction*%
%TD*%
%TA.AperFunction,Conductor*%
%TO.N,/DummyLEDLoad/GATEDGND*%
G36*
X153193039Y-106019685D02*
G01*
X153238794Y-106072489D01*
X153250000Y-106124000D01*
X153250000Y-117126000D01*
X153230315Y-117193039D01*
X153177511Y-117238794D01*
X153126000Y-117250000D01*
X143874000Y-117250000D01*
X143806961Y-117230315D01*
X143761206Y-117177511D01*
X143750000Y-117126000D01*
X143750000Y-106124000D01*
X143769685Y-106056961D01*
X143822489Y-106011206D01*
X143874000Y-106000000D01*
X153126000Y-106000000D01*
X153193039Y-106019685D01*
G37*
%TD.AperFunction*%
%TD*%
%TA.AperFunction,Conductor*%
%TO.N,/FETSwitch/LEDGND*%
G36*
X153443039Y-88519685D02*
G01*
X153488794Y-88572489D01*
X153500000Y-88624000D01*
X153500000Y-99626000D01*
X153480315Y-99693039D01*
X153427511Y-99738794D01*
X153376000Y-99750000D01*
X143624000Y-99750000D01*
X143556961Y-99730315D01*
X143511206Y-99677511D01*
X143500000Y-99626000D01*
X143500000Y-88624000D01*
X143519685Y-88556961D01*
X143572489Y-88511206D01*
X143624000Y-88500000D01*
X153376000Y-88500000D01*
X153443039Y-88519685D01*
G37*
%TD.AperFunction*%
%TD*%
%TA.AperFunction,Conductor*%
%TO.N,/LT3081CurrentSupply/V_{OUT}*%
G36*
X143693039Y-74269685D02*
G01*
X143738794Y-74322489D01*
X143750000Y-74374000D01*
X143750000Y-85376000D01*
X143730315Y-85443039D01*
X143677511Y-85488794D01*
X143626000Y-85500000D01*
X134124000Y-85500000D01*
X134056961Y-85480315D01*
X134011206Y-85427511D01*
X134000000Y-85376000D01*
X134000000Y-74374000D01*
X134019685Y-74306961D01*
X134072489Y-74261206D01*
X134124000Y-74250000D01*
X143626000Y-74250000D01*
X143693039Y-74269685D01*
G37*
%TD.AperFunction*%
%TD*%
M02*
