%TF.GenerationSoftware,KiCad,Pcbnew,7.0.5*%
%TF.CreationDate,2023-09-20T10:38:49-07:00*%
%TF.ProjectId,LT3081LEDDriver,4c543330-3831-44c4-9544-447269766572,rev?*%
%TF.SameCoordinates,Original*%
%TF.FileFunction,Legend,Top*%
%TF.FilePolarity,Positive*%
%FSLAX46Y46*%
G04 Gerber Fmt 4.6, Leading zero omitted, Abs format (unit mm)*
G04 Created by KiCad (PCBNEW 7.0.5) date 2023-09-20 10:38:49*
%MOMM*%
%LPD*%
G01*
G04 APERTURE LIST*
%ADD10C,0.150000*%
%ADD11C,0.120000*%
G04 APERTURE END LIST*
D10*
X142062969Y-72869819D02*
X141586779Y-72869819D01*
X141586779Y-72869819D02*
X141539160Y-73346009D01*
X141539160Y-73346009D02*
X141586779Y-73298390D01*
X141586779Y-73298390D02*
X141682017Y-73250771D01*
X141682017Y-73250771D02*
X141920112Y-73250771D01*
X141920112Y-73250771D02*
X142015350Y-73298390D01*
X142015350Y-73298390D02*
X142062969Y-73346009D01*
X142062969Y-73346009D02*
X142110588Y-73441247D01*
X142110588Y-73441247D02*
X142110588Y-73679342D01*
X142110588Y-73679342D02*
X142062969Y-73774580D01*
X142062969Y-73774580D02*
X142015350Y-73822200D01*
X142015350Y-73822200D02*
X141920112Y-73869819D01*
X141920112Y-73869819D02*
X141682017Y-73869819D01*
X141682017Y-73869819D02*
X141586779Y-73822200D01*
X141586779Y-73822200D02*
X141539160Y-73774580D01*
X142396303Y-72869819D02*
X142729636Y-73869819D01*
X142729636Y-73869819D02*
X143062969Y-72869819D01*
X143348684Y-73980295D02*
X143348684Y-73180295D01*
X143729636Y-73980295D02*
X143729636Y-73180295D01*
X143729636Y-73180295D02*
X144186779Y-73980295D01*
X144186779Y-73980295D02*
X144186779Y-73180295D01*
X124039160Y-74072200D02*
X124182017Y-74119819D01*
X124182017Y-74119819D02*
X124420112Y-74119819D01*
X124420112Y-74119819D02*
X124515350Y-74072200D01*
X124515350Y-74072200D02*
X124562969Y-74024580D01*
X124562969Y-74024580D02*
X124610588Y-73929342D01*
X124610588Y-73929342D02*
X124610588Y-73834104D01*
X124610588Y-73834104D02*
X124562969Y-73738866D01*
X124562969Y-73738866D02*
X124515350Y-73691247D01*
X124515350Y-73691247D02*
X124420112Y-73643628D01*
X124420112Y-73643628D02*
X124229636Y-73596009D01*
X124229636Y-73596009D02*
X124134398Y-73548390D01*
X124134398Y-73548390D02*
X124086779Y-73500771D01*
X124086779Y-73500771D02*
X124039160Y-73405533D01*
X124039160Y-73405533D02*
X124039160Y-73310295D01*
X124039160Y-73310295D02*
X124086779Y-73215057D01*
X124086779Y-73215057D02*
X124134398Y-73167438D01*
X124134398Y-73167438D02*
X124229636Y-73119819D01*
X124229636Y-73119819D02*
X124467731Y-73119819D01*
X124467731Y-73119819D02*
X124610588Y-73167438D01*
X125610588Y-74024580D02*
X125562969Y-74072200D01*
X125562969Y-74072200D02*
X125420112Y-74119819D01*
X125420112Y-74119819D02*
X125324874Y-74119819D01*
X125324874Y-74119819D02*
X125182017Y-74072200D01*
X125182017Y-74072200D02*
X125086779Y-73976961D01*
X125086779Y-73976961D02*
X125039160Y-73881723D01*
X125039160Y-73881723D02*
X124991541Y-73691247D01*
X124991541Y-73691247D02*
X124991541Y-73548390D01*
X124991541Y-73548390D02*
X125039160Y-73357914D01*
X125039160Y-73357914D02*
X125086779Y-73262676D01*
X125086779Y-73262676D02*
X125182017Y-73167438D01*
X125182017Y-73167438D02*
X125324874Y-73119819D01*
X125324874Y-73119819D02*
X125420112Y-73119819D01*
X125420112Y-73119819D02*
X125562969Y-73167438D01*
X125562969Y-73167438D02*
X125610588Y-73215057D01*
X126515350Y-74119819D02*
X126039160Y-74119819D01*
X126039160Y-74119819D02*
X126039160Y-73119819D01*
X120443922Y-73119819D02*
X121015350Y-73119819D01*
X120729636Y-74119819D02*
X120729636Y-73119819D01*
X121920112Y-74119819D02*
X121586779Y-73643628D01*
X121348684Y-74119819D02*
X121348684Y-73119819D01*
X121348684Y-73119819D02*
X121729636Y-73119819D01*
X121729636Y-73119819D02*
X121824874Y-73167438D01*
X121824874Y-73167438D02*
X121872493Y-73215057D01*
X121872493Y-73215057D02*
X121920112Y-73310295D01*
X121920112Y-73310295D02*
X121920112Y-73453152D01*
X121920112Y-73453152D02*
X121872493Y-73548390D01*
X121872493Y-73548390D02*
X121824874Y-73596009D01*
X121824874Y-73596009D02*
X121729636Y-73643628D01*
X121729636Y-73643628D02*
X121348684Y-73643628D01*
X122348684Y-74119819D02*
X122348684Y-73119819D01*
X123348683Y-73167438D02*
X123253445Y-73119819D01*
X123253445Y-73119819D02*
X123110588Y-73119819D01*
X123110588Y-73119819D02*
X122967731Y-73167438D01*
X122967731Y-73167438D02*
X122872493Y-73262676D01*
X122872493Y-73262676D02*
X122824874Y-73357914D01*
X122824874Y-73357914D02*
X122777255Y-73548390D01*
X122777255Y-73548390D02*
X122777255Y-73691247D01*
X122777255Y-73691247D02*
X122824874Y-73881723D01*
X122824874Y-73881723D02*
X122872493Y-73976961D01*
X122872493Y-73976961D02*
X122967731Y-74072200D01*
X122967731Y-74072200D02*
X123110588Y-74119819D01*
X123110588Y-74119819D02*
X123205826Y-74119819D01*
X123205826Y-74119819D02*
X123348683Y-74072200D01*
X123348683Y-74072200D02*
X123396302Y-74024580D01*
X123396302Y-74024580D02*
X123396302Y-73691247D01*
X123396302Y-73691247D02*
X123205826Y-73691247D01*
X127039160Y-74072200D02*
X127182017Y-74119819D01*
X127182017Y-74119819D02*
X127420112Y-74119819D01*
X127420112Y-74119819D02*
X127515350Y-74072200D01*
X127515350Y-74072200D02*
X127562969Y-74024580D01*
X127562969Y-74024580D02*
X127610588Y-73929342D01*
X127610588Y-73929342D02*
X127610588Y-73834104D01*
X127610588Y-73834104D02*
X127562969Y-73738866D01*
X127562969Y-73738866D02*
X127515350Y-73691247D01*
X127515350Y-73691247D02*
X127420112Y-73643628D01*
X127420112Y-73643628D02*
X127229636Y-73596009D01*
X127229636Y-73596009D02*
X127134398Y-73548390D01*
X127134398Y-73548390D02*
X127086779Y-73500771D01*
X127086779Y-73500771D02*
X127039160Y-73405533D01*
X127039160Y-73405533D02*
X127039160Y-73310295D01*
X127039160Y-73310295D02*
X127086779Y-73215057D01*
X127086779Y-73215057D02*
X127134398Y-73167438D01*
X127134398Y-73167438D02*
X127229636Y-73119819D01*
X127229636Y-73119819D02*
X127467731Y-73119819D01*
X127467731Y-73119819D02*
X127610588Y-73167438D01*
X128039160Y-74119819D02*
X128039160Y-73119819D01*
X128039160Y-73119819D02*
X128277255Y-73119819D01*
X128277255Y-73119819D02*
X128420112Y-73167438D01*
X128420112Y-73167438D02*
X128515350Y-73262676D01*
X128515350Y-73262676D02*
X128562969Y-73357914D01*
X128562969Y-73357914D02*
X128610588Y-73548390D01*
X128610588Y-73548390D02*
X128610588Y-73691247D01*
X128610588Y-73691247D02*
X128562969Y-73881723D01*
X128562969Y-73881723D02*
X128515350Y-73976961D01*
X128515350Y-73976961D02*
X128420112Y-74072200D01*
X128420112Y-74072200D02*
X128277255Y-74119819D01*
X128277255Y-74119819D02*
X128039160Y-74119819D01*
X128991541Y-73834104D02*
X129467731Y-73834104D01*
X128896303Y-74119819D02*
X129229636Y-73119819D01*
X129229636Y-73119819D02*
X129562969Y-74119819D01*
X130193922Y-73119819D02*
X130527255Y-74119819D01*
X130527255Y-74119819D02*
X130860588Y-73119819D01*
X131146303Y-74230295D02*
X131146303Y-73430295D01*
X131489159Y-73506485D02*
X131527255Y-73468390D01*
X131527255Y-73468390D02*
X131603445Y-73430295D01*
X131603445Y-73430295D02*
X131793921Y-73430295D01*
X131793921Y-73430295D02*
X131870112Y-73468390D01*
X131870112Y-73468390D02*
X131908207Y-73506485D01*
X131908207Y-73506485D02*
X131946302Y-73582676D01*
X131946302Y-73582676D02*
X131946302Y-73658866D01*
X131946302Y-73658866D02*
X131908207Y-73773152D01*
X131908207Y-73773152D02*
X131451064Y-74230295D01*
X131451064Y-74230295D02*
X131946302Y-74230295D01*
X132746303Y-74154104D02*
X132708207Y-74192200D01*
X132708207Y-74192200D02*
X132593922Y-74230295D01*
X132593922Y-74230295D02*
X132517731Y-74230295D01*
X132517731Y-74230295D02*
X132403445Y-74192200D01*
X132403445Y-74192200D02*
X132327255Y-74116009D01*
X132327255Y-74116009D02*
X132289160Y-74039819D01*
X132289160Y-74039819D02*
X132251064Y-73887438D01*
X132251064Y-73887438D02*
X132251064Y-73773152D01*
X132251064Y-73773152D02*
X132289160Y-73620771D01*
X132289160Y-73620771D02*
X132327255Y-73544580D01*
X132327255Y-73544580D02*
X132403445Y-73468390D01*
X132403445Y-73468390D02*
X132517731Y-73430295D01*
X132517731Y-73430295D02*
X132593922Y-73430295D01*
X132593922Y-73430295D02*
X132708207Y-73468390D01*
X132708207Y-73468390D02*
X132746303Y-73506485D01*
X147110588Y-73167438D02*
X147015350Y-73119819D01*
X147015350Y-73119819D02*
X146872493Y-73119819D01*
X146872493Y-73119819D02*
X146729636Y-73167438D01*
X146729636Y-73167438D02*
X146634398Y-73262676D01*
X146634398Y-73262676D02*
X146586779Y-73357914D01*
X146586779Y-73357914D02*
X146539160Y-73548390D01*
X146539160Y-73548390D02*
X146539160Y-73691247D01*
X146539160Y-73691247D02*
X146586779Y-73881723D01*
X146586779Y-73881723D02*
X146634398Y-73976961D01*
X146634398Y-73976961D02*
X146729636Y-74072200D01*
X146729636Y-74072200D02*
X146872493Y-74119819D01*
X146872493Y-74119819D02*
X146967731Y-74119819D01*
X146967731Y-74119819D02*
X147110588Y-74072200D01*
X147110588Y-74072200D02*
X147158207Y-74024580D01*
X147158207Y-74024580D02*
X147158207Y-73691247D01*
X147158207Y-73691247D02*
X146967731Y-73691247D01*
X147586779Y-74119819D02*
X147586779Y-73119819D01*
X147586779Y-73119819D02*
X148158207Y-74119819D01*
X148158207Y-74119819D02*
X148158207Y-73119819D01*
X148634398Y-74119819D02*
X148634398Y-73119819D01*
X148634398Y-73119819D02*
X148872493Y-73119819D01*
X148872493Y-73119819D02*
X149015350Y-73167438D01*
X149015350Y-73167438D02*
X149110588Y-73262676D01*
X149110588Y-73262676D02*
X149158207Y-73357914D01*
X149158207Y-73357914D02*
X149205826Y-73548390D01*
X149205826Y-73548390D02*
X149205826Y-73691247D01*
X149205826Y-73691247D02*
X149158207Y-73881723D01*
X149158207Y-73881723D02*
X149110588Y-73976961D01*
X149110588Y-73976961D02*
X149015350Y-74072200D01*
X149015350Y-74072200D02*
X148872493Y-74119819D01*
X148872493Y-74119819D02*
X148634398Y-74119819D01*
X134360588Y-73167438D02*
X134265350Y-73119819D01*
X134265350Y-73119819D02*
X134122493Y-73119819D01*
X134122493Y-73119819D02*
X133979636Y-73167438D01*
X133979636Y-73167438D02*
X133884398Y-73262676D01*
X133884398Y-73262676D02*
X133836779Y-73357914D01*
X133836779Y-73357914D02*
X133789160Y-73548390D01*
X133789160Y-73548390D02*
X133789160Y-73691247D01*
X133789160Y-73691247D02*
X133836779Y-73881723D01*
X133836779Y-73881723D02*
X133884398Y-73976961D01*
X133884398Y-73976961D02*
X133979636Y-74072200D01*
X133979636Y-74072200D02*
X134122493Y-74119819D01*
X134122493Y-74119819D02*
X134217731Y-74119819D01*
X134217731Y-74119819D02*
X134360588Y-74072200D01*
X134360588Y-74072200D02*
X134408207Y-74024580D01*
X134408207Y-74024580D02*
X134408207Y-73691247D01*
X134408207Y-73691247D02*
X134217731Y-73691247D01*
X134836779Y-74119819D02*
X134836779Y-73119819D01*
X134836779Y-73119819D02*
X135408207Y-74119819D01*
X135408207Y-74119819D02*
X135408207Y-73119819D01*
X135884398Y-74119819D02*
X135884398Y-73119819D01*
X135884398Y-73119819D02*
X136122493Y-73119819D01*
X136122493Y-73119819D02*
X136265350Y-73167438D01*
X136265350Y-73167438D02*
X136360588Y-73262676D01*
X136360588Y-73262676D02*
X136408207Y-73357914D01*
X136408207Y-73357914D02*
X136455826Y-73548390D01*
X136455826Y-73548390D02*
X136455826Y-73691247D01*
X136455826Y-73691247D02*
X136408207Y-73881723D01*
X136408207Y-73881723D02*
X136360588Y-73976961D01*
X136360588Y-73976961D02*
X136265350Y-74072200D01*
X136265350Y-74072200D02*
X136122493Y-74119819D01*
X136122493Y-74119819D02*
X135884398Y-74119819D01*
X137360588Y-140667438D02*
X137265350Y-140619819D01*
X137265350Y-140619819D02*
X137122493Y-140619819D01*
X137122493Y-140619819D02*
X136979636Y-140667438D01*
X136979636Y-140667438D02*
X136884398Y-140762676D01*
X136884398Y-140762676D02*
X136836779Y-140857914D01*
X136836779Y-140857914D02*
X136789160Y-141048390D01*
X136789160Y-141048390D02*
X136789160Y-141191247D01*
X136789160Y-141191247D02*
X136836779Y-141381723D01*
X136836779Y-141381723D02*
X136884398Y-141476961D01*
X136884398Y-141476961D02*
X136979636Y-141572200D01*
X136979636Y-141572200D02*
X137122493Y-141619819D01*
X137122493Y-141619819D02*
X137217731Y-141619819D01*
X137217731Y-141619819D02*
X137360588Y-141572200D01*
X137360588Y-141572200D02*
X137408207Y-141524580D01*
X137408207Y-141524580D02*
X137408207Y-141191247D01*
X137408207Y-141191247D02*
X137217731Y-141191247D01*
X137836779Y-141619819D02*
X137836779Y-140619819D01*
X137836779Y-140619819D02*
X138408207Y-141619819D01*
X138408207Y-141619819D02*
X138408207Y-140619819D01*
X138884398Y-141619819D02*
X138884398Y-140619819D01*
X138884398Y-140619819D02*
X139122493Y-140619819D01*
X139122493Y-140619819D02*
X139265350Y-140667438D01*
X139265350Y-140667438D02*
X139360588Y-140762676D01*
X139360588Y-140762676D02*
X139408207Y-140857914D01*
X139408207Y-140857914D02*
X139455826Y-141048390D01*
X139455826Y-141048390D02*
X139455826Y-141191247D01*
X139455826Y-141191247D02*
X139408207Y-141381723D01*
X139408207Y-141381723D02*
X139360588Y-141476961D01*
X139360588Y-141476961D02*
X139265350Y-141572200D01*
X139265350Y-141572200D02*
X139122493Y-141619819D01*
X139122493Y-141619819D02*
X138884398Y-141619819D01*
X144943922Y-140619819D02*
X145277255Y-141619819D01*
X145277255Y-141619819D02*
X145610588Y-140619819D01*
X146277255Y-141730295D02*
X145896303Y-141730295D01*
X145896303Y-141730295D02*
X145896303Y-140930295D01*
X146543922Y-141311247D02*
X146810588Y-141311247D01*
X146924874Y-141730295D02*
X146543922Y-141730295D01*
X146543922Y-141730295D02*
X146543922Y-140930295D01*
X146543922Y-140930295D02*
X146924874Y-140930295D01*
X147267732Y-141730295D02*
X147267732Y-140930295D01*
X147267732Y-140930295D02*
X147458208Y-140930295D01*
X147458208Y-140930295D02*
X147572494Y-140968390D01*
X147572494Y-140968390D02*
X147648684Y-141044580D01*
X147648684Y-141044580D02*
X147686779Y-141120771D01*
X147686779Y-141120771D02*
X147724875Y-141273152D01*
X147724875Y-141273152D02*
X147724875Y-141387438D01*
X147724875Y-141387438D02*
X147686779Y-141539819D01*
X147686779Y-141539819D02*
X147648684Y-141616009D01*
X147648684Y-141616009D02*
X147572494Y-141692200D01*
X147572494Y-141692200D02*
X147458208Y-141730295D01*
X147458208Y-141730295D02*
X147267732Y-141730295D01*
X148115351Y-141619819D02*
X148115351Y-140619819D01*
X148591541Y-140953152D02*
X148591541Y-141619819D01*
X148591541Y-141048390D02*
X148639160Y-141000771D01*
X148639160Y-141000771D02*
X148734398Y-140953152D01*
X148734398Y-140953152D02*
X148877255Y-140953152D01*
X148877255Y-140953152D02*
X148972493Y-141000771D01*
X148972493Y-141000771D02*
X149020112Y-141096009D01*
X149020112Y-141096009D02*
X149020112Y-141619819D01*
X121110588Y-140667438D02*
X121015350Y-140619819D01*
X121015350Y-140619819D02*
X120872493Y-140619819D01*
X120872493Y-140619819D02*
X120729636Y-140667438D01*
X120729636Y-140667438D02*
X120634398Y-140762676D01*
X120634398Y-140762676D02*
X120586779Y-140857914D01*
X120586779Y-140857914D02*
X120539160Y-141048390D01*
X120539160Y-141048390D02*
X120539160Y-141191247D01*
X120539160Y-141191247D02*
X120586779Y-141381723D01*
X120586779Y-141381723D02*
X120634398Y-141476961D01*
X120634398Y-141476961D02*
X120729636Y-141572200D01*
X120729636Y-141572200D02*
X120872493Y-141619819D01*
X120872493Y-141619819D02*
X120967731Y-141619819D01*
X120967731Y-141619819D02*
X121110588Y-141572200D01*
X121110588Y-141572200D02*
X121158207Y-141524580D01*
X121158207Y-141524580D02*
X121158207Y-141191247D01*
X121158207Y-141191247D02*
X120967731Y-141191247D01*
X121586779Y-141619819D02*
X121586779Y-140619819D01*
X121586779Y-140619819D02*
X122158207Y-141619819D01*
X122158207Y-141619819D02*
X122158207Y-140619819D01*
X122634398Y-141619819D02*
X122634398Y-140619819D01*
X122634398Y-140619819D02*
X122872493Y-140619819D01*
X122872493Y-140619819D02*
X123015350Y-140667438D01*
X123015350Y-140667438D02*
X123110588Y-140762676D01*
X123110588Y-140762676D02*
X123158207Y-140857914D01*
X123158207Y-140857914D02*
X123205826Y-141048390D01*
X123205826Y-141048390D02*
X123205826Y-141191247D01*
X123205826Y-141191247D02*
X123158207Y-141381723D01*
X123158207Y-141381723D02*
X123110588Y-141476961D01*
X123110588Y-141476961D02*
X123015350Y-141572200D01*
X123015350Y-141572200D02*
X122872493Y-141619819D01*
X122872493Y-141619819D02*
X122634398Y-141619819D01*
X128193922Y-140369819D02*
X128527255Y-141369819D01*
X128527255Y-141369819D02*
X128860588Y-140369819D01*
X129527255Y-141480295D02*
X129146303Y-141480295D01*
X129146303Y-141480295D02*
X129146303Y-140680295D01*
X129793922Y-141061247D02*
X130060588Y-141061247D01*
X130174874Y-141480295D02*
X129793922Y-141480295D01*
X129793922Y-141480295D02*
X129793922Y-140680295D01*
X129793922Y-140680295D02*
X130174874Y-140680295D01*
X130517732Y-141480295D02*
X130517732Y-140680295D01*
X130517732Y-140680295D02*
X130708208Y-140680295D01*
X130708208Y-140680295D02*
X130822494Y-140718390D01*
X130822494Y-140718390D02*
X130898684Y-140794580D01*
X130898684Y-140794580D02*
X130936779Y-140870771D01*
X130936779Y-140870771D02*
X130974875Y-141023152D01*
X130974875Y-141023152D02*
X130974875Y-141137438D01*
X130974875Y-141137438D02*
X130936779Y-141289819D01*
X130936779Y-141289819D02*
X130898684Y-141366009D01*
X130898684Y-141366009D02*
X130822494Y-141442200D01*
X130822494Y-141442200D02*
X130708208Y-141480295D01*
X130708208Y-141480295D02*
X130517732Y-141480295D01*
X131555827Y-140369819D02*
X131746303Y-140369819D01*
X131746303Y-140369819D02*
X131841541Y-140417438D01*
X131841541Y-140417438D02*
X131936779Y-140512676D01*
X131936779Y-140512676D02*
X131984398Y-140703152D01*
X131984398Y-140703152D02*
X131984398Y-141036485D01*
X131984398Y-141036485D02*
X131936779Y-141226961D01*
X131936779Y-141226961D02*
X131841541Y-141322200D01*
X131841541Y-141322200D02*
X131746303Y-141369819D01*
X131746303Y-141369819D02*
X131555827Y-141369819D01*
X131555827Y-141369819D02*
X131460589Y-141322200D01*
X131460589Y-141322200D02*
X131365351Y-141226961D01*
X131365351Y-141226961D02*
X131317732Y-141036485D01*
X131317732Y-141036485D02*
X131317732Y-140703152D01*
X131317732Y-140703152D02*
X131365351Y-140512676D01*
X131365351Y-140512676D02*
X131460589Y-140417438D01*
X131460589Y-140417438D02*
X131555827Y-140369819D01*
X132841541Y-140703152D02*
X132841541Y-141369819D01*
X132412970Y-140703152D02*
X132412970Y-141226961D01*
X132412970Y-141226961D02*
X132460589Y-141322200D01*
X132460589Y-141322200D02*
X132555827Y-141369819D01*
X132555827Y-141369819D02*
X132698684Y-141369819D01*
X132698684Y-141369819D02*
X132793922Y-141322200D01*
X132793922Y-141322200D02*
X132841541Y-141274580D01*
X133174875Y-140703152D02*
X133555827Y-140703152D01*
X133317732Y-140369819D02*
X133317732Y-141226961D01*
X133317732Y-141226961D02*
X133365351Y-141322200D01*
X133365351Y-141322200D02*
X133460589Y-141369819D01*
X133460589Y-141369819D02*
X133555827Y-141369819D01*
%TO.C,R6*%
X153833333Y-103804819D02*
X153500000Y-103328628D01*
X153261905Y-103804819D02*
X153261905Y-102804819D01*
X153261905Y-102804819D02*
X153642857Y-102804819D01*
X153642857Y-102804819D02*
X153738095Y-102852438D01*
X153738095Y-102852438D02*
X153785714Y-102900057D01*
X153785714Y-102900057D02*
X153833333Y-102995295D01*
X153833333Y-102995295D02*
X153833333Y-103138152D01*
X153833333Y-103138152D02*
X153785714Y-103233390D01*
X153785714Y-103233390D02*
X153738095Y-103281009D01*
X153738095Y-103281009D02*
X153642857Y-103328628D01*
X153642857Y-103328628D02*
X153261905Y-103328628D01*
X154690476Y-102804819D02*
X154500000Y-102804819D01*
X154500000Y-102804819D02*
X154404762Y-102852438D01*
X154404762Y-102852438D02*
X154357143Y-102900057D01*
X154357143Y-102900057D02*
X154261905Y-103042914D01*
X154261905Y-103042914D02*
X154214286Y-103233390D01*
X154214286Y-103233390D02*
X154214286Y-103614342D01*
X154214286Y-103614342D02*
X154261905Y-103709580D01*
X154261905Y-103709580D02*
X154309524Y-103757200D01*
X154309524Y-103757200D02*
X154404762Y-103804819D01*
X154404762Y-103804819D02*
X154595238Y-103804819D01*
X154595238Y-103804819D02*
X154690476Y-103757200D01*
X154690476Y-103757200D02*
X154738095Y-103709580D01*
X154738095Y-103709580D02*
X154785714Y-103614342D01*
X154785714Y-103614342D02*
X154785714Y-103376247D01*
X154785714Y-103376247D02*
X154738095Y-103281009D01*
X154738095Y-103281009D02*
X154690476Y-103233390D01*
X154690476Y-103233390D02*
X154595238Y-103185771D01*
X154595238Y-103185771D02*
X154404762Y-103185771D01*
X154404762Y-103185771D02*
X154309524Y-103233390D01*
X154309524Y-103233390D02*
X154261905Y-103281009D01*
X154261905Y-103281009D02*
X154214286Y-103376247D01*
%TO.C,J5*%
X135134819Y-76533333D02*
X135849104Y-76533333D01*
X135849104Y-76533333D02*
X135991961Y-76580952D01*
X135991961Y-76580952D02*
X136087200Y-76676190D01*
X136087200Y-76676190D02*
X136134819Y-76819047D01*
X136134819Y-76819047D02*
X136134819Y-76914285D01*
X135134819Y-75580952D02*
X135134819Y-76057142D01*
X135134819Y-76057142D02*
X135611009Y-76104761D01*
X135611009Y-76104761D02*
X135563390Y-76057142D01*
X135563390Y-76057142D02*
X135515771Y-75961904D01*
X135515771Y-75961904D02*
X135515771Y-75723809D01*
X135515771Y-75723809D02*
X135563390Y-75628571D01*
X135563390Y-75628571D02*
X135611009Y-75580952D01*
X135611009Y-75580952D02*
X135706247Y-75533333D01*
X135706247Y-75533333D02*
X135944342Y-75533333D01*
X135944342Y-75533333D02*
X136039580Y-75580952D01*
X136039580Y-75580952D02*
X136087200Y-75628571D01*
X136087200Y-75628571D02*
X136134819Y-75723809D01*
X136134819Y-75723809D02*
X136134819Y-75961904D01*
X136134819Y-75961904D02*
X136087200Y-76057142D01*
X136087200Y-76057142D02*
X136039580Y-76104761D01*
%TO.C,D2*%
X129124405Y-79054819D02*
X129124405Y-78054819D01*
X129124405Y-78054819D02*
X129362500Y-78054819D01*
X129362500Y-78054819D02*
X129505357Y-78102438D01*
X129505357Y-78102438D02*
X129600595Y-78197676D01*
X129600595Y-78197676D02*
X129648214Y-78292914D01*
X129648214Y-78292914D02*
X129695833Y-78483390D01*
X129695833Y-78483390D02*
X129695833Y-78626247D01*
X129695833Y-78626247D02*
X129648214Y-78816723D01*
X129648214Y-78816723D02*
X129600595Y-78911961D01*
X129600595Y-78911961D02*
X129505357Y-79007200D01*
X129505357Y-79007200D02*
X129362500Y-79054819D01*
X129362500Y-79054819D02*
X129124405Y-79054819D01*
X130076786Y-78150057D02*
X130124405Y-78102438D01*
X130124405Y-78102438D02*
X130219643Y-78054819D01*
X130219643Y-78054819D02*
X130457738Y-78054819D01*
X130457738Y-78054819D02*
X130552976Y-78102438D01*
X130552976Y-78102438D02*
X130600595Y-78150057D01*
X130600595Y-78150057D02*
X130648214Y-78245295D01*
X130648214Y-78245295D02*
X130648214Y-78340533D01*
X130648214Y-78340533D02*
X130600595Y-78483390D01*
X130600595Y-78483390D02*
X130029167Y-79054819D01*
X130029167Y-79054819D02*
X130648214Y-79054819D01*
%TO.C,C18*%
X144357142Y-82039580D02*
X144309523Y-82087200D01*
X144309523Y-82087200D02*
X144166666Y-82134819D01*
X144166666Y-82134819D02*
X144071428Y-82134819D01*
X144071428Y-82134819D02*
X143928571Y-82087200D01*
X143928571Y-82087200D02*
X143833333Y-81991961D01*
X143833333Y-81991961D02*
X143785714Y-81896723D01*
X143785714Y-81896723D02*
X143738095Y-81706247D01*
X143738095Y-81706247D02*
X143738095Y-81563390D01*
X143738095Y-81563390D02*
X143785714Y-81372914D01*
X143785714Y-81372914D02*
X143833333Y-81277676D01*
X143833333Y-81277676D02*
X143928571Y-81182438D01*
X143928571Y-81182438D02*
X144071428Y-81134819D01*
X144071428Y-81134819D02*
X144166666Y-81134819D01*
X144166666Y-81134819D02*
X144309523Y-81182438D01*
X144309523Y-81182438D02*
X144357142Y-81230057D01*
X145309523Y-82134819D02*
X144738095Y-82134819D01*
X145023809Y-82134819D02*
X145023809Y-81134819D01*
X145023809Y-81134819D02*
X144928571Y-81277676D01*
X144928571Y-81277676D02*
X144833333Y-81372914D01*
X144833333Y-81372914D02*
X144738095Y-81420533D01*
X145880952Y-81563390D02*
X145785714Y-81515771D01*
X145785714Y-81515771D02*
X145738095Y-81468152D01*
X145738095Y-81468152D02*
X145690476Y-81372914D01*
X145690476Y-81372914D02*
X145690476Y-81325295D01*
X145690476Y-81325295D02*
X145738095Y-81230057D01*
X145738095Y-81230057D02*
X145785714Y-81182438D01*
X145785714Y-81182438D02*
X145880952Y-81134819D01*
X145880952Y-81134819D02*
X146071428Y-81134819D01*
X146071428Y-81134819D02*
X146166666Y-81182438D01*
X146166666Y-81182438D02*
X146214285Y-81230057D01*
X146214285Y-81230057D02*
X146261904Y-81325295D01*
X146261904Y-81325295D02*
X146261904Y-81372914D01*
X146261904Y-81372914D02*
X146214285Y-81468152D01*
X146214285Y-81468152D02*
X146166666Y-81515771D01*
X146166666Y-81515771D02*
X146071428Y-81563390D01*
X146071428Y-81563390D02*
X145880952Y-81563390D01*
X145880952Y-81563390D02*
X145785714Y-81611009D01*
X145785714Y-81611009D02*
X145738095Y-81658628D01*
X145738095Y-81658628D02*
X145690476Y-81753866D01*
X145690476Y-81753866D02*
X145690476Y-81944342D01*
X145690476Y-81944342D02*
X145738095Y-82039580D01*
X145738095Y-82039580D02*
X145785714Y-82087200D01*
X145785714Y-82087200D02*
X145880952Y-82134819D01*
X145880952Y-82134819D02*
X146071428Y-82134819D01*
X146071428Y-82134819D02*
X146166666Y-82087200D01*
X146166666Y-82087200D02*
X146214285Y-82039580D01*
X146214285Y-82039580D02*
X146261904Y-81944342D01*
X146261904Y-81944342D02*
X146261904Y-81753866D01*
X146261904Y-81753866D02*
X146214285Y-81658628D01*
X146214285Y-81658628D02*
X146166666Y-81611009D01*
X146166666Y-81611009D02*
X146071428Y-81563390D01*
%TO.C,R3*%
X141604819Y-129166666D02*
X141128628Y-129499999D01*
X141604819Y-129738094D02*
X140604819Y-129738094D01*
X140604819Y-129738094D02*
X140604819Y-129357142D01*
X140604819Y-129357142D02*
X140652438Y-129261904D01*
X140652438Y-129261904D02*
X140700057Y-129214285D01*
X140700057Y-129214285D02*
X140795295Y-129166666D01*
X140795295Y-129166666D02*
X140938152Y-129166666D01*
X140938152Y-129166666D02*
X141033390Y-129214285D01*
X141033390Y-129214285D02*
X141081009Y-129261904D01*
X141081009Y-129261904D02*
X141128628Y-129357142D01*
X141128628Y-129357142D02*
X141128628Y-129738094D01*
X140604819Y-128833332D02*
X140604819Y-128214285D01*
X140604819Y-128214285D02*
X140985771Y-128547618D01*
X140985771Y-128547618D02*
X140985771Y-128404761D01*
X140985771Y-128404761D02*
X141033390Y-128309523D01*
X141033390Y-128309523D02*
X141081009Y-128261904D01*
X141081009Y-128261904D02*
X141176247Y-128214285D01*
X141176247Y-128214285D02*
X141414342Y-128214285D01*
X141414342Y-128214285D02*
X141509580Y-128261904D01*
X141509580Y-128261904D02*
X141557200Y-128309523D01*
X141557200Y-128309523D02*
X141604819Y-128404761D01*
X141604819Y-128404761D02*
X141604819Y-128690475D01*
X141604819Y-128690475D02*
X141557200Y-128785713D01*
X141557200Y-128785713D02*
X141509580Y-128833332D01*
%TO.C,D5*%
X143761905Y-97354819D02*
X143761905Y-96354819D01*
X143761905Y-96354819D02*
X144000000Y-96354819D01*
X144000000Y-96354819D02*
X144142857Y-96402438D01*
X144142857Y-96402438D02*
X144238095Y-96497676D01*
X144238095Y-96497676D02*
X144285714Y-96592914D01*
X144285714Y-96592914D02*
X144333333Y-96783390D01*
X144333333Y-96783390D02*
X144333333Y-96926247D01*
X144333333Y-96926247D02*
X144285714Y-97116723D01*
X144285714Y-97116723D02*
X144238095Y-97211961D01*
X144238095Y-97211961D02*
X144142857Y-97307200D01*
X144142857Y-97307200D02*
X144000000Y-97354819D01*
X144000000Y-97354819D02*
X143761905Y-97354819D01*
X145238095Y-96354819D02*
X144761905Y-96354819D01*
X144761905Y-96354819D02*
X144714286Y-96831009D01*
X144714286Y-96831009D02*
X144761905Y-96783390D01*
X144761905Y-96783390D02*
X144857143Y-96735771D01*
X144857143Y-96735771D02*
X145095238Y-96735771D01*
X145095238Y-96735771D02*
X145190476Y-96783390D01*
X145190476Y-96783390D02*
X145238095Y-96831009D01*
X145238095Y-96831009D02*
X145285714Y-96926247D01*
X145285714Y-96926247D02*
X145285714Y-97164342D01*
X145285714Y-97164342D02*
X145238095Y-97259580D01*
X145238095Y-97259580D02*
X145190476Y-97307200D01*
X145190476Y-97307200D02*
X145095238Y-97354819D01*
X145095238Y-97354819D02*
X144857143Y-97354819D01*
X144857143Y-97354819D02*
X144761905Y-97307200D01*
X144761905Y-97307200D02*
X144714286Y-97259580D01*
%TO.C,R24*%
X114954819Y-96642857D02*
X114478628Y-96976190D01*
X114954819Y-97214285D02*
X113954819Y-97214285D01*
X113954819Y-97214285D02*
X113954819Y-96833333D01*
X113954819Y-96833333D02*
X114002438Y-96738095D01*
X114002438Y-96738095D02*
X114050057Y-96690476D01*
X114050057Y-96690476D02*
X114145295Y-96642857D01*
X114145295Y-96642857D02*
X114288152Y-96642857D01*
X114288152Y-96642857D02*
X114383390Y-96690476D01*
X114383390Y-96690476D02*
X114431009Y-96738095D01*
X114431009Y-96738095D02*
X114478628Y-96833333D01*
X114478628Y-96833333D02*
X114478628Y-97214285D01*
X114050057Y-96261904D02*
X114002438Y-96214285D01*
X114002438Y-96214285D02*
X113954819Y-96119047D01*
X113954819Y-96119047D02*
X113954819Y-95880952D01*
X113954819Y-95880952D02*
X114002438Y-95785714D01*
X114002438Y-95785714D02*
X114050057Y-95738095D01*
X114050057Y-95738095D02*
X114145295Y-95690476D01*
X114145295Y-95690476D02*
X114240533Y-95690476D01*
X114240533Y-95690476D02*
X114383390Y-95738095D01*
X114383390Y-95738095D02*
X114954819Y-96309523D01*
X114954819Y-96309523D02*
X114954819Y-95690476D01*
X114288152Y-94833333D02*
X114954819Y-94833333D01*
X113907200Y-95071428D02*
X114621485Y-95309523D01*
X114621485Y-95309523D02*
X114621485Y-94690476D01*
%TO.C,J11*%
X124920476Y-140424819D02*
X124920476Y-141139104D01*
X124920476Y-141139104D02*
X124872857Y-141281961D01*
X124872857Y-141281961D02*
X124777619Y-141377200D01*
X124777619Y-141377200D02*
X124634762Y-141424819D01*
X124634762Y-141424819D02*
X124539524Y-141424819D01*
X125920476Y-141424819D02*
X125349048Y-141424819D01*
X125634762Y-141424819D02*
X125634762Y-140424819D01*
X125634762Y-140424819D02*
X125539524Y-140567676D01*
X125539524Y-140567676D02*
X125444286Y-140662914D01*
X125444286Y-140662914D02*
X125349048Y-140710533D01*
X126872857Y-141424819D02*
X126301429Y-141424819D01*
X126587143Y-141424819D02*
X126587143Y-140424819D01*
X126587143Y-140424819D02*
X126491905Y-140567676D01*
X126491905Y-140567676D02*
X126396667Y-140662914D01*
X126396667Y-140662914D02*
X126301429Y-140710533D01*
%TO.C,J1*%
X140636666Y-140424819D02*
X140636666Y-141139104D01*
X140636666Y-141139104D02*
X140589047Y-141281961D01*
X140589047Y-141281961D02*
X140493809Y-141377200D01*
X140493809Y-141377200D02*
X140350952Y-141424819D01*
X140350952Y-141424819D02*
X140255714Y-141424819D01*
X141636666Y-141424819D02*
X141065238Y-141424819D01*
X141350952Y-141424819D02*
X141350952Y-140424819D01*
X141350952Y-140424819D02*
X141255714Y-140567676D01*
X141255714Y-140567676D02*
X141160476Y-140662914D01*
X141160476Y-140662914D02*
X141065238Y-140710533D01*
%TO.C,C9*%
X130295833Y-106679580D02*
X130248214Y-106727200D01*
X130248214Y-106727200D02*
X130105357Y-106774819D01*
X130105357Y-106774819D02*
X130010119Y-106774819D01*
X130010119Y-106774819D02*
X129867262Y-106727200D01*
X129867262Y-106727200D02*
X129772024Y-106631961D01*
X129772024Y-106631961D02*
X129724405Y-106536723D01*
X129724405Y-106536723D02*
X129676786Y-106346247D01*
X129676786Y-106346247D02*
X129676786Y-106203390D01*
X129676786Y-106203390D02*
X129724405Y-106012914D01*
X129724405Y-106012914D02*
X129772024Y-105917676D01*
X129772024Y-105917676D02*
X129867262Y-105822438D01*
X129867262Y-105822438D02*
X130010119Y-105774819D01*
X130010119Y-105774819D02*
X130105357Y-105774819D01*
X130105357Y-105774819D02*
X130248214Y-105822438D01*
X130248214Y-105822438D02*
X130295833Y-105870057D01*
X130772024Y-106774819D02*
X130962500Y-106774819D01*
X130962500Y-106774819D02*
X131057738Y-106727200D01*
X131057738Y-106727200D02*
X131105357Y-106679580D01*
X131105357Y-106679580D02*
X131200595Y-106536723D01*
X131200595Y-106536723D02*
X131248214Y-106346247D01*
X131248214Y-106346247D02*
X131248214Y-105965295D01*
X131248214Y-105965295D02*
X131200595Y-105870057D01*
X131200595Y-105870057D02*
X131152976Y-105822438D01*
X131152976Y-105822438D02*
X131057738Y-105774819D01*
X131057738Y-105774819D02*
X130867262Y-105774819D01*
X130867262Y-105774819D02*
X130772024Y-105822438D01*
X130772024Y-105822438D02*
X130724405Y-105870057D01*
X130724405Y-105870057D02*
X130676786Y-105965295D01*
X130676786Y-105965295D02*
X130676786Y-106203390D01*
X130676786Y-106203390D02*
X130724405Y-106298628D01*
X130724405Y-106298628D02*
X130772024Y-106346247D01*
X130772024Y-106346247D02*
X130867262Y-106393866D01*
X130867262Y-106393866D02*
X131057738Y-106393866D01*
X131057738Y-106393866D02*
X131152976Y-106346247D01*
X131152976Y-106346247D02*
X131200595Y-106298628D01*
X131200595Y-106298628D02*
X131248214Y-106203390D01*
%TO.C,R19*%
X134357142Y-90454819D02*
X134023809Y-89978628D01*
X133785714Y-90454819D02*
X133785714Y-89454819D01*
X133785714Y-89454819D02*
X134166666Y-89454819D01*
X134166666Y-89454819D02*
X134261904Y-89502438D01*
X134261904Y-89502438D02*
X134309523Y-89550057D01*
X134309523Y-89550057D02*
X134357142Y-89645295D01*
X134357142Y-89645295D02*
X134357142Y-89788152D01*
X134357142Y-89788152D02*
X134309523Y-89883390D01*
X134309523Y-89883390D02*
X134261904Y-89931009D01*
X134261904Y-89931009D02*
X134166666Y-89978628D01*
X134166666Y-89978628D02*
X133785714Y-89978628D01*
X135309523Y-90454819D02*
X134738095Y-90454819D01*
X135023809Y-90454819D02*
X135023809Y-89454819D01*
X135023809Y-89454819D02*
X134928571Y-89597676D01*
X134928571Y-89597676D02*
X134833333Y-89692914D01*
X134833333Y-89692914D02*
X134738095Y-89740533D01*
X135785714Y-90454819D02*
X135976190Y-90454819D01*
X135976190Y-90454819D02*
X136071428Y-90407200D01*
X136071428Y-90407200D02*
X136119047Y-90359580D01*
X136119047Y-90359580D02*
X136214285Y-90216723D01*
X136214285Y-90216723D02*
X136261904Y-90026247D01*
X136261904Y-90026247D02*
X136261904Y-89645295D01*
X136261904Y-89645295D02*
X136214285Y-89550057D01*
X136214285Y-89550057D02*
X136166666Y-89502438D01*
X136166666Y-89502438D02*
X136071428Y-89454819D01*
X136071428Y-89454819D02*
X135880952Y-89454819D01*
X135880952Y-89454819D02*
X135785714Y-89502438D01*
X135785714Y-89502438D02*
X135738095Y-89550057D01*
X135738095Y-89550057D02*
X135690476Y-89645295D01*
X135690476Y-89645295D02*
X135690476Y-89883390D01*
X135690476Y-89883390D02*
X135738095Y-89978628D01*
X135738095Y-89978628D02*
X135785714Y-90026247D01*
X135785714Y-90026247D02*
X135880952Y-90073866D01*
X135880952Y-90073866D02*
X136071428Y-90073866D01*
X136071428Y-90073866D02*
X136166666Y-90026247D01*
X136166666Y-90026247D02*
X136214285Y-89978628D01*
X136214285Y-89978628D02*
X136261904Y-89883390D01*
%TO.C,R20*%
X134857142Y-96454819D02*
X134523809Y-95978628D01*
X134285714Y-96454819D02*
X134285714Y-95454819D01*
X134285714Y-95454819D02*
X134666666Y-95454819D01*
X134666666Y-95454819D02*
X134761904Y-95502438D01*
X134761904Y-95502438D02*
X134809523Y-95550057D01*
X134809523Y-95550057D02*
X134857142Y-95645295D01*
X134857142Y-95645295D02*
X134857142Y-95788152D01*
X134857142Y-95788152D02*
X134809523Y-95883390D01*
X134809523Y-95883390D02*
X134761904Y-95931009D01*
X134761904Y-95931009D02*
X134666666Y-95978628D01*
X134666666Y-95978628D02*
X134285714Y-95978628D01*
X135238095Y-95550057D02*
X135285714Y-95502438D01*
X135285714Y-95502438D02*
X135380952Y-95454819D01*
X135380952Y-95454819D02*
X135619047Y-95454819D01*
X135619047Y-95454819D02*
X135714285Y-95502438D01*
X135714285Y-95502438D02*
X135761904Y-95550057D01*
X135761904Y-95550057D02*
X135809523Y-95645295D01*
X135809523Y-95645295D02*
X135809523Y-95740533D01*
X135809523Y-95740533D02*
X135761904Y-95883390D01*
X135761904Y-95883390D02*
X135190476Y-96454819D01*
X135190476Y-96454819D02*
X135809523Y-96454819D01*
X136428571Y-95454819D02*
X136523809Y-95454819D01*
X136523809Y-95454819D02*
X136619047Y-95502438D01*
X136619047Y-95502438D02*
X136666666Y-95550057D01*
X136666666Y-95550057D02*
X136714285Y-95645295D01*
X136714285Y-95645295D02*
X136761904Y-95835771D01*
X136761904Y-95835771D02*
X136761904Y-96073866D01*
X136761904Y-96073866D02*
X136714285Y-96264342D01*
X136714285Y-96264342D02*
X136666666Y-96359580D01*
X136666666Y-96359580D02*
X136619047Y-96407200D01*
X136619047Y-96407200D02*
X136523809Y-96454819D01*
X136523809Y-96454819D02*
X136428571Y-96454819D01*
X136428571Y-96454819D02*
X136333333Y-96407200D01*
X136333333Y-96407200D02*
X136285714Y-96359580D01*
X136285714Y-96359580D02*
X136238095Y-96264342D01*
X136238095Y-96264342D02*
X136190476Y-96073866D01*
X136190476Y-96073866D02*
X136190476Y-95835771D01*
X136190476Y-95835771D02*
X136238095Y-95645295D01*
X136238095Y-95645295D02*
X136285714Y-95550057D01*
X136285714Y-95550057D02*
X136333333Y-95502438D01*
X136333333Y-95502438D02*
X136428571Y-95454819D01*
%TO.C,D1*%
X124124405Y-79054819D02*
X124124405Y-78054819D01*
X124124405Y-78054819D02*
X124362500Y-78054819D01*
X124362500Y-78054819D02*
X124505357Y-78102438D01*
X124505357Y-78102438D02*
X124600595Y-78197676D01*
X124600595Y-78197676D02*
X124648214Y-78292914D01*
X124648214Y-78292914D02*
X124695833Y-78483390D01*
X124695833Y-78483390D02*
X124695833Y-78626247D01*
X124695833Y-78626247D02*
X124648214Y-78816723D01*
X124648214Y-78816723D02*
X124600595Y-78911961D01*
X124600595Y-78911961D02*
X124505357Y-79007200D01*
X124505357Y-79007200D02*
X124362500Y-79054819D01*
X124362500Y-79054819D02*
X124124405Y-79054819D01*
X125648214Y-79054819D02*
X125076786Y-79054819D01*
X125362500Y-79054819D02*
X125362500Y-78054819D01*
X125362500Y-78054819D02*
X125267262Y-78197676D01*
X125267262Y-78197676D02*
X125172024Y-78292914D01*
X125172024Y-78292914D02*
X125076786Y-78340533D01*
%TO.C,R18*%
X137607142Y-88454819D02*
X137273809Y-87978628D01*
X137035714Y-88454819D02*
X137035714Y-87454819D01*
X137035714Y-87454819D02*
X137416666Y-87454819D01*
X137416666Y-87454819D02*
X137511904Y-87502438D01*
X137511904Y-87502438D02*
X137559523Y-87550057D01*
X137559523Y-87550057D02*
X137607142Y-87645295D01*
X137607142Y-87645295D02*
X137607142Y-87788152D01*
X137607142Y-87788152D02*
X137559523Y-87883390D01*
X137559523Y-87883390D02*
X137511904Y-87931009D01*
X137511904Y-87931009D02*
X137416666Y-87978628D01*
X137416666Y-87978628D02*
X137035714Y-87978628D01*
X138559523Y-88454819D02*
X137988095Y-88454819D01*
X138273809Y-88454819D02*
X138273809Y-87454819D01*
X138273809Y-87454819D02*
X138178571Y-87597676D01*
X138178571Y-87597676D02*
X138083333Y-87692914D01*
X138083333Y-87692914D02*
X137988095Y-87740533D01*
X139130952Y-87883390D02*
X139035714Y-87835771D01*
X139035714Y-87835771D02*
X138988095Y-87788152D01*
X138988095Y-87788152D02*
X138940476Y-87692914D01*
X138940476Y-87692914D02*
X138940476Y-87645295D01*
X138940476Y-87645295D02*
X138988095Y-87550057D01*
X138988095Y-87550057D02*
X139035714Y-87502438D01*
X139035714Y-87502438D02*
X139130952Y-87454819D01*
X139130952Y-87454819D02*
X139321428Y-87454819D01*
X139321428Y-87454819D02*
X139416666Y-87502438D01*
X139416666Y-87502438D02*
X139464285Y-87550057D01*
X139464285Y-87550057D02*
X139511904Y-87645295D01*
X139511904Y-87645295D02*
X139511904Y-87692914D01*
X139511904Y-87692914D02*
X139464285Y-87788152D01*
X139464285Y-87788152D02*
X139416666Y-87835771D01*
X139416666Y-87835771D02*
X139321428Y-87883390D01*
X139321428Y-87883390D02*
X139130952Y-87883390D01*
X139130952Y-87883390D02*
X139035714Y-87931009D01*
X139035714Y-87931009D02*
X138988095Y-87978628D01*
X138988095Y-87978628D02*
X138940476Y-88073866D01*
X138940476Y-88073866D02*
X138940476Y-88264342D01*
X138940476Y-88264342D02*
X138988095Y-88359580D01*
X138988095Y-88359580D02*
X139035714Y-88407200D01*
X139035714Y-88407200D02*
X139130952Y-88454819D01*
X139130952Y-88454819D02*
X139321428Y-88454819D01*
X139321428Y-88454819D02*
X139416666Y-88407200D01*
X139416666Y-88407200D02*
X139464285Y-88359580D01*
X139464285Y-88359580D02*
X139511904Y-88264342D01*
X139511904Y-88264342D02*
X139511904Y-88073866D01*
X139511904Y-88073866D02*
X139464285Y-87978628D01*
X139464285Y-87978628D02*
X139416666Y-87931009D01*
X139416666Y-87931009D02*
X139321428Y-87883390D01*
%TO.C,U4*%
X116804819Y-137261904D02*
X117614342Y-137261904D01*
X117614342Y-137261904D02*
X117709580Y-137214285D01*
X117709580Y-137214285D02*
X117757200Y-137166666D01*
X117757200Y-137166666D02*
X117804819Y-137071428D01*
X117804819Y-137071428D02*
X117804819Y-136880952D01*
X117804819Y-136880952D02*
X117757200Y-136785714D01*
X117757200Y-136785714D02*
X117709580Y-136738095D01*
X117709580Y-136738095D02*
X117614342Y-136690476D01*
X117614342Y-136690476D02*
X116804819Y-136690476D01*
X117138152Y-135785714D02*
X117804819Y-135785714D01*
X116757200Y-136023809D02*
X117471485Y-136261904D01*
X117471485Y-136261904D02*
X117471485Y-135642857D01*
%TO.C,R27*%
X129357142Y-95104819D02*
X129023809Y-94628628D01*
X128785714Y-95104819D02*
X128785714Y-94104819D01*
X128785714Y-94104819D02*
X129166666Y-94104819D01*
X129166666Y-94104819D02*
X129261904Y-94152438D01*
X129261904Y-94152438D02*
X129309523Y-94200057D01*
X129309523Y-94200057D02*
X129357142Y-94295295D01*
X129357142Y-94295295D02*
X129357142Y-94438152D01*
X129357142Y-94438152D02*
X129309523Y-94533390D01*
X129309523Y-94533390D02*
X129261904Y-94581009D01*
X129261904Y-94581009D02*
X129166666Y-94628628D01*
X129166666Y-94628628D02*
X128785714Y-94628628D01*
X129738095Y-94200057D02*
X129785714Y-94152438D01*
X129785714Y-94152438D02*
X129880952Y-94104819D01*
X129880952Y-94104819D02*
X130119047Y-94104819D01*
X130119047Y-94104819D02*
X130214285Y-94152438D01*
X130214285Y-94152438D02*
X130261904Y-94200057D01*
X130261904Y-94200057D02*
X130309523Y-94295295D01*
X130309523Y-94295295D02*
X130309523Y-94390533D01*
X130309523Y-94390533D02*
X130261904Y-94533390D01*
X130261904Y-94533390D02*
X129690476Y-95104819D01*
X129690476Y-95104819D02*
X130309523Y-95104819D01*
X130642857Y-94104819D02*
X131309523Y-94104819D01*
X131309523Y-94104819D02*
X130880952Y-95104819D01*
%TO.C,C3*%
X150583333Y-116859580D02*
X150535714Y-116907200D01*
X150535714Y-116907200D02*
X150392857Y-116954819D01*
X150392857Y-116954819D02*
X150297619Y-116954819D01*
X150297619Y-116954819D02*
X150154762Y-116907200D01*
X150154762Y-116907200D02*
X150059524Y-116811961D01*
X150059524Y-116811961D02*
X150011905Y-116716723D01*
X150011905Y-116716723D02*
X149964286Y-116526247D01*
X149964286Y-116526247D02*
X149964286Y-116383390D01*
X149964286Y-116383390D02*
X150011905Y-116192914D01*
X150011905Y-116192914D02*
X150059524Y-116097676D01*
X150059524Y-116097676D02*
X150154762Y-116002438D01*
X150154762Y-116002438D02*
X150297619Y-115954819D01*
X150297619Y-115954819D02*
X150392857Y-115954819D01*
X150392857Y-115954819D02*
X150535714Y-116002438D01*
X150535714Y-116002438D02*
X150583333Y-116050057D01*
X150916667Y-115954819D02*
X151535714Y-115954819D01*
X151535714Y-115954819D02*
X151202381Y-116335771D01*
X151202381Y-116335771D02*
X151345238Y-116335771D01*
X151345238Y-116335771D02*
X151440476Y-116383390D01*
X151440476Y-116383390D02*
X151488095Y-116431009D01*
X151488095Y-116431009D02*
X151535714Y-116526247D01*
X151535714Y-116526247D02*
X151535714Y-116764342D01*
X151535714Y-116764342D02*
X151488095Y-116859580D01*
X151488095Y-116859580D02*
X151440476Y-116907200D01*
X151440476Y-116907200D02*
X151345238Y-116954819D01*
X151345238Y-116954819D02*
X151059524Y-116954819D01*
X151059524Y-116954819D02*
X150964286Y-116907200D01*
X150964286Y-116907200D02*
X150916667Y-116859580D01*
%TO.C,U2*%
X126303095Y-95459819D02*
X126303095Y-96269342D01*
X126303095Y-96269342D02*
X126350714Y-96364580D01*
X126350714Y-96364580D02*
X126398333Y-96412200D01*
X126398333Y-96412200D02*
X126493571Y-96459819D01*
X126493571Y-96459819D02*
X126684047Y-96459819D01*
X126684047Y-96459819D02*
X126779285Y-96412200D01*
X126779285Y-96412200D02*
X126826904Y-96364580D01*
X126826904Y-96364580D02*
X126874523Y-96269342D01*
X126874523Y-96269342D02*
X126874523Y-95459819D01*
X127303095Y-95555057D02*
X127350714Y-95507438D01*
X127350714Y-95507438D02*
X127445952Y-95459819D01*
X127445952Y-95459819D02*
X127684047Y-95459819D01*
X127684047Y-95459819D02*
X127779285Y-95507438D01*
X127779285Y-95507438D02*
X127826904Y-95555057D01*
X127826904Y-95555057D02*
X127874523Y-95650295D01*
X127874523Y-95650295D02*
X127874523Y-95745533D01*
X127874523Y-95745533D02*
X127826904Y-95888390D01*
X127826904Y-95888390D02*
X127255476Y-96459819D01*
X127255476Y-96459819D02*
X127874523Y-96459819D01*
%TO.C,R12*%
X129877142Y-113664819D02*
X129543809Y-113188628D01*
X129305714Y-113664819D02*
X129305714Y-112664819D01*
X129305714Y-112664819D02*
X129686666Y-112664819D01*
X129686666Y-112664819D02*
X129781904Y-112712438D01*
X129781904Y-112712438D02*
X129829523Y-112760057D01*
X129829523Y-112760057D02*
X129877142Y-112855295D01*
X129877142Y-112855295D02*
X129877142Y-112998152D01*
X129877142Y-112998152D02*
X129829523Y-113093390D01*
X129829523Y-113093390D02*
X129781904Y-113141009D01*
X129781904Y-113141009D02*
X129686666Y-113188628D01*
X129686666Y-113188628D02*
X129305714Y-113188628D01*
X130829523Y-113664819D02*
X130258095Y-113664819D01*
X130543809Y-113664819D02*
X130543809Y-112664819D01*
X130543809Y-112664819D02*
X130448571Y-112807676D01*
X130448571Y-112807676D02*
X130353333Y-112902914D01*
X130353333Y-112902914D02*
X130258095Y-112950533D01*
X131210476Y-112760057D02*
X131258095Y-112712438D01*
X131258095Y-112712438D02*
X131353333Y-112664819D01*
X131353333Y-112664819D02*
X131591428Y-112664819D01*
X131591428Y-112664819D02*
X131686666Y-112712438D01*
X131686666Y-112712438D02*
X131734285Y-112760057D01*
X131734285Y-112760057D02*
X131781904Y-112855295D01*
X131781904Y-112855295D02*
X131781904Y-112950533D01*
X131781904Y-112950533D02*
X131734285Y-113093390D01*
X131734285Y-113093390D02*
X131162857Y-113664819D01*
X131162857Y-113664819D02*
X131781904Y-113664819D01*
%TO.C,R4*%
X152204819Y-108166666D02*
X151728628Y-108499999D01*
X152204819Y-108738094D02*
X151204819Y-108738094D01*
X151204819Y-108738094D02*
X151204819Y-108357142D01*
X151204819Y-108357142D02*
X151252438Y-108261904D01*
X151252438Y-108261904D02*
X151300057Y-108214285D01*
X151300057Y-108214285D02*
X151395295Y-108166666D01*
X151395295Y-108166666D02*
X151538152Y-108166666D01*
X151538152Y-108166666D02*
X151633390Y-108214285D01*
X151633390Y-108214285D02*
X151681009Y-108261904D01*
X151681009Y-108261904D02*
X151728628Y-108357142D01*
X151728628Y-108357142D02*
X151728628Y-108738094D01*
X151538152Y-107309523D02*
X152204819Y-107309523D01*
X151157200Y-107547618D02*
X151871485Y-107785713D01*
X151871485Y-107785713D02*
X151871485Y-107166666D01*
%TO.C,C13*%
X116109580Y-114642857D02*
X116157200Y-114690476D01*
X116157200Y-114690476D02*
X116204819Y-114833333D01*
X116204819Y-114833333D02*
X116204819Y-114928571D01*
X116204819Y-114928571D02*
X116157200Y-115071428D01*
X116157200Y-115071428D02*
X116061961Y-115166666D01*
X116061961Y-115166666D02*
X115966723Y-115214285D01*
X115966723Y-115214285D02*
X115776247Y-115261904D01*
X115776247Y-115261904D02*
X115633390Y-115261904D01*
X115633390Y-115261904D02*
X115442914Y-115214285D01*
X115442914Y-115214285D02*
X115347676Y-115166666D01*
X115347676Y-115166666D02*
X115252438Y-115071428D01*
X115252438Y-115071428D02*
X115204819Y-114928571D01*
X115204819Y-114928571D02*
X115204819Y-114833333D01*
X115204819Y-114833333D02*
X115252438Y-114690476D01*
X115252438Y-114690476D02*
X115300057Y-114642857D01*
X116204819Y-113690476D02*
X116204819Y-114261904D01*
X116204819Y-113976190D02*
X115204819Y-113976190D01*
X115204819Y-113976190D02*
X115347676Y-114071428D01*
X115347676Y-114071428D02*
X115442914Y-114166666D01*
X115442914Y-114166666D02*
X115490533Y-114261904D01*
X115204819Y-113357142D02*
X115204819Y-112738095D01*
X115204819Y-112738095D02*
X115585771Y-113071428D01*
X115585771Y-113071428D02*
X115585771Y-112928571D01*
X115585771Y-112928571D02*
X115633390Y-112833333D01*
X115633390Y-112833333D02*
X115681009Y-112785714D01*
X115681009Y-112785714D02*
X115776247Y-112738095D01*
X115776247Y-112738095D02*
X116014342Y-112738095D01*
X116014342Y-112738095D02*
X116109580Y-112785714D01*
X116109580Y-112785714D02*
X116157200Y-112833333D01*
X116157200Y-112833333D02*
X116204819Y-112928571D01*
X116204819Y-112928571D02*
X116204819Y-113214285D01*
X116204819Y-113214285D02*
X116157200Y-113309523D01*
X116157200Y-113309523D02*
X116109580Y-113357142D01*
%TO.C,R26*%
X127704819Y-94142857D02*
X127228628Y-94476190D01*
X127704819Y-94714285D02*
X126704819Y-94714285D01*
X126704819Y-94714285D02*
X126704819Y-94333333D01*
X126704819Y-94333333D02*
X126752438Y-94238095D01*
X126752438Y-94238095D02*
X126800057Y-94190476D01*
X126800057Y-94190476D02*
X126895295Y-94142857D01*
X126895295Y-94142857D02*
X127038152Y-94142857D01*
X127038152Y-94142857D02*
X127133390Y-94190476D01*
X127133390Y-94190476D02*
X127181009Y-94238095D01*
X127181009Y-94238095D02*
X127228628Y-94333333D01*
X127228628Y-94333333D02*
X127228628Y-94714285D01*
X126800057Y-93761904D02*
X126752438Y-93714285D01*
X126752438Y-93714285D02*
X126704819Y-93619047D01*
X126704819Y-93619047D02*
X126704819Y-93380952D01*
X126704819Y-93380952D02*
X126752438Y-93285714D01*
X126752438Y-93285714D02*
X126800057Y-93238095D01*
X126800057Y-93238095D02*
X126895295Y-93190476D01*
X126895295Y-93190476D02*
X126990533Y-93190476D01*
X126990533Y-93190476D02*
X127133390Y-93238095D01*
X127133390Y-93238095D02*
X127704819Y-93809523D01*
X127704819Y-93809523D02*
X127704819Y-93190476D01*
X126704819Y-92333333D02*
X126704819Y-92523809D01*
X126704819Y-92523809D02*
X126752438Y-92619047D01*
X126752438Y-92619047D02*
X126800057Y-92666666D01*
X126800057Y-92666666D02*
X126942914Y-92761904D01*
X126942914Y-92761904D02*
X127133390Y-92809523D01*
X127133390Y-92809523D02*
X127514342Y-92809523D01*
X127514342Y-92809523D02*
X127609580Y-92761904D01*
X127609580Y-92761904D02*
X127657200Y-92714285D01*
X127657200Y-92714285D02*
X127704819Y-92619047D01*
X127704819Y-92619047D02*
X127704819Y-92428571D01*
X127704819Y-92428571D02*
X127657200Y-92333333D01*
X127657200Y-92333333D02*
X127609580Y-92285714D01*
X127609580Y-92285714D02*
X127514342Y-92238095D01*
X127514342Y-92238095D02*
X127276247Y-92238095D01*
X127276247Y-92238095D02*
X127181009Y-92285714D01*
X127181009Y-92285714D02*
X127133390Y-92333333D01*
X127133390Y-92333333D02*
X127085771Y-92428571D01*
X127085771Y-92428571D02*
X127085771Y-92619047D01*
X127085771Y-92619047D02*
X127133390Y-92714285D01*
X127133390Y-92714285D02*
X127181009Y-92761904D01*
X127181009Y-92761904D02*
X127276247Y-92809523D01*
%TO.C,R17*%
X134397142Y-84362319D02*
X134063809Y-83886128D01*
X133825714Y-84362319D02*
X133825714Y-83362319D01*
X133825714Y-83362319D02*
X134206666Y-83362319D01*
X134206666Y-83362319D02*
X134301904Y-83409938D01*
X134301904Y-83409938D02*
X134349523Y-83457557D01*
X134349523Y-83457557D02*
X134397142Y-83552795D01*
X134397142Y-83552795D02*
X134397142Y-83695652D01*
X134397142Y-83695652D02*
X134349523Y-83790890D01*
X134349523Y-83790890D02*
X134301904Y-83838509D01*
X134301904Y-83838509D02*
X134206666Y-83886128D01*
X134206666Y-83886128D02*
X133825714Y-83886128D01*
X135349523Y-84362319D02*
X134778095Y-84362319D01*
X135063809Y-84362319D02*
X135063809Y-83362319D01*
X135063809Y-83362319D02*
X134968571Y-83505176D01*
X134968571Y-83505176D02*
X134873333Y-83600414D01*
X134873333Y-83600414D02*
X134778095Y-83648033D01*
X135682857Y-83362319D02*
X136349523Y-83362319D01*
X136349523Y-83362319D02*
X135920952Y-84362319D01*
%TO.C,C10*%
X116109580Y-117642857D02*
X116157200Y-117690476D01*
X116157200Y-117690476D02*
X116204819Y-117833333D01*
X116204819Y-117833333D02*
X116204819Y-117928571D01*
X116204819Y-117928571D02*
X116157200Y-118071428D01*
X116157200Y-118071428D02*
X116061961Y-118166666D01*
X116061961Y-118166666D02*
X115966723Y-118214285D01*
X115966723Y-118214285D02*
X115776247Y-118261904D01*
X115776247Y-118261904D02*
X115633390Y-118261904D01*
X115633390Y-118261904D02*
X115442914Y-118214285D01*
X115442914Y-118214285D02*
X115347676Y-118166666D01*
X115347676Y-118166666D02*
X115252438Y-118071428D01*
X115252438Y-118071428D02*
X115204819Y-117928571D01*
X115204819Y-117928571D02*
X115204819Y-117833333D01*
X115204819Y-117833333D02*
X115252438Y-117690476D01*
X115252438Y-117690476D02*
X115300057Y-117642857D01*
X116204819Y-116690476D02*
X116204819Y-117261904D01*
X116204819Y-116976190D02*
X115204819Y-116976190D01*
X115204819Y-116976190D02*
X115347676Y-117071428D01*
X115347676Y-117071428D02*
X115442914Y-117166666D01*
X115442914Y-117166666D02*
X115490533Y-117261904D01*
X115204819Y-116071428D02*
X115204819Y-115976190D01*
X115204819Y-115976190D02*
X115252438Y-115880952D01*
X115252438Y-115880952D02*
X115300057Y-115833333D01*
X115300057Y-115833333D02*
X115395295Y-115785714D01*
X115395295Y-115785714D02*
X115585771Y-115738095D01*
X115585771Y-115738095D02*
X115823866Y-115738095D01*
X115823866Y-115738095D02*
X116014342Y-115785714D01*
X116014342Y-115785714D02*
X116109580Y-115833333D01*
X116109580Y-115833333D02*
X116157200Y-115880952D01*
X116157200Y-115880952D02*
X116204819Y-115976190D01*
X116204819Y-115976190D02*
X116204819Y-116071428D01*
X116204819Y-116071428D02*
X116157200Y-116166666D01*
X116157200Y-116166666D02*
X116109580Y-116214285D01*
X116109580Y-116214285D02*
X116014342Y-116261904D01*
X116014342Y-116261904D02*
X115823866Y-116309523D01*
X115823866Y-116309523D02*
X115585771Y-116309523D01*
X115585771Y-116309523D02*
X115395295Y-116261904D01*
X115395295Y-116261904D02*
X115300057Y-116214285D01*
X115300057Y-116214285D02*
X115252438Y-116166666D01*
X115252438Y-116166666D02*
X115204819Y-116071428D01*
%TO.C,R34*%
X127704819Y-119642857D02*
X127228628Y-119976190D01*
X127704819Y-120214285D02*
X126704819Y-120214285D01*
X126704819Y-120214285D02*
X126704819Y-119833333D01*
X126704819Y-119833333D02*
X126752438Y-119738095D01*
X126752438Y-119738095D02*
X126800057Y-119690476D01*
X126800057Y-119690476D02*
X126895295Y-119642857D01*
X126895295Y-119642857D02*
X127038152Y-119642857D01*
X127038152Y-119642857D02*
X127133390Y-119690476D01*
X127133390Y-119690476D02*
X127181009Y-119738095D01*
X127181009Y-119738095D02*
X127228628Y-119833333D01*
X127228628Y-119833333D02*
X127228628Y-120214285D01*
X126704819Y-119309523D02*
X126704819Y-118690476D01*
X126704819Y-118690476D02*
X127085771Y-119023809D01*
X127085771Y-119023809D02*
X127085771Y-118880952D01*
X127085771Y-118880952D02*
X127133390Y-118785714D01*
X127133390Y-118785714D02*
X127181009Y-118738095D01*
X127181009Y-118738095D02*
X127276247Y-118690476D01*
X127276247Y-118690476D02*
X127514342Y-118690476D01*
X127514342Y-118690476D02*
X127609580Y-118738095D01*
X127609580Y-118738095D02*
X127657200Y-118785714D01*
X127657200Y-118785714D02*
X127704819Y-118880952D01*
X127704819Y-118880952D02*
X127704819Y-119166666D01*
X127704819Y-119166666D02*
X127657200Y-119261904D01*
X127657200Y-119261904D02*
X127609580Y-119309523D01*
X127038152Y-117833333D02*
X127704819Y-117833333D01*
X126657200Y-118071428D02*
X127371485Y-118309523D01*
X127371485Y-118309523D02*
X127371485Y-117690476D01*
%TO.C,R32*%
X136724819Y-119752857D02*
X136248628Y-120086190D01*
X136724819Y-120324285D02*
X135724819Y-120324285D01*
X135724819Y-120324285D02*
X135724819Y-119943333D01*
X135724819Y-119943333D02*
X135772438Y-119848095D01*
X135772438Y-119848095D02*
X135820057Y-119800476D01*
X135820057Y-119800476D02*
X135915295Y-119752857D01*
X135915295Y-119752857D02*
X136058152Y-119752857D01*
X136058152Y-119752857D02*
X136153390Y-119800476D01*
X136153390Y-119800476D02*
X136201009Y-119848095D01*
X136201009Y-119848095D02*
X136248628Y-119943333D01*
X136248628Y-119943333D02*
X136248628Y-120324285D01*
X135724819Y-119419523D02*
X135724819Y-118800476D01*
X135724819Y-118800476D02*
X136105771Y-119133809D01*
X136105771Y-119133809D02*
X136105771Y-118990952D01*
X136105771Y-118990952D02*
X136153390Y-118895714D01*
X136153390Y-118895714D02*
X136201009Y-118848095D01*
X136201009Y-118848095D02*
X136296247Y-118800476D01*
X136296247Y-118800476D02*
X136534342Y-118800476D01*
X136534342Y-118800476D02*
X136629580Y-118848095D01*
X136629580Y-118848095D02*
X136677200Y-118895714D01*
X136677200Y-118895714D02*
X136724819Y-118990952D01*
X136724819Y-118990952D02*
X136724819Y-119276666D01*
X136724819Y-119276666D02*
X136677200Y-119371904D01*
X136677200Y-119371904D02*
X136629580Y-119419523D01*
X135820057Y-118419523D02*
X135772438Y-118371904D01*
X135772438Y-118371904D02*
X135724819Y-118276666D01*
X135724819Y-118276666D02*
X135724819Y-118038571D01*
X135724819Y-118038571D02*
X135772438Y-117943333D01*
X135772438Y-117943333D02*
X135820057Y-117895714D01*
X135820057Y-117895714D02*
X135915295Y-117848095D01*
X135915295Y-117848095D02*
X136010533Y-117848095D01*
X136010533Y-117848095D02*
X136153390Y-117895714D01*
X136153390Y-117895714D02*
X136724819Y-118467142D01*
X136724819Y-118467142D02*
X136724819Y-117848095D01*
%TO.C,C5*%
X135359580Y-129166666D02*
X135407200Y-129214285D01*
X135407200Y-129214285D02*
X135454819Y-129357142D01*
X135454819Y-129357142D02*
X135454819Y-129452380D01*
X135454819Y-129452380D02*
X135407200Y-129595237D01*
X135407200Y-129595237D02*
X135311961Y-129690475D01*
X135311961Y-129690475D02*
X135216723Y-129738094D01*
X135216723Y-129738094D02*
X135026247Y-129785713D01*
X135026247Y-129785713D02*
X134883390Y-129785713D01*
X134883390Y-129785713D02*
X134692914Y-129738094D01*
X134692914Y-129738094D02*
X134597676Y-129690475D01*
X134597676Y-129690475D02*
X134502438Y-129595237D01*
X134502438Y-129595237D02*
X134454819Y-129452380D01*
X134454819Y-129452380D02*
X134454819Y-129357142D01*
X134454819Y-129357142D02*
X134502438Y-129214285D01*
X134502438Y-129214285D02*
X134550057Y-129166666D01*
X134454819Y-128261904D02*
X134454819Y-128738094D01*
X134454819Y-128738094D02*
X134931009Y-128785713D01*
X134931009Y-128785713D02*
X134883390Y-128738094D01*
X134883390Y-128738094D02*
X134835771Y-128642856D01*
X134835771Y-128642856D02*
X134835771Y-128404761D01*
X134835771Y-128404761D02*
X134883390Y-128309523D01*
X134883390Y-128309523D02*
X134931009Y-128261904D01*
X134931009Y-128261904D02*
X135026247Y-128214285D01*
X135026247Y-128214285D02*
X135264342Y-128214285D01*
X135264342Y-128214285D02*
X135359580Y-128261904D01*
X135359580Y-128261904D02*
X135407200Y-128309523D01*
X135407200Y-128309523D02*
X135454819Y-128404761D01*
X135454819Y-128404761D02*
X135454819Y-128642856D01*
X135454819Y-128642856D02*
X135407200Y-128738094D01*
X135407200Y-128738094D02*
X135359580Y-128785713D01*
%TO.C,R8*%
X153833333Y-117804819D02*
X153500000Y-117328628D01*
X153261905Y-117804819D02*
X153261905Y-116804819D01*
X153261905Y-116804819D02*
X153642857Y-116804819D01*
X153642857Y-116804819D02*
X153738095Y-116852438D01*
X153738095Y-116852438D02*
X153785714Y-116900057D01*
X153785714Y-116900057D02*
X153833333Y-116995295D01*
X153833333Y-116995295D02*
X153833333Y-117138152D01*
X153833333Y-117138152D02*
X153785714Y-117233390D01*
X153785714Y-117233390D02*
X153738095Y-117281009D01*
X153738095Y-117281009D02*
X153642857Y-117328628D01*
X153642857Y-117328628D02*
X153261905Y-117328628D01*
X154404762Y-117233390D02*
X154309524Y-117185771D01*
X154309524Y-117185771D02*
X154261905Y-117138152D01*
X154261905Y-117138152D02*
X154214286Y-117042914D01*
X154214286Y-117042914D02*
X154214286Y-116995295D01*
X154214286Y-116995295D02*
X154261905Y-116900057D01*
X154261905Y-116900057D02*
X154309524Y-116852438D01*
X154309524Y-116852438D02*
X154404762Y-116804819D01*
X154404762Y-116804819D02*
X154595238Y-116804819D01*
X154595238Y-116804819D02*
X154690476Y-116852438D01*
X154690476Y-116852438D02*
X154738095Y-116900057D01*
X154738095Y-116900057D02*
X154785714Y-116995295D01*
X154785714Y-116995295D02*
X154785714Y-117042914D01*
X154785714Y-117042914D02*
X154738095Y-117138152D01*
X154738095Y-117138152D02*
X154690476Y-117185771D01*
X154690476Y-117185771D02*
X154595238Y-117233390D01*
X154595238Y-117233390D02*
X154404762Y-117233390D01*
X154404762Y-117233390D02*
X154309524Y-117281009D01*
X154309524Y-117281009D02*
X154261905Y-117328628D01*
X154261905Y-117328628D02*
X154214286Y-117423866D01*
X154214286Y-117423866D02*
X154214286Y-117614342D01*
X154214286Y-117614342D02*
X154261905Y-117709580D01*
X154261905Y-117709580D02*
X154309524Y-117757200D01*
X154309524Y-117757200D02*
X154404762Y-117804819D01*
X154404762Y-117804819D02*
X154595238Y-117804819D01*
X154595238Y-117804819D02*
X154690476Y-117757200D01*
X154690476Y-117757200D02*
X154738095Y-117709580D01*
X154738095Y-117709580D02*
X154785714Y-117614342D01*
X154785714Y-117614342D02*
X154785714Y-117423866D01*
X154785714Y-117423866D02*
X154738095Y-117328628D01*
X154738095Y-117328628D02*
X154690476Y-117281009D01*
X154690476Y-117281009D02*
X154595238Y-117233390D01*
%TO.C,R22*%
X121104819Y-95642857D02*
X120628628Y-95976190D01*
X121104819Y-96214285D02*
X120104819Y-96214285D01*
X120104819Y-96214285D02*
X120104819Y-95833333D01*
X120104819Y-95833333D02*
X120152438Y-95738095D01*
X120152438Y-95738095D02*
X120200057Y-95690476D01*
X120200057Y-95690476D02*
X120295295Y-95642857D01*
X120295295Y-95642857D02*
X120438152Y-95642857D01*
X120438152Y-95642857D02*
X120533390Y-95690476D01*
X120533390Y-95690476D02*
X120581009Y-95738095D01*
X120581009Y-95738095D02*
X120628628Y-95833333D01*
X120628628Y-95833333D02*
X120628628Y-96214285D01*
X120200057Y-95261904D02*
X120152438Y-95214285D01*
X120152438Y-95214285D02*
X120104819Y-95119047D01*
X120104819Y-95119047D02*
X120104819Y-94880952D01*
X120104819Y-94880952D02*
X120152438Y-94785714D01*
X120152438Y-94785714D02*
X120200057Y-94738095D01*
X120200057Y-94738095D02*
X120295295Y-94690476D01*
X120295295Y-94690476D02*
X120390533Y-94690476D01*
X120390533Y-94690476D02*
X120533390Y-94738095D01*
X120533390Y-94738095D02*
X121104819Y-95309523D01*
X121104819Y-95309523D02*
X121104819Y-94690476D01*
X120200057Y-94309523D02*
X120152438Y-94261904D01*
X120152438Y-94261904D02*
X120104819Y-94166666D01*
X120104819Y-94166666D02*
X120104819Y-93928571D01*
X120104819Y-93928571D02*
X120152438Y-93833333D01*
X120152438Y-93833333D02*
X120200057Y-93785714D01*
X120200057Y-93785714D02*
X120295295Y-93738095D01*
X120295295Y-93738095D02*
X120390533Y-93738095D01*
X120390533Y-93738095D02*
X120533390Y-93785714D01*
X120533390Y-93785714D02*
X121104819Y-94357142D01*
X121104819Y-94357142D02*
X121104819Y-93738095D01*
%TO.C,C1*%
X139620833Y-92929580D02*
X139573214Y-92977200D01*
X139573214Y-92977200D02*
X139430357Y-93024819D01*
X139430357Y-93024819D02*
X139335119Y-93024819D01*
X139335119Y-93024819D02*
X139192262Y-92977200D01*
X139192262Y-92977200D02*
X139097024Y-92881961D01*
X139097024Y-92881961D02*
X139049405Y-92786723D01*
X139049405Y-92786723D02*
X139001786Y-92596247D01*
X139001786Y-92596247D02*
X139001786Y-92453390D01*
X139001786Y-92453390D02*
X139049405Y-92262914D01*
X139049405Y-92262914D02*
X139097024Y-92167676D01*
X139097024Y-92167676D02*
X139192262Y-92072438D01*
X139192262Y-92072438D02*
X139335119Y-92024819D01*
X139335119Y-92024819D02*
X139430357Y-92024819D01*
X139430357Y-92024819D02*
X139573214Y-92072438D01*
X139573214Y-92072438D02*
X139620833Y-92120057D01*
X140573214Y-93024819D02*
X140001786Y-93024819D01*
X140287500Y-93024819D02*
X140287500Y-92024819D01*
X140287500Y-92024819D02*
X140192262Y-92167676D01*
X140192262Y-92167676D02*
X140097024Y-92262914D01*
X140097024Y-92262914D02*
X140001786Y-92310533D01*
%TO.C,R14*%
X129857142Y-110304819D02*
X129523809Y-109828628D01*
X129285714Y-110304819D02*
X129285714Y-109304819D01*
X129285714Y-109304819D02*
X129666666Y-109304819D01*
X129666666Y-109304819D02*
X129761904Y-109352438D01*
X129761904Y-109352438D02*
X129809523Y-109400057D01*
X129809523Y-109400057D02*
X129857142Y-109495295D01*
X129857142Y-109495295D02*
X129857142Y-109638152D01*
X129857142Y-109638152D02*
X129809523Y-109733390D01*
X129809523Y-109733390D02*
X129761904Y-109781009D01*
X129761904Y-109781009D02*
X129666666Y-109828628D01*
X129666666Y-109828628D02*
X129285714Y-109828628D01*
X130809523Y-110304819D02*
X130238095Y-110304819D01*
X130523809Y-110304819D02*
X130523809Y-109304819D01*
X130523809Y-109304819D02*
X130428571Y-109447676D01*
X130428571Y-109447676D02*
X130333333Y-109542914D01*
X130333333Y-109542914D02*
X130238095Y-109590533D01*
X131666666Y-109638152D02*
X131666666Y-110304819D01*
X131428571Y-109257200D02*
X131190476Y-109971485D01*
X131190476Y-109971485D02*
X131809523Y-109971485D01*
%TO.C,R13*%
X123857142Y-113554819D02*
X123523809Y-113078628D01*
X123285714Y-113554819D02*
X123285714Y-112554819D01*
X123285714Y-112554819D02*
X123666666Y-112554819D01*
X123666666Y-112554819D02*
X123761904Y-112602438D01*
X123761904Y-112602438D02*
X123809523Y-112650057D01*
X123809523Y-112650057D02*
X123857142Y-112745295D01*
X123857142Y-112745295D02*
X123857142Y-112888152D01*
X123857142Y-112888152D02*
X123809523Y-112983390D01*
X123809523Y-112983390D02*
X123761904Y-113031009D01*
X123761904Y-113031009D02*
X123666666Y-113078628D01*
X123666666Y-113078628D02*
X123285714Y-113078628D01*
X124809523Y-113554819D02*
X124238095Y-113554819D01*
X124523809Y-113554819D02*
X124523809Y-112554819D01*
X124523809Y-112554819D02*
X124428571Y-112697676D01*
X124428571Y-112697676D02*
X124333333Y-112792914D01*
X124333333Y-112792914D02*
X124238095Y-112840533D01*
X125142857Y-112554819D02*
X125761904Y-112554819D01*
X125761904Y-112554819D02*
X125428571Y-112935771D01*
X125428571Y-112935771D02*
X125571428Y-112935771D01*
X125571428Y-112935771D02*
X125666666Y-112983390D01*
X125666666Y-112983390D02*
X125714285Y-113031009D01*
X125714285Y-113031009D02*
X125761904Y-113126247D01*
X125761904Y-113126247D02*
X125761904Y-113364342D01*
X125761904Y-113364342D02*
X125714285Y-113459580D01*
X125714285Y-113459580D02*
X125666666Y-113507200D01*
X125666666Y-113507200D02*
X125571428Y-113554819D01*
X125571428Y-113554819D02*
X125285714Y-113554819D01*
X125285714Y-113554819D02*
X125190476Y-113507200D01*
X125190476Y-113507200D02*
X125142857Y-113459580D01*
%TO.C,Q2*%
X132950057Y-89157738D02*
X132902438Y-89252976D01*
X132902438Y-89252976D02*
X132807200Y-89348214D01*
X132807200Y-89348214D02*
X132664342Y-89491071D01*
X132664342Y-89491071D02*
X132616723Y-89586309D01*
X132616723Y-89586309D02*
X132616723Y-89681547D01*
X132854819Y-89633928D02*
X132807200Y-89729166D01*
X132807200Y-89729166D02*
X132711961Y-89824404D01*
X132711961Y-89824404D02*
X132521485Y-89872023D01*
X132521485Y-89872023D02*
X132188152Y-89872023D01*
X132188152Y-89872023D02*
X131997676Y-89824404D01*
X131997676Y-89824404D02*
X131902438Y-89729166D01*
X131902438Y-89729166D02*
X131854819Y-89633928D01*
X131854819Y-89633928D02*
X131854819Y-89443452D01*
X131854819Y-89443452D02*
X131902438Y-89348214D01*
X131902438Y-89348214D02*
X131997676Y-89252976D01*
X131997676Y-89252976D02*
X132188152Y-89205357D01*
X132188152Y-89205357D02*
X132521485Y-89205357D01*
X132521485Y-89205357D02*
X132711961Y-89252976D01*
X132711961Y-89252976D02*
X132807200Y-89348214D01*
X132807200Y-89348214D02*
X132854819Y-89443452D01*
X132854819Y-89443452D02*
X132854819Y-89633928D01*
X131950057Y-88824404D02*
X131902438Y-88776785D01*
X131902438Y-88776785D02*
X131854819Y-88681547D01*
X131854819Y-88681547D02*
X131854819Y-88443452D01*
X131854819Y-88443452D02*
X131902438Y-88348214D01*
X131902438Y-88348214D02*
X131950057Y-88300595D01*
X131950057Y-88300595D02*
X132045295Y-88252976D01*
X132045295Y-88252976D02*
X132140533Y-88252976D01*
X132140533Y-88252976D02*
X132283390Y-88300595D01*
X132283390Y-88300595D02*
X132854819Y-88872023D01*
X132854819Y-88872023D02*
X132854819Y-88252976D01*
%TO.C,J6*%
X113966666Y-71854819D02*
X113966666Y-72569104D01*
X113966666Y-72569104D02*
X113919047Y-72711961D01*
X113919047Y-72711961D02*
X113823809Y-72807200D01*
X113823809Y-72807200D02*
X113680952Y-72854819D01*
X113680952Y-72854819D02*
X113585714Y-72854819D01*
X114871428Y-71854819D02*
X114680952Y-71854819D01*
X114680952Y-71854819D02*
X114585714Y-71902438D01*
X114585714Y-71902438D02*
X114538095Y-71950057D01*
X114538095Y-71950057D02*
X114442857Y-72092914D01*
X114442857Y-72092914D02*
X114395238Y-72283390D01*
X114395238Y-72283390D02*
X114395238Y-72664342D01*
X114395238Y-72664342D02*
X114442857Y-72759580D01*
X114442857Y-72759580D02*
X114490476Y-72807200D01*
X114490476Y-72807200D02*
X114585714Y-72854819D01*
X114585714Y-72854819D02*
X114776190Y-72854819D01*
X114776190Y-72854819D02*
X114871428Y-72807200D01*
X114871428Y-72807200D02*
X114919047Y-72759580D01*
X114919047Y-72759580D02*
X114966666Y-72664342D01*
X114966666Y-72664342D02*
X114966666Y-72426247D01*
X114966666Y-72426247D02*
X114919047Y-72331009D01*
X114919047Y-72331009D02*
X114871428Y-72283390D01*
X114871428Y-72283390D02*
X114776190Y-72235771D01*
X114776190Y-72235771D02*
X114585714Y-72235771D01*
X114585714Y-72235771D02*
X114490476Y-72283390D01*
X114490476Y-72283390D02*
X114442857Y-72331009D01*
X114442857Y-72331009D02*
X114395238Y-72426247D01*
%TO.C,C8*%
X141295833Y-83929580D02*
X141248214Y-83977200D01*
X141248214Y-83977200D02*
X141105357Y-84024819D01*
X141105357Y-84024819D02*
X141010119Y-84024819D01*
X141010119Y-84024819D02*
X140867262Y-83977200D01*
X140867262Y-83977200D02*
X140772024Y-83881961D01*
X140772024Y-83881961D02*
X140724405Y-83786723D01*
X140724405Y-83786723D02*
X140676786Y-83596247D01*
X140676786Y-83596247D02*
X140676786Y-83453390D01*
X140676786Y-83453390D02*
X140724405Y-83262914D01*
X140724405Y-83262914D02*
X140772024Y-83167676D01*
X140772024Y-83167676D02*
X140867262Y-83072438D01*
X140867262Y-83072438D02*
X141010119Y-83024819D01*
X141010119Y-83024819D02*
X141105357Y-83024819D01*
X141105357Y-83024819D02*
X141248214Y-83072438D01*
X141248214Y-83072438D02*
X141295833Y-83120057D01*
X141867262Y-83453390D02*
X141772024Y-83405771D01*
X141772024Y-83405771D02*
X141724405Y-83358152D01*
X141724405Y-83358152D02*
X141676786Y-83262914D01*
X141676786Y-83262914D02*
X141676786Y-83215295D01*
X141676786Y-83215295D02*
X141724405Y-83120057D01*
X141724405Y-83120057D02*
X141772024Y-83072438D01*
X141772024Y-83072438D02*
X141867262Y-83024819D01*
X141867262Y-83024819D02*
X142057738Y-83024819D01*
X142057738Y-83024819D02*
X142152976Y-83072438D01*
X142152976Y-83072438D02*
X142200595Y-83120057D01*
X142200595Y-83120057D02*
X142248214Y-83215295D01*
X142248214Y-83215295D02*
X142248214Y-83262914D01*
X142248214Y-83262914D02*
X142200595Y-83358152D01*
X142200595Y-83358152D02*
X142152976Y-83405771D01*
X142152976Y-83405771D02*
X142057738Y-83453390D01*
X142057738Y-83453390D02*
X141867262Y-83453390D01*
X141867262Y-83453390D02*
X141772024Y-83501009D01*
X141772024Y-83501009D02*
X141724405Y-83548628D01*
X141724405Y-83548628D02*
X141676786Y-83643866D01*
X141676786Y-83643866D02*
X141676786Y-83834342D01*
X141676786Y-83834342D02*
X141724405Y-83929580D01*
X141724405Y-83929580D02*
X141772024Y-83977200D01*
X141772024Y-83977200D02*
X141867262Y-84024819D01*
X141867262Y-84024819D02*
X142057738Y-84024819D01*
X142057738Y-84024819D02*
X142152976Y-83977200D01*
X142152976Y-83977200D02*
X142200595Y-83929580D01*
X142200595Y-83929580D02*
X142248214Y-83834342D01*
X142248214Y-83834342D02*
X142248214Y-83643866D01*
X142248214Y-83643866D02*
X142200595Y-83548628D01*
X142200595Y-83548628D02*
X142152976Y-83501009D01*
X142152976Y-83501009D02*
X142057738Y-83453390D01*
%TO.C,Q3*%
X114050057Y-123845238D02*
X114002438Y-123940476D01*
X114002438Y-123940476D02*
X113907200Y-124035714D01*
X113907200Y-124035714D02*
X113764342Y-124178571D01*
X113764342Y-124178571D02*
X113716723Y-124273809D01*
X113716723Y-124273809D02*
X113716723Y-124369047D01*
X113954819Y-124321428D02*
X113907200Y-124416666D01*
X113907200Y-124416666D02*
X113811961Y-124511904D01*
X113811961Y-124511904D02*
X113621485Y-124559523D01*
X113621485Y-124559523D02*
X113288152Y-124559523D01*
X113288152Y-124559523D02*
X113097676Y-124511904D01*
X113097676Y-124511904D02*
X113002438Y-124416666D01*
X113002438Y-124416666D02*
X112954819Y-124321428D01*
X112954819Y-124321428D02*
X112954819Y-124130952D01*
X112954819Y-124130952D02*
X113002438Y-124035714D01*
X113002438Y-124035714D02*
X113097676Y-123940476D01*
X113097676Y-123940476D02*
X113288152Y-123892857D01*
X113288152Y-123892857D02*
X113621485Y-123892857D01*
X113621485Y-123892857D02*
X113811961Y-123940476D01*
X113811961Y-123940476D02*
X113907200Y-124035714D01*
X113907200Y-124035714D02*
X113954819Y-124130952D01*
X113954819Y-124130952D02*
X113954819Y-124321428D01*
X112954819Y-123559523D02*
X112954819Y-122940476D01*
X112954819Y-122940476D02*
X113335771Y-123273809D01*
X113335771Y-123273809D02*
X113335771Y-123130952D01*
X113335771Y-123130952D02*
X113383390Y-123035714D01*
X113383390Y-123035714D02*
X113431009Y-122988095D01*
X113431009Y-122988095D02*
X113526247Y-122940476D01*
X113526247Y-122940476D02*
X113764342Y-122940476D01*
X113764342Y-122940476D02*
X113859580Y-122988095D01*
X113859580Y-122988095D02*
X113907200Y-123035714D01*
X113907200Y-123035714D02*
X113954819Y-123130952D01*
X113954819Y-123130952D02*
X113954819Y-123416666D01*
X113954819Y-123416666D02*
X113907200Y-123511904D01*
X113907200Y-123511904D02*
X113859580Y-123559523D01*
%TO.C,R15*%
X123857142Y-110304819D02*
X123523809Y-109828628D01*
X123285714Y-110304819D02*
X123285714Y-109304819D01*
X123285714Y-109304819D02*
X123666666Y-109304819D01*
X123666666Y-109304819D02*
X123761904Y-109352438D01*
X123761904Y-109352438D02*
X123809523Y-109400057D01*
X123809523Y-109400057D02*
X123857142Y-109495295D01*
X123857142Y-109495295D02*
X123857142Y-109638152D01*
X123857142Y-109638152D02*
X123809523Y-109733390D01*
X123809523Y-109733390D02*
X123761904Y-109781009D01*
X123761904Y-109781009D02*
X123666666Y-109828628D01*
X123666666Y-109828628D02*
X123285714Y-109828628D01*
X124809523Y-110304819D02*
X124238095Y-110304819D01*
X124523809Y-110304819D02*
X124523809Y-109304819D01*
X124523809Y-109304819D02*
X124428571Y-109447676D01*
X124428571Y-109447676D02*
X124333333Y-109542914D01*
X124333333Y-109542914D02*
X124238095Y-109590533D01*
X125714285Y-109304819D02*
X125238095Y-109304819D01*
X125238095Y-109304819D02*
X125190476Y-109781009D01*
X125190476Y-109781009D02*
X125238095Y-109733390D01*
X125238095Y-109733390D02*
X125333333Y-109685771D01*
X125333333Y-109685771D02*
X125571428Y-109685771D01*
X125571428Y-109685771D02*
X125666666Y-109733390D01*
X125666666Y-109733390D02*
X125714285Y-109781009D01*
X125714285Y-109781009D02*
X125761904Y-109876247D01*
X125761904Y-109876247D02*
X125761904Y-110114342D01*
X125761904Y-110114342D02*
X125714285Y-110209580D01*
X125714285Y-110209580D02*
X125666666Y-110257200D01*
X125666666Y-110257200D02*
X125571428Y-110304819D01*
X125571428Y-110304819D02*
X125333333Y-110304819D01*
X125333333Y-110304819D02*
X125238095Y-110257200D01*
X125238095Y-110257200D02*
X125190476Y-110209580D01*
%TO.C,C19*%
X122679580Y-137142857D02*
X122727200Y-137190476D01*
X122727200Y-137190476D02*
X122774819Y-137333333D01*
X122774819Y-137333333D02*
X122774819Y-137428571D01*
X122774819Y-137428571D02*
X122727200Y-137571428D01*
X122727200Y-137571428D02*
X122631961Y-137666666D01*
X122631961Y-137666666D02*
X122536723Y-137714285D01*
X122536723Y-137714285D02*
X122346247Y-137761904D01*
X122346247Y-137761904D02*
X122203390Y-137761904D01*
X122203390Y-137761904D02*
X122012914Y-137714285D01*
X122012914Y-137714285D02*
X121917676Y-137666666D01*
X121917676Y-137666666D02*
X121822438Y-137571428D01*
X121822438Y-137571428D02*
X121774819Y-137428571D01*
X121774819Y-137428571D02*
X121774819Y-137333333D01*
X121774819Y-137333333D02*
X121822438Y-137190476D01*
X121822438Y-137190476D02*
X121870057Y-137142857D01*
X122774819Y-136190476D02*
X122774819Y-136761904D01*
X122774819Y-136476190D02*
X121774819Y-136476190D01*
X121774819Y-136476190D02*
X121917676Y-136571428D01*
X121917676Y-136571428D02*
X122012914Y-136666666D01*
X122012914Y-136666666D02*
X122060533Y-136761904D01*
X122774819Y-135714285D02*
X122774819Y-135523809D01*
X122774819Y-135523809D02*
X122727200Y-135428571D01*
X122727200Y-135428571D02*
X122679580Y-135380952D01*
X122679580Y-135380952D02*
X122536723Y-135285714D01*
X122536723Y-135285714D02*
X122346247Y-135238095D01*
X122346247Y-135238095D02*
X121965295Y-135238095D01*
X121965295Y-135238095D02*
X121870057Y-135285714D01*
X121870057Y-135285714D02*
X121822438Y-135333333D01*
X121822438Y-135333333D02*
X121774819Y-135428571D01*
X121774819Y-135428571D02*
X121774819Y-135619047D01*
X121774819Y-135619047D02*
X121822438Y-135714285D01*
X121822438Y-135714285D02*
X121870057Y-135761904D01*
X121870057Y-135761904D02*
X121965295Y-135809523D01*
X121965295Y-135809523D02*
X122203390Y-135809523D01*
X122203390Y-135809523D02*
X122298628Y-135761904D01*
X122298628Y-135761904D02*
X122346247Y-135714285D01*
X122346247Y-135714285D02*
X122393866Y-135619047D01*
X122393866Y-135619047D02*
X122393866Y-135428571D01*
X122393866Y-135428571D02*
X122346247Y-135333333D01*
X122346247Y-135333333D02*
X122298628Y-135285714D01*
X122298628Y-135285714D02*
X122203390Y-135238095D01*
%TO.C,C14*%
X126107142Y-127109580D02*
X126059523Y-127157200D01*
X126059523Y-127157200D02*
X125916666Y-127204819D01*
X125916666Y-127204819D02*
X125821428Y-127204819D01*
X125821428Y-127204819D02*
X125678571Y-127157200D01*
X125678571Y-127157200D02*
X125583333Y-127061961D01*
X125583333Y-127061961D02*
X125535714Y-126966723D01*
X125535714Y-126966723D02*
X125488095Y-126776247D01*
X125488095Y-126776247D02*
X125488095Y-126633390D01*
X125488095Y-126633390D02*
X125535714Y-126442914D01*
X125535714Y-126442914D02*
X125583333Y-126347676D01*
X125583333Y-126347676D02*
X125678571Y-126252438D01*
X125678571Y-126252438D02*
X125821428Y-126204819D01*
X125821428Y-126204819D02*
X125916666Y-126204819D01*
X125916666Y-126204819D02*
X126059523Y-126252438D01*
X126059523Y-126252438D02*
X126107142Y-126300057D01*
X127059523Y-127204819D02*
X126488095Y-127204819D01*
X126773809Y-127204819D02*
X126773809Y-126204819D01*
X126773809Y-126204819D02*
X126678571Y-126347676D01*
X126678571Y-126347676D02*
X126583333Y-126442914D01*
X126583333Y-126442914D02*
X126488095Y-126490533D01*
X127916666Y-126538152D02*
X127916666Y-127204819D01*
X127678571Y-126157200D02*
X127440476Y-126871485D01*
X127440476Y-126871485D02*
X128059523Y-126871485D01*
%TO.C,C4*%
X151659580Y-128166666D02*
X151707200Y-128214285D01*
X151707200Y-128214285D02*
X151754819Y-128357142D01*
X151754819Y-128357142D02*
X151754819Y-128452380D01*
X151754819Y-128452380D02*
X151707200Y-128595237D01*
X151707200Y-128595237D02*
X151611961Y-128690475D01*
X151611961Y-128690475D02*
X151516723Y-128738094D01*
X151516723Y-128738094D02*
X151326247Y-128785713D01*
X151326247Y-128785713D02*
X151183390Y-128785713D01*
X151183390Y-128785713D02*
X150992914Y-128738094D01*
X150992914Y-128738094D02*
X150897676Y-128690475D01*
X150897676Y-128690475D02*
X150802438Y-128595237D01*
X150802438Y-128595237D02*
X150754819Y-128452380D01*
X150754819Y-128452380D02*
X150754819Y-128357142D01*
X150754819Y-128357142D02*
X150802438Y-128214285D01*
X150802438Y-128214285D02*
X150850057Y-128166666D01*
X151088152Y-127309523D02*
X151754819Y-127309523D01*
X150707200Y-127547618D02*
X151421485Y-127785713D01*
X151421485Y-127785713D02*
X151421485Y-127166666D01*
%TO.C,C6*%
X124545833Y-106679580D02*
X124498214Y-106727200D01*
X124498214Y-106727200D02*
X124355357Y-106774819D01*
X124355357Y-106774819D02*
X124260119Y-106774819D01*
X124260119Y-106774819D02*
X124117262Y-106727200D01*
X124117262Y-106727200D02*
X124022024Y-106631961D01*
X124022024Y-106631961D02*
X123974405Y-106536723D01*
X123974405Y-106536723D02*
X123926786Y-106346247D01*
X123926786Y-106346247D02*
X123926786Y-106203390D01*
X123926786Y-106203390D02*
X123974405Y-106012914D01*
X123974405Y-106012914D02*
X124022024Y-105917676D01*
X124022024Y-105917676D02*
X124117262Y-105822438D01*
X124117262Y-105822438D02*
X124260119Y-105774819D01*
X124260119Y-105774819D02*
X124355357Y-105774819D01*
X124355357Y-105774819D02*
X124498214Y-105822438D01*
X124498214Y-105822438D02*
X124545833Y-105870057D01*
X125402976Y-105774819D02*
X125212500Y-105774819D01*
X125212500Y-105774819D02*
X125117262Y-105822438D01*
X125117262Y-105822438D02*
X125069643Y-105870057D01*
X125069643Y-105870057D02*
X124974405Y-106012914D01*
X124974405Y-106012914D02*
X124926786Y-106203390D01*
X124926786Y-106203390D02*
X124926786Y-106584342D01*
X124926786Y-106584342D02*
X124974405Y-106679580D01*
X124974405Y-106679580D02*
X125022024Y-106727200D01*
X125022024Y-106727200D02*
X125117262Y-106774819D01*
X125117262Y-106774819D02*
X125307738Y-106774819D01*
X125307738Y-106774819D02*
X125402976Y-106727200D01*
X125402976Y-106727200D02*
X125450595Y-106679580D01*
X125450595Y-106679580D02*
X125498214Y-106584342D01*
X125498214Y-106584342D02*
X125498214Y-106346247D01*
X125498214Y-106346247D02*
X125450595Y-106251009D01*
X125450595Y-106251009D02*
X125402976Y-106203390D01*
X125402976Y-106203390D02*
X125307738Y-106155771D01*
X125307738Y-106155771D02*
X125117262Y-106155771D01*
X125117262Y-106155771D02*
X125022024Y-106203390D01*
X125022024Y-106203390D02*
X124974405Y-106251009D01*
X124974405Y-106251009D02*
X124926786Y-106346247D01*
%TO.C,R2*%
X137204819Y-100666666D02*
X136728628Y-100999999D01*
X137204819Y-101238094D02*
X136204819Y-101238094D01*
X136204819Y-101238094D02*
X136204819Y-100857142D01*
X136204819Y-100857142D02*
X136252438Y-100761904D01*
X136252438Y-100761904D02*
X136300057Y-100714285D01*
X136300057Y-100714285D02*
X136395295Y-100666666D01*
X136395295Y-100666666D02*
X136538152Y-100666666D01*
X136538152Y-100666666D02*
X136633390Y-100714285D01*
X136633390Y-100714285D02*
X136681009Y-100761904D01*
X136681009Y-100761904D02*
X136728628Y-100857142D01*
X136728628Y-100857142D02*
X136728628Y-101238094D01*
X136300057Y-100285713D02*
X136252438Y-100238094D01*
X136252438Y-100238094D02*
X136204819Y-100142856D01*
X136204819Y-100142856D02*
X136204819Y-99904761D01*
X136204819Y-99904761D02*
X136252438Y-99809523D01*
X136252438Y-99809523D02*
X136300057Y-99761904D01*
X136300057Y-99761904D02*
X136395295Y-99714285D01*
X136395295Y-99714285D02*
X136490533Y-99714285D01*
X136490533Y-99714285D02*
X136633390Y-99761904D01*
X136633390Y-99761904D02*
X137204819Y-100333332D01*
X137204819Y-100333332D02*
X137204819Y-99714285D01*
%TO.C,R5*%
X138333333Y-127204819D02*
X138000000Y-126728628D01*
X137761905Y-127204819D02*
X137761905Y-126204819D01*
X137761905Y-126204819D02*
X138142857Y-126204819D01*
X138142857Y-126204819D02*
X138238095Y-126252438D01*
X138238095Y-126252438D02*
X138285714Y-126300057D01*
X138285714Y-126300057D02*
X138333333Y-126395295D01*
X138333333Y-126395295D02*
X138333333Y-126538152D01*
X138333333Y-126538152D02*
X138285714Y-126633390D01*
X138285714Y-126633390D02*
X138238095Y-126681009D01*
X138238095Y-126681009D02*
X138142857Y-126728628D01*
X138142857Y-126728628D02*
X137761905Y-126728628D01*
X139238095Y-126204819D02*
X138761905Y-126204819D01*
X138761905Y-126204819D02*
X138714286Y-126681009D01*
X138714286Y-126681009D02*
X138761905Y-126633390D01*
X138761905Y-126633390D02*
X138857143Y-126585771D01*
X138857143Y-126585771D02*
X139095238Y-126585771D01*
X139095238Y-126585771D02*
X139190476Y-126633390D01*
X139190476Y-126633390D02*
X139238095Y-126681009D01*
X139238095Y-126681009D02*
X139285714Y-126776247D01*
X139285714Y-126776247D02*
X139285714Y-127014342D01*
X139285714Y-127014342D02*
X139238095Y-127109580D01*
X139238095Y-127109580D02*
X139190476Y-127157200D01*
X139190476Y-127157200D02*
X139095238Y-127204819D01*
X139095238Y-127204819D02*
X138857143Y-127204819D01*
X138857143Y-127204819D02*
X138761905Y-127157200D01*
X138761905Y-127157200D02*
X138714286Y-127109580D01*
%TO.C,J2*%
X153666666Y-109124819D02*
X153666666Y-109839104D01*
X153666666Y-109839104D02*
X153619047Y-109981961D01*
X153619047Y-109981961D02*
X153523809Y-110077200D01*
X153523809Y-110077200D02*
X153380952Y-110124819D01*
X153380952Y-110124819D02*
X153285714Y-110124819D01*
X154095238Y-109220057D02*
X154142857Y-109172438D01*
X154142857Y-109172438D02*
X154238095Y-109124819D01*
X154238095Y-109124819D02*
X154476190Y-109124819D01*
X154476190Y-109124819D02*
X154571428Y-109172438D01*
X154571428Y-109172438D02*
X154619047Y-109220057D01*
X154619047Y-109220057D02*
X154666666Y-109315295D01*
X154666666Y-109315295D02*
X154666666Y-109410533D01*
X154666666Y-109410533D02*
X154619047Y-109553390D01*
X154619047Y-109553390D02*
X154047619Y-110124819D01*
X154047619Y-110124819D02*
X154666666Y-110124819D01*
%TO.C,R23*%
X114954819Y-92142857D02*
X114478628Y-92476190D01*
X114954819Y-92714285D02*
X113954819Y-92714285D01*
X113954819Y-92714285D02*
X113954819Y-92333333D01*
X113954819Y-92333333D02*
X114002438Y-92238095D01*
X114002438Y-92238095D02*
X114050057Y-92190476D01*
X114050057Y-92190476D02*
X114145295Y-92142857D01*
X114145295Y-92142857D02*
X114288152Y-92142857D01*
X114288152Y-92142857D02*
X114383390Y-92190476D01*
X114383390Y-92190476D02*
X114431009Y-92238095D01*
X114431009Y-92238095D02*
X114478628Y-92333333D01*
X114478628Y-92333333D02*
X114478628Y-92714285D01*
X114050057Y-91761904D02*
X114002438Y-91714285D01*
X114002438Y-91714285D02*
X113954819Y-91619047D01*
X113954819Y-91619047D02*
X113954819Y-91380952D01*
X113954819Y-91380952D02*
X114002438Y-91285714D01*
X114002438Y-91285714D02*
X114050057Y-91238095D01*
X114050057Y-91238095D02*
X114145295Y-91190476D01*
X114145295Y-91190476D02*
X114240533Y-91190476D01*
X114240533Y-91190476D02*
X114383390Y-91238095D01*
X114383390Y-91238095D02*
X114954819Y-91809523D01*
X114954819Y-91809523D02*
X114954819Y-91190476D01*
X113954819Y-90857142D02*
X113954819Y-90238095D01*
X113954819Y-90238095D02*
X114335771Y-90571428D01*
X114335771Y-90571428D02*
X114335771Y-90428571D01*
X114335771Y-90428571D02*
X114383390Y-90333333D01*
X114383390Y-90333333D02*
X114431009Y-90285714D01*
X114431009Y-90285714D02*
X114526247Y-90238095D01*
X114526247Y-90238095D02*
X114764342Y-90238095D01*
X114764342Y-90238095D02*
X114859580Y-90285714D01*
X114859580Y-90285714D02*
X114907200Y-90333333D01*
X114907200Y-90333333D02*
X114954819Y-90428571D01*
X114954819Y-90428571D02*
X114954819Y-90714285D01*
X114954819Y-90714285D02*
X114907200Y-90809523D01*
X114907200Y-90809523D02*
X114859580Y-90857142D01*
%TO.C,Q1*%
X127950057Y-87595238D02*
X127902438Y-87690476D01*
X127902438Y-87690476D02*
X127807200Y-87785714D01*
X127807200Y-87785714D02*
X127664342Y-87928571D01*
X127664342Y-87928571D02*
X127616723Y-88023809D01*
X127616723Y-88023809D02*
X127616723Y-88119047D01*
X127854819Y-88071428D02*
X127807200Y-88166666D01*
X127807200Y-88166666D02*
X127711961Y-88261904D01*
X127711961Y-88261904D02*
X127521485Y-88309523D01*
X127521485Y-88309523D02*
X127188152Y-88309523D01*
X127188152Y-88309523D02*
X126997676Y-88261904D01*
X126997676Y-88261904D02*
X126902438Y-88166666D01*
X126902438Y-88166666D02*
X126854819Y-88071428D01*
X126854819Y-88071428D02*
X126854819Y-87880952D01*
X126854819Y-87880952D02*
X126902438Y-87785714D01*
X126902438Y-87785714D02*
X126997676Y-87690476D01*
X126997676Y-87690476D02*
X127188152Y-87642857D01*
X127188152Y-87642857D02*
X127521485Y-87642857D01*
X127521485Y-87642857D02*
X127711961Y-87690476D01*
X127711961Y-87690476D02*
X127807200Y-87785714D01*
X127807200Y-87785714D02*
X127854819Y-87880952D01*
X127854819Y-87880952D02*
X127854819Y-88071428D01*
X127854819Y-86690476D02*
X127854819Y-87261904D01*
X127854819Y-86976190D02*
X126854819Y-86976190D01*
X126854819Y-86976190D02*
X126997676Y-87071428D01*
X126997676Y-87071428D02*
X127092914Y-87166666D01*
X127092914Y-87166666D02*
X127140533Y-87261904D01*
%TO.C,J3*%
X153666666Y-123584819D02*
X153666666Y-124299104D01*
X153666666Y-124299104D02*
X153619047Y-124441961D01*
X153619047Y-124441961D02*
X153523809Y-124537200D01*
X153523809Y-124537200D02*
X153380952Y-124584819D01*
X153380952Y-124584819D02*
X153285714Y-124584819D01*
X154047619Y-123584819D02*
X154666666Y-123584819D01*
X154666666Y-123584819D02*
X154333333Y-123965771D01*
X154333333Y-123965771D02*
X154476190Y-123965771D01*
X154476190Y-123965771D02*
X154571428Y-124013390D01*
X154571428Y-124013390D02*
X154619047Y-124061009D01*
X154619047Y-124061009D02*
X154666666Y-124156247D01*
X154666666Y-124156247D02*
X154666666Y-124394342D01*
X154666666Y-124394342D02*
X154619047Y-124489580D01*
X154619047Y-124489580D02*
X154571428Y-124537200D01*
X154571428Y-124537200D02*
X154476190Y-124584819D01*
X154476190Y-124584819D02*
X154190476Y-124584819D01*
X154190476Y-124584819D02*
X154095238Y-124537200D01*
X154095238Y-124537200D02*
X154047619Y-124489580D01*
%TO.C,C16*%
X116607142Y-139679580D02*
X116559523Y-139727200D01*
X116559523Y-139727200D02*
X116416666Y-139774819D01*
X116416666Y-139774819D02*
X116321428Y-139774819D01*
X116321428Y-139774819D02*
X116178571Y-139727200D01*
X116178571Y-139727200D02*
X116083333Y-139631961D01*
X116083333Y-139631961D02*
X116035714Y-139536723D01*
X116035714Y-139536723D02*
X115988095Y-139346247D01*
X115988095Y-139346247D02*
X115988095Y-139203390D01*
X115988095Y-139203390D02*
X116035714Y-139012914D01*
X116035714Y-139012914D02*
X116083333Y-138917676D01*
X116083333Y-138917676D02*
X116178571Y-138822438D01*
X116178571Y-138822438D02*
X116321428Y-138774819D01*
X116321428Y-138774819D02*
X116416666Y-138774819D01*
X116416666Y-138774819D02*
X116559523Y-138822438D01*
X116559523Y-138822438D02*
X116607142Y-138870057D01*
X117559523Y-139774819D02*
X116988095Y-139774819D01*
X117273809Y-139774819D02*
X117273809Y-138774819D01*
X117273809Y-138774819D02*
X117178571Y-138917676D01*
X117178571Y-138917676D02*
X117083333Y-139012914D01*
X117083333Y-139012914D02*
X116988095Y-139060533D01*
X118416666Y-138774819D02*
X118226190Y-138774819D01*
X118226190Y-138774819D02*
X118130952Y-138822438D01*
X118130952Y-138822438D02*
X118083333Y-138870057D01*
X118083333Y-138870057D02*
X117988095Y-139012914D01*
X117988095Y-139012914D02*
X117940476Y-139203390D01*
X117940476Y-139203390D02*
X117940476Y-139584342D01*
X117940476Y-139584342D02*
X117988095Y-139679580D01*
X117988095Y-139679580D02*
X118035714Y-139727200D01*
X118035714Y-139727200D02*
X118130952Y-139774819D01*
X118130952Y-139774819D02*
X118321428Y-139774819D01*
X118321428Y-139774819D02*
X118416666Y-139727200D01*
X118416666Y-139727200D02*
X118464285Y-139679580D01*
X118464285Y-139679580D02*
X118511904Y-139584342D01*
X118511904Y-139584342D02*
X118511904Y-139346247D01*
X118511904Y-139346247D02*
X118464285Y-139251009D01*
X118464285Y-139251009D02*
X118416666Y-139203390D01*
X118416666Y-139203390D02*
X118321428Y-139155771D01*
X118321428Y-139155771D02*
X118130952Y-139155771D01*
X118130952Y-139155771D02*
X118035714Y-139203390D01*
X118035714Y-139203390D02*
X117988095Y-139251009D01*
X117988095Y-139251009D02*
X117940476Y-139346247D01*
%TO.C,R33*%
X130704819Y-119392857D02*
X130228628Y-119726190D01*
X130704819Y-119964285D02*
X129704819Y-119964285D01*
X129704819Y-119964285D02*
X129704819Y-119583333D01*
X129704819Y-119583333D02*
X129752438Y-119488095D01*
X129752438Y-119488095D02*
X129800057Y-119440476D01*
X129800057Y-119440476D02*
X129895295Y-119392857D01*
X129895295Y-119392857D02*
X130038152Y-119392857D01*
X130038152Y-119392857D02*
X130133390Y-119440476D01*
X130133390Y-119440476D02*
X130181009Y-119488095D01*
X130181009Y-119488095D02*
X130228628Y-119583333D01*
X130228628Y-119583333D02*
X130228628Y-119964285D01*
X129704819Y-119059523D02*
X129704819Y-118440476D01*
X129704819Y-118440476D02*
X130085771Y-118773809D01*
X130085771Y-118773809D02*
X130085771Y-118630952D01*
X130085771Y-118630952D02*
X130133390Y-118535714D01*
X130133390Y-118535714D02*
X130181009Y-118488095D01*
X130181009Y-118488095D02*
X130276247Y-118440476D01*
X130276247Y-118440476D02*
X130514342Y-118440476D01*
X130514342Y-118440476D02*
X130609580Y-118488095D01*
X130609580Y-118488095D02*
X130657200Y-118535714D01*
X130657200Y-118535714D02*
X130704819Y-118630952D01*
X130704819Y-118630952D02*
X130704819Y-118916666D01*
X130704819Y-118916666D02*
X130657200Y-119011904D01*
X130657200Y-119011904D02*
X130609580Y-119059523D01*
X129704819Y-118107142D02*
X129704819Y-117488095D01*
X129704819Y-117488095D02*
X130085771Y-117821428D01*
X130085771Y-117821428D02*
X130085771Y-117678571D01*
X130085771Y-117678571D02*
X130133390Y-117583333D01*
X130133390Y-117583333D02*
X130181009Y-117535714D01*
X130181009Y-117535714D02*
X130276247Y-117488095D01*
X130276247Y-117488095D02*
X130514342Y-117488095D01*
X130514342Y-117488095D02*
X130609580Y-117535714D01*
X130609580Y-117535714D02*
X130657200Y-117583333D01*
X130657200Y-117583333D02*
X130704819Y-117678571D01*
X130704819Y-117678571D02*
X130704819Y-117964285D01*
X130704819Y-117964285D02*
X130657200Y-118059523D01*
X130657200Y-118059523D02*
X130609580Y-118107142D01*
%TO.C,J4*%
X111666666Y-119324819D02*
X111666666Y-120039104D01*
X111666666Y-120039104D02*
X111619047Y-120181961D01*
X111619047Y-120181961D02*
X111523809Y-120277200D01*
X111523809Y-120277200D02*
X111380952Y-120324819D01*
X111380952Y-120324819D02*
X111285714Y-120324819D01*
X112571428Y-119658152D02*
X112571428Y-120324819D01*
X112333333Y-119277200D02*
X112095238Y-119991485D01*
X112095238Y-119991485D02*
X112714285Y-119991485D01*
%TO.C,R28*%
X124444642Y-83804819D02*
X124111309Y-83328628D01*
X123873214Y-83804819D02*
X123873214Y-82804819D01*
X123873214Y-82804819D02*
X124254166Y-82804819D01*
X124254166Y-82804819D02*
X124349404Y-82852438D01*
X124349404Y-82852438D02*
X124397023Y-82900057D01*
X124397023Y-82900057D02*
X124444642Y-82995295D01*
X124444642Y-82995295D02*
X124444642Y-83138152D01*
X124444642Y-83138152D02*
X124397023Y-83233390D01*
X124397023Y-83233390D02*
X124349404Y-83281009D01*
X124349404Y-83281009D02*
X124254166Y-83328628D01*
X124254166Y-83328628D02*
X123873214Y-83328628D01*
X124825595Y-82900057D02*
X124873214Y-82852438D01*
X124873214Y-82852438D02*
X124968452Y-82804819D01*
X124968452Y-82804819D02*
X125206547Y-82804819D01*
X125206547Y-82804819D02*
X125301785Y-82852438D01*
X125301785Y-82852438D02*
X125349404Y-82900057D01*
X125349404Y-82900057D02*
X125397023Y-82995295D01*
X125397023Y-82995295D02*
X125397023Y-83090533D01*
X125397023Y-83090533D02*
X125349404Y-83233390D01*
X125349404Y-83233390D02*
X124777976Y-83804819D01*
X124777976Y-83804819D02*
X125397023Y-83804819D01*
X125968452Y-83233390D02*
X125873214Y-83185771D01*
X125873214Y-83185771D02*
X125825595Y-83138152D01*
X125825595Y-83138152D02*
X125777976Y-83042914D01*
X125777976Y-83042914D02*
X125777976Y-82995295D01*
X125777976Y-82995295D02*
X125825595Y-82900057D01*
X125825595Y-82900057D02*
X125873214Y-82852438D01*
X125873214Y-82852438D02*
X125968452Y-82804819D01*
X125968452Y-82804819D02*
X126158928Y-82804819D01*
X126158928Y-82804819D02*
X126254166Y-82852438D01*
X126254166Y-82852438D02*
X126301785Y-82900057D01*
X126301785Y-82900057D02*
X126349404Y-82995295D01*
X126349404Y-82995295D02*
X126349404Y-83042914D01*
X126349404Y-83042914D02*
X126301785Y-83138152D01*
X126301785Y-83138152D02*
X126254166Y-83185771D01*
X126254166Y-83185771D02*
X126158928Y-83233390D01*
X126158928Y-83233390D02*
X125968452Y-83233390D01*
X125968452Y-83233390D02*
X125873214Y-83281009D01*
X125873214Y-83281009D02*
X125825595Y-83328628D01*
X125825595Y-83328628D02*
X125777976Y-83423866D01*
X125777976Y-83423866D02*
X125777976Y-83614342D01*
X125777976Y-83614342D02*
X125825595Y-83709580D01*
X125825595Y-83709580D02*
X125873214Y-83757200D01*
X125873214Y-83757200D02*
X125968452Y-83804819D01*
X125968452Y-83804819D02*
X126158928Y-83804819D01*
X126158928Y-83804819D02*
X126254166Y-83757200D01*
X126254166Y-83757200D02*
X126301785Y-83709580D01*
X126301785Y-83709580D02*
X126349404Y-83614342D01*
X126349404Y-83614342D02*
X126349404Y-83423866D01*
X126349404Y-83423866D02*
X126301785Y-83328628D01*
X126301785Y-83328628D02*
X126254166Y-83281009D01*
X126254166Y-83281009D02*
X126158928Y-83233390D01*
%TO.C,J9*%
X113966666Y-141704819D02*
X113966666Y-142419104D01*
X113966666Y-142419104D02*
X113919047Y-142561961D01*
X113919047Y-142561961D02*
X113823809Y-142657200D01*
X113823809Y-142657200D02*
X113680952Y-142704819D01*
X113680952Y-142704819D02*
X113585714Y-142704819D01*
X114490476Y-142704819D02*
X114680952Y-142704819D01*
X114680952Y-142704819D02*
X114776190Y-142657200D01*
X114776190Y-142657200D02*
X114823809Y-142609580D01*
X114823809Y-142609580D02*
X114919047Y-142466723D01*
X114919047Y-142466723D02*
X114966666Y-142276247D01*
X114966666Y-142276247D02*
X114966666Y-141895295D01*
X114966666Y-141895295D02*
X114919047Y-141800057D01*
X114919047Y-141800057D02*
X114871428Y-141752438D01*
X114871428Y-141752438D02*
X114776190Y-141704819D01*
X114776190Y-141704819D02*
X114585714Y-141704819D01*
X114585714Y-141704819D02*
X114490476Y-141752438D01*
X114490476Y-141752438D02*
X114442857Y-141800057D01*
X114442857Y-141800057D02*
X114395238Y-141895295D01*
X114395238Y-141895295D02*
X114395238Y-142133390D01*
X114395238Y-142133390D02*
X114442857Y-142228628D01*
X114442857Y-142228628D02*
X114490476Y-142276247D01*
X114490476Y-142276247D02*
X114585714Y-142323866D01*
X114585714Y-142323866D02*
X114776190Y-142323866D01*
X114776190Y-142323866D02*
X114871428Y-142276247D01*
X114871428Y-142276247D02*
X114919047Y-142228628D01*
X114919047Y-142228628D02*
X114966666Y-142133390D01*
%TO.C,D3*%
X119124405Y-79054819D02*
X119124405Y-78054819D01*
X119124405Y-78054819D02*
X119362500Y-78054819D01*
X119362500Y-78054819D02*
X119505357Y-78102438D01*
X119505357Y-78102438D02*
X119600595Y-78197676D01*
X119600595Y-78197676D02*
X119648214Y-78292914D01*
X119648214Y-78292914D02*
X119695833Y-78483390D01*
X119695833Y-78483390D02*
X119695833Y-78626247D01*
X119695833Y-78626247D02*
X119648214Y-78816723D01*
X119648214Y-78816723D02*
X119600595Y-78911961D01*
X119600595Y-78911961D02*
X119505357Y-79007200D01*
X119505357Y-79007200D02*
X119362500Y-79054819D01*
X119362500Y-79054819D02*
X119124405Y-79054819D01*
X120029167Y-78054819D02*
X120648214Y-78054819D01*
X120648214Y-78054819D02*
X120314881Y-78435771D01*
X120314881Y-78435771D02*
X120457738Y-78435771D01*
X120457738Y-78435771D02*
X120552976Y-78483390D01*
X120552976Y-78483390D02*
X120600595Y-78531009D01*
X120600595Y-78531009D02*
X120648214Y-78626247D01*
X120648214Y-78626247D02*
X120648214Y-78864342D01*
X120648214Y-78864342D02*
X120600595Y-78959580D01*
X120600595Y-78959580D02*
X120552976Y-79007200D01*
X120552976Y-79007200D02*
X120457738Y-79054819D01*
X120457738Y-79054819D02*
X120172024Y-79054819D01*
X120172024Y-79054819D02*
X120076786Y-79007200D01*
X120076786Y-79007200D02*
X120029167Y-78959580D01*
%TO.C,J10*%
X147834819Y-77009523D02*
X148549104Y-77009523D01*
X148549104Y-77009523D02*
X148691961Y-77057142D01*
X148691961Y-77057142D02*
X148787200Y-77152380D01*
X148787200Y-77152380D02*
X148834819Y-77295237D01*
X148834819Y-77295237D02*
X148834819Y-77390475D01*
X148834819Y-76009523D02*
X148834819Y-76580951D01*
X148834819Y-76295237D02*
X147834819Y-76295237D01*
X147834819Y-76295237D02*
X147977676Y-76390475D01*
X147977676Y-76390475D02*
X148072914Y-76485713D01*
X148072914Y-76485713D02*
X148120533Y-76580951D01*
X147834819Y-75390475D02*
X147834819Y-75295237D01*
X147834819Y-75295237D02*
X147882438Y-75199999D01*
X147882438Y-75199999D02*
X147930057Y-75152380D01*
X147930057Y-75152380D02*
X148025295Y-75104761D01*
X148025295Y-75104761D02*
X148215771Y-75057142D01*
X148215771Y-75057142D02*
X148453866Y-75057142D01*
X148453866Y-75057142D02*
X148644342Y-75104761D01*
X148644342Y-75104761D02*
X148739580Y-75152380D01*
X148739580Y-75152380D02*
X148787200Y-75199999D01*
X148787200Y-75199999D02*
X148834819Y-75295237D01*
X148834819Y-75295237D02*
X148834819Y-75390475D01*
X148834819Y-75390475D02*
X148787200Y-75485713D01*
X148787200Y-75485713D02*
X148739580Y-75533332D01*
X148739580Y-75533332D02*
X148644342Y-75580951D01*
X148644342Y-75580951D02*
X148453866Y-75628570D01*
X148453866Y-75628570D02*
X148215771Y-75628570D01*
X148215771Y-75628570D02*
X148025295Y-75580951D01*
X148025295Y-75580951D02*
X147930057Y-75533332D01*
X147930057Y-75533332D02*
X147882438Y-75485713D01*
X147882438Y-75485713D02*
X147834819Y-75390475D01*
%TO.C,R7*%
X143104819Y-117666666D02*
X142628628Y-117999999D01*
X143104819Y-118238094D02*
X142104819Y-118238094D01*
X142104819Y-118238094D02*
X142104819Y-117857142D01*
X142104819Y-117857142D02*
X142152438Y-117761904D01*
X142152438Y-117761904D02*
X142200057Y-117714285D01*
X142200057Y-117714285D02*
X142295295Y-117666666D01*
X142295295Y-117666666D02*
X142438152Y-117666666D01*
X142438152Y-117666666D02*
X142533390Y-117714285D01*
X142533390Y-117714285D02*
X142581009Y-117761904D01*
X142581009Y-117761904D02*
X142628628Y-117857142D01*
X142628628Y-117857142D02*
X142628628Y-118238094D01*
X142104819Y-117333332D02*
X142104819Y-116666666D01*
X142104819Y-116666666D02*
X143104819Y-117095237D01*
%TO.C,C7*%
X146083333Y-87289580D02*
X146035714Y-87337200D01*
X146035714Y-87337200D02*
X145892857Y-87384819D01*
X145892857Y-87384819D02*
X145797619Y-87384819D01*
X145797619Y-87384819D02*
X145654762Y-87337200D01*
X145654762Y-87337200D02*
X145559524Y-87241961D01*
X145559524Y-87241961D02*
X145511905Y-87146723D01*
X145511905Y-87146723D02*
X145464286Y-86956247D01*
X145464286Y-86956247D02*
X145464286Y-86813390D01*
X145464286Y-86813390D02*
X145511905Y-86622914D01*
X145511905Y-86622914D02*
X145559524Y-86527676D01*
X145559524Y-86527676D02*
X145654762Y-86432438D01*
X145654762Y-86432438D02*
X145797619Y-86384819D01*
X145797619Y-86384819D02*
X145892857Y-86384819D01*
X145892857Y-86384819D02*
X146035714Y-86432438D01*
X146035714Y-86432438D02*
X146083333Y-86480057D01*
X146416667Y-86384819D02*
X147083333Y-86384819D01*
X147083333Y-86384819D02*
X146654762Y-87384819D01*
%TO.C,D4*%
X115704819Y-133738094D02*
X114704819Y-133738094D01*
X114704819Y-133738094D02*
X114704819Y-133499999D01*
X114704819Y-133499999D02*
X114752438Y-133357142D01*
X114752438Y-133357142D02*
X114847676Y-133261904D01*
X114847676Y-133261904D02*
X114942914Y-133214285D01*
X114942914Y-133214285D02*
X115133390Y-133166666D01*
X115133390Y-133166666D02*
X115276247Y-133166666D01*
X115276247Y-133166666D02*
X115466723Y-133214285D01*
X115466723Y-133214285D02*
X115561961Y-133261904D01*
X115561961Y-133261904D02*
X115657200Y-133357142D01*
X115657200Y-133357142D02*
X115704819Y-133499999D01*
X115704819Y-133499999D02*
X115704819Y-133738094D01*
X115038152Y-132309523D02*
X115704819Y-132309523D01*
X114657200Y-132547618D02*
X115371485Y-132785713D01*
X115371485Y-132785713D02*
X115371485Y-132166666D01*
%TO.C,R31*%
X137104819Y-81642857D02*
X136628628Y-81976190D01*
X137104819Y-82214285D02*
X136104819Y-82214285D01*
X136104819Y-82214285D02*
X136104819Y-81833333D01*
X136104819Y-81833333D02*
X136152438Y-81738095D01*
X136152438Y-81738095D02*
X136200057Y-81690476D01*
X136200057Y-81690476D02*
X136295295Y-81642857D01*
X136295295Y-81642857D02*
X136438152Y-81642857D01*
X136438152Y-81642857D02*
X136533390Y-81690476D01*
X136533390Y-81690476D02*
X136581009Y-81738095D01*
X136581009Y-81738095D02*
X136628628Y-81833333D01*
X136628628Y-81833333D02*
X136628628Y-82214285D01*
X136104819Y-81309523D02*
X136104819Y-80690476D01*
X136104819Y-80690476D02*
X136485771Y-81023809D01*
X136485771Y-81023809D02*
X136485771Y-80880952D01*
X136485771Y-80880952D02*
X136533390Y-80785714D01*
X136533390Y-80785714D02*
X136581009Y-80738095D01*
X136581009Y-80738095D02*
X136676247Y-80690476D01*
X136676247Y-80690476D02*
X136914342Y-80690476D01*
X136914342Y-80690476D02*
X137009580Y-80738095D01*
X137009580Y-80738095D02*
X137057200Y-80785714D01*
X137057200Y-80785714D02*
X137104819Y-80880952D01*
X137104819Y-80880952D02*
X137104819Y-81166666D01*
X137104819Y-81166666D02*
X137057200Y-81261904D01*
X137057200Y-81261904D02*
X137009580Y-81309523D01*
X137104819Y-79738095D02*
X137104819Y-80309523D01*
X137104819Y-80023809D02*
X136104819Y-80023809D01*
X136104819Y-80023809D02*
X136247676Y-80119047D01*
X136247676Y-80119047D02*
X136342914Y-80214285D01*
X136342914Y-80214285D02*
X136390533Y-80309523D01*
%TO.C,R30*%
X119444642Y-83804819D02*
X119111309Y-83328628D01*
X118873214Y-83804819D02*
X118873214Y-82804819D01*
X118873214Y-82804819D02*
X119254166Y-82804819D01*
X119254166Y-82804819D02*
X119349404Y-82852438D01*
X119349404Y-82852438D02*
X119397023Y-82900057D01*
X119397023Y-82900057D02*
X119444642Y-82995295D01*
X119444642Y-82995295D02*
X119444642Y-83138152D01*
X119444642Y-83138152D02*
X119397023Y-83233390D01*
X119397023Y-83233390D02*
X119349404Y-83281009D01*
X119349404Y-83281009D02*
X119254166Y-83328628D01*
X119254166Y-83328628D02*
X118873214Y-83328628D01*
X119777976Y-82804819D02*
X120397023Y-82804819D01*
X120397023Y-82804819D02*
X120063690Y-83185771D01*
X120063690Y-83185771D02*
X120206547Y-83185771D01*
X120206547Y-83185771D02*
X120301785Y-83233390D01*
X120301785Y-83233390D02*
X120349404Y-83281009D01*
X120349404Y-83281009D02*
X120397023Y-83376247D01*
X120397023Y-83376247D02*
X120397023Y-83614342D01*
X120397023Y-83614342D02*
X120349404Y-83709580D01*
X120349404Y-83709580D02*
X120301785Y-83757200D01*
X120301785Y-83757200D02*
X120206547Y-83804819D01*
X120206547Y-83804819D02*
X119920833Y-83804819D01*
X119920833Y-83804819D02*
X119825595Y-83757200D01*
X119825595Y-83757200D02*
X119777976Y-83709580D01*
X121016071Y-82804819D02*
X121111309Y-82804819D01*
X121111309Y-82804819D02*
X121206547Y-82852438D01*
X121206547Y-82852438D02*
X121254166Y-82900057D01*
X121254166Y-82900057D02*
X121301785Y-82995295D01*
X121301785Y-82995295D02*
X121349404Y-83185771D01*
X121349404Y-83185771D02*
X121349404Y-83423866D01*
X121349404Y-83423866D02*
X121301785Y-83614342D01*
X121301785Y-83614342D02*
X121254166Y-83709580D01*
X121254166Y-83709580D02*
X121206547Y-83757200D01*
X121206547Y-83757200D02*
X121111309Y-83804819D01*
X121111309Y-83804819D02*
X121016071Y-83804819D01*
X121016071Y-83804819D02*
X120920833Y-83757200D01*
X120920833Y-83757200D02*
X120873214Y-83709580D01*
X120873214Y-83709580D02*
X120825595Y-83614342D01*
X120825595Y-83614342D02*
X120777976Y-83423866D01*
X120777976Y-83423866D02*
X120777976Y-83185771D01*
X120777976Y-83185771D02*
X120825595Y-82995295D01*
X120825595Y-82995295D02*
X120873214Y-82900057D01*
X120873214Y-82900057D02*
X120920833Y-82852438D01*
X120920833Y-82852438D02*
X121016071Y-82804819D01*
%TO.C,D6*%
X121149405Y-135104819D02*
X121149405Y-134104819D01*
X121149405Y-134104819D02*
X121387500Y-134104819D01*
X121387500Y-134104819D02*
X121530357Y-134152438D01*
X121530357Y-134152438D02*
X121625595Y-134247676D01*
X121625595Y-134247676D02*
X121673214Y-134342914D01*
X121673214Y-134342914D02*
X121720833Y-134533390D01*
X121720833Y-134533390D02*
X121720833Y-134676247D01*
X121720833Y-134676247D02*
X121673214Y-134866723D01*
X121673214Y-134866723D02*
X121625595Y-134961961D01*
X121625595Y-134961961D02*
X121530357Y-135057200D01*
X121530357Y-135057200D02*
X121387500Y-135104819D01*
X121387500Y-135104819D02*
X121149405Y-135104819D01*
X122577976Y-134104819D02*
X122387500Y-134104819D01*
X122387500Y-134104819D02*
X122292262Y-134152438D01*
X122292262Y-134152438D02*
X122244643Y-134200057D01*
X122244643Y-134200057D02*
X122149405Y-134342914D01*
X122149405Y-134342914D02*
X122101786Y-134533390D01*
X122101786Y-134533390D02*
X122101786Y-134914342D01*
X122101786Y-134914342D02*
X122149405Y-135009580D01*
X122149405Y-135009580D02*
X122197024Y-135057200D01*
X122197024Y-135057200D02*
X122292262Y-135104819D01*
X122292262Y-135104819D02*
X122482738Y-135104819D01*
X122482738Y-135104819D02*
X122577976Y-135057200D01*
X122577976Y-135057200D02*
X122625595Y-135009580D01*
X122625595Y-135009580D02*
X122673214Y-134914342D01*
X122673214Y-134914342D02*
X122673214Y-134676247D01*
X122673214Y-134676247D02*
X122625595Y-134581009D01*
X122625595Y-134581009D02*
X122577976Y-134533390D01*
X122577976Y-134533390D02*
X122482738Y-134485771D01*
X122482738Y-134485771D02*
X122292262Y-134485771D01*
X122292262Y-134485771D02*
X122197024Y-134533390D01*
X122197024Y-134533390D02*
X122149405Y-134581009D01*
X122149405Y-134581009D02*
X122101786Y-134676247D01*
%TO.C,J8*%
X152066666Y-141704819D02*
X152066666Y-142419104D01*
X152066666Y-142419104D02*
X152019047Y-142561961D01*
X152019047Y-142561961D02*
X151923809Y-142657200D01*
X151923809Y-142657200D02*
X151780952Y-142704819D01*
X151780952Y-142704819D02*
X151685714Y-142704819D01*
X152685714Y-142133390D02*
X152590476Y-142085771D01*
X152590476Y-142085771D02*
X152542857Y-142038152D01*
X152542857Y-142038152D02*
X152495238Y-141942914D01*
X152495238Y-141942914D02*
X152495238Y-141895295D01*
X152495238Y-141895295D02*
X152542857Y-141800057D01*
X152542857Y-141800057D02*
X152590476Y-141752438D01*
X152590476Y-141752438D02*
X152685714Y-141704819D01*
X152685714Y-141704819D02*
X152876190Y-141704819D01*
X152876190Y-141704819D02*
X152971428Y-141752438D01*
X152971428Y-141752438D02*
X153019047Y-141800057D01*
X153019047Y-141800057D02*
X153066666Y-141895295D01*
X153066666Y-141895295D02*
X153066666Y-141942914D01*
X153066666Y-141942914D02*
X153019047Y-142038152D01*
X153019047Y-142038152D02*
X152971428Y-142085771D01*
X152971428Y-142085771D02*
X152876190Y-142133390D01*
X152876190Y-142133390D02*
X152685714Y-142133390D01*
X152685714Y-142133390D02*
X152590476Y-142181009D01*
X152590476Y-142181009D02*
X152542857Y-142228628D01*
X152542857Y-142228628D02*
X152495238Y-142323866D01*
X152495238Y-142323866D02*
X152495238Y-142514342D01*
X152495238Y-142514342D02*
X152542857Y-142609580D01*
X152542857Y-142609580D02*
X152590476Y-142657200D01*
X152590476Y-142657200D02*
X152685714Y-142704819D01*
X152685714Y-142704819D02*
X152876190Y-142704819D01*
X152876190Y-142704819D02*
X152971428Y-142657200D01*
X152971428Y-142657200D02*
X153019047Y-142609580D01*
X153019047Y-142609580D02*
X153066666Y-142514342D01*
X153066666Y-142514342D02*
X153066666Y-142323866D01*
X153066666Y-142323866D02*
X153019047Y-142228628D01*
X153019047Y-142228628D02*
X152971428Y-142181009D01*
X152971428Y-142181009D02*
X152876190Y-142133390D01*
%TO.C,C20*%
X126857142Y-136179580D02*
X126809523Y-136227200D01*
X126809523Y-136227200D02*
X126666666Y-136274819D01*
X126666666Y-136274819D02*
X126571428Y-136274819D01*
X126571428Y-136274819D02*
X126428571Y-136227200D01*
X126428571Y-136227200D02*
X126333333Y-136131961D01*
X126333333Y-136131961D02*
X126285714Y-136036723D01*
X126285714Y-136036723D02*
X126238095Y-135846247D01*
X126238095Y-135846247D02*
X126238095Y-135703390D01*
X126238095Y-135703390D02*
X126285714Y-135512914D01*
X126285714Y-135512914D02*
X126333333Y-135417676D01*
X126333333Y-135417676D02*
X126428571Y-135322438D01*
X126428571Y-135322438D02*
X126571428Y-135274819D01*
X126571428Y-135274819D02*
X126666666Y-135274819D01*
X126666666Y-135274819D02*
X126809523Y-135322438D01*
X126809523Y-135322438D02*
X126857142Y-135370057D01*
X127238095Y-135370057D02*
X127285714Y-135322438D01*
X127285714Y-135322438D02*
X127380952Y-135274819D01*
X127380952Y-135274819D02*
X127619047Y-135274819D01*
X127619047Y-135274819D02*
X127714285Y-135322438D01*
X127714285Y-135322438D02*
X127761904Y-135370057D01*
X127761904Y-135370057D02*
X127809523Y-135465295D01*
X127809523Y-135465295D02*
X127809523Y-135560533D01*
X127809523Y-135560533D02*
X127761904Y-135703390D01*
X127761904Y-135703390D02*
X127190476Y-136274819D01*
X127190476Y-136274819D02*
X127809523Y-136274819D01*
X128428571Y-135274819D02*
X128523809Y-135274819D01*
X128523809Y-135274819D02*
X128619047Y-135322438D01*
X128619047Y-135322438D02*
X128666666Y-135370057D01*
X128666666Y-135370057D02*
X128714285Y-135465295D01*
X128714285Y-135465295D02*
X128761904Y-135655771D01*
X128761904Y-135655771D02*
X128761904Y-135893866D01*
X128761904Y-135893866D02*
X128714285Y-136084342D01*
X128714285Y-136084342D02*
X128666666Y-136179580D01*
X128666666Y-136179580D02*
X128619047Y-136227200D01*
X128619047Y-136227200D02*
X128523809Y-136274819D01*
X128523809Y-136274819D02*
X128428571Y-136274819D01*
X128428571Y-136274819D02*
X128333333Y-136227200D01*
X128333333Y-136227200D02*
X128285714Y-136179580D01*
X128285714Y-136179580D02*
X128238095Y-136084342D01*
X128238095Y-136084342D02*
X128190476Y-135893866D01*
X128190476Y-135893866D02*
X128190476Y-135655771D01*
X128190476Y-135655771D02*
X128238095Y-135465295D01*
X128238095Y-135465295D02*
X128285714Y-135370057D01*
X128285714Y-135370057D02*
X128333333Y-135322438D01*
X128333333Y-135322438D02*
X128428571Y-135274819D01*
%TO.C,C15*%
X112059580Y-106642857D02*
X112107200Y-106690476D01*
X112107200Y-106690476D02*
X112154819Y-106833333D01*
X112154819Y-106833333D02*
X112154819Y-106928571D01*
X112154819Y-106928571D02*
X112107200Y-107071428D01*
X112107200Y-107071428D02*
X112011961Y-107166666D01*
X112011961Y-107166666D02*
X111916723Y-107214285D01*
X111916723Y-107214285D02*
X111726247Y-107261904D01*
X111726247Y-107261904D02*
X111583390Y-107261904D01*
X111583390Y-107261904D02*
X111392914Y-107214285D01*
X111392914Y-107214285D02*
X111297676Y-107166666D01*
X111297676Y-107166666D02*
X111202438Y-107071428D01*
X111202438Y-107071428D02*
X111154819Y-106928571D01*
X111154819Y-106928571D02*
X111154819Y-106833333D01*
X111154819Y-106833333D02*
X111202438Y-106690476D01*
X111202438Y-106690476D02*
X111250057Y-106642857D01*
X112154819Y-105690476D02*
X112154819Y-106261904D01*
X112154819Y-105976190D02*
X111154819Y-105976190D01*
X111154819Y-105976190D02*
X111297676Y-106071428D01*
X111297676Y-106071428D02*
X111392914Y-106166666D01*
X111392914Y-106166666D02*
X111440533Y-106261904D01*
X111154819Y-104785714D02*
X111154819Y-105261904D01*
X111154819Y-105261904D02*
X111631009Y-105309523D01*
X111631009Y-105309523D02*
X111583390Y-105261904D01*
X111583390Y-105261904D02*
X111535771Y-105166666D01*
X111535771Y-105166666D02*
X111535771Y-104928571D01*
X111535771Y-104928571D02*
X111583390Y-104833333D01*
X111583390Y-104833333D02*
X111631009Y-104785714D01*
X111631009Y-104785714D02*
X111726247Y-104738095D01*
X111726247Y-104738095D02*
X111964342Y-104738095D01*
X111964342Y-104738095D02*
X112059580Y-104785714D01*
X112059580Y-104785714D02*
X112107200Y-104833333D01*
X112107200Y-104833333D02*
X112154819Y-104928571D01*
X112154819Y-104928571D02*
X112154819Y-105166666D01*
X112154819Y-105166666D02*
X112107200Y-105261904D01*
X112107200Y-105261904D02*
X112059580Y-105309523D01*
%TO.C,U1*%
X137804819Y-104886904D02*
X138614342Y-104886904D01*
X138614342Y-104886904D02*
X138709580Y-104839285D01*
X138709580Y-104839285D02*
X138757200Y-104791666D01*
X138757200Y-104791666D02*
X138804819Y-104696428D01*
X138804819Y-104696428D02*
X138804819Y-104505952D01*
X138804819Y-104505952D02*
X138757200Y-104410714D01*
X138757200Y-104410714D02*
X138709580Y-104363095D01*
X138709580Y-104363095D02*
X138614342Y-104315476D01*
X138614342Y-104315476D02*
X137804819Y-104315476D01*
X138804819Y-103315476D02*
X138804819Y-103886904D01*
X138804819Y-103601190D02*
X137804819Y-103601190D01*
X137804819Y-103601190D02*
X137947676Y-103696428D01*
X137947676Y-103696428D02*
X138042914Y-103791666D01*
X138042914Y-103791666D02*
X138090533Y-103886904D01*
%TO.C,R25*%
X114357142Y-134354819D02*
X114023809Y-133878628D01*
X113785714Y-134354819D02*
X113785714Y-133354819D01*
X113785714Y-133354819D02*
X114166666Y-133354819D01*
X114166666Y-133354819D02*
X114261904Y-133402438D01*
X114261904Y-133402438D02*
X114309523Y-133450057D01*
X114309523Y-133450057D02*
X114357142Y-133545295D01*
X114357142Y-133545295D02*
X114357142Y-133688152D01*
X114357142Y-133688152D02*
X114309523Y-133783390D01*
X114309523Y-133783390D02*
X114261904Y-133831009D01*
X114261904Y-133831009D02*
X114166666Y-133878628D01*
X114166666Y-133878628D02*
X113785714Y-133878628D01*
X114738095Y-133450057D02*
X114785714Y-133402438D01*
X114785714Y-133402438D02*
X114880952Y-133354819D01*
X114880952Y-133354819D02*
X115119047Y-133354819D01*
X115119047Y-133354819D02*
X115214285Y-133402438D01*
X115214285Y-133402438D02*
X115261904Y-133450057D01*
X115261904Y-133450057D02*
X115309523Y-133545295D01*
X115309523Y-133545295D02*
X115309523Y-133640533D01*
X115309523Y-133640533D02*
X115261904Y-133783390D01*
X115261904Y-133783390D02*
X114690476Y-134354819D01*
X114690476Y-134354819D02*
X115309523Y-134354819D01*
X116214285Y-133354819D02*
X115738095Y-133354819D01*
X115738095Y-133354819D02*
X115690476Y-133831009D01*
X115690476Y-133831009D02*
X115738095Y-133783390D01*
X115738095Y-133783390D02*
X115833333Y-133735771D01*
X115833333Y-133735771D02*
X116071428Y-133735771D01*
X116071428Y-133735771D02*
X116166666Y-133783390D01*
X116166666Y-133783390D02*
X116214285Y-133831009D01*
X116214285Y-133831009D02*
X116261904Y-133926247D01*
X116261904Y-133926247D02*
X116261904Y-134164342D01*
X116261904Y-134164342D02*
X116214285Y-134259580D01*
X116214285Y-134259580D02*
X116166666Y-134307200D01*
X116166666Y-134307200D02*
X116071428Y-134354819D01*
X116071428Y-134354819D02*
X115833333Y-134354819D01*
X115833333Y-134354819D02*
X115738095Y-134307200D01*
X115738095Y-134307200D02*
X115690476Y-134259580D01*
%TO.C,R1*%
X141833333Y-134804819D02*
X141500000Y-134328628D01*
X141261905Y-134804819D02*
X141261905Y-133804819D01*
X141261905Y-133804819D02*
X141642857Y-133804819D01*
X141642857Y-133804819D02*
X141738095Y-133852438D01*
X141738095Y-133852438D02*
X141785714Y-133900057D01*
X141785714Y-133900057D02*
X141833333Y-133995295D01*
X141833333Y-133995295D02*
X141833333Y-134138152D01*
X141833333Y-134138152D02*
X141785714Y-134233390D01*
X141785714Y-134233390D02*
X141738095Y-134281009D01*
X141738095Y-134281009D02*
X141642857Y-134328628D01*
X141642857Y-134328628D02*
X141261905Y-134328628D01*
X142785714Y-134804819D02*
X142214286Y-134804819D01*
X142500000Y-134804819D02*
X142500000Y-133804819D01*
X142500000Y-133804819D02*
X142404762Y-133947676D01*
X142404762Y-133947676D02*
X142309524Y-134042914D01*
X142309524Y-134042914D02*
X142214286Y-134090533D01*
%TO.C,U3*%
X142978095Y-86692319D02*
X142978095Y-87501842D01*
X142978095Y-87501842D02*
X143025714Y-87597080D01*
X143025714Y-87597080D02*
X143073333Y-87644700D01*
X143073333Y-87644700D02*
X143168571Y-87692319D01*
X143168571Y-87692319D02*
X143359047Y-87692319D01*
X143359047Y-87692319D02*
X143454285Y-87644700D01*
X143454285Y-87644700D02*
X143501904Y-87597080D01*
X143501904Y-87597080D02*
X143549523Y-87501842D01*
X143549523Y-87501842D02*
X143549523Y-86692319D01*
X143930476Y-86692319D02*
X144549523Y-86692319D01*
X144549523Y-86692319D02*
X144216190Y-87073271D01*
X144216190Y-87073271D02*
X144359047Y-87073271D01*
X144359047Y-87073271D02*
X144454285Y-87120890D01*
X144454285Y-87120890D02*
X144501904Y-87168509D01*
X144501904Y-87168509D02*
X144549523Y-87263747D01*
X144549523Y-87263747D02*
X144549523Y-87501842D01*
X144549523Y-87501842D02*
X144501904Y-87597080D01*
X144501904Y-87597080D02*
X144454285Y-87644700D01*
X144454285Y-87644700D02*
X144359047Y-87692319D01*
X144359047Y-87692319D02*
X144073333Y-87692319D01*
X144073333Y-87692319D02*
X143978095Y-87644700D01*
X143978095Y-87644700D02*
X143930476Y-87597080D01*
%TO.C,R21*%
X121054819Y-92142857D02*
X120578628Y-92476190D01*
X121054819Y-92714285D02*
X120054819Y-92714285D01*
X120054819Y-92714285D02*
X120054819Y-92333333D01*
X120054819Y-92333333D02*
X120102438Y-92238095D01*
X120102438Y-92238095D02*
X120150057Y-92190476D01*
X120150057Y-92190476D02*
X120245295Y-92142857D01*
X120245295Y-92142857D02*
X120388152Y-92142857D01*
X120388152Y-92142857D02*
X120483390Y-92190476D01*
X120483390Y-92190476D02*
X120531009Y-92238095D01*
X120531009Y-92238095D02*
X120578628Y-92333333D01*
X120578628Y-92333333D02*
X120578628Y-92714285D01*
X120150057Y-91761904D02*
X120102438Y-91714285D01*
X120102438Y-91714285D02*
X120054819Y-91619047D01*
X120054819Y-91619047D02*
X120054819Y-91380952D01*
X120054819Y-91380952D02*
X120102438Y-91285714D01*
X120102438Y-91285714D02*
X120150057Y-91238095D01*
X120150057Y-91238095D02*
X120245295Y-91190476D01*
X120245295Y-91190476D02*
X120340533Y-91190476D01*
X120340533Y-91190476D02*
X120483390Y-91238095D01*
X120483390Y-91238095D02*
X121054819Y-91809523D01*
X121054819Y-91809523D02*
X121054819Y-91190476D01*
X121054819Y-90238095D02*
X121054819Y-90809523D01*
X121054819Y-90523809D02*
X120054819Y-90523809D01*
X120054819Y-90523809D02*
X120197676Y-90619047D01*
X120197676Y-90619047D02*
X120292914Y-90714285D01*
X120292914Y-90714285D02*
X120340533Y-90809523D01*
%TO.C,C17*%
X140359580Y-79642857D02*
X140407200Y-79690476D01*
X140407200Y-79690476D02*
X140454819Y-79833333D01*
X140454819Y-79833333D02*
X140454819Y-79928571D01*
X140454819Y-79928571D02*
X140407200Y-80071428D01*
X140407200Y-80071428D02*
X140311961Y-80166666D01*
X140311961Y-80166666D02*
X140216723Y-80214285D01*
X140216723Y-80214285D02*
X140026247Y-80261904D01*
X140026247Y-80261904D02*
X139883390Y-80261904D01*
X139883390Y-80261904D02*
X139692914Y-80214285D01*
X139692914Y-80214285D02*
X139597676Y-80166666D01*
X139597676Y-80166666D02*
X139502438Y-80071428D01*
X139502438Y-80071428D02*
X139454819Y-79928571D01*
X139454819Y-79928571D02*
X139454819Y-79833333D01*
X139454819Y-79833333D02*
X139502438Y-79690476D01*
X139502438Y-79690476D02*
X139550057Y-79642857D01*
X140454819Y-78690476D02*
X140454819Y-79261904D01*
X140454819Y-78976190D02*
X139454819Y-78976190D01*
X139454819Y-78976190D02*
X139597676Y-79071428D01*
X139597676Y-79071428D02*
X139692914Y-79166666D01*
X139692914Y-79166666D02*
X139740533Y-79261904D01*
X139454819Y-78357142D02*
X139454819Y-77690476D01*
X139454819Y-77690476D02*
X140454819Y-78119047D01*
%TO.C,C11*%
X126894642Y-106789580D02*
X126847023Y-106837200D01*
X126847023Y-106837200D02*
X126704166Y-106884819D01*
X126704166Y-106884819D02*
X126608928Y-106884819D01*
X126608928Y-106884819D02*
X126466071Y-106837200D01*
X126466071Y-106837200D02*
X126370833Y-106741961D01*
X126370833Y-106741961D02*
X126323214Y-106646723D01*
X126323214Y-106646723D02*
X126275595Y-106456247D01*
X126275595Y-106456247D02*
X126275595Y-106313390D01*
X126275595Y-106313390D02*
X126323214Y-106122914D01*
X126323214Y-106122914D02*
X126370833Y-106027676D01*
X126370833Y-106027676D02*
X126466071Y-105932438D01*
X126466071Y-105932438D02*
X126608928Y-105884819D01*
X126608928Y-105884819D02*
X126704166Y-105884819D01*
X126704166Y-105884819D02*
X126847023Y-105932438D01*
X126847023Y-105932438D02*
X126894642Y-105980057D01*
X127847023Y-106884819D02*
X127275595Y-106884819D01*
X127561309Y-106884819D02*
X127561309Y-105884819D01*
X127561309Y-105884819D02*
X127466071Y-106027676D01*
X127466071Y-106027676D02*
X127370833Y-106122914D01*
X127370833Y-106122914D02*
X127275595Y-106170533D01*
X128799404Y-106884819D02*
X128227976Y-106884819D01*
X128513690Y-106884819D02*
X128513690Y-105884819D01*
X128513690Y-105884819D02*
X128418452Y-106027676D01*
X128418452Y-106027676D02*
X128323214Y-106122914D01*
X128323214Y-106122914D02*
X128227976Y-106170533D01*
%TO.C,J7*%
X152066666Y-71854819D02*
X152066666Y-72569104D01*
X152066666Y-72569104D02*
X152019047Y-72711961D01*
X152019047Y-72711961D02*
X151923809Y-72807200D01*
X151923809Y-72807200D02*
X151780952Y-72854819D01*
X151780952Y-72854819D02*
X151685714Y-72854819D01*
X152447619Y-71854819D02*
X153114285Y-71854819D01*
X153114285Y-71854819D02*
X152685714Y-72854819D01*
%TO.C,R10*%
X139824819Y-119752857D02*
X139348628Y-120086190D01*
X139824819Y-120324285D02*
X138824819Y-120324285D01*
X138824819Y-120324285D02*
X138824819Y-119943333D01*
X138824819Y-119943333D02*
X138872438Y-119848095D01*
X138872438Y-119848095D02*
X138920057Y-119800476D01*
X138920057Y-119800476D02*
X139015295Y-119752857D01*
X139015295Y-119752857D02*
X139158152Y-119752857D01*
X139158152Y-119752857D02*
X139253390Y-119800476D01*
X139253390Y-119800476D02*
X139301009Y-119848095D01*
X139301009Y-119848095D02*
X139348628Y-119943333D01*
X139348628Y-119943333D02*
X139348628Y-120324285D01*
X139824819Y-118800476D02*
X139824819Y-119371904D01*
X139824819Y-119086190D02*
X138824819Y-119086190D01*
X138824819Y-119086190D02*
X138967676Y-119181428D01*
X138967676Y-119181428D02*
X139062914Y-119276666D01*
X139062914Y-119276666D02*
X139110533Y-119371904D01*
X138824819Y-118181428D02*
X138824819Y-118086190D01*
X138824819Y-118086190D02*
X138872438Y-117990952D01*
X138872438Y-117990952D02*
X138920057Y-117943333D01*
X138920057Y-117943333D02*
X139015295Y-117895714D01*
X139015295Y-117895714D02*
X139205771Y-117848095D01*
X139205771Y-117848095D02*
X139443866Y-117848095D01*
X139443866Y-117848095D02*
X139634342Y-117895714D01*
X139634342Y-117895714D02*
X139729580Y-117943333D01*
X139729580Y-117943333D02*
X139777200Y-117990952D01*
X139777200Y-117990952D02*
X139824819Y-118086190D01*
X139824819Y-118086190D02*
X139824819Y-118181428D01*
X139824819Y-118181428D02*
X139777200Y-118276666D01*
X139777200Y-118276666D02*
X139729580Y-118324285D01*
X139729580Y-118324285D02*
X139634342Y-118371904D01*
X139634342Y-118371904D02*
X139443866Y-118419523D01*
X139443866Y-118419523D02*
X139205771Y-118419523D01*
X139205771Y-118419523D02*
X139015295Y-118371904D01*
X139015295Y-118371904D02*
X138920057Y-118324285D01*
X138920057Y-118324285D02*
X138872438Y-118276666D01*
X138872438Y-118276666D02*
X138824819Y-118181428D01*
%TO.C,R29*%
X129357142Y-83804819D02*
X129023809Y-83328628D01*
X128785714Y-83804819D02*
X128785714Y-82804819D01*
X128785714Y-82804819D02*
X129166666Y-82804819D01*
X129166666Y-82804819D02*
X129261904Y-82852438D01*
X129261904Y-82852438D02*
X129309523Y-82900057D01*
X129309523Y-82900057D02*
X129357142Y-82995295D01*
X129357142Y-82995295D02*
X129357142Y-83138152D01*
X129357142Y-83138152D02*
X129309523Y-83233390D01*
X129309523Y-83233390D02*
X129261904Y-83281009D01*
X129261904Y-83281009D02*
X129166666Y-83328628D01*
X129166666Y-83328628D02*
X128785714Y-83328628D01*
X129738095Y-82900057D02*
X129785714Y-82852438D01*
X129785714Y-82852438D02*
X129880952Y-82804819D01*
X129880952Y-82804819D02*
X130119047Y-82804819D01*
X130119047Y-82804819D02*
X130214285Y-82852438D01*
X130214285Y-82852438D02*
X130261904Y-82900057D01*
X130261904Y-82900057D02*
X130309523Y-82995295D01*
X130309523Y-82995295D02*
X130309523Y-83090533D01*
X130309523Y-83090533D02*
X130261904Y-83233390D01*
X130261904Y-83233390D02*
X129690476Y-83804819D01*
X129690476Y-83804819D02*
X130309523Y-83804819D01*
X130785714Y-83804819D02*
X130976190Y-83804819D01*
X130976190Y-83804819D02*
X131071428Y-83757200D01*
X131071428Y-83757200D02*
X131119047Y-83709580D01*
X131119047Y-83709580D02*
X131214285Y-83566723D01*
X131214285Y-83566723D02*
X131261904Y-83376247D01*
X131261904Y-83376247D02*
X131261904Y-82995295D01*
X131261904Y-82995295D02*
X131214285Y-82900057D01*
X131214285Y-82900057D02*
X131166666Y-82852438D01*
X131166666Y-82852438D02*
X131071428Y-82804819D01*
X131071428Y-82804819D02*
X130880952Y-82804819D01*
X130880952Y-82804819D02*
X130785714Y-82852438D01*
X130785714Y-82852438D02*
X130738095Y-82900057D01*
X130738095Y-82900057D02*
X130690476Y-82995295D01*
X130690476Y-82995295D02*
X130690476Y-83233390D01*
X130690476Y-83233390D02*
X130738095Y-83328628D01*
X130738095Y-83328628D02*
X130785714Y-83376247D01*
X130785714Y-83376247D02*
X130880952Y-83423866D01*
X130880952Y-83423866D02*
X131071428Y-83423866D01*
X131071428Y-83423866D02*
X131166666Y-83376247D01*
X131166666Y-83376247D02*
X131214285Y-83328628D01*
X131214285Y-83328628D02*
X131261904Y-83233390D01*
%TO.C,R11*%
X132954819Y-124642857D02*
X132478628Y-124976190D01*
X132954819Y-125214285D02*
X131954819Y-125214285D01*
X131954819Y-125214285D02*
X131954819Y-124833333D01*
X131954819Y-124833333D02*
X132002438Y-124738095D01*
X132002438Y-124738095D02*
X132050057Y-124690476D01*
X132050057Y-124690476D02*
X132145295Y-124642857D01*
X132145295Y-124642857D02*
X132288152Y-124642857D01*
X132288152Y-124642857D02*
X132383390Y-124690476D01*
X132383390Y-124690476D02*
X132431009Y-124738095D01*
X132431009Y-124738095D02*
X132478628Y-124833333D01*
X132478628Y-124833333D02*
X132478628Y-125214285D01*
X132954819Y-123690476D02*
X132954819Y-124261904D01*
X132954819Y-123976190D02*
X131954819Y-123976190D01*
X131954819Y-123976190D02*
X132097676Y-124071428D01*
X132097676Y-124071428D02*
X132192914Y-124166666D01*
X132192914Y-124166666D02*
X132240533Y-124261904D01*
X132954819Y-122738095D02*
X132954819Y-123309523D01*
X132954819Y-123023809D02*
X131954819Y-123023809D01*
X131954819Y-123023809D02*
X132097676Y-123119047D01*
X132097676Y-123119047D02*
X132192914Y-123214285D01*
X132192914Y-123214285D02*
X132240533Y-123309523D01*
%TO.C,C2*%
X145679580Y-119166666D02*
X145727200Y-119214285D01*
X145727200Y-119214285D02*
X145774819Y-119357142D01*
X145774819Y-119357142D02*
X145774819Y-119452380D01*
X145774819Y-119452380D02*
X145727200Y-119595237D01*
X145727200Y-119595237D02*
X145631961Y-119690475D01*
X145631961Y-119690475D02*
X145536723Y-119738094D01*
X145536723Y-119738094D02*
X145346247Y-119785713D01*
X145346247Y-119785713D02*
X145203390Y-119785713D01*
X145203390Y-119785713D02*
X145012914Y-119738094D01*
X145012914Y-119738094D02*
X144917676Y-119690475D01*
X144917676Y-119690475D02*
X144822438Y-119595237D01*
X144822438Y-119595237D02*
X144774819Y-119452380D01*
X144774819Y-119452380D02*
X144774819Y-119357142D01*
X144774819Y-119357142D02*
X144822438Y-119214285D01*
X144822438Y-119214285D02*
X144870057Y-119166666D01*
X144870057Y-118785713D02*
X144822438Y-118738094D01*
X144822438Y-118738094D02*
X144774819Y-118642856D01*
X144774819Y-118642856D02*
X144774819Y-118404761D01*
X144774819Y-118404761D02*
X144822438Y-118309523D01*
X144822438Y-118309523D02*
X144870057Y-118261904D01*
X144870057Y-118261904D02*
X144965295Y-118214285D01*
X144965295Y-118214285D02*
X145060533Y-118214285D01*
X145060533Y-118214285D02*
X145203390Y-118261904D01*
X145203390Y-118261904D02*
X145774819Y-118833332D01*
X145774819Y-118833332D02*
X145774819Y-118214285D01*
%TO.C,R9*%
X151833333Y-124354819D02*
X151500000Y-123878628D01*
X151261905Y-124354819D02*
X151261905Y-123354819D01*
X151261905Y-123354819D02*
X151642857Y-123354819D01*
X151642857Y-123354819D02*
X151738095Y-123402438D01*
X151738095Y-123402438D02*
X151785714Y-123450057D01*
X151785714Y-123450057D02*
X151833333Y-123545295D01*
X151833333Y-123545295D02*
X151833333Y-123688152D01*
X151833333Y-123688152D02*
X151785714Y-123783390D01*
X151785714Y-123783390D02*
X151738095Y-123831009D01*
X151738095Y-123831009D02*
X151642857Y-123878628D01*
X151642857Y-123878628D02*
X151261905Y-123878628D01*
X152309524Y-124354819D02*
X152500000Y-124354819D01*
X152500000Y-124354819D02*
X152595238Y-124307200D01*
X152595238Y-124307200D02*
X152642857Y-124259580D01*
X152642857Y-124259580D02*
X152738095Y-124116723D01*
X152738095Y-124116723D02*
X152785714Y-123926247D01*
X152785714Y-123926247D02*
X152785714Y-123545295D01*
X152785714Y-123545295D02*
X152738095Y-123450057D01*
X152738095Y-123450057D02*
X152690476Y-123402438D01*
X152690476Y-123402438D02*
X152595238Y-123354819D01*
X152595238Y-123354819D02*
X152404762Y-123354819D01*
X152404762Y-123354819D02*
X152309524Y-123402438D01*
X152309524Y-123402438D02*
X152261905Y-123450057D01*
X152261905Y-123450057D02*
X152214286Y-123545295D01*
X152214286Y-123545295D02*
X152214286Y-123783390D01*
X152214286Y-123783390D02*
X152261905Y-123878628D01*
X152261905Y-123878628D02*
X152309524Y-123926247D01*
X152309524Y-123926247D02*
X152404762Y-123973866D01*
X152404762Y-123973866D02*
X152595238Y-123973866D01*
X152595238Y-123973866D02*
X152690476Y-123926247D01*
X152690476Y-123926247D02*
X152738095Y-123878628D01*
X152738095Y-123878628D02*
X152785714Y-123783390D01*
%TO.C,C12*%
X132179580Y-100430357D02*
X132227200Y-100477976D01*
X132227200Y-100477976D02*
X132274819Y-100620833D01*
X132274819Y-100620833D02*
X132274819Y-100716071D01*
X132274819Y-100716071D02*
X132227200Y-100858928D01*
X132227200Y-100858928D02*
X132131961Y-100954166D01*
X132131961Y-100954166D02*
X132036723Y-101001785D01*
X132036723Y-101001785D02*
X131846247Y-101049404D01*
X131846247Y-101049404D02*
X131703390Y-101049404D01*
X131703390Y-101049404D02*
X131512914Y-101001785D01*
X131512914Y-101001785D02*
X131417676Y-100954166D01*
X131417676Y-100954166D02*
X131322438Y-100858928D01*
X131322438Y-100858928D02*
X131274819Y-100716071D01*
X131274819Y-100716071D02*
X131274819Y-100620833D01*
X131274819Y-100620833D02*
X131322438Y-100477976D01*
X131322438Y-100477976D02*
X131370057Y-100430357D01*
X132274819Y-99477976D02*
X132274819Y-100049404D01*
X132274819Y-99763690D02*
X131274819Y-99763690D01*
X131274819Y-99763690D02*
X131417676Y-99858928D01*
X131417676Y-99858928D02*
X131512914Y-99954166D01*
X131512914Y-99954166D02*
X131560533Y-100049404D01*
X131370057Y-99097023D02*
X131322438Y-99049404D01*
X131322438Y-99049404D02*
X131274819Y-98954166D01*
X131274819Y-98954166D02*
X131274819Y-98716071D01*
X131274819Y-98716071D02*
X131322438Y-98620833D01*
X131322438Y-98620833D02*
X131370057Y-98573214D01*
X131370057Y-98573214D02*
X131465295Y-98525595D01*
X131465295Y-98525595D02*
X131560533Y-98525595D01*
X131560533Y-98525595D02*
X131703390Y-98573214D01*
X131703390Y-98573214D02*
X132274819Y-99144642D01*
X132274819Y-99144642D02*
X132274819Y-98525595D01*
D11*
%TO.C,R6*%
X153772936Y-104265000D02*
X154227064Y-104265000D01*
X153772936Y-105735000D02*
X154227064Y-105735000D01*
%TO.C,J5*%
X134680000Y-74870000D02*
X134680000Y-76200000D01*
X133350000Y-74870000D02*
X134680000Y-74870000D01*
X132080000Y-74870000D02*
X121860000Y-74870000D01*
X132080000Y-74870000D02*
X132080000Y-77530000D01*
X121860000Y-74870000D02*
X121860000Y-77530000D01*
X132080000Y-77530000D02*
X121860000Y-77530000D01*
%TO.C,D2*%
X129862500Y-79440000D02*
X128062500Y-79440000D01*
X129862500Y-79440000D02*
X130662500Y-79440000D01*
X129862500Y-82560000D02*
X129062500Y-82560000D01*
X129862500Y-82560000D02*
X130662500Y-82560000D01*
%TO.C,C18*%
X145261252Y-80735000D02*
X144738748Y-80735000D01*
X145261252Y-79265000D02*
X144738748Y-79265000D01*
%TO.C,R3*%
X140235000Y-128772936D02*
X140235000Y-129227064D01*
X138765000Y-128772936D02*
X138765000Y-129227064D01*
%TO.C,D5*%
X144500000Y-96060000D02*
X146300000Y-96060000D01*
X144500000Y-96060000D02*
X143700000Y-96060000D01*
X144500000Y-92940000D02*
X145300000Y-92940000D01*
X144500000Y-92940000D02*
X143700000Y-92940000D01*
%TO.C,R24*%
X116735000Y-95772936D02*
X116735000Y-96227064D01*
X115265000Y-95772936D02*
X115265000Y-96227064D01*
%TO.C,J11*%
X120650000Y-142240000D02*
X120650000Y-149860000D01*
X120650000Y-149860000D02*
X130810000Y-149860000D01*
X130810000Y-142240000D02*
X120650000Y-142240000D01*
X130810000Y-148590000D02*
X120650000Y-148590000D01*
X130810000Y-149860000D02*
X130810000Y-142240000D01*
%TO.C,J1*%
X135890000Y-142240000D02*
X135890000Y-149860000D01*
X135890000Y-149860000D02*
X146050000Y-149860000D01*
X146050000Y-142240000D02*
X135890000Y-142240000D01*
X146050000Y-148590000D02*
X135890000Y-148590000D01*
X146050000Y-149860000D02*
X146050000Y-142240000D01*
%TO.C,C9*%
X130201248Y-107265000D02*
X130723752Y-107265000D01*
X130201248Y-108735000D02*
X130723752Y-108735000D01*
%TO.C,R19*%
X134812936Y-90722500D02*
X135267064Y-90722500D01*
X134812936Y-92192500D02*
X135267064Y-92192500D01*
%TO.C,R20*%
X134812936Y-93672500D02*
X135267064Y-93672500D01*
X134812936Y-95142500D02*
X135267064Y-95142500D01*
%TO.C,D1*%
X124862500Y-79440000D02*
X123062500Y-79440000D01*
X124862500Y-79440000D02*
X125662500Y-79440000D01*
X124862500Y-82560000D02*
X124062500Y-82560000D01*
X124862500Y-82560000D02*
X125662500Y-82560000D01*
%TO.C,R18*%
X135267064Y-89072500D02*
X134812936Y-89072500D01*
X135267064Y-87602500D02*
X134812936Y-87602500D01*
%TO.C,U4*%
X118190000Y-136500000D02*
X118190000Y-138300000D01*
X118190000Y-136500000D02*
X118190000Y-135700000D01*
X121310000Y-136500000D02*
X121310000Y-137300000D01*
X121310000Y-136500000D02*
X121310000Y-135700000D01*
%TO.C,R27*%
X130227064Y-93735000D02*
X129772936Y-93735000D01*
X130227064Y-92265000D02*
X129772936Y-92265000D01*
%TO.C,C3*%
X149265000Y-119261252D02*
X149265000Y-118738748D01*
X150735000Y-119261252D02*
X150735000Y-118738748D01*
%TO.C,U2*%
X127065000Y-96845000D02*
X123615000Y-96845000D01*
X127065000Y-96845000D02*
X129015000Y-96845000D01*
X127065000Y-101965000D02*
X125115000Y-101965000D01*
X127065000Y-101965000D02*
X129015000Y-101965000D01*
%TO.C,R12*%
X130292936Y-114125000D02*
X130747064Y-114125000D01*
X130292936Y-115595000D02*
X130747064Y-115595000D01*
%TO.C,R4*%
X153772936Y-107265000D02*
X154227064Y-107265000D01*
X153772936Y-108735000D02*
X154227064Y-108735000D01*
%TO.C,C13*%
X117988748Y-113265000D02*
X118511252Y-113265000D01*
X117988748Y-114735000D02*
X118511252Y-114735000D01*
%TO.C,R26*%
X124772936Y-92265000D02*
X125227064Y-92265000D01*
X124772936Y-93735000D02*
X125227064Y-93735000D01*
%TO.C,R17*%
X134812936Y-84822500D02*
X135267064Y-84822500D01*
X134812936Y-86292500D02*
X135267064Y-86292500D01*
%TO.C,C10*%
X117988748Y-116015000D02*
X118511252Y-116015000D01*
X117988748Y-117485000D02*
X118511252Y-117485000D01*
%TO.C,R34*%
X129455000Y-118882936D02*
X129455000Y-119337064D01*
X127985000Y-118882936D02*
X127985000Y-119337064D01*
%TO.C,R32*%
X135355000Y-118882936D02*
X135355000Y-119337064D01*
X133885000Y-118882936D02*
X133885000Y-119337064D01*
%TO.C,C5*%
X137235000Y-128738748D02*
X137235000Y-129261252D01*
X135765000Y-128738748D02*
X135765000Y-129261252D01*
%TO.C,R8*%
X153772936Y-118265000D02*
X154227064Y-118265000D01*
X153772936Y-119735000D02*
X154227064Y-119735000D01*
%TO.C,R22*%
X119735000Y-95772936D02*
X119735000Y-96227064D01*
X118265000Y-95772936D02*
X118265000Y-96227064D01*
%TO.C,C1*%
X139526248Y-93515000D02*
X140048752Y-93515000D01*
X139526248Y-94985000D02*
X140048752Y-94985000D01*
%TO.C,R14*%
X130272936Y-110765000D02*
X130727064Y-110765000D01*
X130272936Y-112235000D02*
X130727064Y-112235000D01*
%TO.C,R13*%
X124272936Y-114015000D02*
X124727064Y-114015000D01*
X124272936Y-115485000D02*
X124727064Y-115485000D01*
%TO.C,Q2*%
X131560000Y-89062500D02*
X131560000Y-87387500D01*
X131560000Y-89062500D02*
X131560000Y-89712500D01*
X128440000Y-89062500D02*
X128440000Y-88412500D01*
X128440000Y-89062500D02*
X128440000Y-89712500D01*
%TO.C,C8*%
X141201248Y-84515000D02*
X141723752Y-84515000D01*
X141201248Y-85985000D02*
X141723752Y-85985000D01*
%TO.C,Q3*%
X114550000Y-127060000D02*
X114820000Y-127060000D01*
X114820000Y-127060000D02*
X114820000Y-129890000D01*
X121180000Y-127060000D02*
X121180000Y-128160000D01*
X121450000Y-127060000D02*
X121180000Y-127060000D01*
X114550000Y-120640000D02*
X114550000Y-127060000D01*
X121450000Y-120640000D02*
X121450000Y-127060000D01*
%TO.C,R15*%
X124272936Y-110765000D02*
X124727064Y-110765000D01*
X124272936Y-112235000D02*
X124727064Y-112235000D01*
%TO.C,C19*%
X123265000Y-136761252D02*
X123265000Y-136238748D01*
X124735000Y-136761252D02*
X124735000Y-136238748D01*
%TO.C,C14*%
X126475000Y-124491252D02*
X126475000Y-123968748D01*
X127945000Y-124491252D02*
X127945000Y-123968748D01*
%TO.C,C4*%
X148510000Y-122400000D02*
X148510000Y-123400000D01*
X149010000Y-122900000D02*
X148010000Y-122900000D01*
X149295563Y-123640000D02*
X147510000Y-123640000D01*
X149295563Y-123640000D02*
X150360000Y-124704437D01*
X142704437Y-123640000D02*
X144490000Y-123640000D01*
X142704437Y-123640000D02*
X141640000Y-124704437D01*
X150360000Y-124704437D02*
X150360000Y-132360000D01*
X141640000Y-124704437D02*
X141640000Y-132360000D01*
X150360000Y-132360000D02*
X147510000Y-132360000D01*
X141640000Y-132360000D02*
X144490000Y-132360000D01*
%TO.C,C6*%
X124451248Y-107265000D02*
X124973752Y-107265000D01*
X124451248Y-108735000D02*
X124973752Y-108735000D01*
%TO.C,R2*%
X137235000Y-103022936D02*
X137235000Y-103477064D01*
X135765000Y-103022936D02*
X135765000Y-103477064D01*
%TO.C,R5*%
X137765000Y-124477064D02*
X137765000Y-124022936D01*
X139235000Y-124477064D02*
X139235000Y-124022936D01*
%TO.C,J2*%
X152670000Y-110670000D02*
X154000000Y-110670000D01*
X152670000Y-112000000D02*
X152670000Y-110670000D01*
X152670000Y-113270000D02*
X152670000Y-115870000D01*
X152670000Y-113270000D02*
X155330000Y-113270000D01*
X152670000Y-115870000D02*
X155330000Y-115870000D01*
X155330000Y-113270000D02*
X155330000Y-115870000D01*
%TO.C,R23*%
X116785000Y-91272936D02*
X116785000Y-91727064D01*
X115315000Y-91272936D02*
X115315000Y-91727064D01*
%TO.C,Q1*%
X126560000Y-89062500D02*
X126560000Y-87387500D01*
X126560000Y-89062500D02*
X126560000Y-89712500D01*
X123440000Y-89062500D02*
X123440000Y-88412500D01*
X123440000Y-89062500D02*
X123440000Y-89712500D01*
%TO.C,J3*%
X152670000Y-125130000D02*
X154000000Y-125130000D01*
X152670000Y-126460000D02*
X152670000Y-125130000D01*
X152670000Y-127730000D02*
X152670000Y-130330000D01*
X152670000Y-127730000D02*
X155330000Y-127730000D01*
X152670000Y-130330000D02*
X155330000Y-130330000D01*
X155330000Y-127730000D02*
X155330000Y-130330000D01*
%TO.C,C16*%
X116988748Y-140265000D02*
X117511252Y-140265000D01*
X116988748Y-141735000D02*
X117511252Y-141735000D01*
%TO.C,R33*%
X132405000Y-118882936D02*
X132405000Y-119337064D01*
X130935000Y-118882936D02*
X130935000Y-119337064D01*
%TO.C,J4*%
X113330000Y-118870000D02*
X112000000Y-118870000D01*
X113330000Y-117540000D02*
X113330000Y-118870000D01*
X113330000Y-116270000D02*
X113330000Y-113670000D01*
X113330000Y-116270000D02*
X110670000Y-116270000D01*
X113330000Y-113670000D02*
X110670000Y-113670000D01*
X110670000Y-116270000D02*
X110670000Y-113670000D01*
%TO.C,R28*%
X124860436Y-84265000D02*
X125314564Y-84265000D01*
X124860436Y-85735000D02*
X125314564Y-85735000D01*
%TO.C,D3*%
X119862500Y-79440000D02*
X118062500Y-79440000D01*
X119862500Y-79440000D02*
X120662500Y-79440000D01*
X119862500Y-82560000D02*
X119062500Y-82560000D01*
X119862500Y-82560000D02*
X120662500Y-82560000D01*
%TO.C,J10*%
X147380000Y-74870000D02*
X147380000Y-76200000D01*
X146050000Y-74870000D02*
X147380000Y-74870000D01*
X144780000Y-74870000D02*
X142180000Y-74870000D01*
X144780000Y-74870000D02*
X144780000Y-77530000D01*
X142180000Y-74870000D02*
X142180000Y-77530000D01*
X144780000Y-77530000D02*
X142180000Y-77530000D01*
%TO.C,R7*%
X141735000Y-117272936D02*
X141735000Y-117727064D01*
X140265000Y-117272936D02*
X140265000Y-117727064D01*
%TO.C,C7*%
X146511252Y-85985000D02*
X145988748Y-85985000D01*
X146511252Y-84515000D02*
X145988748Y-84515000D01*
%TO.C,D4*%
X116250000Y-134140000D02*
X114250000Y-134140000D01*
X116250000Y-134140000D02*
X116250000Y-138150000D01*
X114250000Y-134140000D02*
X114250000Y-138150000D01*
%TO.C,R31*%
X135735000Y-80772936D02*
X135735000Y-81227064D01*
X134265000Y-80772936D02*
X134265000Y-81227064D01*
%TO.C,R30*%
X119860436Y-84265000D02*
X120314564Y-84265000D01*
X119860436Y-85735000D02*
X120314564Y-85735000D01*
%TO.C,D6*%
X121887500Y-133810000D02*
X123687500Y-133810000D01*
X121887500Y-133810000D02*
X121087500Y-133810000D01*
X121887500Y-130690000D02*
X122687500Y-130690000D01*
X121887500Y-130690000D02*
X121087500Y-130690000D01*
%TO.C,C20*%
X127238748Y-136765000D02*
X127761252Y-136765000D01*
X127238748Y-138235000D02*
X127761252Y-138235000D01*
%TO.C,C15*%
X114490000Y-111600000D02*
X114490000Y-110600000D01*
X113990000Y-111100000D02*
X114990000Y-111100000D01*
X113704437Y-110360000D02*
X115490000Y-110360000D01*
X113704437Y-110360000D02*
X112640000Y-109295563D01*
X120295563Y-110360000D02*
X118510000Y-110360000D01*
X120295563Y-110360000D02*
X121360000Y-109295563D01*
X112640000Y-109295563D02*
X112640000Y-101640000D01*
X121360000Y-109295563D02*
X121360000Y-101640000D01*
X112640000Y-101640000D02*
X115490000Y-101640000D01*
X121360000Y-101640000D02*
X118510000Y-101640000D01*
%TO.C,U1*%
X139800000Y-108950000D02*
X140490000Y-108950000D01*
X140490000Y-108950000D02*
X140490000Y-114075000D01*
X149510000Y-108950000D02*
X149510000Y-110050000D01*
X150200000Y-108950000D02*
X149510000Y-108950000D01*
X139800000Y-107450000D02*
X139800000Y-108950000D01*
X150200000Y-107450000D02*
X150200000Y-108950000D01*
%TO.C,R25*%
X115227064Y-132985000D02*
X114772936Y-132985000D01*
X115227064Y-131515000D02*
X114772936Y-131515000D01*
%TO.C,R1*%
X141772936Y-135265000D02*
X142227064Y-135265000D01*
X141772936Y-136735000D02*
X142227064Y-136735000D01*
D10*
%TO.C,U3*%
X142065000Y-88162500D02*
X142065000Y-88387500D01*
X142065000Y-88162500D02*
X145415000Y-88162500D01*
X142065000Y-88387500D02*
X140840000Y-88387500D01*
X142065000Y-91512500D02*
X142065000Y-91212500D01*
X142065000Y-91512500D02*
X145415000Y-91512500D01*
X145415000Y-88162500D02*
X145415000Y-88462500D01*
X145415000Y-91512500D02*
X145415000Y-91212500D01*
D11*
%TO.C,R21*%
X119685000Y-91272936D02*
X119685000Y-91727064D01*
X118215000Y-91272936D02*
X118215000Y-91727064D01*
%TO.C,C17*%
X137515000Y-79211252D02*
X137515000Y-78688748D01*
X138985000Y-79211252D02*
X138985000Y-78688748D01*
%TO.C,C11*%
X127798752Y-105485000D02*
X127276248Y-105485000D01*
X127798752Y-104015000D02*
X127276248Y-104015000D01*
%TO.C,R10*%
X138455000Y-118882936D02*
X138455000Y-119337064D01*
X136985000Y-118882936D02*
X136985000Y-119337064D01*
%TO.C,R29*%
X129772936Y-84265000D02*
X130227064Y-84265000D01*
X129772936Y-85735000D02*
X130227064Y-85735000D01*
%TO.C,R11*%
X134955000Y-123882936D02*
X134955000Y-124337064D01*
X133485000Y-123882936D02*
X133485000Y-124337064D01*
%TO.C,C2*%
X146265000Y-119261252D02*
X146265000Y-118738748D01*
X147735000Y-119261252D02*
X147735000Y-118738748D01*
%TO.C,R9*%
X152227064Y-122985000D02*
X151772936Y-122985000D01*
X152227064Y-121515000D02*
X151772936Y-121515000D01*
%TO.C,C12*%
X132765000Y-100048752D02*
X132765000Y-99526248D01*
X134235000Y-100048752D02*
X134235000Y-99526248D01*
%TD*%
M02*
