%TF.GenerationSoftware,KiCad,Pcbnew,7.0.5*%
%TF.CreationDate,2023-11-28T19:27:54-08:00*%
%TF.ProjectId,LT3081LEDDummyDriver,4c543330-3831-44c4-9544-44756d6d7944,rev?*%
%TF.SameCoordinates,Original*%
%TF.FileFunction,Soldermask,Top*%
%TF.FilePolarity,Negative*%
%FSLAX46Y46*%
G04 Gerber Fmt 4.6, Leading zero omitted, Abs format (unit mm)*
G04 Created by KiCad (PCBNEW 7.0.5) date 2023-11-28 19:27:54*
%MOMM*%
%LPD*%
G01*
G04 APERTURE LIST*
G04 Aperture macros list*
%AMRoundRect*
0 Rectangle with rounded corners*
0 $1 Rounding radius*
0 $2 $3 $4 $5 $6 $7 $8 $9 X,Y pos of 4 corners*
0 Add a 4 corners polygon primitive as box body*
4,1,4,$2,$3,$4,$5,$6,$7,$8,$9,$2,$3,0*
0 Add four circle primitives for the rounded corners*
1,1,$1+$1,$2,$3*
1,1,$1+$1,$4,$5*
1,1,$1+$1,$6,$7*
1,1,$1+$1,$8,$9*
0 Add four rect primitives between the rounded corners*
20,1,$1+$1,$2,$3,$4,$5,0*
20,1,$1+$1,$4,$5,$6,$7,0*
20,1,$1+$1,$6,$7,$8,$9,0*
20,1,$1+$1,$8,$9,$2,$3,0*%
G04 Aperture macros list end*
%ADD10RoundRect,0.250000X1.950000X1.000000X-1.950000X1.000000X-1.950000X-1.000000X1.950000X-1.000000X0*%
%ADD11RoundRect,0.250000X0.450000X-0.350000X0.450000X0.350000X-0.450000X0.350000X-0.450000X-0.350000X0*%
%ADD12RoundRect,0.250000X-0.350000X-0.450000X0.350000X-0.450000X0.350000X0.450000X-0.350000X0.450000X0*%
%ADD13R,1.700000X1.700000*%
%ADD14O,1.700000X1.700000*%
%ADD15RoundRect,0.150000X-0.512500X-0.150000X0.512500X-0.150000X0.512500X0.150000X-0.512500X0.150000X0*%
%ADD16RoundRect,0.250000X0.337500X0.475000X-0.337500X0.475000X-0.337500X-0.475000X0.337500X-0.475000X0*%
%ADD17RoundRect,0.150000X-0.825000X-0.150000X0.825000X-0.150000X0.825000X0.150000X-0.825000X0.150000X0*%
%ADD18RoundRect,0.250000X0.350000X0.450000X-0.350000X0.450000X-0.350000X-0.450000X0.350000X-0.450000X0*%
%ADD19RoundRect,0.250000X-2.050000X-0.300000X2.050000X-0.300000X2.050000X0.300000X-2.050000X0.300000X0*%
%ADD20RoundRect,0.250002X-4.449998X-5.149998X4.449998X-5.149998X4.449998X5.149998X-4.449998X5.149998X0*%
%ADD21RoundRect,0.150000X-0.150000X0.512500X-0.150000X-0.512500X0.150000X-0.512500X0.150000X0.512500X0*%
%ADD22RoundRect,0.250000X-0.450000X0.350000X-0.450000X-0.350000X0.450000X-0.350000X0.450000X0.350000X0*%
%ADD23R,3.000000X3.000000*%
%ADD24C,3.000000*%
%ADD25RoundRect,0.250000X-0.475000X0.337500X-0.475000X-0.337500X0.475000X-0.337500X0.475000X0.337500X0*%
%ADD26R,2.000000X2.000000*%
%ADD27O,2.000000X2.000000*%
%ADD28RoundRect,0.250000X0.262500X0.450000X-0.262500X0.450000X-0.262500X-0.450000X0.262500X-0.450000X0*%
%ADD29RoundRect,0.250000X0.475000X-0.337500X0.475000X0.337500X-0.475000X0.337500X-0.475000X-0.337500X0*%
%ADD30RoundRect,0.250000X1.000000X0.650000X-1.000000X0.650000X-1.000000X-0.650000X1.000000X-0.650000X0*%
%ADD31RoundRect,0.250000X-0.262500X-0.450000X0.262500X-0.450000X0.262500X0.450000X-0.262500X0.450000X0*%
%ADD32RoundRect,0.250000X-0.337500X-0.475000X0.337500X-0.475000X0.337500X0.475000X-0.337500X0.475000X0*%
%ADD33RoundRect,0.150000X-0.150000X0.587500X-0.150000X-0.587500X0.150000X-0.587500X0.150000X0.587500X0*%
%ADD34C,5.600000*%
%ADD35RoundRect,0.150000X0.150000X-0.512500X0.150000X0.512500X-0.150000X0.512500X-0.150000X-0.512500X0*%
%ADD36RoundRect,0.150000X0.512500X0.150000X-0.512500X0.150000X-0.512500X-0.150000X0.512500X-0.150000X0*%
%ADD37RoundRect,0.250000X-0.450000X0.262500X-0.450000X-0.262500X0.450000X-0.262500X0.450000X0.262500X0*%
%ADD38RoundRect,0.200000X-2.100000X-0.200000X2.100000X-0.200000X2.100000X0.200000X-2.100000X0.200000X0*%
%ADD39R,1.400000X0.300000*%
%ADD40RoundRect,0.250000X0.475000X-0.250000X0.475000X0.250000X-0.475000X0.250000X-0.475000X-0.250000X0*%
G04 APERTURE END LIST*
D10*
%TO.C,C15*%
X116100000Y-111450000D03*
X108700000Y-111450000D03*
%TD*%
D11*
%TO.C,R6*%
X117862500Y-96350000D03*
X117862500Y-94350000D03*
%TD*%
D12*
%TO.C,R44*%
X132000000Y-107500000D03*
X134000000Y-107500000D03*
%TD*%
D13*
%TO.C,J5*%
X131712500Y-39050000D03*
D14*
X129172500Y-39050000D03*
X126632500Y-39050000D03*
X124092500Y-39050000D03*
X121552500Y-39050000D03*
%TD*%
D15*
%TO.C,D2*%
X127087500Y-42900000D03*
X127087500Y-44800000D03*
X129362500Y-43850000D03*
%TD*%
D16*
%TO.C,C18*%
X144400000Y-42850000D03*
X142325000Y-42850000D03*
%TD*%
D17*
%TO.C,U4*%
X122887500Y-102445000D03*
X122887500Y-103715000D03*
X122887500Y-104985000D03*
X122887500Y-106255000D03*
X127837500Y-106255000D03*
X127837500Y-104985000D03*
X127837500Y-103715000D03*
X127837500Y-102445000D03*
%TD*%
D18*
%TO.C,R42*%
X128362500Y-97250000D03*
X126362500Y-97250000D03*
%TD*%
D11*
%TO.C,R3*%
X124112500Y-71100000D03*
X124112500Y-69100000D03*
%TD*%
D19*
%TO.C,Q3*%
X139287500Y-91535000D03*
X139287500Y-94075000D03*
D20*
X148437500Y-94075000D03*
D19*
X139287500Y-96615000D03*
%TD*%
D21*
%TO.C,D5*%
X149812500Y-48575000D03*
X147912500Y-48575000D03*
X148862500Y-50850000D03*
%TD*%
D12*
%TO.C,R38*%
X131862500Y-91850000D03*
X133862500Y-91850000D03*
%TD*%
D22*
%TO.C,R25*%
X128400000Y-119000000D03*
X128400000Y-121000000D03*
%TD*%
%TO.C,R24*%
X111362500Y-57850000D03*
X111362500Y-59850000D03*
%TD*%
D23*
%TO.C,J1*%
X111862500Y-66310000D03*
D24*
X111862500Y-71390000D03*
%TD*%
D25*
%TO.C,C9*%
X134862500Y-60850000D03*
X134862500Y-62925000D03*
%TD*%
D12*
%TO.C,R19*%
X132402500Y-54307500D03*
X134402500Y-54307500D03*
%TD*%
%TO.C,R20*%
X132402500Y-57257500D03*
X134402500Y-57257500D03*
%TD*%
D26*
%TO.C,D6*%
X111650000Y-104550000D03*
D27*
X116730000Y-104550000D03*
%TD*%
D23*
%TO.C,J11*%
X150362500Y-81930000D03*
D24*
X150362500Y-76850000D03*
%TD*%
D18*
%TO.C,R41*%
X115500000Y-98050000D03*
X113500000Y-98050000D03*
%TD*%
D15*
%TO.C,D1*%
X122087500Y-42900000D03*
X122087500Y-44800000D03*
X124362500Y-43850000D03*
%TD*%
D18*
%TO.C,R18*%
X134402500Y-51187500D03*
X132402500Y-51187500D03*
%TD*%
D28*
%TO.C,R27*%
X129275000Y-55850000D03*
X127450000Y-55850000D03*
%TD*%
D29*
%TO.C,C3*%
X122862500Y-86850000D03*
X122862500Y-84775000D03*
%TD*%
D30*
%TO.C,D11*%
X142862500Y-120850000D03*
X138862500Y-120850000D03*
%TD*%
D17*
%TO.C,U2*%
X117952500Y-60350000D03*
X117952500Y-61620000D03*
X117952500Y-62890000D03*
X117952500Y-64160000D03*
X122902500Y-64160000D03*
X122902500Y-62890000D03*
X122902500Y-61620000D03*
X122902500Y-60350000D03*
%TD*%
D11*
%TO.C,R12*%
X141722500Y-62830000D03*
X141722500Y-60830000D03*
%TD*%
D22*
%TO.C,R4*%
X121000000Y-94350000D03*
X121000000Y-96350000D03*
%TD*%
%TO.C,R36*%
X122500000Y-119000000D03*
X122500000Y-121000000D03*
%TD*%
D31*
%TO.C,R26*%
X122450000Y-55850000D03*
X124275000Y-55850000D03*
%TD*%
D30*
%TO.C,D10*%
X142362500Y-102850000D03*
X138362500Y-102850000D03*
%TD*%
D12*
%TO.C,R17*%
X132402500Y-48407500D03*
X134402500Y-48407500D03*
%TD*%
%TO.C,R34*%
X145362500Y-60950000D03*
X147362500Y-60950000D03*
%TD*%
%TO.C,R32*%
X145362500Y-66850000D03*
X147362500Y-66850000D03*
%TD*%
D19*
%TO.C,Q4*%
X139287500Y-109035000D03*
X139287500Y-111575000D03*
D20*
X148437500Y-111575000D03*
D19*
X139287500Y-114115000D03*
%TD*%
D29*
%TO.C,C5*%
X127362500Y-71100000D03*
X127362500Y-69025000D03*
%TD*%
D11*
%TO.C,R8*%
X121000000Y-91600000D03*
X121000000Y-89600000D03*
%TD*%
D22*
%TO.C,R22*%
X114362500Y-57850000D03*
X114362500Y-59850000D03*
%TD*%
D32*
%TO.C,C1*%
X147825000Y-54350000D03*
X149900000Y-54350000D03*
%TD*%
D22*
%TO.C,R14*%
X138362500Y-60850000D03*
X138362500Y-62850000D03*
%TD*%
%TO.C,R13*%
X141612500Y-65350000D03*
X141612500Y-67350000D03*
%TD*%
D33*
%TO.C,Q2*%
X129312500Y-50975000D03*
X127412500Y-50975000D03*
X128362500Y-52850000D03*
%TD*%
D34*
%TO.C,J6*%
X112662500Y-39050000D03*
%TD*%
D25*
%TO.C,C8*%
X142362500Y-56100000D03*
X142362500Y-58175000D03*
%TD*%
D22*
%TO.C,R15*%
X138362500Y-65350000D03*
X138362500Y-67350000D03*
%TD*%
D12*
%TO.C,R40*%
X120500000Y-111000000D03*
X122500000Y-111000000D03*
%TD*%
D35*
%TO.C,D8*%
X132362500Y-97350000D03*
X134262500Y-97350000D03*
X133312500Y-95075000D03*
%TD*%
D10*
%TO.C,C4*%
X117362500Y-80850000D03*
X109962500Y-80850000D03*
%TD*%
D25*
%TO.C,C6*%
X135112500Y-65312500D03*
X135112500Y-67387500D03*
%TD*%
D22*
%TO.C,R2*%
X130612500Y-69100000D03*
X130612500Y-71100000D03*
%TD*%
D11*
%TO.C,R5*%
X138362500Y-71850000D03*
X138362500Y-69850000D03*
%TD*%
D13*
%TO.C,J2*%
X113862500Y-95350000D03*
D14*
X111322500Y-95350000D03*
%TD*%
D22*
%TO.C,R23*%
X111412500Y-53350000D03*
X111412500Y-55350000D03*
%TD*%
D33*
%TO.C,Q1*%
X124312500Y-50975000D03*
X122412500Y-50975000D03*
X123362500Y-52850000D03*
%TD*%
D13*
%TO.C,J3*%
X114000000Y-90500000D03*
D14*
X111460000Y-90500000D03*
%TD*%
D12*
%TO.C,R45*%
X131862500Y-88350000D03*
X133862500Y-88350000D03*
%TD*%
%TO.C,R33*%
X145362500Y-63900000D03*
X147362500Y-63900000D03*
%TD*%
D13*
%TO.C,J4*%
X153862500Y-65350000D03*
D14*
X151322500Y-65350000D03*
%TD*%
D31*
%TO.C,R28*%
X122537500Y-47850000D03*
X124362500Y-47850000D03*
%TD*%
D12*
%TO.C,R46*%
X127000000Y-115000000D03*
X129000000Y-115000000D03*
%TD*%
D34*
%TO.C,J9*%
X112662500Y-121600000D03*
%TD*%
D29*
%TO.C,C14*%
X126000000Y-89037500D03*
X126000000Y-86962500D03*
%TD*%
D18*
%TO.C,R43*%
X128200000Y-99900000D03*
X126200000Y-99900000D03*
%TD*%
D15*
%TO.C,D3*%
X113087500Y-45400000D03*
X113087500Y-47300000D03*
X115362500Y-46350000D03*
%TD*%
D13*
%TO.C,J10*%
X144412500Y-39050000D03*
D14*
X141872500Y-39050000D03*
%TD*%
D32*
%TO.C,C10*%
X131325000Y-103850000D03*
X133400000Y-103850000D03*
%TD*%
D36*
%TO.C,D9*%
X134775000Y-117450000D03*
X134775000Y-115550000D03*
X132500000Y-116500000D03*
%TD*%
D22*
%TO.C,R7*%
X121500000Y-74850000D03*
X121500000Y-76850000D03*
%TD*%
D16*
%TO.C,C7*%
X139150000Y-56600000D03*
X137075000Y-56600000D03*
%TD*%
D30*
%TO.C,D7*%
X123500000Y-115000000D03*
X119500000Y-115000000D03*
%TD*%
D37*
%TO.C,R31*%
X133362500Y-42937500D03*
X133362500Y-44762500D03*
%TD*%
D28*
%TO.C,R30*%
X119362500Y-48350000D03*
X117537500Y-48350000D03*
%TD*%
D34*
%TO.C,J8*%
X150762500Y-121600000D03*
%TD*%
D29*
%TO.C,C13*%
X141362500Y-71887500D03*
X141362500Y-69812500D03*
%TD*%
D35*
%TO.C,D4*%
X121662500Y-81875000D03*
X123562500Y-81875000D03*
X122612500Y-79600000D03*
%TD*%
D38*
%TO.C,U1*%
X129712500Y-76040000D03*
X129712500Y-77310000D03*
X129712500Y-78580000D03*
X129712500Y-79850000D03*
X129712500Y-81120000D03*
X129712500Y-82390000D03*
X129712500Y-83660000D03*
D20*
X138862500Y-79850000D03*
%TD*%
D22*
%TO.C,R1*%
X119362500Y-69850000D03*
X119362500Y-71850000D03*
%TD*%
D39*
%TO.C,U3*%
X144302500Y-53687500D03*
X144302500Y-53187500D03*
X144302500Y-52687500D03*
X144302500Y-52187500D03*
X144302500Y-51687500D03*
X139902500Y-51687500D03*
X139902500Y-52187500D03*
X139902500Y-52687500D03*
X139902500Y-53187500D03*
X139902500Y-53687500D03*
%TD*%
D22*
%TO.C,R21*%
X114312500Y-53350000D03*
X114312500Y-55350000D03*
%TD*%
D40*
%TO.C,C17*%
X136612500Y-42750000D03*
X136612500Y-40850000D03*
%TD*%
D25*
%TO.C,C11*%
X131362500Y-60812500D03*
X131362500Y-62887500D03*
%TD*%
D34*
%TO.C,J7*%
X150762500Y-39050000D03*
%TD*%
D37*
%TO.C,R16*%
X118362500Y-42937500D03*
X118362500Y-44762500D03*
%TD*%
D12*
%TO.C,R10*%
X145362500Y-69950000D03*
X147362500Y-69950000D03*
%TD*%
D22*
%TO.C,R37*%
X119550000Y-119000000D03*
X119550000Y-121000000D03*
%TD*%
D31*
%TO.C,R29*%
X127450000Y-47850000D03*
X129275000Y-47850000D03*
%TD*%
D22*
%TO.C,R35*%
X125450000Y-119000000D03*
X125450000Y-121000000D03*
%TD*%
D18*
%TO.C,R11*%
X147362500Y-57850000D03*
X145362500Y-57850000D03*
%TD*%
D29*
%TO.C,C2*%
X119862500Y-86850000D03*
X119862500Y-84775000D03*
%TD*%
D32*
%TO.C,C16*%
X150325000Y-69850000D03*
X152400000Y-69850000D03*
%TD*%
D22*
%TO.C,R9*%
X117900000Y-89400000D03*
X117900000Y-91400000D03*
%TD*%
D12*
%TO.C,R39*%
X132000000Y-111000000D03*
X134000000Y-111000000D03*
%TD*%
D29*
%TO.C,C12*%
X126362500Y-65887500D03*
X126362500Y-63812500D03*
%TD*%
M02*
